<?xml version="1.0" encoding="utf-8"?>
<!-- Generator: Adobe Illustrator 24.2.1, SVG Export Plug-In . SVG Version: 6.00 Build 0)  -->
<svg version="1.1" id="Layer_1" xmlns="http://www.w3.org/2000/svg" xmlns:xlink="http://www.w3.org/1999/xlink" x="0px" y="0px"
	 viewBox="0 0 100 102.1" style="enable-background:new 0 0 100 102.1;" xml:space="preserve">
<style type="text/css">
	.st0{stroke:#FFFFFF;stroke-width:0.5;stroke-miterlimit:10;}
</style>
<g>
	<g>
		<path class="st0" d="M50,60.8c-0.2,0-0.4,0-0.5-0.2l-40-25C9.2,35.5,9,35.2,9,34.9s0.2-0.7,0.5-0.8l40-25c0.3-0.2,0.7-0.2,1.1,0
			l40,25c0.3,0.2,0.5,0.5,0.5,0.8s-0.2,0.7-0.5,0.8l-40,25C50.4,60.8,50.2,60.8,50,60.8z M11.9,34.9L50,58.7l38.1-23.8L50,11.1
			L11.9,34.9z"/>
	</g>
	<g>
		<path class="st0" d="M50,91c-0.2,0-0.4-0.1-0.5-0.2l-40-25C9.2,65.7,9,65.4,9,65s0.2-0.7,0.5-0.8l40-25c0.3-0.2,0.7-0.2,1.1,0
			l40,25c0.3,0.2,0.5,0.5,0.5,0.8s-0.2,0.7-0.5,0.8l-40,25C50.4,90.9,50.2,91,50,91z M11.9,65L50,88.8L88.1,65L50,41.2L11.9,65z"/>
	</g>
	<g>
		<path class="st0" d="M10,66c-0.6,0-1-0.4-1-1V34.9c0-0.5,0.4-1,1-1s1,0.5,1,1V65C11,65.6,10.6,66,10,66z"/>
	</g>
	<g>
		<path class="st0" d="M50,91c-0.5,0-1-0.4-1-1V59.8c0-0.5,0.5-1,1-1s1,0.5,1,1V90C51,90.6,50.5,91,50,91z"/>
	</g>
	<g>
		<path class="st0" d="M90,66c-0.6,0-1-0.4-1-1V34.9c0-0.5,0.4-1,1-1s1,0.5,1,1V65C91,65.6,90.6,66,90,66z"/>
	</g>
	<g>
		<path class="st0" d="M50,41.1c-0.5,0-1-0.5-1-1V9.9c0-0.6,0.5-1,1-1s1,0.4,1,1v30.2C51,40.6,50.5,41.1,50,41.1z"/>
	</g>
</g>
</svg>
