<?xml version="1.0" encoding="utf-8"?>
<!-- Generator: Adobe Illustrator 24.3.0, SVG Export Plug-In . SVG Version: 6.00 Build 0)  -->
<svg version="1.1" id="Layer_1" xmlns="http://www.w3.org/2000/svg" xmlns:xlink="http://www.w3.org/1999/xlink" x="0px" y="0px"
	 viewBox="0 0 800 800" style="enable-background:new 0 0 800 800;" xml:space="preserve">
<style type="text/css">
	.st0{fill:#48736C;}
	.st1{fill:#7B4040;}
	.st2{fill:#253857;}
	.st3{fill:#FF9A26;}
	.st4{fill:none;stroke:#FFFFFF;stroke-width:3;stroke-miterlimit:10;}
</style>
<g id="XMLID_1_">
	<g>
		<path class="st0" d="M142,404.4c-0.1,1.3,2,3,1.6,3.9c-1.1,2.3-1.5,4.4-0.4,6.8c0.1,0.2-0.2,0.8-0.3,0.9c-0.5,0-0.9,0.1-1.3,0.3
			c-0.6,0.2-1.1,0.6-1.5,1c-0.8,0.8-1.4,1.8-2.1,2.7c-0.2,0.2-0.4,0.5-0.6,0.7c-0.6,0.6-1.2,1-2.1,1.3c-1.7,0.4-3.4,0.7-5,0.9
			c-1.7,0.2-3.4,0.2-5.1,0.1c-1.2-3.2-3.9-5.8-3.9-9.5c0-1-0.8-1.6-1.3-2.3c-1.3-1.9,0.2-11.9,2.3-12.6c4.3-1.4,5.3-4.2,5.3-8.3
			c0-2.2,1.4-3.7,4-2.2v0c1,2,1,4,0.4,6c-0.6,1.7-0.2,2.9,0.8,3.7c0.4,0.3,0.9,0.6,1.5,0.9c0.4,0.2,0.9,0.4,1.3,0.5
			c0.3,0.1,0.6,0.2,0.9,0.3c0.3,0.1,0.5,0.2,0.8,0.2c0.2,0.1,0.4,0.1,0.6,0.2c1.4,0.4,2.7,0.9,3.6,1.9
			C141.8,402.2,142.1,403.1,142,404.4z"/>
		<path class="st1" d="M283.3,355.2c0,3.5,0.1,7.1,0,10.6c-0.1,3.4-2.2,5.4-5.6,5.4c-3.4,0-6.8,0-10.3,0h0c0,0,0,0,0,0
			c-1.5,0-3.1-0.1-4.3-0.8c-0.6-0.3-1.1-0.9-1.6-1.6c-0.1-0.1-0.2-0.3-0.2-0.5v0c0-0.9-0.2-1.8-0.5-2.6c-0.4-1.1-1.1-2.1-1.7-3.2
			c-0.4-0.6-0.8-1.1-1.1-1.7c2.1-1.3,4.4-2.3,6.8-3h0c1,0.6,1.9,1,2.9,1.4c0.3,0.1,0.6,0.2,1,0.3c0.6,0.2,1.3,0.3,1.9,0.4
			c2.2,0.3,4.3,0.1,6.1-0.6c0.5-0.2,1-0.5,1.5-0.8s0.9-0.6,1.3-1c0.6-0.5,1.2-1.2,1.7-1.9c0.6-1,1.1-2,1.4-3.3c0,0,0,0,0,0
			c0.3,0.2,0.5,0.4,0.7,0.6C283.4,353.7,283.3,354.5,283.3,355.2z"/>
		<path class="st1" d="M281.6,317.7c0.9,1.4,1.7,2.7,1.8,4.4c-0.3,1.2,0.4,2.6-0.8,3.6c-3.4-1.3-6.8-1.6-10.2-1
			c-0.9,0.2-1.7,0.4-2.6,0.7c-0.3,0.1-0.6,0.2-0.9,0.3c-1.8-0.1-3.3,0.3-4.2,2.1c-0.4,0-0.7,0.3-0.7,0.7c-0.3,0.1-0.4,0.2-0.6,0.3
			c-0.1,0.1-0.1,0.2-0.2,0.3c0,0.1-0.1,0.3-0.1,0.4c0,0.1,0,0.2,0,0.2l0,0c-0.2,0.2-0.3,0.4-0.5,0.6c-0.5,0.7-1,1.4-1.5,2.1
			c-0.8-5.7-1.4-11.4,2.4-16.4c0.6-0.8,1.2-1.7,1.2-2.8h0v0c1.5-5.9,1.7-12,2.7-17.9c0.3-1.7,0.7-3.4,0.6-5.1c0-2.6,1.2-3.1,3.6-3.3
			c1.3-0.1,2.3,0,3,0.4c0.4,0.2,0.7,0.6,1,1c0.4,0.7,0.7,1.8,0.8,3c1,7.4,1.5,14.8,3.2,22c0,0,0,0,0,0v0v0c0.1,0.8,0.3,1.6,0.7,2.3
			c0.2,0.4,0.4,0.7,0.6,1v0C281.2,317,281.4,317.4,281.6,317.7z"/>
		<path class="st1" d="M202,555.3c0,1-0.1,1.9-0.1,2.8c-2.4,8.3-5.1,16.6-8.5,24.6c-7.4,17.8-11.4,36.4-13.5,55.4
			c-5.5,0-11-0.1-16.5-0.1c1-11,1.4-22.1,2.1-33.1c0.1-2.2,0.3-4.3,0.5-6.5c0.4-4.3,0.9-8.6,1.4-12.9c0.2-2.2,0.5-4.3,0.7-6.4
			c0.1-1,0-2-0.1-2.9c0-0.1,0-0.1,0-0.2c-0.1-0.7-0.3-1.3-0.5-2h0v0C178.3,566.6,189.6,559.9,202,555.3z"/>
		<path class="st1" d="M167.9,576.2c0.2,0.9,0.2,1.9,0.1,2.9c-0.2,2.2-0.5,4.3-0.7,6.5c-0.5,4.3-1,8.6-1.4,12.9
			c-0.2,2.2-0.4,4.3-0.5,6.5c-0.7,11-1.1,22.1-2.1,33.1h0v0c-6.5,0-12.9-0.9-19.4-1.7c-3.7-0.4-7.5-0.3-11-1.7
			c1.4-6.8,2.8-13.6,3.3-20.5c0.5-5.8-1.5-11.2-2.6-16.8c-1.6-8.3-3-16.6-5.6-24.7c1.5,0.1,3,0.3,4.5,0.6c1.6,0.3,3.2,0.7,4.8,1.2
			c2.2,0.7,4.5,1.4,6.7,2.2l0,0c0.7,0.3,1.5,0.5,2.2,0.8c0.3,0.1,0.6,0.2,0.9,0.3c4.7,1.6,9.3,1.2,13.8-0.8c2.2-1,4.4-2,6.6-2.9
			c0.2,0.7,0.3,1.3,0.5,2C167.9,576,167.9,576.1,167.9,576.2z"/>
		<path class="st1" d="M203.2,503C203.2,503,203.2,503,203.2,503c0.2,0.7,0.3,1.3,0.4,1.9c1.9,9.6,2.7,19.3,2.7,29.1
			c0,7.3,0.7,15-4.4,21.3c-12.4,4.6-23.7,11.3-34.5,18.7c-2.2,1-4.4,2-6.6,2.9c-4.5,2-9.1,2.4-13.8,0.8c-0.3-0.1-0.6-0.2-0.9-0.3
			c-0.7-0.3-1.5-0.6-2.2-0.8l0,0c-2.2-0.8-4.4-1.6-6.7-2.2c-1.6-0.5-3.2-0.8-4.8-1.2c-1.5-0.3-3-0.5-4.5-0.6
			c-6.2-1.5-12.5-1.5-18.8-1.5c-4.9,0-9.9-0.1-14.7-1.5c-7.6-2.3-13.9-8.4-11.4-18.6c6-24.4,10.2-49.2,18.2-73
			c5.9-17.8,12.5-35.5,21.7-52c0.6-1.1,1.4-2.1,2-3.2h0c1.7,0.1,3.4,0.1,5.1-0.1c1.7-0.2,3.3-0.5,5-0.9c0.9-0.2,1.6-0.7,2.1-1.3
			c0.2-0.2,0.4-0.5,0.6-0.7c0.7-0.9,1.3-1.9,2.1-2.7c0.4-0.4,0.9-0.8,1.5-1c0.4-0.1,0.8-0.2,1.3-0.3c0.1,0,0.4-0.7,0.4-0.9
			c-1-2.4-0.7-4.4,0.4-6.8c0.4-0.8-1.6-2.6-1.6-3.9c0.1-1.3-0.2-2.3-0.8-2.9c-0.8-1-2.2-1.4-3.6-1.9c-0.2-0.1-0.4-0.1-0.6-0.2
			c-0.3-0.1-0.5-0.2-0.8-0.2c-0.3-0.1-0.6-0.2-0.9-0.3c-0.4-0.2-0.9-0.3-1.3-0.5c-0.6-0.3-1.1-0.6-1.5-0.9c-1-0.9-1.3-2-0.8-3.7
			c0.7-2,0.7-4.1-0.3-6h0v0c0.8-7.6-1.5-14.9-2.3-22.4c-0.2-1.9-0.3-3.9-0.4-5.8c0.5-4.1,1.2-8.2,2.4-12c0.1-0.3,0.2-0.6,0.3-1
			c0.6-1.9,1.4-3.7,2.2-5.4c0.7-1.3,1.4-2.6,2.3-3.9c1.8-2.7,3.7-5.3,5.9-7.5c0.4-0.4,0.9-0.9,1.4-1.2c0.3-0.2,0.5-0.4,0.8-0.6
			c0.8-0.6,1.6-1.1,2.5-1.5h0c0,2.2-2.2,3.1-3.1,4.7c-0.3,0.5-0.6,1-0.8,1.5c-0.2,0.5-0.5,1-0.7,1.5c-0.2,0.5-0.4,1-0.6,1.5
			c-0.4,1-0.6,2-0.8,3c-1.4,6.8,0.5,13.4,4.7,19.7c1.4,2.1,2.9,4.2,4.4,6.2c1.5,2.1,3,4.1,4.6,6.1c5.2,6.6,10.8,13,16.4,19.3
			c0.3,0.4,0.6,0.7,0.9,1c0.6,0.7,1.2,1.3,1.8,1.8c0.3,0.3,0.6,0.6,0.9,0.8c2.1,1.8,4.2,3.1,6.4,3.8c4.9,1.7,10.2,0.6,16.9-2.8
			c5.5-2.7,10.3-6.5,15.5-9.6c0.3-0.2,0.7-0.4,1-0.6c0.5-0.3,1-0.7,1.4-1c0.2-0.1,0.3-0.2,0.5-0.3c0.5-0.3,1-0.7,1.5-1
			c0.3-0.2,0.7-0.4,1-0.5c0.9-0.4,1.9-0.7,3-0.6c0.2,1.8-0.1,3.6-0.5,5.3c-0.1,0.4-0.2,0.8-0.3,1.1c-0.1,0.2-0.1,0.4-0.2,0.6
			c-0.4,1.1-0.8,2.2-1.3,3.3c-2.3,4.9-4.6,9.8-6.9,14.6c-2.9,6.3-5.7,12.7-4.4,19.8c0.2,1.3,0.5,2.7,0.7,4c0.3,1.7,0.5,3.4,0.8,5.1
			c0.3,2,0.5,4.1,0.7,6.1c0,0.1,0,0.3,0,0.4c0.1,0.7,0.1,1.4,0.2,2c0.4,6,1.1,12-1,17.8c-1.7,4.6-3.3,9-3,14
			c0.1,1.8-0.8,3.6-1.8,5.1c-3.5,5-4.1,10.3-3.4,15.6c0.2,1.4,0.5,2.9,0.9,4.3C202.6,501.2,202.9,502.1,203.2,503z"/>
		<path class="st1" d="M216.9,338.9c1.7,3.4,3.2,6.8,3.1,10.7c0,0.6,0,1.1,0,1.6c0,0.5,0,1.1,0,1.6c0,1.1,0,2.2,0,3.3
			c0,1.3,0,2.7,0,4c0,0,0,0,0,0c-8.1,4.1-16.5,7.2-25.1,10.1c-1.8,0.6-3.4,0.7-4.8,0.3c-1.7-0.5-3.2-1.8-4.5-3.9
			c-5.7-9.3-10.1-19.2-12.7-29.8c0.5,0.3,0.9,0.7,1.3,1.1c0.2,0.2,0.4,0.4,0.6,0.6c0.6,0.6,1.1,1.2,1.6,1.9c0.2,0.2,0.3,0.5,0.5,0.7
			c0.5,0.7,0.9,1.4,1.4,2.1c0.3,0.5,0.6,1,0.9,1.4c0.6,0.9,1.2,1.9,1.9,2.8c0,0,0,0,0,0c0.3,0.5,0.7,1,1,1.5c0.6,1,1.1,2.1,1.9,3
			c0.1,0.1,0.2,0.2,0.3,0.3c0.3,0.3,0.6,0.6,1.1,0.9c0,0,0,0,0,0c0.3,2.8,2.4,4.4,4.2,6.1c0.7,0.7,1.4,1.2,2.1,1.6
			c0.1,0.1,0.3,0.2,0.4,0.3c0.2,0.1,0.5,0.2,0.7,0.4c0.1,0,0.2,0.1,0.3,0.1c0.2,0.1,0.4,0.1,0.6,0.2c0.2,0.1,0.4,0.1,0.5,0.2
			c0.2,0.1,0.5,0.1,0.7,0.2c0,0,0.1,0,0.1,0c1.9,0.3,3.7-0.1,5.2-1.3c0,0,0,0,0,0c1.5-1.2,2.7-3.1,3.2-5.7c1.3-6.2,2-12.6,2.9-18.9
			c2.7-2.5,5.3-1.4,7.9,0.3C215.1,337.2,215.9,338.1,216.9,338.9z"/>
		<path class="st1" d="M282.6,325.7c7,4.8,9.1,9.2,7.7,15.7c-1,4.4-4.2,6.9-7.9,9v0c-6,2.2-12,4.5-17.8,7.4c0,0,0,0,0,0h0
			c-2.4,0.7-4.6,1.7-6.8,3c-5.9,2.5-11.9,5-17.2,8.8h0c0,0,0,0,0,0c-5,1.6-9.3,4.6-13.7,7.2c-0.3,0.2-0.7,0.4-1.1,0.5
			c-1,0.4-2.1,0.8-2.9,1.5c-0.1,0.1-0.2,0.2-0.3,0.3c0,0,0,0,0,0c-0.4,0.4-0.6,0.9-0.8,1.6v0c-1.1,0-2.1,0.2-3,0.6
			c-0.4,0.2-0.7,0.3-1,0.5c-0.5,0.3-1,0.6-1.5,1c-0.2,0.1-0.3,0.2-0.5,0.3c-0.5,0.3-1,0.7-1.4,1c-0.3,0.2-0.7,0.4-1,0.6
			c-5.2,3.1-10.1,6.8-15.5,9.6c-6.8,3.4-12,4.5-16.9,2.8c-2.2-0.7-4.2-2-6.4-3.8c-0.3-0.2-0.6-0.5-0.9-0.8c-0.6-0.6-1.2-1.2-1.8-1.8
			c-0.3-0.3-0.6-0.7-0.9-1c-5.6-6.3-11.2-12.7-16.4-19.3c-1.6-2-3.1-4-4.6-6.1c-1.5-2-3-4.1-4.4-6.2c-4.2-6.3-6-12.9-4.7-19.7
			c0.2-1,0.5-2,0.8-3c0.2-0.5,0.4-1,0.6-1.5s0.4-1,0.7-1.5c0.2-0.5,0.5-1,0.8-1.5c0.9-1.7,3.1-2.5,3.1-4.7c3.8-0.7,7.3-2.6,11.2-2.8
			c7.8,1.1,12.1,6.3,14.9,13.1c2.6,10.6,7,20.5,12.7,29.8c1.3,2.1,2.8,3.4,4.5,3.9c1.4,0.4,3,0.3,4.8-0.3c0,0,0,0,0,0
			c8.6-2.8,17-6,25.1-10.1c6.9-2.7,13.7-5.6,19.9-9.7h0c0.5-0.1,1,0,1.4-0.2c0.1,0,0.1,0,0.2-0.1c8.3-4,15.7-9,19.7-17.8
			c0,0,0,0,0,0c0.5-0.7,1-1.4,1.5-2.1c0.2-0.2,0.4-0.4,0.5-0.6h0c0,0,0.1,0,0.2-0.1c0.1-0.1,0.2-0.1,0.3-0.2
			c0.1-0.1,0.2-0.1,0.2-0.2c0,0,0.1-0.1,0.1-0.1c0.1-0.2,0.1-0.4,0.1-0.6c0,0,0,0,0.1,0c0.1,0,0.2,0,0.3,0c0,0,0.1,0,0.1,0
			c0,0,0,0,0,0c0.1,0,0.2-0.1,0.2-0.2c0-0.1,0.1-0.2,0-0.4c0.5,0,0.9-0.1,1.3-0.2c0.3-0.1,0.6-0.3,0.9-0.4c0.1-0.1,0.2-0.2,0.4-0.2
			c0.5-0.4,1.1-0.8,1.6-1.2c0.3-0.1,0.6-0.2,0.9-0.3c0.9-0.3,1.7-0.5,2.6-0.7C275.8,324.1,279.2,324.4,282.6,325.7z"/>
		<path class="st1" d="M203,335.6c0.8,0.3,1.9,0.4,3.2,0.6c-0.9,6.3-1.6,12.6-2.9,18.9c-0.5,2.6-1.7,4.5-3.2,5.7c0,0,0,0,0,0
			c-1.5,1.2-3.3,1.6-5.2,1.3c-0.1,0-0.1,0-0.1,0c-0.2,0-0.5-0.1-0.7-0.2c-0.2-0.1-0.4-0.1-0.5-0.2c-0.2-0.1-0.4-0.1-0.6-0.2
			c-0.1,0-0.2-0.1-0.3-0.1c-0.2-0.1-0.5-0.2-0.7-0.4c-0.1-0.1-0.3-0.2-0.4-0.3c-0.7-0.4-1.4-1-2-1.6c-1.8-1.7-3.9-3.3-4.1-6.1
			c0,0,0,0,0,0c0.5-0.3,1-0.7,1.5-1.2c2-2,3.4-4.8,4-7.8c1.2-5.2,0.5-11.1-1.6-14.9c-1-1.8-1.6-3.8-1.3-5.7c0.1-0.6,0.2-1.1,0.5-1.7
			c0.1-0.2,0.1-0.3,0.2-0.5c0.1-0.1,0.1-0.3,0.2-0.5c3.9,2.5,8.1,1.3,12.2,1.2c0.8,0,1.6-0.3,2.3-0.4c-0.7,2.3-1.5,4.5-2.2,6.8
			c-1,3.2-1.1,5.1,0,6.2C201.6,335,202.2,335.4,203,335.6z"/>
		<path class="st1" d="M221.2,285c1.3,4.5,2.1,9,1.6,13.6c-0.1,1-0.3,1.9-0.5,2.9c-2.5,10.2-9.2,16.6-18.9,20
			c-0.8,0.1-1.6,0.4-2.3,0.4c-4.1,0.1-8.4,1.3-12.2-1.2c0.7-0.6,1.4-1.2,2-1.8c0.3-0.3,0.6-0.6,0.8-1c1.2-1.5,2.1-3.1,2.9-4.8
			c0.2-0.6,0.5-1.1,0.7-1.7c0.5-1.6,0.9-3.2,1.3-4.9c0.2-1.2,0.5-2.5,0.6-3.8c0.1-0.8,0.2-1.6,0.3-2.4c0-0.1,0-0.3,0-0.4
			c0.1-0.8,0.1-1.6,0.1-2.4c0-0.4,0-0.7,0-1.1c0-1-0.1-1.9-0.2-2.9c0,0,0,0,0,0c-0.2-1.3-0.4-2.6-0.7-3.9c0-0.2-0.1-0.3-0.1-0.5
			c0,0,0,0,0,0c0-0.2,0-0.3-0.1-0.5c-0.2-1.8-0.3-3.2-0.1-4.4c0.1-0.7,0.3-1.3,0.7-1.8c0.1-0.1,0.1-0.2,0.2-0.2
			c0.1-0.1,0.2-0.2,0.3-0.3c0.1-0.1,0.1-0.1,0.2-0.2c0,0,0.1-0.1,0.1-0.1c1.3-0.9,3.4-0.8,6.5,0c1.6,0.4,3.1,0.8,4.6,1.3
			c2.1,0.6,4,0.8,5.8,0.3c0,0,0,0,0,0c0.3-0.1,0.6-0.1,0.8-0.2c0.3-0.1,0.6-0.2,0.8-0.3c0.3-0.1,0.5-0.3,0.8-0.4
			c0.1-0.1,0.3-0.2,0.4-0.3c0.5-0.3,1-0.8,1.5-1.2C219.5,282.5,220.1,283.8,221.2,285z"/>
		<path class="st1" d="M218.6,269.2c2.8,3.8,3.5,7.7,0.6,11.8c-0.5,0.5-1,0.9-1.5,1.2c-0.1,0.1-0.3,0.2-0.4,0.3
			c-0.3,0.1-0.5,0.3-0.8,0.4c-0.3,0.1-0.5,0.2-0.8,0.3c-0.3,0.1-0.5,0.2-0.8,0.2c0,0,0,0,0,0c-1.8,0.4-3.8,0.3-5.8-0.4
			c-1.5-0.5-3.1-0.9-4.6-1.3c-3.1-0.8-5.2-0.8-6.5,0c-0.1,0-0.1,0.1-0.1,0.1c-0.1,0-0.2,0.1-0.2,0.2c-0.1,0.1-0.2,0.2-0.3,0.3
			c-0.1,0.1-0.1,0.2-0.2,0.2c-0.3,0.5-0.6,1.1-0.7,1.8c-0.2,1.1-0.2,2.6,0,4.4c0,0.2,0,0.3,0.1,0.5c0,0,0,0,0,0c0,0.2,0,0.3,0.1,0.5
			c0.3,1.3,0.5,2.6,0.7,3.9c0,0,0,0,0,0c0.1,1,0.2,1.9,0.2,2.9c0,0.4,0,0.7,0,1.1c0,0.8,0,1.6-0.1,2.4c0,0.1,0,0.3,0,0.4
			c-0.1,0.8-0.2,1.6-0.3,2.4c-0.2,1.3-0.4,2.5-0.6,3.8c-0.3,1.7-0.7,3.3-1.3,4.9c-0.2,0.6-0.4,1.1-0.7,1.7c-0.7,1.7-1.6,3.3-2.9,4.8
			c-0.3,0.3-0.6,0.6-0.8,1c-0.6,0.6-1.3,1.2-2,1.8c0,0,0,0,0,0v0c-0.1,0.2-0.2,0.3-0.2,0.5c-0.1,0.1-0.1,0.3-0.2,0.5
			c-0.2,0.6-0.4,1.1-0.5,1.7c-0.2,2,0.3,3.9,1.3,5.7c2.1,3.9,2.7,9.8,1.6,14.9c-0.7,3-2,5.8-4,7.8c-0.5,0.4-0.9,0.8-1.5,1.2
			c-0.4-0.3-0.7-0.6-1.1-0.9c-0.1-0.1-0.2-0.2-0.3-0.3c-0.8-0.9-1.3-1.9-1.9-3c-0.3-0.5-0.6-1-1-1.5c0,0,0,0,0,0
			c-0.7-0.9-1.3-1.8-1.9-2.8c-0.3-0.5-0.6-1-0.9-1.4c-0.5-0.7-0.9-1.4-1.4-2.1c-0.2-0.2-0.3-0.5-0.5-0.7c-0.5-0.7-1-1.3-1.6-1.9
			c-0.2-0.2-0.4-0.4-0.6-0.6c-0.4-0.4-0.9-0.8-1.3-1.1c-2.8-6.9-7-12-14.8-13.1c-4.2-1.6-7.8-0.6-10.8,2.4c-0.1,0.1-0.3,0.3-0.4,0.4
			c-0.9,0.5-1.7,1-2.5,1.6c-0.3,0.2-0.5,0.4-0.8,0.6c-0.5,0.4-1,0.8-1.4,1.2c-2.3,2.2-4.1,4.9-5.9,7.5c-0.9,1.3-1.6,2.6-2.3,3.9
			c-0.9,1.8-1.6,3.6-2.2,5.4c-0.1,0.3-0.2,0.6-0.3,1c-1.2,3.9-1.9,7.9-2.4,12c-6-1.9-8.5-7.1-6.6-13.9c1.1-4.1,3.6-7.1,7-9.4
			c3.3-2.2,6.6-4.5,9.5-7.3c5.2-5,9-10.7,8-18.4c-0.1-0.8,0-1.7-0.3-2.4c-2.2-4.8-0.3-8.2,3.6-10.9c8-5.3,11.1-12.8,10.4-22.2
			c-0.1-1.9-0.1-3.9,0-5.9c0.4-6.5,3.7-10.6,10.1-10.9c11-0.5,22.1-1,33,1.2C209.8,260.8,214.8,264,218.6,269.2z"/>
		<path class="st2" d="M695.3,585c0.8,5.9,1.3,11.9-0.9,17.6c-3.3,9-11,13.4-19.3,11.3c-3.3-0.8-6-2.7-7.2-5.8
			c-0.6-1.4-1.1-1.9-1.8-1.9l-0.1-1.5c0.4-0.3,0.6-0.8,0.5-1.9c0,0,0-0.1,0-0.1c0-0.1,0-0.2,0-0.4c-0.7-6,0-12.1,0.8-18.1
			c0.9-7.2,4-13.8,6.2-20.7c0.1-0.1,0.1-0.2,0.2-0.3c1.9-3.8,1.5-9.2,4.3-11.7c3-2.6,6.3-5.1,9-8.2c0.2-0.2,0.3-0.4,0.5-0.6
			c0.3-0.3,0.6-0.5,0.9-0.8c0.1-0.1,0.2-0.2,0.3-0.2c0.3-0.2,0.6-0.4,0.9-0.5c0.1-0.1,0.2-0.1,0.3-0.1c0.1,0,0.2-0.1,0.3-0.1
			c1-0.3,2.2-0.4,3.4-0.1v0c0.4,6.2-1,12.3-1.9,18.4c-0.9,6.5-0.4,12.8,1.7,19C694.2,580.6,694.7,582.8,695.3,585z"/>
		<path class="st2" d="M608.5,626.9c0.8,3.1,1.7,6.2,2.5,9.2c-6.5,2.7-13.1,4.7-20.1,5.6c-4.3-11-8.6-22-12.9-32.9
			c-0.1-0.4-0.1-0.7-0.1-1.1c0,0,0-0.1,0-0.1c0-0.2,0-0.4-0.1-0.7c0,0,0-0.1,0-0.1c0-0.1,0-0.2-0.1-0.3c0-0.2-0.1-0.5-0.2-0.7
			c-1.1-3.4-1.9-6.8-2.4-10.3c-0.1-0.4-0.1-0.9-0.2-1.3c-0.1-0.4-0.1-0.9-0.2-1.3c-0.5-4.3-0.5-8.5-0.3-12.9c0.1-1.2,0-2.6,0.2-3.8
			c0-0.3,0.1-0.6,0.2-1c0.1-0.3,0.2-0.6,0.3-0.9c0.2-0.6,0.5-1.2,0.9-1.8c1,0.5,1.9,0.9,2.9,1.3c0.5,0.2,1,0.4,1.4,0.7
			c0.9,0.5,1.9,0.9,2.9,1.3c4.3,1.9,8.8,3.2,13.4,4c2.6,0.5,5.2,0.7,7.8,0.9c0.3,0,0.6,0,0.9,0c0.3,0,0.5,0,0.8,0c0.1,0,0.2,0,0.3,0
			c0.2,0,0.4,0,0.5,0.1c0.2,0,0.4,0.1,0.6,0.2c0,0,0.1,0.1,0.1,0.1c0.5,0.5,0.3,1.4-0.3,3.5c-0.5,1.8-1.4,3.8-0.8,5.4
			c0.1,0.4,0.3,0.7,0.6,1.1c0,0,0,0,0,0c0.4,0.4,0.9,0.8,1.6,1.2c-0.8,2.1-1.4,4.2-1.8,6.3c-0.5,2.5-0.9,4.9-1,7.4
			c-0.2,2.9-0.1,5.8,0.2,8.6c0.1,1.1,0.2,2.2,0.4,3.3c0.1,0.4,0.1,0.7,0.2,1.1c0.1,0.7,0.2,1.5,0.4,2.2c0.1,0.7,0.3,1.5,0.5,2.2
			c0.2,0.7,0.3,1.5,0.5,2.2C608.3,626.2,608.4,626.5,608.5,626.9z"/>
		<path class="st2" d="M665.9,604.8l0.1,1.5c-0.6,0-1.2,0.5-2.1,1c-12.8,8.7-25.9,17-39.9,23.6c-4.2,2-8.4,4.2-13,5.2
			c-0.8-3.1-1.7-6.2-2.5-9.2c-0.1-0.4-0.2-0.7-0.3-1.1c-0.2-0.7-0.4-1.5-0.5-2.2c-0.2-0.7-0.3-1.5-0.5-2.2c-0.1-0.7-0.3-1.4-0.4-2.2
			c-0.1-0.4-0.1-0.7-0.2-1.1c-0.2-1.1-0.3-2.2-0.4-3.3c-0.3-2.9-0.3-5.8-0.2-8.6c0.1-2.5,0.5-4.9,1-7.4c0.5-2.1,1.1-4.2,1.8-6.3
			c3.2,1.4,6.5,2.7,10.1,3.3c6.9,1.2,13.5,3.2,20.1,5.6c7.9,2.8,16.2,4.1,24.6,3.8C664.7,605.2,665.5,605.1,665.9,604.8z"/>
		<path class="st2" d="M673.4,563.6L673.4,563.6c-2.3,6.8-5.3,13.4-6.2,20.7c-0.8,6-1.5,12.1-0.8,18.1c0,0.1,0,0.3,0,0.4
			c0,0,0,0.1,0,0.1c0.1,2.2-0.9,2.2-2.7,2.3c-8.5,0.3-16.7-0.9-24.6-3.8c-6.6-2.4-13.2-4.3-20.1-5.5c-3.5-0.6-6.8-1.9-10.1-3.4
			c-0.7-0.3-1.2-0.7-1.5-1.1c0,0,0,0,0,0c-0.3-0.3-0.5-0.7-0.6-1.1c-0.6-1.6,0.3-3.6,0.8-5.4c0.5-2.1,0.8-3.1,0.3-3.5
			c0,0-0.1-0.1-0.1-0.1c-0.2-0.1-0.3-0.1-0.6-0.2c-0.2,0-0.4-0.1-0.5-0.1c-0.1,0-0.2,0-0.3,0c-0.2,0-0.5,0-0.8,0c-0.3,0-0.6,0-0.9,0
			c-2.7-0.1-5.2-0.4-7.8-0.9c-4.6-0.8-9.1-2.1-13.4-4c-1-0.4-1.9-0.9-2.9-1.3c-0.5-0.2-0.9-0.5-1.4-0.7c-1-0.5-1.9-0.9-2.9-1.4
			c-3.2-3.3-3.8-7-2.1-11.3c1.6-4.4,0.1-8.8-0.5-13.2c-1.4-10.1-3-20.1-4.5-30.1c0-0.3-0.1-0.6-0.1-1c0-0.5,0-1,0-1.5
			c0-0.1,0-0.2,0-0.3c0,0,0,0,0,0c0.4,0.4,0.7,0.7,1.1,1c0,0,0,0,0,0c0.2,0.1,0.3,0.3,0.5,0.4c0.5,0.4,0.9,0.6,1.4,0.8
			c1.7,0.6,3.6-0.3,7.7-2.7l0,0c10.4,1,20.3-0.8,30.1-4.1c0,0,0,0,0,0c3.4,4,7,7.8,10.6,11.5c8.5,8.6,17.6,16.5,27.2,23.9
			c2.8,2.1,5.5,4.2,8.4,6.2c2.8,2,5.7,4,8.5,5.9C667.5,559.9,670.4,561.8,673.4,563.6z"/>
		<path class="st2" d="M601.3,498.1c3,4.1,6,8.1,8.5,12.5c-9.8,3.2-19.8,5.1-30.1,4.1c5-5.7,2.3-12.2,2-18.4
			c-0.1-1.5-0.5-2.9-0.9-4.4c-0.8-2.8,0.8-4.6,2.7-6.2c0.7-0.6,1.4-0.8,2.1-0.7c0.9,0.2,1.8,0.8,2.6,1.2c0.7,0.4,1.3,0.7,2,1.1
			c0.6,0.4,1.2,0.8,1.9,1.2c1.5,1.1,2.9,2.3,4.2,3.6C598,493.9,599.7,495.9,601.3,498.1z"/>
		<path class="st2" d="M608.7,331.9c3.8,2,7.6,4,12,4.8c-2.4,17-8.3,32.7-16,47.9c-0.4,0.8-0.7,1.7-1.2,2.5
			c-0.2,0.2-0.4,0.5-0.7,0.6v0l0,0c0,0,0,0,0,0h0c0.1-1.7,0.3-3.3,0.6-5c0.1-0.3,0.1-0.7,0.2-1c0.1-0.6,0.3-1.3,0.5-1.9
			c0.6-2.3,1.2-4.5,1.7-6.8c0.1-0.3,0.1-0.7,0.2-1c0.7-3.6,1.3-7.2,1.1-10.9c0-0.4-0.1-0.9-0.1-1.3c-0.1-0.8-0.2-1.6-0.4-2.4
			c-0.2-0.8-0.4-1.5-0.7-2.2c-1.5-3.9-4.4-6.7-9.1-8.3c0.5-0.4,1-0.6,1.5-0.9c0.2-0.1,0.4-0.2,0.6-0.2c1-0.3,2-0.5,2.9-0.9l0,0
			c0.7-0.2,1.4-0.5,2-0.7c0.3-0.1,0.6-0.2,0.8-0.4c1.2-0.5,2.1-1.1,2.8-1.8c0.2-0.1,0.3-0.3,0.4-0.5c0,0,0,0,0,0
			c0.1-0.2,0.2-0.3,0.4-0.5c0.1-0.2,0.2-0.4,0.3-0.6c0.1-0.2,0.2-0.4,0.2-0.6c0.2-0.6,0.3-1.4,0.4-2.2c0,0,0,0,0-0.1
			c0.1-1,0.1-2.1,0-3.4c0-0.2,0-0.4,0-0.6C608.8,333.1,608.8,332.5,608.7,331.9z"/>
		<path class="st2" d="M429.6,223.2c-0.8,1.2-1.4,2.4-1.9,3.7c-0.1,0.4-0.2,0.7-0.3,1.1s-0.2,0.8-0.2,1.1c-0.2,1.2-0.3,2.4-0.2,3.7
			c0,0.7,0,1.5,0.1,2.2c0,0,0,0.1,0,0.1c0,2.2,0,4.4,0,6.6c0,0.2,0,0.5,0,0.7c0,1.5-0.1,3-0.1,4.5c-2.8-1.7-5.5-3.4-7.8-5.7
			c-0.2-0.2-0.4-0.4-0.5-0.5c-0.2-0.2-0.3-0.4-0.5-0.6c-0.2-0.2-0.3-0.4-0.5-0.6c-2.6-3.1-2.9-6.3-1.9-9.1c0.2-0.5,0.4-1,0.7-1.5
			c0,0,0,0,0,0c0.3-0.6,0.7-1.2,1.2-1.7c0,0,0,0,0,0c0.2-0.2,0.4-0.4,0.6-0.6c1.4-1.4,3.1-2.5,4.9-3.1c1-0.3,2-0.5,3-0.7
			c0.3-0.1,0.7-0.1,1-0.2h0C427.8,222.9,428.7,223,429.6,223.2z"/>
		<path class="st2" d="M449.7,261L449.7,261L449.7,261L449.7,261c0,4.3-0.1,8.7-0.1,13c0,0,0,0,0,0c-0.4,1.1-0.9,2-1.5,2.6
			c-0.5,0.6-1.2,1-1.9,1.2c-0.9,0.3-1.9,0.4-3,0.4c-4.1-0.2-8.1,0-12.2,0c-4.7-1.5-3.5-5.6-4.1-9c0.2-4.1,0.3-8.1,0.2-12.2h1.2
			c0,0.6,0,1.2,0,1.8c0,0.3,0,0.6,0.1,0.9c0.2,2,1,3.6,2.1,4.7c1.4,1.3,3.3,2.1,5.6,2.2c0,0,0,0,0,0c1.2,0,2.5,0,3.7,0h0
			c0,0,0,0,0,0c2.8,0,5-0.7,6.4-2c0.4-0.3,0.7-0.7,1-1.1c0.8-1.3,1.3-3,1.4-5.1c0-0.7,0.1-1.5,0.1-2.2c0.1-2.2,0.1-4.4,0.1-6.6h0.8
			C449.7,253.3,449.7,257.1,449.7,261z"/>
		<path class="st2" d="M446.2,221.7c3.7,4.4,3.5,9.7,3.4,15v0c0,4.3,0,8.6,0,12.9h-0.8c0-2.2,0-4.4-0.1-6.6c0-0.7,0-1.5-0.1-2.2
			c-0.1-3.9-1.5-6.3-4.2-7.5c-1.2-0.5-2.7-0.8-4.5-0.8c-1.3,0-2.5,0-3.8,0c-4.2,0.1-6.9,2.3-7.7,6c-0.1,0.5-0.2,1.1-0.2,1.7
			c-0.1,3.1,0,6.2,0,9.3c0,2.5-0.1,5,0,7.5H427c0-3.3-0.1-6.6-0.2-9.9c0-1.5,0-3,0.1-4.5c0-0.2,0-0.5,0-0.7c0-2.2,0-4.4,0-6.6
			c0,0,0-0.1,0-0.1c0-0.7,0-1.5-0.1-2.2c0-1.3,0-2.5,0.2-3.7c0.1-0.4,0.1-0.8,0.2-1.1s0.2-0.8,0.3-1.1c0.4-1.3,1.1-2.5,1.9-3.7
			c2.5-2.9,2.1-6.7,2.7-10.1c0.9-5.5,1.6-11.1,2.2-16.7c0.2-2.4,1.6-2.7,3.5-2.5c1.9,0.2,4.1-1,4.5,2.4c0.8,7.4,1.9,14.7,3,22.1
			C445.5,219.5,445.6,220.9,446.2,221.7z"/>
		<path class="st2" d="M523.9,295.8c0.1,1.4,0.2,2.8,0.1,4.1c-0.1,2.6-0.6,5.2-1.5,7.7c-2,5.5-6.2,8.1-11.3,7.5c-0.1,0-0.1,0-0.2,0
			c-0.2,0-0.4-0.1-0.7-0.1c-0.5-0.1-1.1-0.2-1.7-0.4c0,0,0,0,0,0h0c-2-1.4-4-2.7-6-4.1h0c0-0.1-0.1-0.1-0.2-0.2
			c-0.1-0.1-0.2-0.3-0.3-0.4c-0.1-0.1-0.1-0.1-0.2-0.2C487.5,299.4,475,287,464,273c-3.9-5-8.3-9.5-14.4-12c0-3.8,0-7.6,0-11.5
			c0-4.3,0-8.6,0-12.9v0c12.8,10.2,27.2,18.3,40,28.5C501.7,274.6,513.2,284.8,523.9,295.8z"/>
		<path class="st2" d="M705.1,514.2c2.2,4.3,3.7,8.9,3.3,13.9c-0.3,3.4-1.5,5.9-5.1,6.8c-1.4,0.3-3.3,0.7-3.6,2.4
			c-0.6,3.8-3.2,4-6.1,3.8c0,0,0,0,0,0v0c-1.3-0.3-2.4-0.3-3.4,0.1c-0.1,0-0.2,0.1-0.3,0.1c-0.1,0-0.2,0.1-0.3,0.1
			c-0.3,0.1-0.6,0.3-0.9,0.5c-0.1,0.1-0.2,0.1-0.3,0.2c-0.3,0.2-0.6,0.5-0.9,0.8c-0.2,0.2-0.4,0.4-0.5,0.6c-2.7,3.1-6,5.5-9,8.2
			c-2.8,2.4-2.4,7.9-4.3,11.7c0,0.1-0.1,0.2-0.2,0.3c0,0,0,0,0,0v0c-3-1.8-5.9-3.7-8.8-5.6c-2.9-1.9-5.7-3.9-8.5-5.9
			c-2.8-2-5.6-4.1-8.4-6.2c-9.6-7.3-18.7-15.2-27.2-23.9c-3.6-3.7-7.2-7.5-10.6-11.5c-2.5-4.4-5.5-8.4-8.5-12.5
			c-1.6-2.1-3.2-4.1-5.1-6c-1.3-1.3-2.7-2.5-4.2-3.6c-0.6-0.4-1.2-0.9-1.9-1.2c-0.6-0.4-1.3-0.8-2-1.1c-0.8-0.4-1.7-1-2.6-1.2
			c-0.7-0.1-1.4,0-2.1,0.7c-1.9,1.6-3.5,3.4-2.7,6.2c0.4,1.4,0.9,2.9,0.9,4.4c0.2,6.2,2.9,12.8-2,18.5h0c-4,2.4-6,3.3-7.7,2.8
			c-0.5-0.1-0.9-0.4-1.4-0.8c-0.2-0.1-0.3-0.3-0.5-0.4c0,0,0,0,0,0c-0.3-0.3-0.7-0.6-1.1-1c-0.3-0.6-0.5-1.3-0.8-1.9
			c0.3-3.1,0.6-6.1,0.9-9.2c1.7-5.5,1.6-11.1,0.7-16.7c0-0.9,0-1.7-0.9-2.3c-0.1-0.1-0.3-0.2-0.4-0.2c-0.2-0.1-0.4-0.2-0.6-0.3
			c-2.9-1.6-4.3-4.4-5.2-7.5c-0.9-3.2-1.8-6.4-2.6-9.6c-1.9-7.6-3.2-15.4-1.8-23.2c1.2-6.5,0.6-12.1-2.9-17.7
			c-2.4-3.9-3.1-8.2-2.4-12.9c0.9-6.3,3.2-12.2,4.6-18.3c1.2-5.2,1.6-10.4-0.8-15.5c-2.2-4.6-4.3-9.2-6.4-13.7
			c-1.7-3.6-4.2-6.6-7.2-9.2c-5.5-4.8-10.9-9.8-16.1-14.9c-3.1-3.1-6.1-6.3-9.1-9.5c-0.3-0.3-0.5-0.6-0.8-0.8c0,0,0,0,0,0
			c-0.2-0.1-0.3-0.2-0.4-0.3c-0.3-0.2-0.6-0.4-0.9-0.5c-0.1-0.1-0.3-0.1-0.4-0.2c-0.4-0.1-0.8-0.2-1.2-0.3c-0.1,0-0.1,0-0.2,0
			c-0.4-0.1-0.8-0.2-1.2-0.3c-0.3-0.1-0.6-0.2-0.9-0.3c-1-0.4-1.9-0.8-2.8-1.3c-1.3-0.8-2.5-1.7-3.6-2.9c-0.5-0.6-1-1.2-1.5-1.8
			c-1.5-2.1-1.9-4.4-0.8-6.8c1.1-2.5,3.3-2.6,5.5-2.5c0.6,0.2,1.1,0.3,1.7,0.4c0.2,0,0.5,0.1,0.7,0.1c0.1,0,0.1,0,0.2,0
			c5.1,0.7,9.3-2,11.3-7.5c0.9-2.5,1.3-5.1,1.4-7.7c0.1-1.4,0-2.7-0.1-4.1c0.7-0.2,1.5-0.4,2.2-0.6c1.3,0,2.5,0.2,3.6,0.5
			c0.8,0.2,1.6,0.6,2.3,1c0,0,0,0,0,0c0.5,0.3,0.9,0.6,1.4,0.9c1.6,1.1,3,2.5,4.4,4v0c0.2,0.3,0.4,0.6,0.5,0.9
			c1.3,2,2.6,4.1,3.7,6.2c1.7,3.3,3.9,6,6.8,7.9c0.5,0.4,1.1,0.7,1.7,1c0.6,0.3,1.2,0.6,1.8,0.8c0.3,0.1,0.6,0.2,1,0.4
			c0.8,0.3,1.5,0.6,2.2,1c0.9,0.5,1.6,1.1,2.3,1.8c1,1,1.8,2.1,2.5,3.4c0.6,1.2,1.4,2.2,2.3,3.1c1.5,1.5,3.3,2.6,5.5,3.2h0
			c0.9,0.3,1.8,0.7,2.7,1c0,0,0,0,0,0c0.9,0.4,1.7,0.8,2.6,1.2c0,0,0,0,0,0c0.8,0.4,1.7,0.9,2.5,1.3c0,0,0,0,0,0
			c3.3,1.9,6.3,4.1,9.2,6.6c0,0,0,0,0,0c0.7,0.6,1.4,1.3,2.1,2c2.5,2.4,5.8,3.5,9.4,3.7l0,0c4.7,1.6,7.6,4.4,9.1,8.3
			c0.3,0.7,0.5,1.4,0.7,2.2c0.2,0.8,0.3,1.6,0.4,2.4c0,0.4,0.1,0.9,0.1,1.3c0.2,3.7-0.5,7.3-1.1,10.9c-0.1,0.3-0.1,0.7-0.2,1
			c-0.5,2.3-1.1,4.5-1.7,6.8c-0.2,0.6-0.3,1.3-0.5,1.9c-0.1,0.3-0.1,0.7-0.2,1c-0.3,1.6-0.6,3.3-0.6,5c-0.6,0.3-0.5,0.8-0.5,1.3
			c0,0,0,0,0,0c-1.3,2.3-2.5,4.6-3.8,6.9c-0.4,0.8-1.4,1.5-1,2.4c0.1,0.1,0.1,0.2,0.2,0.3c0.6,0.5,1.5,0.1,2.3,0.2
			c1,0,2.1,0,3.1-0.1c0.5,0,1.1-0.1,1.6-0.2c1.7-0.2,3.3-0.6,5-1c0.5-0.1,1.1-0.2,1.6-0.4h0c0.5-0.1,1.1-0.2,1.6-0.4
			c0.3,0,0.6-0.1,0.8-0.2h0c2.4,0.3,4.7,0.3,7-0.4c-0.8,4.1-3.1,7.5-4.8,11.2c0.8,0.3,1.4,0.2,2,0.1c0.1,0,0.2,0,0.2,0
			c0.1,0,0.2,0,0.2,0c0.4,0,0.7-0.1,1.1-0.2c1.8-0.3,3.6-0.8,5.3-1.5c0.5-0.2,1-0.4,1.5-0.5c2.7-1,5.3-2.2,7.9-3.2h0
			c0,0,0.1,0.1,0.1,0.1c0,0,0.1,0.1,0.1,0.1c0,0,0,0,0,0v0c-0.2,1.2-0.4,2.2-0.8,3.3c-0.1,0.3-0.2,0.5-0.3,0.8
			c-0.2,0.5-0.4,1.1-0.6,1.6c0,0,0,0,0,0c-1,2.4-2.2,4.7-3.2,7.1c0,0,0,0,0,0c0.7,0,1.1,0.1,1.5,0c0.5-0.1,1-0.2,1.5-0.4
			c1.3-0.4,2.3-1.1,3.2-1.8c0.1-0.1,0.2-0.2,0.3-0.3c2.1-2,3.2-5,4.4-7.9c5-12.5,11.9-24,19.5-35c0.3-0.4,0.6-0.8,0.9-1.1
			c0.5-0.5,0.9-0.8,1.4-1c0.2-0.1,0.3-0.1,0.5-0.2c0.2-0.1,0.3-0.1,0.5-0.1c0.5-0.1,0.9-0.1,1.5,0c0,0,0,0,0,0
			c0.2,0.1,0.4,0.1,0.6,0.2h0c0.2,0.1,0.4,0.2,0.7,0.2c0,0,0,0,0,0c0.1,0,0.2,0.1,0.3,0.2c1.8,0.9,3.7,1.6,5.5,2.4
			c0.3,0.1,0.5,0.2,0.8,0.3c0.3,0.1,0.6,0.3,1,0.4c0.2,0.1,0.3,0.1,0.5,0.1c0.3,0.1,0.5,0.1,0.8,0c0.4-0.1,0.8-0.3,1.1-0.8
			c11.1,7.3,14.4,18.7,16.2,31c1.1,7.8,0.5,15.6,1.1,23.4c0.4,4.8,1.5,9.7,1.2,14.4c-0.5,8.4,0,16.7,0.9,25c1,8.2,3.5,16.2,3.6,24.5
			C699.4,497.5,700.9,506.1,705.1,514.2z M669,530.1c0.2-0.7,0.4-1.2,0.4-1.8c-0.2-7.4-0.5-14.9-2-22.1c-0.7-3.3-1.6-6.5-2.8-9.7
			c-1.5-3.9-2.8-7.8-3.5-11.9c-0.1-0.5-0.2-1-0.2-1.5c0-0.2-0.1-0.4-0.1-0.5c-0.1-1-0.2-2-0.2-3.1c0-0.3,0-0.5,0-0.8
			c0,0,0-0.1,0-0.1c0-1-0.1-1.9-0.1-2.6c0-0.4-0.1-0.7-0.1-1c-0.1-0.7-0.3-1.2-0.6-1.5c-0.6-0.6-1.8-0.4-3.9,0.3c0,0,0,0,0,0
			c-0.2,0.1-0.5,0.2-0.8,0.3c-0.6,0.2-1.2,0.4-1.9,0.7c2.1,1.7,3.4,3.6,4.2,5.8c0.3,0.7,0.5,1.3,0.7,2c0,0.1,0.1,0.2,0.1,0.4
			c0.1,0.4,0.2,0.9,0.3,1.3c0.1,0.5,0.2,1,0.3,1.5c0.3,1.9,0.6,3.8,1,5.6c0.4,1.9,0.9,3.7,1.7,5.4c1.5,3.2,2.5,6.5,3.2,9.8
			c0.1,0.4,0.2,0.8,0.2,1.3c0.1,0.5,0.2,1.1,0.2,1.6c0.3,2.5,0.5,5.1,0.5,7.7c0,1.4,0.2,3,0.4,4.5c0.3,1.5,0.7,2.9,1.1,4.2
			c0.1,0.2,0.1,0.4,0.2,0.6c0,0.1,0.1,0.2,0.1,0.4c0.2,0.4,0.3,0.8,0.5,1.2C668.3,529,668.6,529.6,669,530.1
			C669,530.1,669,530.1,669,530.1z"/>
		<path class="st2" d="M624.5,278.2c4.2,4.1,5,8.4,2.5,13.8c-1,2.3-2.3,4.5-3.8,6.5c-5.4,7.2-6.2,15-3,23.3
			c1.9,4.9,2.8,9.9,0.3,14.9c-4.3-0.7-8.1-2.8-12-4.8c0,0,0,0,0,0c0,0,0,0,0,0c-0.3-0.2-0.6-0.4-0.9-0.7c-0.6-0.5-1.2-0.9-1.7-1.4
			c0,0,0,0,0,0c-0.4-0.4-0.9-0.8-1.3-1.1c-0.4-0.4-0.8-0.7-1.2-1.1c-1.1-1-2.1-2.1-3-3.3c-0.7-0.9-1.4-1.8-2-2.7
			c-0.4-0.6-0.8-1.2-1.2-1.9c-0.2-0.3-0.4-0.6-0.6-1c-3.9-8.3-5.1-16.9-2.6-25.7c3-11.1,10.1-18.8,20.6-23.3
			c0.8,0.6,1.6,1.3,2.4,1.9c0.5,0.4,0.9,0.8,1.4,1.1c1.3,1,2.5,2.1,3.7,3.1c0.4,0.4,0.8,0.7,1.2,1.1
			C623.8,277.5,624.2,277.8,624.5,278.2z"/>
		<path class="st2" d="M684,331.3c0.7,3.4,0.2,6.9-1.2,10.1c-2.2,4.8-3.2,9.8-3.1,15c0.1,3.6-0.9,7-1.8,10.5
			c-0.5,1.2-1.1,2.3-1.6,3.5c-0.4,0.5-0.7,0.7-1.1,0.8c-0.3,0.1-0.5,0.1-0.8,0c-0.2,0-0.3-0.1-0.5-0.1c-0.3-0.1-0.6-0.2-1-0.4
			c-0.3-0.1-0.5-0.2-0.8-0.3c-1.8-0.8-3.7-1.5-5.5-2.4c-0.1-0.1-0.2-0.1-0.3-0.2c0,0,0,0,0,0c-0.2-0.1-0.4-0.2-0.7-0.2h0
			c-0.2-0.1-0.4-0.1-0.6-0.2c0,0,0,0,0,0c-0.5-0.1-1-0.1-1.5,0c-0.2,0-0.3,0.1-0.5,0.1c-0.2,0-0.3,0.1-0.5,0.2c-0.5,0.2-1,0.6-1.4,1
			c-0.3,0.3-0.6,0.7-0.9,1.1c-7.7,11-14.6,22.5-19.5,35c-1.1,2.9-2.3,5.8-4.4,7.9c-0.1,0.1-0.2,0.2-0.3,0.3
			c-0.9,0.8-1.9,1.4-3.2,1.8c-0.5,0.2-1,0.3-1.5,0.4c-0.4,0.1-0.9,0-1.5,0c1-2.5,2.2-4.8,3.2-7.1c0,0,0,0,0,0c0.2-0.5,0.4-1,0.6-1.6
			c0.1-0.3,0.2-0.5,0.3-0.8c0.4-1.1,0.6-2.2,0.8-3.3h0v0c0.1-0.1,0.2-0.3,0.2-0.4c0,0,0,0,0,0h0c-0.2,0.1-0.3,0.1-0.5,0.2l0,0h0
			c-2.7,1-5.3,2.2-7.9,3.2c-0.5,0.2-1,0.4-1.5,0.5c-1.7,0.6-3.5,1.1-5.3,1.5c-0.3,0.1-0.7,0.1-1,0.2c-0.1,0-0.2,0-0.3,0
			c-0.1,0-0.2,0-0.2,0c-0.6,0.1-1.3,0.2-2-0.1c1.7-3.7,4-7.1,4.8-11.1c0.5-1.1,0.8-2,0.1-2.2c-0.2-0.1-0.5-0.1-0.8,0
			c-0.2,0-0.5,0.1-0.8,0.2c-0.1,0-0.2,0.1-0.2,0.1c-0.3,0.1-0.6,0.2-1,0.4c-1.5,0.6-2.9,1.3-4.4,1.9h0c-0.3,0.1-0.5,0.1-0.8,0.2
			c-0.5,0.1-1.1,0.2-1.6,0.4h0c-0.5,0.1-1.1,0.2-1.6,0.4c-1.7,0.4-3.3,0.7-5,1c-0.5,0.1-1.1,0.1-1.6,0.2c-1,0.1-2.1,0.1-3.1,0.1
			c-0.7,0-1.7,0.4-2.3-0.2c-0.1-0.1-0.1-0.2-0.2-0.3c-0.5-0.9,0.5-1.6,1-2.4c1.2-2.3,2.5-4.6,3.8-6.9c0.2-0.4,0.3-0.9,0.5-1.3
			c0,0,0,0,0,0v0c0.3-0.2,0.5-0.4,0.7-0.6c0.6-0.7,0.8-1.7,1.3-2.5c7.8-15.1,13.7-30.9,16-47.9c2.5-5,1.6-10.1-0.3-14.9
			c-3.3-8.4-2.4-16.1,3-23.3c1.5-2,2.7-4.2,3.8-6.5c2.4-5.4,1.7-9.7-2.5-13.8c-0.4-0.4-0.8-0.7-1.2-1.1c-0.4-0.4-0.8-0.7-1.2-1.1
			c-1.2-1.1-2.5-2.1-3.7-3.1c-0.5-0.4-0.9-0.8-1.4-1.1c-0.8-0.6-1.6-1.3-2.4-2l0,0l0,0c-4.9-8.3,2.1-19.9,15.2-19.1
			c4.9,0.3,9.5,1.8,13.8,4.1c7.1,3.7,14.3,7.1,21.9,10c9.5,3.7,13.5,11.9,15.8,21.1c1.4,5.6,1.5,11.4,1.4,17.1
			C682.6,312.5,682.2,321.9,684,331.3z"/>
		<path class="st0" d="M260.7,365.8c0.3,0.8,0.5,1.6,0.5,2.6l0,0c0,0,0,0,0,0c-1.9,0.9-3.7,1.9-5.6,2.6c-0.6,0.2-1.1,0.5-1.7,0.7
			c-0.6,0.2-1.1,0.3-1.7,0.5c-0.6,0.1-1.1,0.2-1.7,0.3c-0.6,0.1-1.1,0.1-1.7,0.1c-0.6,0-1.1,0-1.7-0.1c-0.3,0-0.5-0.1-0.8-0.1
			c-0.6-0.1-1.3-0.3-1.9-0.5c-0.3-0.1-0.5-0.2-0.8-0.3c-1-0.4-2.1-1-3.1-1.8c5.3-3.8,11.2-6.3,17.2-8.8c0.4,0.6,0.8,1.2,1.1,1.7
			C259.6,363.7,260.2,364.7,260.7,365.8z"/>
		<path class="st0" d="M286.9,322c-1.2,0-2.4,0-3.5,0.1c0-1.7-0.9-3.1-1.8-4.4c-0.2-0.3-0.4-0.7-0.6-1v0c-0.2-0.3-0.4-0.7-0.6-1
			c-0.4-0.7-0.6-1.4-0.7-2.3c2.3,0.1,4-1.7,6.1-2.1c0,0,0,0,0,0c0.3,2.7,0.2,5.4,0.6,8.1C286.5,320.3,286.7,321.1,286.9,322z"/>
		<path class="st0" d="M264.7,313.3c0,1.1-0.5,2-1.2,2.8c-3.9,5-3.3,10.7-2.4,16.4c0,0,0,0,0,0c-4,8.8-11.4,13.8-19.7,17.8
			c-0.1,0-0.1,0-0.2,0.1c-0.4,0.1-1,0.1-1.4,0.2c0.9-1.5,2-2.8,3.1-4.1c0.4-0.4,0.7-0.9,1.1-1.3c1.5-1.8,2.9-3.6,3.9-5.6
			c1.1-2.2,1.3-4.1-0.5-5.9h0c4.5-4.1,6.2-9.1,5.7-15.1c-0.3-3.7-0.5-7.5-0.7-11.2c2.4,1.6,4.9,3.3,7.4,4.8
			C261.3,312.7,262.9,313.3,264.7,313.3z"/>
		<path class="st0" d="M245.5,613.2c-0.1,3.5-0.1,6.9-0.2,10.4c-10.2,5.4-20.8,9.6-32.2,11.7c-0.4-6-0.2-11.9,1.1-17.8
			c0.8-3.7,1.1-7.5,1-11.3c0,0,0,0,0,0c9.1,1.9,17.9,1.5,25.7-4.5c0.6-0.5,1.1-0.7,1.5-0.5c0.1,0,0.1,0,0.2,0.1
			c0.1,0,0.1,0.1,0.2,0.1c0.3,0.3,0.5,0.8,0.7,1.4C244.3,606.3,243.8,610,245.5,613.2z"/>
		<path class="st0" d="M372.1,216.2c3.1,2.4,4.6,5.5,4.5,9.6c-0.1,4.1-0.4,8.2-1.1,12.3c-0.9-2.1-1.8-4.3-2.7-6.4s-1.8-4.3-2.7-6.4
			c-0.2-0.6-0.4-1.2-0.6-1.7c-0.1-0.1-0.1-0.3-0.2-0.4c-0.1-0.1-0.2-0.2-0.3-0.4c-0.1-0.1-0.1-0.1-0.2-0.2c-0.2-0.1-0.4-0.3-0.6-0.4
			v0c-0.2-3.8-2.6-6.8-3.5-10.3C367.5,212.9,369.9,214.4,372.1,216.2z"/>
		<path class="st0" d="M381.1,251.7c1.6,4.2,0.9,6-3,8.1c-3.6,1.9-7.3,3.3-11.1,4.5c-1.5,0.5-2.9,0.6-4.3-0.3l0,0
			c-3.8-5-5.3-11.1-7.8-16.8l1-0.5c0.4,1,0.9,2,1.5,2.8c0.1,0.2,0.2,0.3,0.4,0.5c0.2,0.3,0.5,0.6,0.8,0.9c1.3,1.3,3,2,5.2,1.7
			c0.9-0.1,1.8-0.3,2.6-0.4c1.6-0.3,3.2-0.9,4.6-1.6c0.2-0.1,0.4-0.2,0.6-0.4c0.2-0.1,0.5-0.3,0.7-0.5c0.2-0.2,0.4-0.3,0.6-0.5
			c1-0.9,1.8-1.9,2.4-3.3c0,0,0-0.1,0-0.1c0.1-0.1,0.1-0.3,0.2-0.5c0-0.1,0.1-0.2,0.1-0.3c0-0.2,0.1-0.3,0.1-0.4c0-0.1,0-0.1,0-0.2
			c0-0.2,0-0.3,0-0.5c0.1-1.5-0.4-2.9-0.9-4.3c-2.1-5.8-5.2-11.1-6.7-17.2v0c0,0,0,0,0,0h0l0,0c0,0,0,0,0,0c0.2,0.1,0.5,0.2,0.6,0.4
			c0.1,0.1,0.1,0.1,0.2,0.2c0.1,0.1,0.2,0.2,0.3,0.4c0.1,0.1,0.2,0.3,0.2,0.4c0.3,0.6,0.4,1.2,0.6,1.7c0.9,2.1,1.8,4.3,2.7,6.4
			c0.9,2.1,1.8,4.3,2.7,6.4v0C377.4,242.6,379.3,247.1,381.1,251.7z"/>
		<path class="st0" d="M368.2,222.2C368.2,222.2,368.2,222.2,368.2,222.2L368.2,222.2L368.2,222.2c-4.2-4.4-6.1-5.1-11.1-3.3
			c-0.6,0.2-1.2,0.4-1.8,0.7c-0.4,0.2-0.9,0.3-1.3,0.5c-0.2,0.1-0.4,0.2-0.6,0.3c-0.6,0.3-1.2,0.6-1.7,1c0,0,0,0,0,0
			c-0.3,0.2-0.6,0.5-0.9,0.8c0,0,0,0,0,0c-0.4,0.4-0.8,0.8-1,1.3c-0.5,0.8-0.8,1.7-1,2.7c-0.1,0.9-0.1,1.9,0.1,2.9c0,0,0,0,0,0
			c0.1,0.6,0.3,1.3,0.6,2c2.1,5.2,4.3,10.4,6.4,15.5l-1,0.5c-0.1-0.3-0.2-0.6-0.4-0.8c-3.4-7.5-6.5-15.1-9.7-22.7c0,0,0,0,0,0
			c0,0,0,0,0,0c-1.2-3-1.8-6.1-0.8-9.4c0.6-1.9,0.2-3.8-0.3-5.8c-1.9-6.8-3.6-13.7-5.6-20.5c-1.1-3.7,2.1-3.3,3.7-4.4
			c1.8-1.3,2.8-0.4,3.7,1.3c2.2,3.9,4.7,7.6,6.7,11.6c3,6.2,7.2,11.3,12.6,15.5C365.5,215.5,368,218.5,368.2,222.2z"/>
		<path class="st0" d="M354.5,246.3c2.7,5.9,4.2,12.4,8.2,17.7c-4.4,10.1-7.6,20.7-11.7,31c-0.6,1.5-1,3-1.6,4.5
			c-2.9,6.2-5.9,12.4-8.8,18.7v0c-0.1,0.1-0.2,0.2-0.3,0.2c-0.1,0.1-0.2,0.2-0.3,0.3c-1.5,0.3-3,0.3-4.5,0.1c-2.8-0.4-5.5-1.4-8-2.8
			c-0.3-0.1-0.5-0.3-0.8-0.5c-4.5-2.8-6-7.2-5.4-12.6c0,0,0,0,0,0v0c2.6-2.8,4.5-6.1,6.1-9.6c5.6-10.6,12-20.8,18.1-31.2
			c3.5-5.9,4.1-12.2,2.1-18.9c-1.9-6.4-3.2-12.9-2.9-19.6C348,231.2,351.1,238.8,354.5,246.3z"/>
		<path class="st0" d="M290.7,401.8c7.6,9.9,9,21.6,7.5,34c-1.4,11.6-5.6,22.4-9.5,33.3c-2.6,7.4-3.5,14.7-1.7,22.3
			c1.4,5.7-0.9,11.1-1,16.7c0,1.2-1.2,1.3-2,1.5c-25.3,7.4-49.4,4.8-72.4-8.2c-1.7-0.9-3.1-2.1-4.5-3.5c-0.4-0.4-0.9-0.9-1.3-1.4
			c0,0,0,0,0,0c-1.5,2-1.6,4.3-2.5,6.3c-0.3-0.9-0.6-1.8-0.8-2.7c-0.4-1.5-0.7-2.9-0.9-4.3c-0.8-5.3-0.1-10.6,3.4-15.6
			c1.1-1.5,1.9-3.3,1.8-5.1c-0.3-5,1.3-9.4,3-14c2.1-5.7,1.4-11.8,1-17.8c-0.1-0.7-0.1-1.4-0.2-2.1c0-0.1,0-0.3,0-0.4
			c-0.2-2-0.4-4.1-0.7-6.1c-0.2-1.7-0.5-3.4-0.8-5.1c-0.2-1.3-0.5-2.7-0.7-4c-1.3-7.1,1.4-13.5,4.4-19.8c2.3-4.9,4.6-9.8,6.9-14.6
			c0.5-1.1,1-2.2,1.3-3.3c0.1-0.2,0.1-0.4,0.2-0.6c0.1-0.4,0.2-0.8,0.3-1.1c0.4-1.7,0.6-3.5,0.5-5.3c0.1-0.7,0.4-1.2,0.8-1.6
			c0,0,0,0,0,0c0.1-0.1,0.2-0.2,0.3-0.3c0.8-0.8,1.9-1.1,2.9-1.5c0.4-0.2,0.8-0.3,1.1-0.5c4.4-2.6,8.7-5.7,13.7-7.2h0
			c1,0.8,2.1,1.3,3.1,1.8c0.3,0.1,0.5,0.2,0.8,0.3c0.6,0.2,1.2,0.4,1.9,0.5c0.2,0.1,0.5,0.1,0.8,0.1c0.6,0.1,1.1,0.1,1.7,0.1
			c0.6,0,1.1,0,1.7-0.1c0.6-0.1,1.1-0.2,1.7-0.3c0.5-0.1,1.1-0.3,1.7-0.5c0.6-0.2,1.2-0.4,1.7-0.6c1.9-0.8,3.7-1.8,5.5-2.6
			c0.1,0.2,0.2,0.3,0.2,0.5c0.4,0.8,1,1.3,1.6,1.6c1.2,0.7,2.8,0.7,4.3,0.8h0c5.1,7.2,10.2,14.4,15.4,21.5c0.5,0.7,1,1.3,1.5,2
			c0.8,1.1,1.7,2.1,2.7,3C288.4,399.1,289.6,400.4,290.7,401.8z"/>
		<path class="st0" d="M345.8,315.8c0.1,0.2,0.3,0.5,0.2,0.6c-3.3,5-5.6,10.4-6.3,16.5c-0.4,3.4-2.9,6.2-5.1,8.9
			c-11.3,14-18,30-20.2,47.8c-0.2,1.7-0.5,3.5-1.5,4.9c-5.4,7.6-5.9,16.1-4.5,24.8c2.7,17.6,5.8,35.1,10.8,52.2
			c0.5,1.8,1,3.7,2.1,5.1c2,2.6,1.1,4.7-0.6,6.8c-2.2,2.8-5.3,4.4-8.4,5.8c-6.1,2.9-11.7,6.4-16.6,10.9c-4,3.7-4.2,4.9-1.9,9.7
			c3.1,6.7,4.1,13.8,4.4,21.1c0.5,15.6,0.6,31.2-1.6,46.8c-0.5,3.7-1.5,7.2-3.2,10.5c-2.8,5.4-3.7,11-1.9,17
			c-4.1,1.8-8.6,2.2-12.8,3.6c-7,2.3-13.7,5.2-20.3,8.4c-1,0.5-2,1.1-3.2,1.1c0,0,0,0,0,0l0,0c-3.5-1-6.8-2.4-9.6-4.9
			c-1.7-3.2-1.1-6.9-2-10.3c-0.2-0.7-0.4-1.2-0.7-1.5c-0.1-0.1-0.1-0.1-0.2-0.1c-0.1,0-0.1-0.1-0.2-0.1c-0.4-0.1-0.9,0-1.5,0.5
			c-7.8,6-16.5,6.4-25.7,4.5c-1-0.5-2-1-3-1.5c-6.3-3.1-7.8-6-6.4-12.8c0.3-1.6,0.1-3-0.7-4.3c-3-4.6-3.2-9.6-2.7-14.9
			c0.4-4.9,1.3-9.8-0.4-14.6c0-0.9,0.1-1.9,0.1-2.8c5.1-6.4,4.4-14,4.4-21.3c0-9.8-0.9-19.5-2.7-29.1c-0.1-0.6-0.2-1.3-0.4-1.9
			c0.9-2,1-4.4,2.5-6.3c0.4,0.5,0.9,1,1.3,1.4c1.4,1.4,2.9,2.6,4.6,3.6c23,13,47.1,15.6,72.4,8.1c0.8-0.2,2-0.3,2-1.5
			c0.1-5.6,2.4-11.1,1-16.7c-1.8-7.6-0.9-14.9,1.7-22.3c3.8-10.9,8.1-21.8,9.5-33.3c1.5-12.5,0.2-24.2-7.5-34.1
			c-1.1-1.4-2.3-2.8-3.7-4.1c-1-0.9-1.8-2-2.7-3c-0.5-0.6-1-1.3-1.5-2c-5.2-7.1-10.3-14.3-15.5-21.5c3.4,0,6.8,0,10.3,0
			c3.4,0,5.5-2,5.6-5.4c0.1-3.5,0-7.1,0-10.6c0-0.7,0.1-1.5-0.3-2.1c-0.1-0.2-0.4-0.4-0.7-0.6c0-0.7,0-1.4,0-2c3.7-2,6.9-4.5,7.9-9
			c1.5-6.5-0.7-11-7.7-15.7c1.2-1,0.5-2.4,0.8-3.6c1.2,0,2.4,0,3.5-0.1c1.6,0.3,3.2,0.6,4.8,0.9c0.5,0.1,1.1,0.2,1.6,0.3
			c0.3,0.1,0.5,0.1,0.8,0.2c0.1,0,0.3,0.1,0.4,0.1c0.2,0,0.4,0.1,0.5,0.1c1.2,0.1,2.3,0,3.3-0.8c1.7-1.1,3.5-1.6,5.5-1.5
			c3.3,0.1,5-1.6,5.8-4.7c1.6-5.8,4.5-11,8.7-15.4c0.9-0.9,1.6-2,3.1-2.3c0,1.5,0,2.7,0,4c0,0,0,0,0,0v0c0,0,0,0,0,0
			c-0.6,5.3,0.9,9.8,5.4,12.6c0.2,0.2,0.5,0.3,0.8,0.5c2.5,1.4,5.2,2.4,8,2.8c1.5,0.2,3,0.2,4.5-0.1c0.2-0.2,0.4-0.3,0.6-0.5
			C342.8,318.4,344.1,316.6,345.8,315.8z"/>
		<path class="st0" d="M324.1,292.6c1.1,0.2,2.2,0.5,3.3,0.7c-1.6,3.5-3.4,6.8-6.1,9.6c0-1.2,0-2.5,0-3.9c0,0,0,0,0,0c0,0,0,0,0,0
			c-1.5,0.3-2.2,1.4-3.1,2.3c-4.2,4.4-7.1,9.5-8.7,15.4c-0.8,3.1-2.5,4.8-5.8,4.7c-2-0.1-3.8,0.4-5.5,1.5c-1,0.7-2.1,0.9-3.3,0.8
			c-0.2,0-0.4,0-0.5-0.1c-0.1,0-0.3,0-0.4-0.1c-0.3,0-0.5-0.1-0.8-0.2c-0.5-0.1-1.1-0.2-1.6-0.3c-1.6-0.3-3.2-0.6-4.8-0.9
			c0,0,0,0,0,0v0c-0.2-0.9-0.4-1.8-0.5-2.7c-0.4-2.7-0.3-5.4-0.6-8.1c5.9-4.2,10.4-9.4,12.2-16.7c0.3-1.2,0.5-2.5,0.5-3.7
			c0,0,0,0,0,0c0.1-1.2,0.1-2.5,0.2-3.7C307.2,289,315.7,290.8,324.1,292.6z"/>
		<path class="st0" d="M253.1,318.3c0.5,6-1.2,11-5.7,15.1h0c-1.4-0.5-2.7-0.6-3.8-0.2c-0.2,0.1-0.4,0.1-0.6,0.2h0
			c-0.2,0.1-0.4,0.2-0.5,0.3c0,0,0,0,0,0c-0.3,0.2-0.5,0.4-0.7,0.6c-0.1,0.1-0.2,0.2-0.2,0.2c-0.2,0.2-0.5,0.5-0.7,0.9
			c-0.4,0.5-0.8,0.9-1.3,1.2c-0.1,0-0.2,0.1-0.3,0.1c-0.4,0.2-0.9,0.4-1.4,0.5c-0.4,0.1-0.8,0.2-1.2,0.2c-6.6,1.1-13.2,1.1-19.8,1.3
			h0c-0.9-0.8-1.8-1.6-2.8-2.4c-2.5-1.8-5.1-2.9-7.9-0.3c0,0,0,0,0,0c-1.3-0.1-2.3-0.3-3.2-0.6c-0.8-0.3-1.4-0.6-1.9-1
			c-1.1-1.1-0.9-3,0.1-6.2c0.7-2.3,1.4-4.5,2.2-6.8c9.7-3.5,16.4-9.8,18.9-20c0.2-1,0.4-1.9,0.5-2.9c0.5-4.6-0.3-9.1-1.6-13.6
			c4.4-0.5,8.7-0.9,13.1-1.4c0,2.2,0.7,4.2,1.9,6.1c2.6,4.1,4.1,8.7,4.1,13.6c0,0.9,0.1,1.5,0.4,1.9c0.1,0.2,0.3,0.4,0.5,0.5
			c0.7,0.4,1.7,0.2,2.7-0.3c2.4-1,3.4-3.2,3.8-5.7c1.6,2.5,3.2,4.9,4.7,7.4c0,0,0,0,0.1,0v0c0,0,0,0,0,0
			C252.6,310.8,252.8,314.6,253.1,318.3z"/>
		<path class="st0" d="M298.8,287.1c-0.1,1.2-0.1,2.5-0.2,3.7c0,0,0,0,0,0c-0.1,1.2-0.2,2.5-0.6,3.7c-1.8,7.2-6.4,12.4-12.2,16.7
			c-2.1,0.5-3.8,2.2-6.1,2.1c-1.7-7.2-2.3-14.6-3.2-22c-0.2-1.2-0.4-2.3-0.8-3c-0.2-0.4-0.6-0.8-1-1c-0.7-0.4-1.6-0.6-3-0.4
			c-2.4,0.2-3.6,0.7-3.6,3.3c0,1.7-0.4,3.4-0.6,5.1c-1,6-1.2,12.1-2.7,18c-1.8,0-3.4-0.6-4.9-1.4c-2.5-1.5-4.9-3.1-7.4-4.7v0
			c-1.6-2.5-3.2-4.9-4.8-7.4c0,0,0,0,0,0c0,0,0,0,0,0c-0.1-0.8-0.2-1.6-0.2-2.5c-0.2-5.2,1.3-10,4.8-14.3c2.5-3,4-6.7,5.8-10.1
			c0.5-1,1-1.8,1.6-2.4c1.5-1.5,3.2-1.9,5.4-1.1c0.7,0.3,1.5,0.7,2.3,1.2c6.2,4,16.3,4.3,22.3,1c0,0,0,0,0,0
			c0.9-0.5,1.7-1.1,2.4-1.8C296.2,274.8,298.6,280.5,298.8,287.1z"/>
		<path class="st0" d="M290.7,258.1c2.5,3.6,3.3,7.5,1.3,11.7c-0.7,0.7-1.5,1.2-2.4,1.8c0,0,0,0,0,0c-6,3.3-16,3-22.3-1
			c-0.8-0.5-1.6-0.9-2.3-1.2c-2.1-0.8-3.9-0.4-5.4,1.1c-0.6,0.6-1.1,1.4-1.6,2.4c-1.8,3.4-3.4,7.1-5.8,10.1c-3.4,4.3-4.9,9-4.8,14.3
			c0,0.8,0.1,1.6,0.2,2.5c-0.4,2.5-1.4,4.7-3.8,5.7c-1,0.4-2,0.7-2.7,0.3c-0.2-0.1-0.3-0.3-0.5-0.5c-0.2-0.4-0.4-1-0.4-1.9
			c0-4.9-1.5-9.4-4.1-13.6c-1.2-1.9-1.9-3.9-1.9-6.1c0,0,0,0,0,0v0c2.8-6.2,4.6-12.6,4.3-19.6c-0.2-4,2.2-6.9,6-8.4
			c2.1-0.8,4.4-1.2,6.6-1.8c3.5-0.8,7-1.5,9.8-4c3.9-3.5,8.2-4.1,13.2-2.9C281,248.7,286.6,252.3,290.7,258.1z"/>
		<path class="st3" d="M608.9,334.3c0.1,1.3,0.1,2.4,0,3.4c0,0,0,0,0,0.1c-0.1,0.8-0.2,1.6-0.4,2.2c-0.1,0.2-0.2,0.4-0.2,0.6
			c-0.1,0.2-0.2,0.4-0.3,0.6c-0.1,0.2-0.2,0.3-0.4,0.5c0,0,0,0,0,0c-0.1,0.2-0.3,0.3-0.4,0.5c-0.7,0.7-1.6,1.3-2.8,1.8
			c-0.3,0.1-0.5,0.2-0.8,0.4c-0.6,0.2-1.2,0.5-2,0.7c-1,0.3-2,0.5-2.9,0.9c-0.2,0.1-0.4,0.1-0.6,0.2c-0.5,0.2-1,0.5-1.5,0.9
			c-3.5-0.2-6.9-1.2-9.4-3.7c-0.7-0.7-1.4-1.3-2.1-1.9c0,0,0,0,0,0c-2.9-2.5-5.9-4.8-9.2-6.6c0,0,0,0,0,0c-0.8-0.5-1.6-0.9-2.5-1.3
			c0,0,0,0,0,0c-0.8-0.4-1.7-0.8-2.6-1.2c0,0,0,0,0,0c-0.9-0.4-1.8-0.7-2.7-1.1c0.4-0.6,0.8-1.1,1.1-1.7c0.7-1.2,1.4-2.4,1.9-3.6
			c1.4-3.1,2.3-6.3,2.5-9.8h0v0c0-2.2,0.7-3.1,3.2-2.4c5.3,1.4,10.6,2.5,15.8,4.4c1.3,0.5,2.6,0.8,4,0.7c0.2,0.3,0.4,0.7,0.6,1
			c0.4,0.6,0.8,1.2,1.2,1.9c0.6,0.9,1.3,1.8,2,2.7c0.9,1.2,2,2.2,3,3.3c0.4,0.4,0.8,0.7,1.2,1.1c0.4,0.4,0.9,0.8,1.3,1.1
			c0,0,0,0,0,0c0.6,0.5,1.1,0.9,1.7,1.4c0.3,0.2,0.6,0.4,0.9,0.7c0.1,0.6,0.2,1.2,0.2,1.8C608.9,333.9,608.9,334.1,608.9,334.3z"/>
		<path class="st3" d="M402.1,234.6L402.1,234.6c-0.1,1.3,0,2.6-0.2,3.8c-0.5,2.6-1.8,4.3-4.8,4.5c-4.2,0.2-8.5,0.2-12.7-0.1
			c-2.9-0.2-4.4-1.7-4.7-4.5c-0.1-1.1-0.2-2.3-0.1-3.4c0.1-3.9,0-7.8-0.1-11.7l1.2,0c0.1,5,3,7.9,7.9,8.1c0.3,0,0.5,0,0.8,0
			c0.9,0,1.8,0,2.7,0c0.4,0,0.8,0,1.1,0c0.7-0.1,1.4-0.1,2-0.3c1.2-0.3,2.3-0.7,3.1-1.3c1.9-1.4,2.8-3.8,2.9-7.3
			c0.1-2.7,0.1-5.4,0.1-8.1h0.8C402,221.1,402,227.9,402.1,234.6L402.1,234.6z"/>
		<path class="st3" d="M578,608.8c4.3,11,8.6,22,12.9,32.9c-5.1,1.5-10.5,1.8-15.7,2.5c-0.1-5.4-2.1-10.3-4.2-15.2
			c-2.7-6.5-4.1-13.3-3.6-20.4h0C571,608,574.5,609.4,578,608.8z"/>
		<path class="st3" d="M581.9,260.6c6.2,11,5.1,21.9-2.9,31.6c-3.2,3.8-6.8,7.2-9.3,11.5c-1.5,2.5-2.3-0.1-3.5-0.3
			c-1.5-1.7-3.1-3.3-4.1-5.4c0,0,0,0,0,0c0,0,0,0,0,0c-0.3-4.1-0.1-8.2,1-12.3c0.4-1.5,0.3-3,0-4.4c-1.3-5.6-4.4-9.5-9.7-11.3
			c-0.4-0.1-0.7-0.2-1.1-0.4c-4.4-1.2-5.2-2.4-4.7-5.8c1.2-7.7-0.9-10.8-8.5-12.9c-0.9-0.2-1.8-0.5-2.7-0.7
			c-2.8-0.6-5.5-1.3-8.1-2.6c-1.2-4.3-2.3-8.7-1.9-13.1c0.3-3.2,3.9-4.3,6.8-4c10.5,1.1,21.1,1.8,31.3,4.8
			c7.5,2.2,12.4,7.1,13.6,15.2C578.5,254.3,580.2,257.5,581.9,260.6z"/>
		<path class="st3" d="M577.9,607.7c0,0.4,0.1,0.7,0.1,1.1c-3.5,0.5-7-0.9-10.6-0.2c0,0,0,0,0,0c-4.1-0.3-8.2-0.6-12.3-0.8
			c-5.2-0.3-6.5-1.4-7.6-6.6c-1.3-6.3-1.5-12.7-2.1-19.1c-0.5-5-1.2-10-3.6-15.6c-1.5,4.7-2.8,8.4-4,12.2
			c-1.7,5.3-3.5,10.5-7.7,14.4h0v0c-3.7,1.5-7.4,2.6-11.2,3.3c-5.3,1-10.8,1.2-16.2,0.8c-1.4-0.1-2.8-0.2-4.2-0.3
			c-2.7-0.6-5.3-1.4-7.8-2.6c-7.8-3.9-12.2-10.1-12-18.9c0.6-18.2,0.5-36.5,2-54.6c0.5-6.1,2.7-11.8,4.4-17.6
			c0.5-1.8,0.9-3.5,1.3-5.3c1.3-1,2.5,0,3.6,0.4c6,1.9,11.9,3.6,17.9,5.2c4.5,1.2,9,2.2,13.6,3.2c13.6,2.9,27.5,4.9,41.5,6.1
			c0.9,0.1,1.7,0.2,2.6,0.3c0.9,0.1,1.7,0.2,2.6,0.3c0.3,0.6,0.6,1.3,0.8,1.9c0,0.1,0,0.2,0,0.3c0,0.5,0,1,0,1.5c0,0.3,0,0.6,0.1,1
			c1.5,10,3.1,20.1,4.5,30.1c0.6,4.4,2.1,8.8,0.5,13.2c-1.6,4.3-1.1,8,2.1,11.3v0c-0.4,0.6-0.7,1.2-0.9,1.8
			c-0.1,0.3-0.2,0.6-0.3,0.9c-0.1,0.3-0.1,0.6-0.2,1c-0.2,1.3-0.1,2.6-0.2,3.8c-0.3,4.3-0.2,8.6,0.3,12.9c0,0.4,0.1,0.9,0.2,1.3
			c0,0.4,0.1,0.9,0.2,1.3c0.5,3.5,1.3,6.9,2.4,10.3c0.1,0.2,0.1,0.5,0.2,0.7c0,0.1,0,0.2,0.1,0.3c0,0,0,0.1,0,0.1
			C577.8,607.2,577.8,607.4,577.9,607.7C577.9,607.7,577.9,607.7,577.9,607.7z"/>
		<path class="st3" d="M573.7,316.1L573.7,316.1c-0.2,3.5-1.1,6.8-2.5,9.8c-0.6,1.2-1.2,2.4-1.9,3.6c-0.4,0.6-0.7,1.1-1.1,1.7
			c-2.2-0.6-4-1.7-5.5-3.2c-0.9-0.9-1.6-2-2.3-3.1c-0.7-1.3-1.5-2.4-2.5-3.4c-0.7-0.7-1.5-1.3-2.3-1.8c-0.7-0.4-1.4-0.7-2.2-1
			c-0.3-0.1-0.7-0.2-1-0.3c-0.6-0.2-1.2-0.5-1.8-0.8c-0.6-0.3-1.1-0.6-1.7-1c-2.9-1.9-5.1-4.6-6.8-7.9c-1.1-2.1-2.4-4.2-3.7-6.2
			c-0.2-0.3-0.4-0.6-0.5-0.9c5,0.6,9.9,1,15,0c1.2-0.2,2.4-0.7,3.5-1.2c0,0,0,0,0,0c1.9-0.9,3.7-1.9,5.7-2.3c1,2.1,2.5,3.8,4.1,5.4
			c0,0,0,0,0,0C566.8,308.8,569.4,313,573.7,316.1z"/>
		<path class="st3" d="M569.7,487.4L569.7,487.4c-1,4.6-1.6,9.1-1.1,13.7c0.1,0.7,0.2,1.5,0.3,2.2c0,0.2,0.1,0.5,0.1,0.8
			c-0.3,3.1-0.6,6.1-0.9,9.1c-0.9-0.1-1.7-0.2-2.6-0.3c-0.8-0.1-1.7-0.2-2.6-0.3c-14-1.2-27.8-3.2-41.5-6.1c-4.6-1-9.1-2-13.6-3.2
			c-6-1.6-12-3.3-17.9-5.2c-1.1-0.4-2.3-1.3-3.6-0.4v0c-3.3-2.1-3.6-5.3-3.8-8.8c-1.2-18.1,2.9-35.4,8.1-52.6
			c3.7-12.3,4.6-24.8,3.1-37.6c-0.8-6.6-1.2-13.2-0.8-19.9c0.6-11.1-2.9-20.5-12.2-27.1c-2.7-1.9,0.2-3.6-0.2-5.4
			c0.2-0.1,0.4-0.2,0.6-0.3c0.4-0.2,0.8-0.5,1.2-0.7c0.4-0.3,0.7-0.5,1-0.9c1.1-1.1,2-2.3,2.6-3.7c0.2-0.4,0.3-0.8,0.4-1.2
			c0.1-0.4,0.2-0.8,0.2-1.3c1-9.4,1.6-18.9-0.6-28.3c0.3-0.2,0.6-0.4,0.9-0.5c0.3-0.1,0.6-0.2,1-0.2c0.3,0,0.7-0.1,1-0.1
			c0.3,0,0.7,0,1-0.1c0.1,0,0.2,0,0.3,0c0.9,0,1.8,0,2.7,0.1c0.4,0,0.7,0.1,1.1,0.2c0.1,0,0.2,0,0.2,0c0.4,0.1,0.7,0.1,1.1,0.2
			c0.3,0.1,0.6,0.1,0.9,0.2c0.4,0.1,0.8,0.2,1.2,0.2c0.4,0.1,0.9,0.2,1.3,0.2c0,0,0,0,0,0c1.3,0.2,2.6,0.3,4,0.2v0h0
			c2,1.4,4,2.7,6,4.1c-2.3-0.1-4.4,0-5.5,2.5c-1.1,2.4-0.7,4.7,0.8,6.8c0.5,0.7,1,1.3,1.5,1.8c1.1,1.1,2.3,2.1,3.6,2.9
			c0.9,0.5,1.8,0.9,2.8,1.3c0.3,0.1,0.6,0.2,0.9,0.3c0.4,0.1,0.8,0.2,1.2,0.3c0.1,0,0.1,0,0.2,0c0.4,0.1,0.8,0.2,1.2,0.3
			c0.2,0,0.3,0.1,0.4,0.2c0.3,0.1,0.6,0.3,0.9,0.5c0.2,0.1,0.3,0.2,0.4,0.3c0,0,0,0,0,0c0.3,0.2,0.5,0.5,0.8,0.8
			c2.9,3.3,6,6.5,9.1,9.5c5.2,5.2,10.6,10.1,16.1,14.9c3,2.6,5.5,5.5,7.2,9.1c2.1,4.6,4.2,9.2,6.4,13.7c2.4,5.1,2,10.2,0.8,15.5
			c-1.4,6.1-3.7,12-4.6,18.3c-0.7,4.7,0,9,2.4,12.9c3.5,5.6,4.1,11.2,3,17.7c-1.4,7.7,0,15.6,1.8,23.2c0.8,3.2,1.6,6.4,2.6,9.6
			c0.9,3.1,2.3,5.9,5.2,7.5c0.2,0.1,0.4,0.2,0.6,0.3c0.2,0.1,0.3,0.2,0.4,0.2C569.6,485.8,569.6,486.5,569.7,487.4z"/>
		<path class="st3" d="M563,281.4c0.3,1.5,0.4,3,0,4.4c-1.1,4-1.3,8.1-1,12.3c-2,0.5-3.8,1.5-5.7,2.3c0,0,0,0,0,0
			c-1.1,0.5-2.3,1-3.5,1.2c-5,1-10,0.6-15,0c-1.4-1.5-2.8-2.9-4.4-4c-0.4-0.3-0.9-0.6-1.4-0.9c0,0,0,0,0,0c-0.7-0.4-1.5-0.7-2.3-1
			c-1.1-0.3-2.3-0.5-3.6-0.5c-4.5-4.7-8.2-9.9-9.3-16.5c-1.7-10.8,0.7-20.4,9.2-27.9c0.9-0.8,2.1-1.5,2.2-2.9
			c2.6,1.3,5.3,1.9,8.1,2.6c0.9,0.2,1.8,0.4,2.7,0.7c7.6,2.1,9.6,5.1,8.5,12.9c-0.5,3.4,0.3,4.5,4.7,5.8c0.4,0.1,0.7,0.2,1.1,0.3
			C558.7,271.9,561.8,275.8,563,281.4z"/>
		<path class="st3" d="M531.8,611.3c0.3,6.4-1.3,12.2-3.6,18c-1.6,4.2-3.4,8.3-3.6,12.8c-7.1-1.4-14.3-2.8-21.4-4.2
			c-2-0.4-4-0.8-6-1.2c1.9-9,1.5-18.2,1.3-27.3c-0.1-4.2-1-8.4,0-12.6c1.4,0.1,2.8,0.3,4.2,0.3c5.5,0.3,10.9,0.1,16.2-0.8
			c3.8-0.7,7.5-1.7,11.2-3.2C530.9,599.2,531.5,605.2,531.8,611.3z"/>
		<path class="st3" d="M486,309.9c2.2,9.4,1.6,18.9,0.6,28.3c0,0.4-0.1,0.9-0.2,1.3c-0.1,0.4-0.2,0.8-0.4,1.2
			c-0.5,1.4-1.4,2.7-2.6,3.7c-0.3,0.3-0.7,0.6-1,0.9c-0.4,0.3-0.8,0.5-1.2,0.7c-0.2,0.1-0.4,0.2-0.6,0.3
			c-7.3-3.3-14.3-6.9-20.7-11.7c-0.2-0.1-0.4-0.1-0.7-0.1l0,0c-13.7-16.7-22.9-35.6-28.4-56.4c4.1,0,8.1-0.1,12.2,0
			c1.1,0.1,2.1-0.1,3-0.4c0.8-0.3,1.4-0.7,1.9-1.2c0.7-0.7,1.2-1.5,1.5-2.6c1.6,4.6,3.1,9.3,4.8,13.9c1.9,5.3,5,9,9.9,10.4
			c0.4,0.1,0.8,0.2,1.2,0.3c1,0.2,2.1,0.3,3.3,0.3c1,0,2,0.2,3,0.5c2.1,0.7,4,1.9,5.9,3.1C480.9,304.4,483,307.7,486,309.9
			C486,309.9,486,309.9,486,309.9z"/>
		<path class="st3" d="M427,257c0,4-0.1,8.1-0.2,12.2c-3-3.6-3.9-8.1-4.6-12.4c-1.8-12-9.1-18.7-20.2-22.1c0-12.4-0.2-24.8,0-37.2
			c0-1.9-0.1-3.6-0.6-5.3c0,0,0,0,0,0c0-0.2-0.1-0.4-0.2-0.6c-0.2-0.8-0.6-1.5-0.9-2.2c-0.2-0.3-0.4-0.7-0.6-1.1
			c-0.1-0.2-0.2-0.3-0.4-0.5c3.1-1.4,5.8-0.9,7,2.5c3.3,9.6,10.2,16.7,16.1,24.5c1.8,2.4,4,4.7,4.5,8c-0.3,0.1-0.7,0.2-1,0.2
			c-1,0.2-2,0.4-3,0.7c-1.8,0.6-3.6,1.7-4.9,3.1c-0.2,0.2-0.4,0.4-0.6,0.6c0,0,0,0,0,0c-0.5,0.5-0.8,1.1-1.2,1.7c0,0,0,0,0,0
			c-0.3,0.5-0.5,1-0.7,1.5c-1,2.8-0.6,5.9,1.9,9.1c0.2,0.2,0.3,0.4,0.5,0.6s0.3,0.4,0.5,0.6c0.2,0.2,0.3,0.4,0.5,0.5
			c2.3,2.3,5,4,7.8,5.7C427,250.4,427,253.7,427,257z"/>
		<path class="st3" d="M401.5,192.2c0.4,1.7,0.6,3.4,0.6,5.3c-0.1,5.6-0.1,11.2-0.1,16.8h-0.8c0-2.7,0-5.4-0.1-8.1
			c-0.1-3.1-0.8-5.3-2.3-6.8c-0.2-0.2-0.4-0.4-0.6-0.5c-0.4-0.3-0.9-0.6-1.4-0.8c-1.3-0.6-2.9-0.8-4.9-0.8c-1.2,0-2.3,0-3.4,0
			c-2.4,0.1-4.3,0.8-5.6,2.2c-0.5,0.5-0.9,1.1-1.3,1.7c-0.6,1.1-0.9,2.4-0.9,3.9c-0.1,3.1,0,6.2,0,9.3c0,3-0.1,6,0,8.9l-1.2,0
			c-0.2-9.2-0.7-18.3,0-27.5c0.1-1.7,0-3.6,1.1-5c4.3-5.3,3.9-11.8,4.9-18c0.6-3.8,1.2-7.7,1.5-11.6c0.3-3.4,2.7-2.3,4.5-2.5
			c2-0.3,3.2,0,3.5,2.4c0.9,7.4,2,14.8,3,22.2c0.2,1.6,0.6,3.1,1.5,4.5c0.1,0.2,0.2,0.4,0.4,0.5c0.2,0.4,0.4,0.7,0.6,1.1
			c0.4,0.7,0.7,1.5,0.9,2.2C401.3,191.8,401.4,192,401.5,192.2C401.4,192.2,401.5,192.2,401.5,192.2z"/>
	</g>
	<g>
		<path class="st4" d="M511.3,315.1c5.1,0.7,9.3-2,11.3-7.5c0.9-2.5,1.3-5.1,1.4-7.7"/>
		<path class="st4" d="M510.4,315c0.2,0,0.5,0.1,0.7,0.1"/>
		<path class="st4" d="M505.5,325.7c-0.5-0.6-1-1.2-1.5-1.8c-1.5-2.1-1.9-4.4-0.8-6.8c1.1-2.5,3.3-2.6,5.5-2.5"/>
		<path class="st4" d="M511.8,329.8c-1-0.4-1.9-0.8-2.8-1.3"/>
		<path class="st4" d="M513.9,330.4c-0.4-0.1-0.8-0.2-1.2-0.3"/>
		<path class="st4" d="M515.7,331c-0.1-0.1-0.3-0.1-0.4-0.2"/>
		<path class="st4" d="M517.1,331.8c-0.2-0.1-0.3-0.2-0.4-0.3"/>
		<path class="st4" d="M567.8,484.6c-2.9-1.6-4.3-4.4-5.2-7.5c-0.9-3.2-1.8-6.4-2.6-9.6c-1.9-7.6-3.2-15.4-1.8-23.2
			c1.2-6.5,0.6-12.1-2.9-17.7c-2.4-3.9-3.1-8.2-2.4-12.9c0.9-6.3,3.2-12.2,4.6-18.3c1.2-5.2,1.6-10.4-0.8-15.5
			c-2.2-4.6-4.3-9.2-6.4-13.7c-1.7-3.6-4.2-6.6-7.2-9.2c-5.5-4.8-10.9-9.8-16.1-14.9c-3.1-3.1-6.1-6.3-9.1-9.5
			c-0.3-0.3-0.5-0.6-0.8-0.8"/>
		<path class="st4" d="M570,516.2c-0.3-0.3-0.7-0.6-1.1-1c-0.3-0.6-0.5-1.3-0.8-1.9c0.3-3.1,0.6-6.1,0.9-9.2
			c1.7-5.5,1.6-11.1,0.7-16.7c0-0.9,0-1.7-0.9-2.3"/>
		<path class="st4" d="M570.6,516.6c-0.2-0.1-0.3-0.3-0.5-0.4"/>
		<path class="st4" d="M585.6,484.9c-0.7-0.1-1.4,0-2.1,0.7c-1.9,1.6-3.5,3.4-2.7,6.2c0.4,1.4,0.9,2.9,0.9,4.4
			c0.2,6.2,2.9,12.8-2,18.4v0l0,0c-4.1,2.4-6,3.3-7.7,2.7"/>
		<path class="st4" d="M592,488.5c-0.6-0.4-1.2-0.9-1.9-1.2"/>
		<path class="st4" d="M609.8,510.5c-2.5-4.4-5.5-8.4-8.5-12.5c-1.6-2.1-3.2-4.1-5.1-6"/>
		<path class="st4" d="M647.7,545.9c-9.6-7.3-18.7-15.2-27.2-23.9"/>
		<path class="st4" d="M664.6,558c-2.9-1.9-5.7-3.9-8.5-5.9"/>
		<path class="st4" d="M673.4,563.6C673.4,563.6,673.4,563.6,673.4,563.6"/>
		<path class="st4" d="M688.3,542.2c-0.3,0.2-0.6,0.5-0.9,0.8"/>
		<path class="st4" d="M689.5,541.4c-0.3,0.2-0.6,0.3-0.9,0.5"/>
		<path class="st4" d="M690.2,541.1c-0.1,0-0.2,0.1-0.3,0.1"/>
		<path class="st4" d="M675.1,371.2c0.4-0.1,0.8-0.3,1.1-0.8c11.1,7.3,14.4,18.7,16.2,31c1.1,7.8,0.5,15.6,1.1,23.4
			c0.4,4.8,1.5,9.7,1.2,14.4c-0.5,8.4,0,16.7,0.9,25c1,8.2,3.5,16.2,3.6,24.5c0.1,9,1.5,17.5,5.8,25.6c2.2,4.3,3.7,8.9,3.3,13.9
			c-0.3,3.4-1.5,5.9-5.1,6.8c-1.4,0.3-3.3,0.7-3.6,2.4c-0.6,3.8-3.2,4-6.1,3.8c0,0,0,0,0,0"/>
		<path class="st4" d="M666.2,367.8c0.1,0,0.2,0.1,0.3,0.2c1.8,0.9,3.7,1.6,5.5,2.4c0.3,0.1,0.5,0.2,0.8,0.3c0.3,0.1,0.6,0.3,1,0.4
			c0.2,0,0.3,0.1,0.5,0.1"/>
		<path class="st4" d="M665.5,367.5c0.2,0.1,0.4,0.1,0.7,0.2"/>
		<path class="st4" d="M664.9,367.4c0.2,0,0.4,0.1,0.6,0.2"/>
		<path class="st4" d="M662.9,367.4c0.2-0.1,0.3-0.1,0.5-0.1c0.5-0.1,0.9-0.1,1.5,0"/>
		<path class="st4" d="M636.2,412.6c2.1-2,3.2-5,4.4-7.9c5-12.5,11.9-24,19.5-35c0.3-0.4,0.6-0.8,0.9-1.1c0.5-0.5,0.9-0.8,1.4-1"/>
		<path class="st4" d="M632.7,414.8c1.3-0.4,2.3-1.1,3.2-1.8"/>
		<path class="st4" d="M632.8,408c-1,2.4-2.2,4.7-3.2,7.1"/>
		<path class="st4" d="M633.4,406.4c-0.2,0.5-0.4,1.1-0.6,1.6"/>
		<path class="st4" d="M634.5,402.3L634.5,402.3c-0.2,1.2-0.4,2.2-0.8,3.3"/>
		<polyline class="st4" points="634.3,402.1 634.4,402.2 634.5,402.3 		"/>
		<path class="st4" d="M624.9,405.9c0.5-0.2,1-0.4,1.5-0.5"/>
		<path class="st4" d="M618.2,407.5c0.1,0,0.2,0,0.3,0c0.3,0,0.7-0.1,1-0.2"/>
		<path class="st4" d="M620.8,396.3c-0.8,4.1-3.1,7.5-4.8,11.1c0.8,0.4,1.4,0.2,2,0.1"/>
		<path class="st4" d="M613.7,396.6c2.4,0.3,4.7,0.3,7-0.4"/>
		<path class="st4" d="M611.3,397.2c0.5-0.1,1.1-0.2,1.6-0.4"/>
		<path class="st4" d="M609.6,397.5c0.5-0.1,1.1-0.2,1.6-0.4"/>
		<path class="st4" d="M603,398.7c0.5,0,1.1-0.1,1.6-0.2"/>
		<path class="st4" d="M602.2,389.1c-1.3,2.3-2.5,4.6-3.8,6.9c-0.4,0.8-1.4,1.5-1,2.4c0.1,0.1,0.1,0.2,0.2,0.3"/>
		<path class="st4" d="M603.3,382.8c-0.3,1.6-0.6,3.3-0.6,5v0"/>
		<path class="st4" d="M603.9,379.9c-0.2,0.6-0.3,1.3-0.5,1.9"/>
		<path class="st4" d="M606.8,359.9c0,0.4,0.1,0.9,0.1,1.3c0.2,3.7-0.5,7.3-1.1,10.9c-0.1,0.3-0.1,0.7-0.2,1"/>
		<path class="st4" d="M605.7,355.3c0.3,0.7,0.5,1.4,0.7,2.2"/>
		<path class="st4" d="M585.1,341.4c0.7,0.6,1.4,1.3,2.1,1.9c2.5,2.4,5.8,3.5,9.4,3.7"/>
		<path class="st4" d="M575.9,334.8c3.3,1.9,6.3,4.1,9.2,6.6"/>
		<path class="st4" d="M573.4,333.4c0.9,0.4,1.7,0.9,2.5,1.3"/>
		<path class="st4" d="M570.8,332.2c0.9,0.4,1.7,0.8,2.6,1.2"/>
		<path class="st4" d="M568.2,331.2c0.9,0.3,1.8,0.7,2.7,1.1"/>
		<path class="st4" d="M562.7,328c1.5,1.5,3.3,2.6,5.5,3.2"/>
		<path class="st4" d="M548.8,316.5c0.5,0.4,1.1,0.7,1.7,1c0.6,0.3,1.2,0.6,1.8,0.8c0.3,0.1,0.6,0.2,1,0.3c0.8,0.3,1.5,0.6,2.2,1
			c0.9,0.5,1.6,1.1,2.3,1.8"/>
		<path class="st4" d="M537.8,301.6c0.2,0.3,0.3,0.6,0.5,0.9"/>
		<line class="st4" x1="537.8" y1="301.6" x2="537.8" y2="301.6"/>
		<path class="st4" d="M532,296.7c0.5,0.3,0.9,0.6,1.4,0.9"/>
		<path class="st4" d="M529.7,295.7c0.8,0.2,1.6,0.6,2.3,1"/>
		<path class="st4" d="M523.9,295.8c0.7-0.2,1.5-0.4,2.2-0.6"/>
		<path class="st4" d="M655.8,474c-0.2,0.1-0.5,0.2-0.8,0.3"/>
		<path class="st4" d="M660.6,478.7c0-1-0.1-1.9-0.1-2.6c0-0.4-0.1-0.7-0.1-1c-0.1-0.7-0.3-1.2-0.6-1.5c-0.6-0.6-1.8-0.4-3.9,0.3"/>
		<path class="st4" d="M660.8,482.6c-0.1-1-0.2-2-0.2-3.1c0-0.3,0-0.5,0-0.8"/>
		<path class="st4" d="M661.1,484.6c-0.1-0.5-0.2-1-0.2-1.5"/>
		<path class="st4" d="M669,530.1C669,530.1,669,530.1,669,530.1c0.2-0.7,0.4-1.2,0.4-1.8c-0.2-7.4-0.5-14.9-2-22.1"/>
		<path class="st4" d="M667.4,527c0.2,0.4,0.3,0.8,0.5,1.2"/>
		<path class="st4" d="M667.1,526.1c0.1,0.2,0.1,0.4,0.2,0.6"/>
		<path class="st4" d="M665,509.7c0.4,2.5,0.5,5.1,0.5,7.7c0,1.4,0.1,2.9,0.4,4.4"/>
		<path class="st4" d="M664.6,506.9c0.1,0.4,0.2,0.8,0.2,1.3"/>
		<path class="st4" d="M658.2,483.1c0.1,0.4,0.2,0.9,0.3,1.3c0.1,0.5,0.2,1,0.3,1.6c0.3,1.9,0.6,3.8,1,5.6"/>
		<path class="st4" d="M657.4,480.8c0.3,0.7,0.5,1.3,0.7,2"/>
		<path class="st4" d="M335.5,318.7c1.5,0.2,3,0.2,4.5-0.1c0.2-0.2,0.4-0.3,0.6-0.5c0,0,0,0,0,0l-0.1,0c0,0,0,0,0,0
			c2.2,0.3,3.5-1.5,5.2-2.3c0.1,0.2,0.3,0.5,0.2,0.6c-3.3,5-5.6,10.4-6.3,16.5c-0.4,3.4-2.9,6.2-5.1,8.9c-11.3,14-18,30-20.2,47.8
			c-0.2,1.7-0.5,3.5-1.5,4.9c-5.4,7.6-5.9,16.1-4.5,24.8c2.7,17.6,5.8,35.1,10.8,52.2c0.5,1.8,1,3.7,2.1,5.1c2,2.6,1.1,4.7-0.6,6.8
			c-2.2,2.8-5.3,4.4-8.4,5.8c-6.1,2.9-11.7,6.4-16.6,10.9c-4,3.7-4.2,4.9-1.9,9.7c3.1,6.7,4.1,13.8,4.4,21.1
			c0.5,15.6,0.6,31.2-1.6,46.8c-0.5,3.7-1.5,7.2-3.2,10.5c-2.8,5.4-3.7,11-1.9,17c-4.1,1.8-8.6,2.2-12.8,3.6
			c-7,2.3-13.7,5.2-20.3,8.4c-1,0.5-2,1.1-3.2,1.1c0,0,0,0,0,0c-3.5-1-6.8-2.3-9.6-4.9c0,0,0,0,0,0c-1.7-3.2-1.1-6.9-2-10.3
			c-0.2-0.7-0.4-1.2-0.7-1.5c-0.1-0.1-0.1-0.1-0.2-0.1"/>
		<path class="st4" d="M321.4,302.9C321.4,302.9,321.4,302.9,321.4,302.9c-0.6,5.4,0.9,9.8,5.4,12.6"/>
		<path class="st4" d="M295,323.6c1.2,0.1,2.3,0,3.3-0.8c1.7-1.1,3.5-1.6,5.5-1.5c3.3,0.1,5-1.6,5.8-4.7c1.6-5.8,4.5-11,8.7-15.4
			c0.9-0.9,1.6-2,3.1-2.3c0,0,0,0,0,0c0,1.5,0,2.7,0,3.9"/>
		<path class="st4" d="M294.1,323.5c0.1,0,0.3,0,0.4,0.1"/>
		<path class="st4" d="M282.4,352.5c0-0.7,0-1.4,0-2c3.7-2,6.9-4.5,7.9-9c1.5-6.5-0.7-11-7.7-15.7c1.2-1,0.5-2.4,0.8-3.6
			c1.2,0,2.4,0,3.5-0.1c1.6,0.3,3.2,0.6,4.8,0.9"/>
		<path class="st4" d="M284.3,394.7c-0.5-0.6-1-1.3-1.5-2c-5.2-7.1-10.3-14.3-15.5-21.5c3.4,0,6.8,0,10.3,0c3.4,0,5.5-2,5.6-5.4
			c0.1-3.5,0-7.1,0-10.6c0-0.7,0.1-1.5-0.3-2.1"/>
		<path class="st4" d="M207.1,498.1c1.4,1.4,2.9,2.6,4.6,3.6c23,13,47.1,15.6,72.4,8.1c0.8-0.2,2-0.3,2-1.5c0.1-5.6,2.4-11.1,1-16.7
			c-1.8-7.6-0.9-14.9,1.7-22.3c3.8-10.9,8.1-21.8,9.5-33.3c1.5-12.5,0.2-24.2-7.5-34.1"/>
		<path class="st4" d="M242.4,601.3c-0.4-0.1-0.9,0-1.5,0.5c-7.8,6-16.5,6.4-25.7,4.5c0,0,0,0,0,0c-1-0.5-2-1-3-1.5
			c-6.3-3.1-7.8-6-6.4-12.8c0.3-1.6,0.1-3-0.7-4.3c-3-4.6-3.2-9.6-2.7-14.9c0.4-4.9,1.3-9.8-0.4-14.6c0-0.9,0.1-1.9,0.1-2.8
			c5.1-6.4,4.4-14,4.4-21.3c0-9.8-0.9-19.5-2.7-29.1c-0.1-0.6-0.2-1.3-0.4-1.9c0.9-2,1-4.4,2.5-6.3"/>
		<path class="st4" d="M617,271.7c-0.8-0.6-1.6-1.3-2.4-1.9l0,0c-4.9-8.3,2.1-19.9,15.2-19.1c4.9,0.3,9.5,1.8,13.8,4.1
			c7.1,3.7,14.3,7.1,21.9,10c9.5,3.7,13.5,11.9,15.8,21.1c1.4,5.6,1.5,11.4,1.4,17.1c-0.1,9.4-0.5,18.8,1.3,28.2
			c0.7,3.4,0.2,6.9-1.2,10.1c-2.2,4.8-3.2,9.8-3.1,15c0.1,3.6-0.9,7-1.8,10.5c-0.5,1.2-1.1,2.3-1.6,3.5c-0.4,0.5-0.7,0.7-1.1,0.8
			c-0.3,0.1-0.5,0.1-0.8,0c-0.2,0-0.3-0.1-0.5-0.1c-0.3-0.1-0.6-0.2-1-0.4c-0.3-0.1-0.5-0.2-0.8-0.3c-1.8-0.8-3.7-1.5-5.5-2.4
			c-0.1-0.1-0.2-0.1-0.3-0.2c0,0,0,0,0,0c-0.2-0.1-0.5-0.2-0.7-0.2h0c-0.2-0.1-0.4-0.1-0.6-0.2c0,0,0,0,0,0c-0.5-0.1-1-0.1-1.5,0
			c-0.2,0-0.3,0.1-0.5,0.1c-0.2,0-0.3,0.1-0.5,0.2c-0.5,0.2-1,0.6-1.4,1c-0.3,0.3-0.6,0.7-0.9,1.1c-7.7,11-14.6,22.5-19.5,35
			c-1.1,2.9-2.3,5.8-4.4,7.9c-0.1,0.1-0.2,0.2-0.3,0.3c-0.9,0.8-1.9,1.4-3.2,1.8c-0.5,0.2-1,0.3-1.5,0.4c-0.4,0.1-0.9,0-1.5,0
			c0,0,0,0,0,0c1-2.5,2.2-4.8,3.2-7.1c0,0,0,0,0,0c0.2-0.5,0.4-1,0.6-1.6c0.1-0.3,0.2-0.5,0.3-0.8c0.4-1.1,0.6-2.2,0.8-3.3"/>
		<path class="st4" d="M622.1,276c-1.2-1.1-2.5-2.1-3.7-3.1"/>
		<path class="st4" d="M603.4,387.1c0.6-0.7,0.8-1.7,1.2-2.5c7.8-15.1,13.7-30.9,16-47.9c0,0,0,0,0,0c2.4-5,1.5-10-0.3-14.9
			c-3.2-8.4-2.4-16.1,3-23.3c1.5-2,2.7-4.2,3.8-6.5c2.4-5.4,1.7-9.7-2.5-13.8c-0.4-0.4-0.8-0.7-1.2-1.1"/>
		<polyline class="st4" points="602.7,387.8 602.7,387.8 602.7,387.8 602.7,387.8 602.7,387.8 		"/>
		<path class="st4" d="M613.7,396.6L613.7,396.6c-0.3,0.1-0.6,0.1-0.8,0.2c-0.5,0.1-1.1,0.2-1.6,0.4h0c-0.5,0.1-1.1,0.2-1.6,0.4
			c-1.7,0.4-3.3,0.7-5,1c-0.5,0.1-1.1,0.1-1.6,0.2c-1,0.1-2.1,0.1-3.1,0.1c-0.7,0-1.7,0.4-2.3-0.2c-0.1-0.1-0.2-0.2-0.2-0.3
			c-0.5-0.9,0.5-1.6,1-2.4c1.2-2.3,2.5-4.6,3.8-6.9c0,0,0,0,0,0c0.2-0.4,0.3-0.8,0.5-1.3v0h0v0"/>
		<path class="st4" d="M619.1,394.4c-0.3,0.1-0.6,0.2-1,0.4"/>
		<path class="st4" d="M634.3,402.1L634.3,402.1c-2.7,1-5.3,2.2-8,3.2c-0.5,0.2-1,0.4-1.5,0.5c-1.7,0.6-3.5,1.1-5.3,1.5
			c-0.4,0.1-0.7,0.1-1.1,0.2c-0.1,0-0.2,0-0.2,0c-0.1,0-0.2,0-0.2,0c-0.6,0.1-1.3,0.2-2-0.1c1.7-3.7,4-7.1,4.8-11.2l0,0
			c0.5-1.1,0.8-2,0.1-2.2c-0.2-0.1-0.5-0.1-0.8,0"/>
		<path class="st4" d="M634.8,401.8c-0.2,0.1-0.3,0.1-0.5,0.2"/>
		<line class="st4" x1="634.5" y1="402.3" x2="634.5" y2="402.3"/>
		<path class="st4" d="M133.8,341.1c-0.9,1.8-1.6,3.6-2.2,5.4c-0.1,0.3-0.2,0.6-0.3,1"/>
		<path class="st4" d="M143.5,328.5c-0.5,0.4-1,0.8-1.4,1.2"/>
		<path class="st4" d="M146.7,326.3c-0.9,0.5-1.7,1-2.5,1.6"/>
		<path class="st4" d="M176.3,340.4c-0.5-0.7-1-1.3-1.6-1.9c-0.2-0.2-0.4-0.4-0.6-0.6c-0.4-0.4-0.9-0.8-1.3-1.1
			c-2.8-6.9-7-12-14.8-13.1c-4.2-1.6-7.8-0.6-10.8,2.4"/>
		<path class="st4" d="M178.2,343.1c-0.5-0.7-0.9-1.4-1.4-2.1"/>
		<path class="st4" d="M181.1,347.3c-0.7-0.9-1.3-1.8-1.9-2.8"/>
		<path class="st4" d="M183.9,351.8c-0.8-0.9-1.3-1.9-1.9-3"/>
		<path class="st4" d="M186.7,351.8c-0.5,0.4-0.9,0.8-1.5,1.2c-0.4-0.3-0.7-0.6-1.1-0.9"/>
		<path class="st4" d="M187.9,323.4c-0.2,1.9,0.4,3.9,1.3,5.7c2.1,3.9,2.7,9.8,1.6,14.9"/>
		<path class="st4" d="M188.5,321.2c-0.1,0.1-0.1,0.3-0.2,0.5"/>
		<path class="st4" d="M191.6,318c-0.3,0.3-0.6,0.6-0.8,1c-0.6,0.6-1.3,1.2-2,1.8c0,0,0,0,0,0v0"/>
		<path class="st4" d="M195.1,311.5c-0.2,0.6-0.4,1.1-0.7,1.7"/>
		<path class="st4" d="M197.3,300.5c-0.1,0.8-0.1,1.6-0.3,2.4c-0.2,1.3-0.4,2.5-0.6,3.8"/>
		<path class="st4" d="M197.4,297.7c0,0.8,0,1.6-0.1,2.4"/>
		<path class="st4" d="M197.2,293.7c0.1,1,0.2,1.9,0.2,2.9"/>
		<path class="st4" d="M196.5,289.3c0,0.2,0,0.3,0.1,0.5c0.3,1.3,0.5,2.6,0.7,3.9"/>
		<path class="st4" d="M196.4,284.4c-0.2,1.1-0.2,2.6,0.1,4.4c0,0.2,0,0.3,0.1,0.5"/>
		<path class="st4" d="M197.2,282.4c-0.1,0.1-0.1,0.2-0.2,0.2"/>
		<path class="st4" d="M197.7,282c-0.1,0-0.2,0.1-0.2,0.2"/>
		<path class="st4" d="M214.8,283.5c-1.8,0.4-3.8,0.3-5.8-0.4c-1.5-0.5-3.1-0.9-4.6-1.3c-3.1-0.8-5.2-0.8-6.5,0"/>
		<path class="st4" d="M215.6,283.2c-0.3,0.1-0.5,0.2-0.8,0.2"/>
		<path class="st4" d="M217.2,282.4c-0.3,0.1-0.5,0.3-0.8,0.4"/>
		<path class="st4" d="M128.8,359.6c-6-1.9-8.5-7.1-6.6-13.9c1.1-4.1,3.6-7.1,7-9.4c3.3-2.2,6.6-4.5,9.5-7.3c5.2-5,9-10.7,8-18.4
			c-0.1-0.8,0-1.7-0.3-2.4c-2.2-4.8-0.3-8.2,3.6-10.9c8-5.3,11.1-12.8,10.4-22.2c-0.1-1.9-0.1-3.9,0-5.9c0.4-6.5,3.7-10.6,10.1-10.9
			c11-0.5,22.1-1,33,1.2c6.2,1.3,11.2,4.5,15,9.7c2.8,3.8,3.5,7.7,0.6,11.8c-0.5,0.5-1,0.9-1.5,1.2"/>
		<path class="st4" d="M666.4,602.8c0-0.1,0-0.2,0-0.4c-0.7-6,0-12.1,0.8-18.1c0.9-7.2,4-13.8,6.2-20.7c0.1-0.1,0.1-0.2,0.2-0.3
			c1.9-3.8,1.5-9.2,4.3-11.7c3-2.6,6.3-5.1,9-8.2c0.2-0.2,0.3-0.4,0.5-0.6c0.3-0.3,0.6-0.5,0.9-0.8c0.1-0.1,0.2-0.2,0.3-0.2
			c0.3-0.2,0.6-0.4,0.9-0.5c0.1-0.1,0.2-0.1,0.3-0.1c0.1,0,0.2-0.1,0.3-0.1c1-0.3,2.2-0.4,3.4-0.1v0c0.4,6.2-1,12.3-1.9,18.4
			c-0.9,6.5-0.4,12.8,1.7,19c0.8,2.2,1.2,4.4,1.8,6.6c0.8,5.9,1.3,11.9-0.9,17.6c-3.3,9-11,13.4-19.3,11.3c-3.3-0.8-6-2.7-7.2-5.8
			c-0.6-1.4-1.1-1.9-1.8-1.9c-0.6,0-1.2,0.5-2.1,1c-12.8,8.7-25.9,17-39.9,23.6c-4.2,2-8.4,4.2-13,5.2"/>
		<path class="st4" d="M608.9,592.5c3.2,1.4,6.5,2.7,10.1,3.3c6.9,1.2,13.5,3.2,20.1,5.6c7.9,2.8,16.2,4.1,24.6,3.8
			c1,0,1.7-0.1,2.2-0.4c0.4-0.3,0.6-0.8,0.5-1.9"/>
		<path class="st4" d="M606.7,618.1c-0.2-1.1-0.3-2.2-0.4-3.3c-0.3-2.9-0.4-5.8-0.2-8.6c0.1-2.5,0.5-4.9,1-7.4"/>
		<path class="st4" d="M607.2,621.4c-0.1-0.7-0.3-1.4-0.4-2.2"/>
		<path class="st4" d="M608.2,625.8c-0.2-0.7-0.4-1.5-0.5-2.2"/>
		<path class="st4" d="M449.7,236.6c12.8,10.2,27.2,18.3,40,28.5c12,9.6,23.5,19.7,34.3,30.7c0.1,1.4,0.2,2.8,0.1,4.1
			c-0.1,2.6-0.6,5.2-1.5,7.7c-2,5.5-6.2,8.1-11.3,7.5c-0.1,0-0.1,0-0.2,0c-0.2,0-0.4-0.1-0.7-0.1c-0.5-0.1-1.1-0.2-1.7-0.4"/>
		<path class="st4" d="M502.2,309.9c-0.1-0.1-0.1-0.1-0.2-0.2C487.5,299.4,475,287,464,273c-3.9-5-8.3-9.5-14.4-12"/>
		<path class="st4" d="M502.7,310.5c0-0.1-0.1-0.1-0.2-0.2"/>
		<path class="st4" d="M528.3,247.8c-1.2-4.3-2.3-8.7-1.9-13.1c0.3-3.2,3.9-4.3,6.8-4c10.5,1.1,21.1,1.8,31.3,4.8
			c7.5,2.2,12.4,7.1,13.6,15.2c0.5,3.6,2.1,6.7,3.9,9.9c6.2,11,5.1,21.9-2.9,31.6c-3.2,3.8-6.8,7.2-9.3,11.5
			c-1.5,2.5-2.3-0.1-3.5-0.3c0,0,0,0,0,0c-1.5-1.7-3.1-3.3-4.1-5.4c-0.3-4.1-0.1-8.2,1-12.3c0.4-1.5,0.3-2.9,0-4.4
			c-1.3-5.6-4.4-9.5-9.7-11.3c-0.4-0.1-0.7-0.2-1.1-0.3c-4.4-1.2-5.2-2.4-4.7-5.8c1.2-7.7-0.9-10.8-8.5-12.9
			c-0.9-0.2-1.8-0.5-2.7-0.7"/>
		<path class="st4" d="M483.5,344.5c-0.3,0.3-0.7,0.6-1,0.9c-0.4,0.3-0.8,0.5-1.2,0.7"/>
		<path class="st4" d="M486,309.9c2.2,9.4,1.6,18.9,0.6,28.3c-0.1,0.4-0.1,0.9-0.2,1.3c-0.1,0.4-0.2,0.8-0.4,1.2"/>
		<path class="st4" d="M465.5,298.5c1,0.2,2.2,0.3,3.4,0.3c1,0,2,0.2,3,0.5c2.1,0.6,4,1.9,5.9,3.1c3.2,2.1,5.4,5.3,8.4,7.6"/>
		<path class="st4" d="M449.6,273.9c1.6,4.6,3.1,9.3,4.8,13.9c1.9,5.3,5,9,9.9,10.4"/>
		<path class="st4" d="M446.1,277.8c0.7-0.3,1.4-0.7,1.9-1.2"/>
		<path class="st4" d="M459.2,334.6L459.2,334.6c-13.7-16.7-22.9-35.6-28.4-56.5"/>
		<path class="st4" d="M480.6,346.4c-7.3-3.3-14.3-6.9-20.7-11.7"/>
		<path class="st4" d="M166,598.4c-0.2,2.2-0.4,4.3-0.5,6.5c-0.7,11-1.1,22.1-2.1,33.1v0c-6.5,0-12.9-0.9-19.4-1.7
			c-3.7-0.4-7.5-0.3-11-1.7c1.4-6.8,2.8-13.6,3.3-20.5c0.5-5.8-1.5-11.2-2.6-16.8c-1.6-8.3-3-16.6-5.6-24.7c1.5,0.1,3,0.3,4.5,0.6"
			/>
		<path class="st4" d="M167.9,576.2c0.2,1,0.3,1.9,0.1,2.9c-0.2,2.1-0.5,4.3-0.7,6.4"/>
		<path class="st4" d="M147.1,577.8c4.7,1.6,9.3,1.2,13.8-0.8c2.2-1,4.4-2,6.6-2.9h0c0.2,0.7,0.3,1.3,0.5,2"/>
		<path class="st4" d="M144,576.6c0.7,0.3,1.5,0.5,2.2,0.8"/>
		<path class="st4" d="M137.4,574.4c2.2,0.7,4.5,1.4,6.7,2.2"/>
		<path class="st4" d="M556.3,300.4c-1.1,0.5-2.3,1-3.5,1.2c-5,1-10,0.6-15,0c-1.4-1.5-2.8-2.9-4.4-4c-0.4-0.3-0.9-0.6-1.4-0.9
			c0,0,0,0,0,0c-0.7-0.4-1.5-0.7-2.3-1c-1.1-0.3-2.3-0.5-3.6-0.5c-4.5-4.7-8.2-9.9-9.3-16.5c-1.7-10.8,0.7-20.4,9.2-27.9
			c0.9-0.8,2.1-1.5,2.2-2.9c2.6,1.3,5.3,1.9,8.1,2.6c0.9,0.2,1.8,0.4,2.7,0.7c7.6,2.1,9.6,5.2,8.5,12.9c-0.5,3.4,0.3,4.5,4.7,5.8
			c0.4,0.1,0.7,0.2,1.1,0.4c5.3,1.8,8.4,5.7,9.7,11.3c0.3,1.5,0.4,3,0,4.4c-1.1,4-1.3,8.1-1,12.3c0,0,0,0,0,0
			C560,298.5,558.2,299.5,556.3,300.4"/>
		<path class="st4" d="M607.4,591.3c0.4,0.4,0.9,0.8,1.6,1.2c-0.8,2.1-1.4,4.2-1.8,6.3c-0.5,2.5-0.9,4.9-1,7.4
			c-0.2,2.9-0.1,5.8,0.2,8.6c0.1,1.1,0.2,2.2,0.4,3.3c0.1,0.4,0.1,0.7,0.2,1.1c0.1,0.7,0.2,1.5,0.4,2.2c0.1,0.7,0.3,1.5,0.5,2.2
			c0.2,0.7,0.3,1.5,0.5,2.2c0.1,0.4,0.2,0.7,0.3,1.1c0.8,3.1,1.7,6.2,2.5,9.2c-6.5,2.7-13.1,4.7-20.1,5.6"/>
		<path class="st4" d="M606.7,590.3c0.1,0.4,0.3,0.7,0.6,1.1"/>
		<path class="st4" d="M607.7,581.2c0,0,0.1,0.1,0.1,0.1"/>
		<path class="st4" d="M606.5,581c0.2,0,0.4,0,0.5,0.1"/>
		<path class="st4" d="M605.4,580.9c0.3,0,0.5,0,0.8,0"/>
		<path class="st4" d="M583.3,575.9c4.3,1.9,8.8,3.2,13.4,4"/>
		<path class="st4" d="M576.1,572.5c1,0.5,2,0.9,2.9,1.4"/>
		<path class="st4" d="M574.9,575.2c0.1-0.3,0.1-0.6,0.3-0.9c0.2-0.6,0.5-1.2,0.9-1.8"/>
		<path class="st4" d="M574.8,592.9c-0.5-4.3-0.5-8.6-0.3-12.9c0.1-1.2,0-2.6,0.2-3.8"/>
		<path class="st4" d="M575.1,595.5c-0.1-0.4-0.1-0.9-0.2-1.3"/>
		<path class="st4" d="M577.8,606.8c0-0.1,0-0.2-0.1-0.3"/>
		<path class="st4" d="M577.9,607.6c0-0.2,0-0.4-0.1-0.7"/>
		<path class="st4" d="M578,608.8c-0.1-0.4-0.1-0.7-0.1-1.1"/>
		<path class="st4" d="M203,335.6c-0.8-0.3-1.4-0.6-1.9-1c-1.1-1.1-0.9-3,0.1-6.2c0.7-2.3,1.4-4.5,2.2-6.8c9.7-3.5,16.4-9.8,18.9-20
			c0.2-1,0.4-1.9,0.5-2.9"/>
		<path class="st4" d="M206.2,336.2C206.2,336.2,206.2,336.2,206.2,336.2"/>
		<path class="st4" d="M239.3,336.8c-0.4,0.2-0.9,0.4-1.4,0.5"/>
		<path class="st4" d="M242.5,333.8c-0.2,0.2-0.5,0.4-0.7,0.6c-0.1,0.1-0.2,0.2-0.2,0.2c-0.2,0.3-0.5,0.5-0.7,0.9
			c-0.4,0.5-0.8,0.9-1.3,1.2"/>
		<path class="st4" d="M243,333.4c-0.2,0.1-0.4,0.2-0.5,0.3"/>
		<path class="st4" d="M243.6,333.2c-0.2,0.1-0.4,0.1-0.6,0.2"/>
		<path class="st4" d="M252.4,307.1c0.2,3.8,0.4,7.5,0.7,11.2c0.5,6-1.2,11-5.7,15.1h0"/>
		<path class="st4" d="M241.1,305.6c0.7,0.4,1.7,0.2,2.7-0.3c2.4-1,3.4-3.2,3.8-5.7c0,0,0,0,0,0c1.6,2.5,3.2,4.9,4.8,7.4"/>
		<path class="st4" d="M221.2,285c4.4-0.5,8.7-0.9,13.1-1.4c0,0,0,0,0,0c0,2.2,0.7,4.2,1.9,6.1c2.6,4.1,4.1,8.7,4.1,13.6
			c0,0.9,0.1,1.5,0.4,1.9"/>
		<path class="st4" d="M202,555.3c0,1-0.1,1.9-0.1,2.8c-2.4,8.3-5.1,16.6-8.5,24.6c-7.4,17.8-11.4,36.4-13.5,55.4
			c-5.5,0-11-0.1-16.5-0.1h0c1-11,1.4-22.1,2.1-33.1c0.1-2.2,0.3-4.3,0.5-6.5c0.4-4.3,0.9-8.6,1.4-12.9c0.2-2.2,0.5-4.3,0.7-6.5
			c0.1-1,0-2-0.1-2.9c0-0.1,0-0.1,0-0.2c-0.1-0.7-0.3-1.3-0.5-2v0"/>
		<path class="st4" d="M596.7,318.8c-3.9-8.3-5.1-16.9-2.6-25.7c3-11.1,10.1-18.8,20.6-23.3l0,0c0.8,0.7,1.6,1.3,2.4,2
			c0.5,0.4,0.9,0.8,1.4,1.1c1.3,1,2.5,2,3.7,3.1c0.4,0.4,0.8,0.7,1.2,1.1c0.4,0.4,0.8,0.7,1.2,1.1c4.2,4.1,5,8.4,2.5,13.8
			c-1,2.3-2.3,4.5-3.8,6.5c-5.4,7.2-6.2,15-3,23.3c1.9,4.9,2.8,9.9,0.3,14.9c0,0,0,0,0,0c-4.3-0.8-8.1-2.8-12-4.8c0,0,0,0,0,0"/>
		<path class="st4" d="M598.5,321.7c-0.4-0.6-0.8-1.2-1.2-1.9"/>
		<path class="st4" d="M603.6,327.6c-1.1-1-2.1-2.1-3-3.3"/>
		<path class="st4" d="M606,329.9c-0.4-0.4-0.9-0.8-1.3-1.1"/>
		<path class="st4" d="M607.8,331.3c-0.6-0.5-1.2-0.9-1.7-1.4"/>
		<path class="st4" d="M247.4,297.2c0,0.8,0.1,1.6,0.2,2.5c-0.4,2.5-1.4,4.7-3.8,5.7c-1,0.4-2,0.7-2.7,0.3c-0.2-0.1-0.3-0.3-0.5-0.5
			c-0.2-0.4-0.4-1-0.4-1.9c0-4.9-1.5-9.4-4.1-13.6c-1.2-1.9-1.9-3.9-1.9-6.1v0c2.8-6.2,4.6-12.6,4.3-19.6c-0.2-4,2.2-6.9,6-8.4
			c2.1-0.8,4.4-1.2,6.6-1.8c3.5-0.8,7-1.5,9.8-4c3.9-3.5,8.2-4.1,13.2-2.9c6.9,1.7,12.4,5.3,16.5,11.1c2.5,3.6,3.3,7.5,1.3,11.7"/>
		<path class="st4" d="M289.5,271.5c-6,3.3-16,3.1-22.3-1c-0.8-0.5-1.6-0.9-2.3-1.2c-2.1-0.8-3.9-0.4-5.4,1.1"/>
		<path class="st4" d="M292,269.8c-0.7,0.7-1.5,1.2-2.4,1.8"/>
		<path class="st4" d="M274.7,287.3c-0.7-0.4-1.6-0.6-3-0.4c-2.4,0.2-3.6,0.7-3.6,3.3c0,1.7-0.4,3.4-0.6,5.1c-1,6-1.2,12.1-2.7,18
			c-1.8,0-3.4-0.6-4.9-1.4c-2.5-1.5-4.9-3.1-7.4-4.7v0c0,0,0,0-0.1,0c-1.6-2.4-3.1-4.9-4.7-7.4c0,0,0,0,0,0
			c-0.1-0.8-0.2-1.6-0.2-2.5c-0.2-5.2,1.3-10,4.8-14.3c2.5-3,4-6.7,5.8-10.1c0.5-1,1-1.8,1.6-2.4c1.5-1.5,3.2-1.9,5.4-1.1
			c0.7,0.3,1.5,0.6,2.3,1.2c6.2,4,16.3,4.2,22.3,1c0,0,0,0,0,0c0.9-0.5,1.7-1.1,2.4-1.8v0c4.3,5,6.6,10.7,6.8,17.3
			c-0.1,1.2-0.1,2.5-0.2,3.7"/>
		<path class="st4" d="M298.6,290.9c-0.1,1.2-0.2,2.5-0.6,3.7c-1.8,7.2-6.4,12.4-12.2,16.7c-2.1,0.5-3.8,2.2-6.1,2.1c0,0,0,0,0,0
			c-1.7-7.2-2.3-14.7-3.2-22c-0.2-1.2-0.4-2.2-0.8-3"/>
		<path class="st4" d="M340.6,318.1c-0.1,0.1-0.2,0.2-0.3,0.2"/>
		<path class="st4" d="M335.5,318.7c-2.8-0.4-5.5-1.4-8-2.8c-0.3-0.1-0.5-0.3-0.8-0.5c-4.5-2.8-6-7.2-5.4-12.6c0,0,0,0,0,0v0
			c2.6-2.8,4.5-6.1,6.1-9.6c5.6-10.6,12-20.8,18.1-31.2c3.5-5.9,4.1-12.2,2.1-18.9c-1.9-6.4-3.2-12.9-2.9-19.6c0,0,0,0,0,0
			c3.2,7.6,6.3,15.2,9.7,22.7c0.1,0.3,0.2,0.6,0.4,0.8c2.5,5.7,4,11.8,7.8,16.8l0,0c-4.4,10.1-7.6,20.7-11.7,31
			c-0.6,1.5-1,3-1.6,4.5c-2.9,6.2-5.9,12.4-8.8,18.7v0l0,0c0,0,0,0,0,0"/>
		<path class="st4" d="M518.9,596.4c3.8-0.7,7.5-1.8,11.2-3.3v0c0.8,6,1.4,12,1.7,18.1c0.3,6.4-1.3,12.2-3.6,18
			c-1.6,4.2-3.4,8.3-3.6,12.8c-7.1-1.4-14.3-2.8-21.4-4.2c-2-0.4-4-0.8-6-1.2c1.9-9,1.5-18.2,1.3-27.3c-0.1-4.2-1-8.4,0-12.6
			c1.4,0.1,2.8,0.3,4.2,0.3"/>
		<path class="st4" d="M401.5,192.2c0.4,1.7,0.6,3.4,0.6,5.3c-0.2,12.4,0,24.8,0,37.2v0c-0.1,1.3,0,2.5-0.2,3.8
			c-0.5,2.6-1.8,4.3-4.8,4.5c-4.2,0.2-8.5,0.2-12.7-0.1c-2.9-0.2-4.4-1.7-4.7-4.5c-0.1-1.1-0.2-2.3-0.1-3.4c0.1-3.9,0-7.8-0.1-11.7
			c-0.2-9.2-0.7-18.3,0-27.5c0.1-1.7,0-3.6,1.1-5c4.3-5.3,3.9-11.8,4.9-18c0.6-3.8,1.2-7.7,1.5-11.6c0.3-3.4,2.7-2.3,4.5-2.5
			c2-0.3,3.2,0,3.5,2.4c0.9,7.4,2,14.8,3,22.2c0.2,1.6,0.6,3.1,1.5,4.5"/>
		<path class="st4" d="M401.3,191.6c0.1,0.2,0.1,0.4,0.2,0.6"/>
		<path class="st4" d="M399.7,188.3c0.2,0.4,0.4,0.7,0.6,1.1"/>
		<path class="st4" d="M382.9,199.4c-0.5,0.5-0.9,1.1-1.3,1.7"/>
		<path class="st4" d="M398.8,199.4c-0.2-0.2-0.4-0.4-0.6-0.5c-0.4-0.3-0.9-0.6-1.4-0.8"/>
		<path class="st4" d="M393.1,231.3c0.7-0.1,1.4-0.1,2-0.3c1.2-0.3,2.3-0.7,3.1-1.3"/>
		<path class="st4" d="M389.3,231.3c0.9,0,1.8,0,2.7,0"/>
		<path class="st4" d="M221.2,285c1.3,4.5,2.1,9,1.6,13.6c-0.1,1-0.3,1.9-0.5,2.9c-2.5,10.2-9.2,16.6-18.9,20
			c-0.8,0.1-1.6,0.4-2.3,0.4c-4.1,0.1-8.4,1.3-12.2-1.2c0.7-0.6,1.4-1.2,2-1.8c0.3-0.3,0.6-0.6,0.8-1c1.2-1.5,2.1-3.1,2.9-4.8
			c0.2-0.6,0.4-1.1,0.7-1.7c0.5-1.6,0.9-3.2,1.3-4.9c0.2-1.2,0.4-2.5,0.6-3.8c0.1-0.8,0.2-1.6,0.3-2.4c0-0.1,0-0.3,0-0.4
			c0.1-0.8,0.1-1.6,0.1-2.4c0-0.4,0-0.7,0-1.1c0-1-0.1-1.9-0.2-2.9c0,0,0,0,0,0c-0.2-1.3-0.4-2.6-0.7-3.9c0-0.2-0.1-0.3-0.1-0.5
			c0,0,0,0,0,0c0-0.2,0-0.3-0.1-0.5c-0.2-1.8-0.3-3.3,0-4.4c0.1-0.7,0.3-1.3,0.7-1.8c0.1-0.1,0.1-0.2,0.2-0.2
			c0.1-0.1,0.2-0.2,0.3-0.3c0.1-0.1,0.1-0.1,0.2-0.2c0,0,0.1-0.1,0.1-0.1c1.3-0.9,3.4-0.8,6.5,0c1.6,0.4,3.1,0.8,4.6,1.3
			c2.1,0.6,4,0.8,5.8,0.3c0,0,0,0,0,0c0.3-0.1,0.6-0.1,0.8-0.2c0.3-0.1,0.6-0.2,0.8-0.3c0.3-0.1,0.5-0.3,0.8-0.4
			c0.1-0.1,0.3-0.2,0.4-0.3c0.5-0.3,1-0.8,1.5-1.2C219.5,282.5,220.1,283.8,221.2,285z"/>
		<path class="st4" d="M372.8,231.6c0.9,2.1,1.8,4.3,2.7,6.4"/>
		<path class="st4" d="M369,222.8c0.1,0.1,0.2,0.2,0.3,0.4c0.1,0.1,0.2,0.3,0.2,0.4"/>
		<path class="st4" d="M368.2,222.2c0.2,0.1,0.5,0.2,0.6,0.4"/>
		<path class="st4" d="M368.2,222.2L368.2,222.2C368.2,222.2,368.2,222.2,368.2,222.2L368.2,222.2"/>
		<path class="st4" d="M375.8,244.2c0-0.2,0-0.3,0-0.5"/>
		<path class="st4" d="M375.6,244.9c0-0.2,0.1-0.3,0.1-0.4"/>
		<path class="st4" d="M375.4,245.6c0.1-0.1,0.1-0.3,0.2-0.5"/>
		<path class="st4" d="M372.2,249.6c0.2-0.2,0.4-0.3,0.6-0.5"/>
		<path class="st4" d="M370.9,250.5c0.2-0.1,0.4-0.2,0.6-0.4"/>
		<path class="st4" d="M357.7,250c0.2,0.3,0.5,0.6,0.8,0.9c1.3,1.3,3,2,5.3,1.7c0.9-0.1,1.8-0.3,2.6-0.4"/>
		<path class="st4" d="M348.9,229.1c0.1,0.6,0.4,1.3,0.6,2c2.1,5.2,4.3,10.4,6.4,15.6c0.4,1,0.9,2,1.5,2.8"/>
		<path class="st4" d="M348.7,226.2c-0.1,0.9-0.1,1.9,0.1,2.9"/>
		<path class="st4" d="M350.7,222.2c-0.4,0.4-0.8,0.8-1,1.3"/>
		<path class="st4" d="M351.6,221.5c-0.3,0.2-0.6,0.5-0.9,0.8"/>
		<path class="st4" d="M353.3,220.5c-0.6,0.3-1.2,0.6-1.7,1"/>
		<path class="st4" d="M368.2,222.2L368.2,222.2c-4.2-4.4-6.1-5.1-11.1-3.3"/>
		<path class="st4" d="M362.6,263.9c-4-5.3-5.5-11.8-8.2-17.7c-3.4-7.5-6.5-15.1-9.7-22.6c0,0,0,0,0,0c-1.2-3-1.8-6.1-0.8-9.4
			c0.6-1.9,0.2-3.8-0.3-5.8c-1.9-6.8-3.6-13.7-5.6-20.5c-1.1-3.7,2.1-3.3,3.7-4.4c1.8-1.3,2.8-0.4,3.7,1.3c2.2,3.9,4.7,7.6,6.7,11.6
			c3,6.2,7.2,11.3,12.6,15.5c0.8,3.6,3.2,6.6,3.5,10.3v0v0"/>
		<path class="st4" d="M429.6,223.2c2.5-2.9,2.1-6.7,2.7-10.1c0.9-5.5,1.6-11.1,2.2-16.7c0.2-2.4,1.6-2.7,3.5-2.5
			c1.9,0.2,4.1-1,4.5,2.4c0.8,7.4,1.9,14.7,3,22.1c0.2,1.1,0.2,2.5,0.8,3.3c3.7,4.4,3.5,9.7,3.4,15v0c0,4.3,0,8.6,0,12.9
			c0,3.8,0,7.6,0,11.5v0v0c0,4.3-0.1,8.6-0.1,13c0,0,0,0,0,0c-0.4,1.1-0.9,2-1.5,2.6c-0.5,0.6-1.2,1-1.9,1.2c-0.9,0.3-1.9,0.4-3,0.4
			c-4.1-0.2-8.1,0-12.2,0c-4.7-1.5-3.5-5.6-4.1-9"/>
		<path class="st4" d="M427.4,228c0.1-0.4,0.2-0.8,0.3-1.1"/>
		<path class="st4" d="M426.9,235.1c0-0.7,0-1.5-0.1-2.2c-0.1-1.3,0-2.5,0.2-3.7"/>
		<path class="st4" d="M426.9,241.9c0-2.2,0-4.4,0-6.6"/>
		<path class="st4" d="M426.8,247.1c0-1.5,0-3,0.1-4.5"/>
		<path class="st4" d="M428.4,238.5c-0.1,0.5-0.2,1.1-0.2,1.7c-0.1,3.1,0,6.2,0,9.3"/>
		<path class="st4" d="M447.3,263.4c0.8-1.3,1.3-3,1.4-5.1c0-0.7,0.1-1.5,0.1-2.2c0.1-4.4,0.1-8.8,0-13.2c0-0.7,0-1.5-0.1-2.2
			c-0.2-3.9-1.5-6.3-4.2-7.5"/>
		<path class="st4" d="M439.9,266.5c2.8,0,5-0.7,6.4-2"/>
		<path class="st4" d="M436.1,266.5c1.2,0,2.5,0,3.7,0"/>
		<path class="st4" d="M428.2,257c0,0.6,0,1.2,0,1.8c0,0.3,0,0.6,0.1,0.9c0.2,2,1,3.6,2.1,4.7"/>
		<path class="st4" d="M418.5,240.8c0.2,0.2,0.3,0.4,0.5,0.5"/>
		<path class="st4" d="M416.2,229.1c-0.3,0.5-0.5,1-0.7,1.5c-1,2.8-0.6,5.9,1.9,9.1c0.2,0.2,0.3,0.4,0.5,0.6"/>
		<path class="st4" d="M417.4,227.4c-0.5,0.5-0.8,1.1-1.2,1.7"/>
		<path class="st4" d="M418,226.8c-0.2,0.2-0.4,0.4-0.6,0.6"/>
		<path class="st4" d="M425.9,223c-1,0.2-2,0.4-3,0.7"/>
		<path class="st4" d="M426.8,247.1c0.1,3.3,0.2,6.6,0.2,9.9c0,4-0.1,8.1-0.2,12.2c-3-3.6-3.9-8.1-4.6-12.4
			c-1.8-12-9.1-18.7-20.2-22.1h0c0-6.8-0.1-13.6-0.1-20.4c0-5.6,0-11.2,0.1-16.8c0-1.9-0.1-3.6-0.6-5.3c0,0,0,0,0,0
			c0-0.2-0.1-0.4-0.2-0.6c-0.2-0.8-0.6-1.5-0.9-2.2c-0.2-0.3-0.4-0.7-0.6-1.1c-0.1-0.2-0.2-0.3-0.4-0.5c3.1-1.4,5.8-0.9,7,2.5
			c3.3,9.6,10.2,16.7,16.1,24.5c1.8,2.4,4,4.7,4.5,8"/>
		<path class="st4" d="M573.7,316.1c0-2.2,0.7-3.1,3.2-2.4c5.3,1.4,10.6,2.5,15.8,4.4c1.3,0.5,2.6,0.8,4,0.7c0.2,0.3,0.4,0.7,0.6,1
			c0.4,0.6,0.8,1.2,1.2,1.9c0.6,0.9,1.3,1.8,2,2.7c0.9,1.2,2,2.2,3,3.3c0.4,0.4,0.8,0.7,1.2,1.1c0.4,0.4,0.9,0.8,1.3,1.1
			c0,0,0,0,0,0c0.6,0.5,1.1,0.9,1.7,1.4c0.3,0.2,0.6,0.4,0.9,0.7c0.1,0.6,0.2,1.2,0.2,1.8c0,0.2,0,0.4,0,0.6c0.1,1.3,0.1,2.4,0,3.4"
			/>
		<path class="st4" d="M571.2,325.9c1.4-3.1,2.3-6.3,2.5-9.8"/>
		<path class="st4" d="M568.1,331.2C568.1,331.2,568.1,331.2,568.1,331.2c0.4-0.6,0.8-1.1,1.1-1.7"/>
		<path class="st4" d="M596.6,347L596.6,347c-3.5-0.1-6.9-1.2-9.4-3.6c-0.7-0.7-1.4-1.3-2.1-2c0,0,0,0,0,0c-2.9-2.5-5.9-4.7-9.2-6.6
			c0,0,0,0,0,0c-0.8-0.5-1.7-0.9-2.5-1.3c0,0,0,0,0,0c-0.9-0.4-1.7-0.8-2.6-1.2c0,0,0,0,0,0c-0.9-0.4-1.8-0.7-2.7-1"/>
		<path class="st4" d="M601.6,345L601.6,345c-1,0.3-2,0.5-2.9,0.9c-0.2,0.1-0.4,0.1-0.6,0.2"/>
		<path class="st4" d="M604.4,344c-0.3,0.1-0.5,0.2-0.8,0.4"/>
		<path class="st4" d="M607.7,341.7c-0.1,0.2-0.3,0.3-0.4,0.5"/>
		<path class="st4" d="M608,341.2c-0.1,0.2-0.2,0.3-0.4,0.5"/>
		<path class="st4" d="M609,337.8c-0.1,0.8-0.2,1.6-0.4,2.2c-0.1,0.2-0.2,0.4-0.2,0.6"/>
		<path class="st4" d="M298.6,290.8c0.1-1.2,0.1-2.5,0.2-3.7c8.4,1.8,16.9,3.6,25.3,5.4c1.1,0.2,2.2,0.5,3.3,0.7
			c-1.6,3.5-3.4,6.8-6.1,9.6c0,0,0,0,0,0c0-1.2,0-2.5,0-4c0,0,0,0,0,0c-1.5,0.3-2.2,1.4-3.1,2.3c-4.2,4.4-7.1,9.5-8.7,15.4
			c-0.8,3.1-2.5,4.8-5.8,4.7c-2-0.1-3.8,0.4-5.5,1.5c-1,0.7-2.1,0.9-3.3,0.8c-0.2,0-0.4,0-0.5-0.1c-0.1,0-0.3,0-0.4-0.1
			c-0.3,0-0.5-0.1-0.8-0.2c-0.5-0.1-1.1-0.2-1.6-0.3c-1.6-0.3-3.2-0.6-4.8-0.9c0,0,0,0,0,0v0c-0.2-0.9-0.4-1.8-0.5-2.7
			c-0.4-2.7-0.3-5.4-0.6-8.1c0,0,0,0,0,0c5.9-4.2,10.4-9.4,12.2-16.7C298.3,293.3,298.5,292.1,298.6,290.8
			C298.6,290.9,298.6,290.8,298.6,290.8z"/>
		<path class="st4" d="M242.8,601.5c0.3,0.3,0.5,0.8,0.7,1.4c0.9,3.4,0.3,7.1,2,10.3c-0.1,3.5-0.1,6.9-0.2,10.4
			c-10.2,5.4-20.8,9.6-32.2,11.7c-0.4-6-0.2-11.9,1.1-17.8c0.8-3.7,1.1-7.5,1-11.3c9.1,1.9,17.9,1.5,25.7-4.5
			c0.7-0.5,1.1-0.7,1.5-0.5c0.1,0,0.1,0,0.2,0.1C242.7,601.4,242.7,601.4,242.8,601.5z"/>
		<path class="st4" d="M573.7,316.1L573.7,316.1c-0.2,3.5-1.1,6.7-2.5,9.8c-0.6,1.2-1.2,2.4-1.9,3.6c-0.4,0.6-0.7,1.1-1.1,1.7h0v0h0
			c-2.2-0.6-4-1.7-5.5-3.2c-0.9-0.9-1.6-2-2.3-3.1c-0.7-1.3-1.5-2.4-2.5-3.4c-0.7-0.7-1.5-1.3-2.3-1.8c-0.7-0.4-1.4-0.7-2.2-1
			c-0.3-0.1-0.7-0.2-1-0.4c-0.6-0.2-1.2-0.5-1.8-0.8c-0.6-0.3-1.1-0.6-1.7-1c-2.9-1.9-5.1-4.6-6.8-7.9c-1.1-2.1-2.4-4.2-3.7-6.2
			c-0.2-0.3-0.4-0.6-0.5-0.9h0c5,0.6,9.9,1,15,0c1.2-0.2,2.4-0.7,3.5-1.2c0,0,0,0,0,0c1.9-0.9,3.7-1.9,5.7-2.3c0,0,0,0,0,0
			c1,2.1,2.5,3.8,4.1,5.4C566.8,308.8,569.4,313,573.7,316.1L573.7,316.1z"/>
		<path class="st4" d="M578,608.8C578,608.8,578,608.8,578,608.8c4.3,11,8.6,22,12.9,33c-5.1,1.5-10.5,1.8-15.7,2.5
			c-0.1-5.4-2.1-10.3-4.2-15.2c-2.7-6.5-4.1-13.3-3.6-20.4c0,0,0,0,0,0C571,608,574.5,609.3,578,608.8z"/>
		<path class="st4" d="M426.8,247.1c-2.8-1.7-5.5-3.4-7.8-5.7c-0.2-0.2-0.4-0.4-0.5-0.5c-0.2-0.2-0.3-0.4-0.5-0.6
			c-0.2-0.2-0.3-0.4-0.5-0.6c-2.6-3.1-2.9-6.3-1.9-9.1c0.2-0.5,0.4-1,0.7-1.5c0,0,0,0,0,0c0.3-0.6,0.7-1.2,1.2-1.7c0,0,0,0,0,0
			c0.2-0.2,0.4-0.4,0.6-0.6c1.4-1.4,3.1-2.5,4.9-3.1c1-0.3,2-0.5,3-0.7c0.3-0.1,0.7-0.1,1-0.2h0c0.9,0.1,1.8,0.3,2.7,0.4
			c-0.8,1.2-1.4,2.4-1.9,3.7c-0.1,0.4-0.2,0.7-0.3,1.1s-0.2,0.8-0.2,1.1c-0.2,1.2-0.3,2.4-0.2,3.7c0,0.7,0,1.5,0.1,2.2
			c0,0,0,0.1,0,0.1c0,2.2,0,4.4,0,6.6c0,0.2,0,0.5,0,0.7C426.9,244.1,426.8,245.6,426.8,247.1z"/>
		<path class="st4" d="M368.2,222.2L368.2,222.2L368.2,222.2C368.2,222.2,368.2,222.2,368.2,222.2L368.2,222.2
			c-0.2-3.8-2.6-6.8-3.4-10.3c2.8,0.9,5.1,2.5,7.4,4.3c3.1,2.4,4.6,5.5,4.5,9.6c-0.1,4.1-0.4,8.2-1.1,12.3v0
			c1.9,4.6,3.8,9.1,5.6,13.6c1.6,4.2,0.9,6-3,8.1c-3.6,1.9-7.3,3.3-11.1,4.5c-1.5,0.5-2.9,0.6-4.3-0.3"/>
		<path class="st4" d="M375.5,238.1c-0.9-2.1-1.8-4.3-2.7-6.4c-0.9-2.1-1.8-4.3-2.7-6.4c-0.2-0.6-0.4-1.2-0.6-1.7
			c-0.1-0.1-0.1-0.3-0.2-0.4c-0.1-0.1-0.2-0.2-0.3-0.4c-0.1-0.1-0.1-0.1-0.2-0.2c-0.2-0.1-0.4-0.3-0.6-0.4c0,0,0,0,0,0c0,0,0,0,0,0
			v0"/>
		<path class="st4" d="M255,618.2c-2.7,2.8-6.5,3.7-9.8,5.4c0.1-3.5,0.1-6.9,0.2-10.4C248.2,615.8,251.5,617.1,255,618.2L255,618.2z
			"/>
		<path class="st4" d="M568.1,513.3c-0.9-0.1-1.7-0.2-2.6-0.3c-0.8-0.1-1.7-0.2-2.6-0.3c-14-1.2-27.8-3.2-41.5-6.1
			c-4.6-1-9.1-2-13.6-3.2c-6-1.5-12-3.3-17.9-5.2c-1.1-0.4-2.3-1.3-3.6-0.4c-3.3-2.1-3.6-5.3-3.8-8.8c-1.2-18.1,2.9-35.4,8.1-52.6
			c3.7-12.3,4.6-24.8,3.1-37.6c-0.8-6.6-1.2-13.2-0.8-19.9c0.6-11.1-2.9-20.5-12.2-27.1c-2.7-1.9,0.2-3.6-0.2-5.4
			c0.2-0.1,0.4-0.2,0.6-0.3c0.4-0.2,0.8-0.5,1.2-0.7c0.4-0.3,0.7-0.5,1-0.9c1.1-1.1,2-2.3,2.6-3.7c0.2-0.4,0.3-0.8,0.4-1.2
			c0.1-0.4,0.2-0.8,0.2-1.3c1-9.4,1.6-18.9-0.6-28.3"/>
		<path class="st4" d="M569,504.1c-0.3,3.1-0.6,6.1-0.9,9.1"/>
		<path class="st4" d="M568.5,501.1c0.1,0.7,0.2,1.5,0.3,2.2"/>
		<path class="st4" d="M508.8,314.5C508.8,314.5,508.8,314.5,508.8,314.5L508.8,314.5c-2.3-0.1-4.4,0-5.5,2.5
			c-1.1,2.4-0.7,4.7,0.8,6.8c0.5,0.7,1,1.3,1.5,1.8c1.1,1.1,2.3,2.1,3.6,2.9c0.9,0.5,1.8,0.9,2.8,1.3c0.3,0.1,0.6,0.2,0.9,0.3
			c0.4,0.1,0.8,0.2,1.2,0.3c0.1,0,0.1,0,0.2,0c0.4,0.1,0.8,0.2,1.2,0.3c0.2,0,0.3,0.1,0.4,0.2c0.3,0.1,0.6,0.3,0.9,0.5
			c0.2,0.1,0.3,0.2,0.4,0.3c0,0,0,0,0,0c0.3,0.2,0.5,0.5,0.8,0.8c2.9,3.3,6,6.5,9.1,9.5c5.2,5.2,10.6,10.1,16.1,14.9
			c3,2.6,5.5,5.5,7.2,9.1c2.1,4.6,4.2,9.2,6.4,13.7c2.4,5.1,2,10.2,0.8,15.5c-1.4,6.1-3.7,12-4.6,18.3c-0.7,4.7,0,9,2.4,12.9
			c3.5,5.6,4.1,11.2,3,17.7c-1.4,7.7,0,15.6,1.8,23.2c0.8,3.2,1.6,6.4,2.6,9.6c0.9,3.1,2.3,5.9,5.2,7.5c0.2,0.1,0.4,0.2,0.6,0.3
			c0.2,0.1,0.3,0.2,0.4,0.2"/>
		<path class="st4" d="M502.7,310.5L502.7,310.5c2,1.4,4,2.7,6,4.1"/>
		<path class="st4" d="M498.8,310.3c1.3,0.2,2.6,0.3,4,0.1"/>
		<path class="st4" d="M496.2,309.9c0.4,0.1,0.8,0.2,1.2,0.2c0.4,0.1,0.9,0.2,1.3,0.2"/>
		<path class="st4" d="M494.3,309.4c0.4,0.1,0.7,0.1,1.1,0.2"/>
		<path class="st4" d="M493,309.2c0.4,0,0.7,0.1,1.1,0.2"/>
		<path class="st4" d="M489,309.2c0.3,0,0.7,0,1-0.1c0.1,0,0.2,0,0.3,0"/>
		<path class="st4" d="M487,309.5c0.3-0.1,0.6-0.2,1-0.2"/>
		<path class="st4" d="M576.1,572.6c-0.4,0.6-0.7,1.2-0.9,1.8c-0.1,0.3-0.2,0.6-0.3,0.9c-0.1,0.3-0.1,0.6-0.2,1
			c-0.2,1.3-0.1,2.6-0.2,3.8c-0.3,4.3-0.2,8.6,0.3,12.9c0,0.4,0.1,0.9,0.2,1.3c0,0.4,0.1,0.9,0.2,1.3c0.5,3.5,1.3,6.9,2.4,10.3
			c0.1,0.2,0.1,0.5,0.2,0.7c0,0.1,0,0.2,0.1,0.3c0,0,0,0.1,0,0.1c0,0.2,0.1,0.4,0.1,0.7c0,0,0,0.1,0,0.1c0,0.4,0.1,0.8,0.1,1.1
			c-3.5,0.5-7-0.9-10.6-0.2h0c-4.1-0.3-8.2-0.6-12.3-0.8c-5.2-0.3-6.5-1.4-7.6-6.6c-1.3-6.3-1.5-12.7-2.1-19.1
			c-0.5-5-1.2-10-3.6-15.6c-1.5,4.7-2.8,8.4-4,12.2c-1.7,5.3-3.5,10.5-7.7,14.4h0c-3.7,1.5-7.4,2.6-11.2,3.2
			c-5.3,1-10.8,1.2-16.2,0.8c-1.4-0.1-2.8-0.2-4.2-0.3c-2.7-0.6-5.3-1.4-7.8-2.6c-7.8-3.9-12.2-10.1-12-18.9
			c0.6-18.2,0.5-36.5,2-54.6c0.5-6.1,2.7-11.8,4.4-17.6c0.5-1.8,0.9-3.5,1.3-5.3v0c1.3-1,2.5,0,3.6,0.4c6,1.9,11.9,3.6,17.9,5.2
			c4.5,1.2,9,2.2,13.6,3.2c13.6,2.9,27.5,4.9,41.5,6.1c0.9,0.1,1.7,0.2,2.6,0.3c0.9,0.1,1.7,0.2,2.6,0.3v0c0.3,0.6,0.6,1.3,0.8,1.9"
			/>
		<path class="st4" d="M568.9,515.5c0,0.5,0,1,0,1.5"/>
		<path class="st4" d="M346.7,315c-0.1,0.1-0.2,0.2-0.2,0.2c-0.1-0.1-0.2-0.2-0.2-0.3c0-0.1,0.1-0.2,0.2-0.2
			C346.5,314.8,346.6,314.9,346.7,315z"/>
		<path class="st4" d="M459.2,334.6c0.2,0,0.5,0,0.7,0.1C459.6,335.1,459.4,335,459.2,334.6z"/>
		<path class="st4" d="M609.8,510.5C609.8,510.5,609.8,510.5,609.8,510.5c3.4,4,7,7.8,10.6,11.5c8.5,8.6,17.6,16.5,27.2,23.9
			c2.8,2.1,5.5,4.2,8.4,6.2c2.8,2,5.7,4,8.5,5.9c2.9,1.9,5.8,3.8,8.8,5.6v0c-2.3,6.8-5.3,13.4-6.2,20.6c-0.8,6-1.5,12.1-0.8,18.1
			c0,0.1,0,0.3,0,0.4c0,0,0,0.1,0,0.1c0.1,2.2-0.9,2.2-2.7,2.3c-8.5,0.3-16.7-0.9-24.6-3.8c-6.6-2.4-13.2-4.3-20.1-5.5
			c-3.5-0.6-6.8-1.9-10.1-3.4c-0.7-0.3-1.2-0.7-1.5-1.1c0,0,0,0,0,0c-0.3-0.3-0.5-0.7-0.6-1.1c-0.6-1.6,0.3-3.6,0.8-5.4
			c0.5-2.1,0.8-3.1,0.3-3.5c0,0-0.1-0.1-0.1-0.1c-0.2-0.1-0.3-0.1-0.6-0.2c-0.2,0-0.4-0.1-0.5-0.1c-0.1,0-0.2,0-0.3,0
			c-0.2,0-0.5,0-0.8,0c-0.3,0-0.6,0-0.9,0c-2.7-0.1-5.2-0.4-7.8-0.9c-4.6-0.8-9.1-2.1-13.4-4c-1-0.4-1.9-0.9-2.9-1.3
			c-0.5-0.2-0.9-0.5-1.4-0.7c-1-0.5-1.9-0.9-2.9-1.3l0,0v0c-3.2-3.3-3.8-7-2.1-11.3c1.6-4.4,0.1-8.8-0.5-13.2
			c-1.4-10.1-3-20.1-4.5-30.1c0-0.3-0.1-0.6-0.1-1c0-0.5,0-1,0-1.5c0-0.1,0-0.2,0-0.3c0,0,0,0,0,0c0.4,0.4,0.7,0.7,1.1,1
			c0,0,0,0,0,0c0.2,0.1,0.3,0.3,0.5,0.4c0.5,0.4,0.9,0.6,1.4,0.8c1.7,0.5,3.6-0.3,7.7-2.8"/>
		<path class="st4" d="M579.7,514.6C579.7,514.6,579.7,514.6,579.7,514.6c10.4,1,20.3-0.8,30.1-4.1"/>
		<path class="st4" d="M609.8,510.5c-9.8,3.2-19.8,5.1-30.1,4.1c0,0,0,0,0,0v0h0c5-5.7,2.3-12.2,2-18.5c0-1.5-0.5-2.9-0.9-4.4
			c-0.8-2.8,0.8-4.6,2.7-6.2c0.8-0.6,1.5-0.8,2.1-0.7c0.9,0.2,1.8,0.8,2.6,1.2c0.7,0.4,1.3,0.7,2,1.1c0.6,0.4,1.2,0.8,1.9,1.2
			c1.5,1.1,2.9,2.3,4.2,3.6c1.9,1.8,3.5,3.8,5.1,6C604.2,502.1,607.3,506.1,609.8,510.5L609.8,510.5z"/>
		<path class="st4" d="M602.7,387.8L602.7,387.8C602.7,387.7,602.7,387.7,602.7,387.8c0-1.7,0.3-3.4,0.6-5c0.1-0.3,0.1-0.7,0.2-1
			c0.1-0.6,0.3-1.3,0.5-1.9c0.6-2.3,1.2-4.5,1.7-6.8c0.1-0.3,0.1-0.7,0.2-1c0.7-3.6,1.3-7.2,1.1-10.9c0-0.4-0.1-0.9-0.1-1.3
			c-0.1-0.8-0.2-1.6-0.4-2.4c-0.2-0.8-0.4-1.5-0.7-2.2c-1.5-3.9-4.4-6.7-9.1-8.3c0.5-0.4,1-0.6,1.5-0.9c0.2-0.1,0.4-0.2,0.6-0.2
			c1-0.3,2-0.5,2.9-0.9c0.7-0.2,1.4-0.5,2-0.7c0.3-0.1,0.6-0.2,0.8-0.4c1.2-0.5,2.1-1.1,2.8-1.8c0.2-0.1,0.3-0.3,0.4-0.5
			c0,0,0,0,0,0c0.1-0.2,0.2-0.3,0.4-0.5c0.1-0.2,0.2-0.4,0.3-0.6c0.1-0.2,0.2-0.4,0.2-0.6c0.2-0.6,0.3-1.4,0.4-2.2c0,0,0,0,0-0.1
			c0.1-1,0.1-2.1,0-3.4c0-0.2,0-0.4,0-0.6c-0.1-0.6-0.1-1.2-0.2-1.8c0,0,0,0,0,0c3.8,2,7.6,4.1,12,4.8h0c0,0,0,0,0,0
			c-2.4,16.9-8.3,32.7-16,47.9c-0.4,0.8-0.7,1.8-1.3,2.5C603.2,387.3,603,387.5,602.7,387.8"/>
		<path class="st4" d="M657.4,480.8c-0.8-2.1-2.1-4.1-4.2-5.8c0.7-0.3,1.3-0.5,1.9-0.7c0.3-0.1,0.5-0.2,0.8-0.3c0,0,0,0,0,0
			c2.1-0.7,3.2-0.9,3.9-0.3c0.3,0.3,0.5,0.8,0.6,1.5c0,0.3,0.1,0.6,0.1,1c0.1,0.7,0.1,1.6,0.1,2.6c0,0,0,0.1,0,0.1
			c0,0.2,0,0.5,0,0.8c0,1,0.1,2.1,0.2,3.1c0,0.2,0,0.4,0.1,0.5c0.1,0.5,0.1,1,0.2,1.5c0.7,4.1,2,8,3.5,11.9c1.2,3.2,2.1,6.4,2.8,9.7
			c1.5,7.2,1.7,14.7,2,22.1c0,0.5-0.2,1.1-0.4,1.8c-0.4-0.5-0.7-1.2-1-1.9c-0.2-0.4-0.3-0.8-0.5-1.2c0-0.1-0.1-0.2-0.1-0.4
			c-0.1-0.2-0.1-0.4-0.2-0.6c-0.5-1.3-0.9-2.8-1.1-4.2c-0.3-1.5-0.5-3-0.4-4.5c0-2.6-0.1-5.2-0.5-7.7c-0.1-0.5-0.1-1.1-0.2-1.6
			c-0.1-0.4-0.1-0.8-0.2-1.3c-0.7-3.3-1.7-6.6-3.2-9.8c-0.8-1.7-1.3-3.5-1.7-5.4c-0.4-1.9-0.7-3.8-1-5.6c-0.1-0.5-0.2-1-0.3-1.5
			c-0.1-0.4-0.2-0.9-0.3-1.3c0-0.1-0.1-0.2-0.1-0.4C657.9,482.1,657.7,481.4,657.4,480.8z"/>
		<path class="st4" d="M568.8,485.2c0.8,0.6,0.8,1.4,0.8,2.2v0c0.9,5.6,1,11.2-0.7,16.7c0-0.2-0.1-0.5-0.1-0.8
			c-0.1-0.7-0.2-1.5-0.3-2.2c-0.5-4.6,0.2-9.1,1.1-13.7"/>
		<path class="st4" d="M613.7,396.6c1.5-0.6,2.9-1.3,4.4-1.9c0.3-0.1,0.6-0.2,1-0.4c0.1,0,0.1-0.1,0.2-0.1c0.3-0.1,0.6-0.2,0.8-0.2
			c0.3-0.1,0.6-0.1,0.8,0c0.7,0.2,0.4,1.1-0.1,2.2h0v0h0C618.4,396.9,616.1,397,613.7,396.6z"/>
		<path class="st4" d="M602.7,387.7L602.7,387.7L602.7,387.7C602.7,387.8,602.7,387.8,602.7,387.7c-0.2,0.5-0.3,0.9-0.5,1.3
			c0,0,0,0,0,0C602.1,388.5,602.1,388,602.7,387.7C602.7,387.7,602.7,387.7,602.7,387.7L602.7,387.7"/>
		<path class="st4" d="M602.7,387.7C602.7,387.7,602.7,387.7,602.7,387.7L602.7,387.7z"/>
		<path class="st4" d="M202.4,500.2c0.2,0.9,0.5,1.8,0.8,2.7c0,0,0,0,0,0c0.1,0.6,0.3,1.3,0.4,1.9c1.9,9.6,2.7,19.3,2.7,29.1
			c0,7.3,0.7,15-4.4,21.3c-12.4,4.6-23.7,11.3-34.5,18.7c-2.2,1-4.4,2-6.6,2.9c-4.5,2-9.1,2.4-13.8,0.8c-0.3-0.1-0.6-0.2-0.9-0.3
			c-0.7-0.3-1.5-0.6-2.2-0.8l0,0c-2.2-0.8-4.4-1.6-6.7-2.2c-1.6-0.5-3.2-0.8-4.8-1.2c-1.5-0.3-3-0.5-4.5-0.6
			c-6.2-1.5-12.5-1.5-18.8-1.5c-4.9,0-9.9-0.1-14.7-1.5c-7.6-2.3-13.9-8.4-11.4-18.6c6-24.4,10.2-49.2,18.2-73
			c5.9-17.8,12.5-35.5,21.7-52c0.6-1.1,1.4-2.1,2-3.2h0c1.7,0.1,3.4,0.1,5.1-0.1"/>
		<path class="st4" d="M210.5,441.4c0.1,0.7,0.1,1.4,0.2,2.1c0.4,5.9,1.1,12-1,17.8c-1.7,4.6-3.3,9-3,14c0.1,1.8-0.8,3.6-1.8,5.1
			c-3.5,5-4.1,10.3-3.4,15.6"/>
		<path class="st4" d="M209.7,434.9c0.3,2,0.5,4.1,0.7,6.1"/>
		<path class="st4" d="M220.8,388c-0.4,1.1-0.8,2.2-1.3,3.3c-2.3,4.9-4.6,9.8-6.9,14.6c-2.9,6.3-5.7,12.7-4.4,19.8
			c0.2,1.3,0.5,2.7,0.7,4"/>
		<path class="st4" d="M221.8,381c0.1,1.8-0.1,3.6-0.5,5.3c-0.1,0.4-0.2,0.8-0.3,1.1"/>
		<path class="st4" d="M216.2,383.1c0.5-0.3,1-0.7,1.5-1c0.3-0.2,0.7-0.4,1-0.5"/>
		<path class="st4" d="M213.4,385.1c0.3-0.2,0.7-0.4,1-0.6c0.5-0.3,1-0.7,1.4-1"/>
		<path class="st4" d="M174.5,393.6c2.1,1.8,4.2,3.1,6.4,3.8"/>
		<path class="st4" d="M171.8,391c0.6,0.7,1.2,1.3,1.8,1.8"/>
		<path class="st4" d="M149.8,364.6c1.5,2.1,3.1,4.1,4.6,6.1"/>
		<path class="st4" d="M141.6,335.7c-0.4,1-0.6,2-0.8,3"/>
		<path class="st4" d="M142.8,332.6c-0.2,0.5-0.5,1-0.7,1.5"/>
		<path class="st4" d="M131.6,387.8c0.8-7.6-1.5-14.9-2.3-22.4c-0.2-1.9-0.3-3.9-0.4-5.8c0.5-4.1,1.2-8.2,2.4-12
			c0.1-0.3,0.2-0.6,0.3-1c0.6-1.9,1.4-3.7,2.2-5.4c0.7-1.3,1.4-2.6,2.3-3.9c1.8-2.7,3.7-5.3,5.9-7.5c0.4-0.4,0.9-0.9,1.4-1.2
			c0.3-0.2,0.5-0.4,0.8-0.6c0.8-0.6,1.6-1.1,2.5-1.5"/>
		<path class="st4" d="M132.7,397.5c-1-0.9-1.4-2-0.8-3.7c0.6-2,0.7-4-0.4-6"/>
		<path class="st4" d="M137.1,399.5c-0.3-0.1-0.5-0.2-0.8-0.2c-0.3-0.1-0.6-0.2-0.9-0.3"/>
		<path class="st4" d="M142.8,416c0.1,0,0.4-0.7,0.3-0.9c-1.1-2.4-0.7-4.4,0.4-6.8c0.4-0.8-1.6-2.6-1.6-3.9c0.1-1.3-0.2-2.2-0.8-2.9
			"/>
		<path class="st4" d="M137.4,420.6c0.2-0.2,0.4-0.5,0.6-0.7c0.7-0.9,1.3-1.9,2.1-2.7c0.4-0.4,0.9-0.8,1.5-1"/>
		<path class="st4" d="M131.6,387.8L131.6,387.8c1,1.9,1,4,0.4,6c-0.6,1.7-0.2,2.8,0.8,3.7c0.4,0.3,0.9,0.6,1.5,0.9
			c0.4,0.2,0.9,0.4,1.3,0.5c0.3,0.1,0.6,0.2,0.9,0.3c0.3,0.1,0.5,0.2,0.8,0.2c0.2,0.1,0.4,0.1,0.6,0.2c1.4,0.4,2.7,0.9,3.6,1.9
			c0.6,0.7,0.9,1.6,0.8,2.9c-0.1,1.3,2,3,1.6,3.9c-1.1,2.3-1.5,4.4-0.4,6.8c0.1,0.2-0.2,0.9-0.4,0.9c-0.5,0-0.9,0.1-1.3,0.3
			c-0.6,0.2-1.1,0.6-1.5,1c-0.8,0.8-1.3,1.8-2.1,2.7c-0.2,0.2-0.4,0.5-0.6,0.7c-0.6,0.6-1.2,1-2.1,1.3c-1.7,0.4-3.4,0.7-5,0.9
			c-1.7,0.2-3.4,0.2-5.1,0.1c-1.2-3.2-3.9-5.8-3.9-9.5c0-1-0.8-1.6-1.3-2.3c-1.3-1.9,0.2-11.9,2.3-12.6c4.3-1.4,5.3-4.2,5.3-8.3
			C127.6,387.9,129,386.3,131.6,387.8L131.6,387.8z"/>
		<path class="st4" d="M267.4,371.2c5.1,7.2,10.2,14.4,15.4,21.5c0.5,0.7,1,1.3,1.5,2c0.8,1.1,1.7,2.1,2.7,3
			c1.4,1.3,2.6,2.7,3.7,4.1c7.6,9.9,9,21.6,7.5,34c-1.4,11.6-5.6,22.4-9.5,33.3c-2.6,7.4-3.5,14.7-1.7,22.3c1.4,5.7-0.9,11.1-1,16.7
			c0,1.2-1.2,1.3-2,1.5c-25.3,7.4-49.4,4.8-72.4-8.2c-1.7-0.9-3.1-2.1-4.5-3.5c-0.4-0.4-0.9-0.9-1.3-1.4c0,0,0,0,0,0
			c-1.5,2-1.6,4.3-2.5,6.3v0"/>
		<path class="st4" d="M263,370.5c1.2,0.7,2.8,0.7,4.3,0.8c0,0,0,0,0,0"/>
		<path class="st4" d="M252.2,372.1c0.6-0.1,1.1-0.3,1.7-0.5c0.6-0.2,1.1-0.4,1.7-0.7c1.9-0.8,3.7-1.8,5.6-2.6c0,0,0,0,0,0
			c0.1,0.2,0.2,0.3,0.2,0.5"/>
		<path class="st4" d="M248.9,372.5c0.6,0,1.1,0,1.7-0.1"/>
		<path class="st4" d="M246.4,372.3c0.3,0.1,0.5,0.1,0.8,0.1"/>
		<path class="st4" d="M243.8,371.5c0.3,0.1,0.5,0.2,0.8,0.3"/>
		<path class="st4" d="M225.8,377.5c0.4-0.2,0.8-0.3,1.1-0.5c4.5-2.6,8.7-5.7,13.7-7.2c0,0,0,0,0,0"/>
		<path class="st4" d="M222.6,379.3c0.1-0.1,0.2-0.2,0.3-0.3"/>
		<path class="st4" d="M203.2,503c-0.3-0.9-0.6-1.8-0.8-2.7c-0.4-1.5-0.7-2.9-0.9-4.3c-0.8-5.3-0.1-10.6,3.4-15.6
			c1-1.5,1.9-3.3,1.8-5.1c-0.3-5,1.3-9.4,3-14c2.1-5.7,1.4-11.8,1-17.8c0-0.7-0.1-1.4-0.2-2c0-0.1,0-0.3,0-0.4
			c-0.2-2-0.4-4.1-0.7-6.1c-0.2-1.7-0.5-3.4-0.8-5.1c-0.2-1.3-0.5-2.7-0.7-4c-1.3-7.2,1.4-13.6,4.4-19.8c2.3-4.9,4.6-9.8,6.9-14.6
			c0.5-1.1,1-2.2,1.3-3.3c0.1-0.2,0.1-0.4,0.2-0.6c0.1-0.4,0.2-0.8,0.3-1.1c0.4-1.7,0.6-3.5,0.5-5.3v0c0.1-0.7,0.4-1.2,0.8-1.6"/>
		<path class="st4" d="M240.6,369.7L240.6,369.7c-5,1.6-9.3,4.6-13.7,7.2c-0.3,0.2-0.7,0.4-1.1,0.5c-1,0.4-2.1,0.8-2.9,1.5
			c-0.1,0.1-0.2,0.2-0.3,0.3c0,0,0,0,0,0c-0.4,0.4-0.6,1-0.8,1.6h0c-1.1,0-2.1,0.2-3,0.6c-0.4,0.2-0.7,0.3-1,0.5
			c-0.5,0.3-1,0.6-1.5,1c-0.2,0.1-0.3,0.2-0.5,0.3c-0.5,0.3-1,0.7-1.4,1c-0.3,0.2-0.7,0.4-1,0.6c-5.2,3.1-10.1,6.8-15.5,9.6
			c-6.8,3.4-12,4.5-16.9,2.8c-2.2-0.7-4.2-2-6.4-3.8c-0.3-0.2-0.6-0.5-0.9-0.8c-0.6-0.6-1.2-1.2-1.8-1.8c-0.3-0.3-0.6-0.7-0.9-1
			c-5.6-6.3-11.2-12.7-16.4-19.3c-1.6-2-3.1-4-4.6-6.1c-1.5-2-3-4.1-4.4-6.2c-4.2-6.3-6-12.9-4.7-19.7c0.2-1,0.5-2,0.8-3
			c0.2-0.5,0.4-1,0.6-1.5s0.4-1,0.7-1.5c0.2-0.5,0.5-1,0.8-1.5c0.9-1.7,3.1-2.5,3.1-4.7"/>
		<path class="st4" d="M269.8,325.4c0.9-0.3,1.7-0.5,2.6-0.7c3.4-0.6,6.8-0.4,10.2,1c7,4.8,9.1,9.2,7.7,15.7c-1,4.4-4.2,6.9-7.9,9
			c0,0,0,0,0,0c-6,2.2-12,4.5-17.7,7.4"/>
		<path class="st4" d="M266.9,327.1c0.1-0.1,0.2-0.2,0.4-0.2"/>
		<path class="st4" d="M264.7,327.8L264.7,327.8C264.7,327.8,264.7,327.8,264.7,327.8C264.7,327.8,264.7,327.8,264.7,327.8
			c0.5,0,0.9,0,1.4-0.2"/>
		<path class="st4" d="M264.5,328.4c0.1-0.1,0.2-0.1,0.2-0.2c0-0.1,0-0.2,0-0.4v0"/>
		<path class="st4" d="M264.4,328.5C264.4,328.4,264.4,328.4,264.4,328.5"/>
		<path class="st4" d="M264,328.5L264,328.5C264,328.5,264,328.5,264,328.5C264,328.5,264,328.5,264,328.5
			C264.1,328.5,264.1,328.5,264,328.5"/>
		<path class="st4" d="M264,329.1c0.1-0.2,0.1-0.4,0-0.6v0c0,0,0,0,0,0"/>
		<path class="st4" d="M263.7,329.5c0.1-0.1,0.2-0.1,0.2-0.2"/>
		<path class="st4" d="M263.2,329.8c0,0,0.1,0,0.2-0.1"/>
		<path class="st4" d="M262.7,330.4c0.2-0.2,0.4-0.4,0.5-0.6l0,0"/>
		<path class="st4" d="M241.3,350.3c0.1,0,0.1,0,0.2-0.1c8.3-4,15.7-9,19.7-17.8c0,0,0,0,0,0"/>
		<path class="st4" d="M194.8,370.2c8.6-2.8,17-6,25.1-10.1c0,0,0,0,0,0c6.9-2.7,13.7-5.5,19.9-9.7c0,0,0,0,0,0"/>
		<path class="st4" d="M157.9,323.6c7.8,1.1,12.1,6.3,14.9,13.1c2.6,10.6,7,20.5,12.7,29.8c1.3,2.1,2.8,3.4,4.5,3.9"/>
		<line class="st4" x1="146.7" y1="326.4" x2="146.7" y2="326.4"/>
		<path class="st4" d="M263.5,328.8c-0.1,0.1-0.1,0.2-0.2,0.3c0,0.1-0.1,0.3-0.1,0.4"/>
		<line class="st4" x1="264" y1="328.5" x2="264" y2="328.5"/>
		<polyline class="st4" points="264.7,327.8 264.7,327.8 264.7,327.8 		"/>
		<path class="st4" d="M283.4,322.1c-0.3,1.2,0.4,2.6-0.8,3.6c-3.4-1.3-6.8-1.6-10.2-1c-0.9,0.2-1.7,0.4-2.6,0.7
			c-0.3,0.1-0.6,0.2-0.9,0.3"/>
		<path class="st4" d="M281,316.7c0.2,0.3,0.4,0.7,0.6,1"/>
		<path class="st4" d="M280.4,315.6c0.2,0.4,0.4,0.7,0.6,1"/>
		<path class="st4" d="M262.7,330.4c-0.5,0.7-1,1.4-1.5,2.1l0,0c-0.8-5.7-1.4-11.4,2.4-16.4c0.6-0.8,1.2-1.7,1.2-2.8v0
			c1.5-5.9,1.7-12,2.7-17.9c0.3-1.7,0.7-3.4,0.6-5.1c0-2.6,1.2-3.1,3.6-3.3c1.3-0.1,2.3,0,3,0.4c0.4,0.2,0.7,0.6,1,1
			c0.4,0.7,0.7,1.8,0.8,3c0.9,7.4,1.5,14.8,3.2,22v0v0"/>
		<path class="st4" d="M260.7,365.8c-0.4-1.1-1.1-2.1-1.7-3.2"/>
		<path class="st4" d="M282.4,352.5C282.4,352.5,282.4,352.5,282.4,352.5c0.3,0.2,0.5,0.4,0.7,0.6c0.4,0.6,0.3,1.4,0.3,2.1
			c0,3.5,0.1,7.1,0,10.6c-0.1,3.4-2.2,5.4-5.6,5.4c-3.4,0-6.8,0-10.3,0h0c-1.5,0-3.1-0.1-4.3-0.8c-0.6-0.3-1.1-0.9-1.6-1.6
			c-0.1-0.1-0.2-0.3-0.2-0.5v0"/>
		<path class="st4" d="M279.3,357.6c0.6-0.5,1.2-1.2,1.7-1.9"/>
		<path class="st4" d="M276.5,359.4c0.5-0.2,1-0.5,1.5-0.8"/>
		<path class="st4" d="M268.5,359.6c0.6,0.2,1.3,0.3,1.9,0.4"/>
		<path class="st4" d="M257.8,360.9c2.1-1.3,4.4-2.3,6.8-3h0c1,0.6,1.9,1,2.9,1.4"/>
		<path class="st4" d="M282.4,350.5c0,0.7,0,1.4,0,2v0c-0.3,1.2-0.8,2.3-1.4,3.3c-0.5,0.7-1,1.3-1.7,1.9c-0.4,0.4-0.9,0.7-1.3,1
			s-1,0.5-1.5,0.8c-1.8,0.7-3.9,1-6.1,0.6c-0.6-0.1-1.3-0.2-1.9-0.4c-0.3-0.1-0.7-0.2-1-0.3c-1-0.4-1.9-0.8-2.9-1.4c0,0,0,0,0,0
			C270.3,354.9,276.3,352.6,282.4,350.5L282.4,350.5z"/>
		<path class="st4" d="M283.4,322.1c0-1.7-0.9-3.1-1.8-4.4c-0.2-0.3-0.4-0.7-0.6-1v0c-0.2-0.3-0.4-0.7-0.6-1
			c-0.4-0.7-0.6-1.4-0.7-2.3c2.3,0.1,4-1.7,6.1-2.1c0.3,2.7,0.2,5.4,0.6,8.1c0.1,0.9,0.3,1.8,0.5,2.7
			C285.7,322.1,284.5,322.1,283.4,322.1z"/>
		<path class="st4" d="M340.6,318.1C340.6,318.1,340.6,318.1,340.6,318.1"/>
		<path class="st4" d="M340.6,318.1c-0.1,0.1-0.2,0.1-0.3,0.2"/>
		<path class="st4" d="M340.3,318.4c-0.1,0.1-0.2,0.2-0.3,0.3c-1.5,0.3-3,0.3-4.5,0.1"/>
		<path class="st4" d="M634.3,402.1L634.3,402.1c0.2-0.1,0.3-0.1,0.5-0.2v0h0c0,0,0,0,0,0c-0.1,0.1-0.2,0.3-0.2,0.4v0h0v0
			c0,0,0,0,0,0c0,0,0-0.1-0.1-0.1C634.3,402.1,634.3,402.1,634.3,402.1z"/>
		<path class="st4" d="M219.9,356.1c0,1.3,0,2.7,0,4"/>
		<path class="st4" d="M216.9,338.9c1.7,3.4,3.2,6.8,3.1,10.7c0,0.6,0,1.1,0,1.6c0,0.5,0,1.1,0,1.6"/>
		<path class="st4" d="M200.1,360.7c1.5-1.2,2.7-3.1,3.2-5.7c1.3-6.2,2-12.6,2.9-18.9c2.7-2.5,5.3-1.4,7.9,0.3
			c1,0.7,1.9,1.6,2.8,2.4"/>
		<path class="st4" d="M194.9,362c1.9,0.3,3.7-0.1,5.2-1.3"/>
		<path class="st4" d="M194,361.9c0.2,0.1,0.5,0.1,0.7,0.2"/>
		<path class="st4" d="M192.9,361.5c0.2,0.1,0.4,0.1,0.6,0.2"/>
		<path class="st4" d="M191.9,361c0.2,0.1,0.5,0.2,0.7,0.4"/>
		<path class="st4" d="M219.9,360.1c-8.1,4.1-16.5,7.2-25.1,10.1c0,0,0,0,0,0c-1.8,0.6-3.4,0.7-4.8,0.3c-1.7-0.5-3.2-1.8-4.5-3.9
			c-5.7-9.3-10.1-19.2-12.7-29.8c0.5,0.3,0.9,0.7,1.3,1.1c0.2,0.2,0.4,0.4,0.6,0.6c0.6,0.6,1.1,1.2,1.6,1.9c0.2,0.2,0.3,0.5,0.5,0.7
			c0.5,0.7,0.9,1.4,1.4,2.1c0.3,0.5,0.6,1,0.9,1.4c0.6,0.9,1.2,1.9,1.9,2.8c0,0,0,0,0,0c0.3,0.5,0.7,1,1,1.5c0.6,1,1.1,2.1,1.9,3
			c0.1,0.1,0.2,0.2,0.3,0.3c0.3,0.3,0.6,0.6,1.1,0.9c0,0,0,0,0,0c0.3,2.8,2.4,4.4,4.1,6.1c0.7,0.6,1.3,1.2,2,1.6"/>
		<path class="st4" d="M206.2,336.2c-0.9,6.3-1.6,12.6-2.9,18.9c-0.5,2.6-1.7,4.5-3.2,5.7c0,0,0,0,0,0c-1.5,1.2-3.3,1.6-5.2,1.3
			c-0.1,0-0.1,0-0.1,0c-0.2,0-0.5-0.1-0.7-0.2c-0.2-0.1-0.4-0.1-0.5-0.2c-0.2-0.1-0.4-0.1-0.6-0.2c-0.1,0-0.2-0.1-0.3-0.1
			c-0.2-0.1-0.5-0.2-0.7-0.4c-0.1-0.1-0.3-0.2-0.4-0.3c-0.7-0.4-1.4-1-2.1-1.6c-1.8-1.7-3.9-3.3-4.2-6.1c0,0,0,0,0,0
			c0.5-0.3,1-0.7,1.5-1.2c2-2,3.4-4.8,4-7.8c1.1-5.2,0.5-11-1.6-14.9c-1-1.9-1.6-3.8-1.3-5.7c0.1-0.6,0.2-1.1,0.5-1.7
			c0.1-0.2,0.1-0.3,0.2-0.5c0.1-0.1,0.1-0.3,0.2-0.5c3.9,2.5,8.1,1.3,12.2,1.2c0.8,0,1.6-0.3,2.3-0.4c-0.7,2.3-1.5,4.5-2.2,6.8
			c-1,3.2-1.1,5.1,0,6.2c0.4,0.5,1,0.8,1.9,1C203.8,335.9,204.9,336,206.2,336.2z"/>
		<path class="st4" d="M157.9,323.6c-3.9,0.1-7.4,2.1-11.2,2.8h0l0,0v0c0.1-0.1,0.3-0.3,0.4-0.4C150.2,323,153.8,322,157.9,323.6z"
			/>
		<path class="st4" d="M502.7,310.5L502.7,310.5c-1.3,0.2-2.7,0.1-4-0.1c0,0,0,0,0,0c-0.4-0.1-0.9-0.1-1.3-0.2
			c-0.4-0.1-0.8-0.2-1.2-0.2c-0.3-0.1-0.6-0.1-0.9-0.2c-0.4-0.1-0.7-0.1-1.1-0.2c-0.1,0-0.2,0-0.2,0c-0.4-0.1-0.7-0.1-1.1-0.2
			c-0.9-0.1-1.8-0.2-2.7-0.1c-0.1,0-0.2,0-0.3,0c-0.3,0-0.7,0-1,0.1c-0.4,0-0.7,0-1,0.1c-0.3,0-0.7,0.1-1,0.2
			c-0.3,0.1-0.6,0.2-0.9,0.5h0c0,0,0,0,0,0c-3-2.3-5.1-5.5-8.4-7.5c-1.9-1.2-3.8-2.4-5.9-3.1c-1-0.3-1.9-0.5-3-0.5
			c-1.2,0-2.3-0.1-3.3-0.3c-0.4-0.1-0.8-0.2-1.2-0.3c-4.9-1.4-8-5-9.9-10.4c-1.6-4.6-3.2-9.3-4.8-13.9c0,0,0,0,0,0
			c0-4.3,0-8.7,0.1-13h0c6,2.5,10.4,7,14.3,12c11,14,23.5,26.4,38,36.8c0.1,0.1,0.1,0.1,0.2,0.2c0.1,0.1,0.2,0.2,0.3,0.4
			C502.6,310.4,502.7,310.4,502.7,310.5L502.7,310.5z"/>
		<path class="st4" d="M239.8,350.5c-6.2,4.1-13,7-19.9,9.7v0c0-1.3,0-2.7,0-4c0-1.1,0-2.2,0-3.3c0-0.5,0-1.1,0-1.6
			c0-0.5,0-1.1,0-1.6c0.1-3.9-1.4-7.3-3.1-10.7h0c6.6-0.2,13.2-0.2,19.8-1.3c0.4-0.1,0.8-0.1,1.2-0.2c0.5-0.1,0.9-0.3,1.4-0.5
			c0.1,0,0.2-0.1,0.3-0.1c0.5-0.3,0.9-0.7,1.3-1.2c0.2-0.3,0.4-0.6,0.7-0.9c0.1-0.1,0.2-0.2,0.2-0.2c0.2-0.2,0.5-0.4,0.7-0.6
			c0,0,0,0,0,0c0.2-0.1,0.3-0.2,0.5-0.3h0c0.2-0.1,0.4-0.2,0.6-0.2c1.1-0.4,2.4-0.3,3.8,0.2"/>
		<path class="st4" d="M242.9,346.3c-1.1,1.3-2.2,2.7-3.1,4.1"/>
		<path class="st4" d="M247.4,333.4c1.9,1.8,1.6,3.8,0.5,5.9c-1.1,2.1-2.5,3.9-3.9,5.6"/>
		<path class="st4" d="M239.8,350.5c0.9-1.5,2-2.8,3.1-4.1c0.4-0.4,0.7-0.9,1.1-1.3c1.5-1.8,2.9-3.6,3.9-5.6
			c1.1-2.2,1.3-4.1-0.5-5.9h0c4.5-4.1,6.2-9.1,5.7-15.1c-0.3-3.8-0.5-7.5-0.7-11.3c0,0,0,0,0,0c2.4,1.6,4.9,3.3,7.4,4.8
			c1.5,0.9,3.1,1.4,4.9,1.4h0c0,1.1-0.5,2-1.2,2.8c-3.8,5-3.3,10.7-2.4,16.4c0,0,0,0,0,0c-4,8.8-11.4,13.8-19.7,17.8
			c-0.1,0-0.1,0.1-0.2,0.1C240.8,350.4,240.3,350.4,239.8,350.5L239.8,350.5z"/>
		<path class="st4" d="M380.6,223.3c-0.1-3,0-6,0-8.9c0-3.1-0.1-6.2,0-9.3c0.1-1.5,0.4-2.8,0.9-3.9c0.3-0.7,0.8-1.2,1.3-1.7
			c1.3-1.3,3.3-2.1,5.6-2.2c1.1,0,2.3,0,3.4,0c1.9,0,3.6,0.3,4.9,0.8c0.5,0.2,1,0.5,1.4,0.8c0.2,0.2,0.4,0.3,0.6,0.5
			c1.5,1.4,2.2,3.7,2.3,6.8c0.1,2.7,0.1,5.4,0.1,8.1c0,2.7,0,5.4-0.1,8.1c-0.1,3.5-1,5.9-2.9,7.3c-0.9,0.6-1.9,1.1-3.1,1.3
			c-0.6,0.1-1.3,0.2-2,0.3c-0.4,0-0.7,0-1.1,0c-0.9,0-1.8,0-2.7,0c-0.3,0-0.5,0-0.8,0C383.6,231.1,380.8,228.3,380.6,223.3z"/>
		<path class="st4" d="M375.8,243.7c0.1-1.5-0.4-2.9-0.9-4.3c-2.1-5.8-5.2-11.1-6.7-17.2v0c0,0,0,0,0,0c0,0,0,0,0,0c0,0,0,0,0,0
			c0,0,0,0,0,0c1.5,6,4.5,11.4,6.7,17.2C375.4,240.8,375.9,242.3,375.8,243.7c0,0.1,0,0.3,0,0.5c0,0.1,0,0.1,0,0.2
			c0,0.1-0.1,0.3-0.1,0.4c0,0.1-0.1,0.2-0.1,0.3c-0.1,0.2-0.1,0.3-0.2,0.5c0,0,0,0.1,0,0.1c-0.6,1.4-1.5,2.5-2.4,3.3
			c-0.2,0.2-0.4,0.4-0.6,0.5c-0.2,0.2-0.5,0.3-0.7,0.5c-0.2,0.1-0.4,0.2-0.6,0.4c-1.4,0.8-2.9,1.3-4.6,1.6c-0.9,0.2-1.8,0.3-2.6,0.4
			c-2.3,0.3-4-0.4-5.2-1.7c-0.3-0.3-0.5-0.6-0.8-0.9c-0.1-0.2-0.2-0.3-0.4-0.5c-0.6-0.8-1.1-1.8-1.5-2.8c-2.1-5.2-4.3-10.3-6.4-15.5
			c-0.3-0.7-0.5-1.4-0.6-2c0,0,0,0,0,0c-0.2-1-0.3-2-0.1-2.9c0.1-1,0.4-1.9,1-2.7c0.3-0.4,0.6-0.9,1-1.3c0,0,0,0,0,0
			c0.3-0.3,0.6-0.5,0.9-0.8c0,0,0,0,0,0c0.5-0.4,1-0.7,1.7-1c0.2-0.1,0.4-0.2,0.6-0.3c0.4-0.2,0.8-0.3,1.3-0.5
			c0.6-0.3,1.2-0.5,1.8-0.7c5-1.8,6.9-1.1,11.1,3.3h0"/>
		<path class="st4" d="M428.2,249.5c0-3.1-0.1-6.2,0-9.3c0-0.6,0.1-1.2,0.2-1.7c0.7-3.7,3.5-5.9,7.7-6c1.3,0,2.5,0,3.8,0
			c1.8,0,3.3,0.3,4.5,0.8c2.7,1.1,4.1,3.5,4.2,7.5c0,0.7,0.1,1.5,0.1,2.2c0.1,2.2,0.1,4.4,0.1,6.6c0,2.2,0,4.4-0.1,6.6
			c0,0.7,0,1.5-0.1,2.2c-0.1,2.1-0.5,3.8-1.4,5.1c-0.3,0.4-0.6,0.8-1,1.1c-1.4,1.3-3.6,2-6.4,2c0,0,0,0,0,0h0c-1.2,0-2.5,0-3.7,0
			c0,0,0,0,0,0c-2.4-0.1-4.3-0.8-5.6-2.2c-1.2-1.2-1.9-2.8-2.1-4.7c0-0.3-0.1-0.6-0.1-0.9c0-0.6,0-1.2-0.1-1.8
			C428.2,254.5,428.2,252,428.2,249.5z"/>
		<path class="st4" d="M257.8,360.9c0.4,0.6,0.8,1.2,1.1,1.7c0.7,1,1.3,2,1.7,3.2c0.3,0.8,0.5,1.6,0.5,2.6l0,0
			c-1.9,0.9-3.7,1.8-5.5,2.6c-0.6,0.2-1.2,0.5-1.7,0.6c-0.6,0.2-1.1,0.3-1.7,0.5c-0.6,0.1-1.1,0.2-1.7,0.3c-0.6,0.1-1.1,0.1-1.7,0.1
			c-0.6,0-1.1,0-1.7-0.1c-0.3,0-0.5-0.1-0.8-0.1c-0.6-0.1-1.3-0.3-1.9-0.5c-0.3-0.1-0.5-0.2-0.8-0.3c-1-0.4-2.1-1-3.1-1.8
			C245.9,365.9,251.9,363.5,257.8,360.9z"/>
		<path class="st4" d="M264.7,327.8C264.7,327.8,264.7,327.8,264.7,327.8L264.7,327.8c0.9-1.8,2.4-2.2,4.2-2.1
			c-0.6,0.4-1.1,0.8-1.6,1.2c-0.1,0.1-0.2,0.2-0.4,0.2c-0.3,0.2-0.6,0.3-0.9,0.4C265.7,327.7,265.2,327.8,264.7,327.8L264.7,327.8
			L264.7,327.8z"/>
		<path class="st4" d="M263.2,329.8c0-0.1,0-0.1,0-0.2c0-0.1,0-0.3,0.1-0.4c0-0.1,0.1-0.2,0.2-0.3c0.1-0.1,0.3-0.3,0.6-0.3
			c0,0,0,0,0,0l0,0c0,0,0,0,0,0v0c0.1,0.2,0,0.4-0.1,0.6c0,0,0,0.1-0.1,0.1c-0.1,0.1-0.1,0.2-0.2,0.2c-0.1,0.1-0.2,0.2-0.3,0.2
			C263.3,329.7,263.3,329.8,263.2,329.8"/>
		<path class="st4" d="M263.2,329.8C263.2,329.8,263.2,329.7,263.2,329.8"/>
		<line class="st4" x1="263.2" y1="329.8" x2="263.2" y2="329.8"/>
		<line class="st4" x1="263.2" y1="329.8" x2="263.2" y2="329.8"/>
		<path class="st4" d="M263.2,329.8c-0.2,0.2-0.4,0.4-0.5,0.6"/>
		<path class="st4" d="M264,328.5C264,328.5,264,328.5,264,328.5c0-0.4,0.2-0.7,0.7-0.7h0c0,0,0,0,0,0s0,0,0,0c0,0.2,0,0.3,0,0.4
			c0,0.1-0.1,0.2-0.2,0.2c0,0,0,0,0,0c0,0-0.1,0-0.1,0C264.3,328.5,264.2,328.5,264,328.5C264.1,328.5,264.1,328.5,264,328.5
			L264,328.5C264,328.5,264,328.5,264,328.5z"/>
	</g>
</g>
</svg>
