<?xml version="1.0" encoding="utf-8"?>
<!-- Generator: Adobe Illustrator 24.2.1, SVG Export Plug-In . SVG Version: 6.00 Build 0)  -->
<svg version="1.1" id="Layer_1" xmlns="http://www.w3.org/2000/svg" xmlns:xlink="http://www.w3.org/1999/xlink" x="0px" y="0px"
	 viewBox="0 0 177.4 125" style="enable-background:new 0 0 177.4 125;" xml:space="preserve">
<style type="text/css">
	.st0{stroke:#FFFFFF;stroke-width:5.2;stroke-miterlimit:10;}
</style>
<path class="st0" d="M87.2,41.1c-15.8,0-28.7,12.9-28.7,28.7s12.9,28.7,28.7,28.7s28.7-12.9,28.7-28.7S103,41.1,87.2,41.1z
	 M87.2,90.9c-11.7,0-21.1-9.5-21.1-21.1s9.5-21.1,21.1-21.1s21.1,9.5,21.1,21.1S98.9,90.9,87.2,90.9z M124,20.9h-5.6l-2.2-5.1
	c-2.5-6.4-6.3-9.2-12.6-9.2H70.8c-6.3,0-10.1,2.7-12.5,9.1l-2.2,5.2h-5.6c-18.6,0-28,12.9-28,38.3v18.5c0,25.4,9.4,38.3,28,38.3H124
	c18.9,0,29.3-13.6,29.3-38.3V59.2C153.3,34.5,142.9,20.9,124,20.9z M145.8,77.7c0,20.4-7.3,30.7-21.8,30.7H50.5
	c-9.6,0-20.5-3.5-20.5-30.7V59.2C30,32,41,28.5,50.5,28.5h8.1c1.5,0,2.9-0.9,3.5-2.3l3.2-7.6c1.6-4.2,3-4.4,5.6-4.4h32.9
	c2.6,0,3.9,0.2,5.6,4.5l3.2,7.5c0.6,1.4,2,2.3,3.5,2.3h8.1c14.5,0,21.8,10.3,21.8,30.7L145.8,77.7L145.8,77.7z"/>
</svg>
