<?xml version="1.0" encoding="utf-8"?>
<!-- Generator: Adobe Illustrator 24.3.0, SVG Export Plug-In . SVG Version: 6.00 Build 0)  -->
<svg version="1.1" id="Layer_1" xmlns="http://www.w3.org/2000/svg" xmlns:xlink="http://www.w3.org/1999/xlink" x="0px" y="0px"
	 viewBox="0 0 800 800" style="enable-background:new 0 0 800 800;" xml:space="preserve">
<style type="text/css">
	.st0{fill:#253857;}
	.st1{fill:#48736C;stroke:#FFFFFF;stroke-width:2;stroke-miterlimit:10;}
	.st2{fill:#E0B872;}
	.st3{fill:#FF9A26;stroke:#FFFFFF;stroke-width:2;stroke-miterlimit:10;}
	.st4{fill:none;stroke:#000000;stroke-width:2;stroke-miterlimit:10;}
</style>
<path class="st0" d="M492.4,246.9c6.3,0.4,14.6-0.9,22.8-2.2c16.7-2.7,33.2-6.6,49.2-12.7c6.3-2.4,12.6-4.9,18-9.2
	c1.6-1.2,3-2.6,2.5-4.6c-0.5-1.9-2.3-2.5-4.2-2.8c-3.5-0.7-7-1.1-10.5-1.3c-4-0.2-7.9,1-12,0.7c-1-0.1-2.4,0.4-2.6-1.3
	c-0.7-5.4-4.9-6.4-9-7.4c-6.4-1.5-12.8-0.5-19.1,0.7c-7.7,1.5-15,4.1-21.4,8.7c-2.2,1.6-5,3.6-4.4,6.2c1.1,5.2-2,6.1-5.6,7.2
	c-1.2,0.4-2.3,0.8-3.4,1.3c-5.8,2.5-11.9,4.5-16.5,9.1c-3.1,3.1-2.5,5.1,1.7,6.6C482,247.3,486.2,246.8,492.4,246.9z"/>
<path class="st0" d="M293.5,367.2c10.2,0.5,21.6-0.5,32.9-2c6.5-0.9,12.9-2.1,18.9-4.9c1.8-0.8,3.7-1.8,3.6-4.3
	c0-2.3-1.9-2.9-3.5-3.6c-6.8-3.2-14.1-4.4-21.5-5.3c-1.8-0.2-3.4,0.2-2.5-2.6c0.9-3-1.2-4.8-3.3-6.4c-2.5-1.9-5.4-3.1-8.5-3.7
	c-7.4-1.6-14.7-2.6-22.4-1.6c-5.1,0.7-10.1,1.5-14.7,3.7c-3.3,1.6-7.2,3.4-6.1,8.6c0.3,1.3-0.9,1.2-1.8,1.3c-4.1,0.6-8.3,1.2-12.4,2
	c-5.1,1-10.3,1.9-14.7,4.9c-2.7,1.8-2.7,3.4-0.3,5.5c2.3,1.9,5,2.9,7.8,3.6C260.7,366.4,276.4,367.5,293.5,367.2z"/>
<path class="st0" d="M277.5,230.8c7.6,0.2,14.9,0.2,22.2-0.6c6.8-0.8,13.6-1.8,20.1-4.1c1.9-0.7,4.1-2,4.1-3.9s-2.2-3.1-4.1-3.9
	c-0.1,0-0.2-0.1-0.3-0.1c-4.9-1.9-10-2.9-15.2-3.4c-1.5-0.1-2.8-0.4-2.6-2.2c0.3-4.3-2.8-5.8-5.9-7c-3.4-1.4-7-2-10.6-2.5
	c-8.4-1-16.6-0.2-24.3,3.4c-2.2,1-4.2,2.6-4,5.6c0.1,1.4-0.5,2-1.9,2.1c-1.5,0.1-3.1,0.5-4.6,0.7c-5.5,0.8-10.9,1.6-16,4.1
	c-1.4,0.7-3,1.3-2.9,3.3c0.1,1.7,1.5,2.4,2.8,3c2.8,1.3,5.8,2.3,8.8,2.9C254.5,230.4,266,231.3,277.5,230.8z"/>
<path class="st0" d="M390.3,224.4c-0.5,0-0.7,0-0.7,0c-0.3-0.3-0.6-0.6-0.9-1c-6.4-7.4-13.8-13.2-23.9-14.7
	c-0.7-0.1-1.8-1.2-2.2,0.2c-0.4,1.3,0.7,1.6,1.8,1.8c12.5,2.6,21.6,9.4,26.5,21.4c0.6,1.4,1.8,4.1,2.9,3.5c1.6-0.9-0.3-2.8-0.7-4.3
	c-0.1-0.5-0.5-1-0.7-1.5c-1.8-4.2,0.5-11.2,4.4-13.1c0.5-0.3,1-0.4,0.9-1.1c-0.1-0.7-0.7-0.8-1.3-0.8c-2.2,0-3.8,1.1-4.8,3
	C390.6,219.9,390.5,222.1,390.3,224.4z"/>
<path class="st0" d="M313.9,308.3c-1.1-1.3-2.1-2.6-3.2-3.8c-3.2-3.3-7.3-4.8-11.6-6c-0.7-0.2-1.7-0.4-2,0.6
	c-0.3,1.1,0.7,1.2,1.4,1.4c0.4,0.2,0.8,0.3,1.2,0.4c7.4,1.8,12.5,6.3,15.5,13.3c0.5,1.2,1,2.5,2.7,2.6c0.6-1.5-0.5-2.5-0.6-3.8
	c-0.3-3-1.4-6.2,1.6-8.6c0.6-0.4,1.6-0.8,0.8-1.7c-0.6-0.6-1.5-0.3-2.1,0.2C315.8,304.1,315,305.8,313.9,308.3z"/>
<path class="st0" d="M567.8,293c-0.7-1.9-1.3-3.2-1.7-4.5c-0.8-2.9-0.9-5.7,1.4-8c0.5-0.5,1.7-0.8,1.1-1.7c-0.6-0.8-1.6-0.5-2.4,0.1
	c-0.8,0.6-1.5,1.3-1.8,2.3c-0.6,2.1-1.3,1.7-2.6,0.4c-3.5-3.6-7.5-6.2-12.5-7.1c-0.8-0.1-2.3-1.6-2.8,0.2c-0.4,1.4,1.2,1.5,2.3,1.8
	c7,2,12.4,5.7,15.1,12.8C564.4,290.6,565.2,292.3,567.8,293z"/>
<path class="st1" d="M658.6,331.8c-5.8-5.1-12.3-9.1-18.4-13.6c-9.9-7.3-19.9-14.5-30-21.6c-1.9-1.4-1.8-2.3-0.6-4
	c2.3-3.1,4.7-6.2,7.7-8.8c1.9-1.7,2.3-3.2,1-5.5c-5.5-9.7-8.5-20.3-9.6-31.3c-1-10.3-0.2-20.6,2.7-30.7
	c4.9-17.3,14.2-31.6,28.1-43.1c12.2-10.1,26-16.1,41.4-18.5c16.8-2.6,33.1,0,48.6,7.3c8.5,4,16.2,9.3,22.9,15.8
	c7.8,7.6,13.9,16.4,18.4,26.4c1,2.3,0.5,3.4-1.8,4.6c-19.6,10.3-39.1,20.8-58.6,31.2c-0.5,0.3-1,0.5-1.1,1.5
	c4.8-1.6,9.5-3.1,14.2-4.8c14.1-4.9,28.1-9.8,42.2-14.7c2.5-0.9,5.1-1.7,7.5-2.8c2-0.9,2.7,0,3,1.7c0.6,3.4,1.3,6.8,1.6,10.2
	c1,15.7-1.3,30.8-8.3,45c-0.2,0.4-0.4,0.8-0.6,1.2c-4.7,8.1-4.6,7.9-14.1,6.2c-10.9-1.9-21.8-3.5-32.8-5.2c-0.5-0.1-1.1,0-1.8,0.5
	c3.3,1.1,6.5,2.3,9.8,3.3c9,2.8,18,5.6,27,8.3c2,0.6,2.1,1.7,0.9,3.1c-1.2,1.4-2.4,2.7-3.7,3.8c-2.1,1.7-2.1,3.5-0.9,5.8
	c7.6,14.3,10.8,29.6,9.5,45.7c-1.3,17.2-7.5,32.8-18.2,46.4c-0.8,1-1.6,2.1-2.5,3.1c-5.2,5.6-5.2,5.5-1.9,12.3
	c4.1,8.6,6.5,17.6,7.5,27.1c2.4,24.3-4.6,45.8-20.3,64.1c-12.8,15-29.3,24.3-48.9,27.8c-3.5,0.6-7,1.4-10.5,1.3
	c-3.1,0-6.3,0.4-9.3-0.1c-2.9-0.5-6.1,0.5-8.7-1.7c0.9-1,2.5-1,3.1-2.5c-1.3-0.7-2.6-1.3-3.9-1.9c-9.5-4.4-19.6-6.2-30.1-5.9
	c-11-7.1-20.3-15.8-27.3-26.9c-7.3-11.4-11.4-23.9-12.9-37.4c-2.2-20.4,3.1-38.7,14-55.6c2.8-4.4,6.3-8.3,9.8-12.1
	c1.5-1.6,1.5-2.8,0.5-4.6c-5.9-11.4-9.2-23.4-9.7-36.3c-0.5-13.6,2.3-26.3,7.4-38.7c1-2.3,2-2.9,4.5-1.6
	c11.8,6.2,23.9,11.9,35.7,18.1c4.8,2.5,9.7,4.8,14.5,7.4C656.6,331.5,657.5,331.9,658.6,331.8c0.1,0.1,0.2,0.2,0.3,0.3
	c0-0.1,0-0.1,0-0.2C658.8,331.9,658.7,331.8,658.6,331.8z M717.8,278.3c0.2-0.1,0.3-0.2,0.5-0.3c-0.2-0.1-0.3-0.3-0.5-0.3
	s-0.3,0.1-0.5,0.2C717.4,278,717.6,278.1,717.8,278.3z M707.7,241.9c-0.2,0-0.3,0-0.5,0c0.1,0.1,0.2,0.2,0.2,0.2
	C707.5,242,707.6,241.9,707.7,241.9z"/>
<path class="st1" d="M111.7,534.4c-5.4,0-10.2-2-14.9-4.2c-23.6-10.8-38.1-29.2-42.9-54.5c-3-15.8-1-31.4,6.1-46.1
	c0.9-1.9,0.6-2.9-0.8-4.3c-11.9-12.2-19.3-26.7-21.6-43.7c-0.9-6.4-0.9-12.8-0.1-19.2c0.2-1.5,0.8-1.9,2.2-1.6
	c13.5,2.1,27.1,4.3,40.6,6.4c3.7,0.6,7.4,0.9,11.4,1.4c-1.2-1.5-2.9-1.3-4.3-1.7c-15-4.8-30-9.6-45.1-14.4c-1.9-0.6-2.4-1.6-1.7-3.5
	c1.1-2.9,1.7-6,3.4-8.6s1-4.1-1.1-6.2c-9.4-9.5-16-20.8-19.1-33.8c-5.9-24.3-1.2-46.6,14.3-66.2c11.4-14.4,26.5-23.3,44.9-26.1
	c20.5-3.1,38.9,1.8,55.2,14.5c3.6,2.8,7.1,5.7,9.8,9.5c0.9,1.3,1,1.9-0.1,3.1c-6.9,7.3-13.7,14.6-20.6,21.9
	c-5.9,6.3-11.8,12.7-17.7,19.1c-0.3,0.3-0.4,0.7-0.2,1.6c2.4-1.8,4.8-3.5,7.2-5.3c12.1-9.6,24.2-19.1,36.2-28.8
	c2.4-1.9,3.3-0.3,4.2,1.4c3.7,7.1,6.6,14.6,8,22.5c1.7,10,1.7,20-0.5,30c-0.4,2-1.3,2.7-3.3,3c-11.6,2-23.2,4.1-34.8,6.6
	c10,0,19.9,0,29.9,0c5.5,0,5.9,0.3,3.1,5.1c-1.8,3.1-0.9,4.7,1.3,7c11.5,12.1,18.4,26.4,20.5,43.1c1.8,14.7-0.7,28.5-6.8,41.8
	c-0.8,1.8-0.6,3.1,0.8,4.4c12.8,12,19.8,27.2,21.8,44.4c1.4,12.7-0.1,25.3-5.1,37.2c-4.2,10-10.1,18.7-17.9,26.2
	c-2.6,2.5-6.1,4.1-8.2,7.2c-1.2-1.9-2.7-2.7-5-1.6c-1.8,0.8-3.8,1.2-5.7,1.8c-4.3,1.3-8.6,2.7-13.3,4.1c0.5-1.5,1.5-1.7,2.2-2.1
	c4.2-2.5,8.4-5.1,12.6-7.4c2.4-1.3,1.9-2.1,0-3.3c-16.1-10.4-38.9-2.3-45,15.8C111.2,532.1,110.8,533.2,111.7,534.4z"/>
<path class="st2" d="M160.9,600.5c10.7-0.3,21.5-1,32.2-1.9c4.8-0.4,9.6-0.4,14.3-0.6c8.7-0.2,17.3-0.7,26-1c15-0.4,30-1,45-1.4
	c6-0.2,12-0.3,18-0.5c35.5-1.1,71-0.6,106.6-0.7c1.6,0,3.1,0.1,4.7,0.1c-1.6,3.3-4.1,6-6.3,9c-1.1,1.5-1.8,3.1-1.2,5
	c1.2,3.6,11.8,6.4,13.2,3.2c1.7-4,3.7-7.7,5.4-11.7c0.3-0.8-0.2-2-0.3-2.9c-0.1-0.9-0.3-1.7-0.4-2.6c4.3,0,8.5,0,12.8,0
	c0.5,1.2,1.1,2.4,1.6,3.6c0.9,2,0.1,4.4,1.9,6.1c-2.1,2.3-4.7,3.7-7.4,5c-2.6,1.3-5.1,2.8-7.1,4.9c-2,2.1-4.2,4.1-0.7,6.8
	c0.3,0.2,0.4,0.8,0.4,1.2c-0.7,2.9,1.4,3.7,3.4,4.4c3.2,1.2,6.5,1.1,9.9,0.4c6.2-1.3,11.9-4.4,17.8-6.3c3.6-1.2,5-3.2,4.2-6.8
	c0.5-0.6,0.7-1.3,0.8-2.1c0.3-6.1,2.5-11.4,5.9-16.4c1.6,0,3.1,0,4.7,0c16.1-0.5,32.2,0.5,48.3,0.8c12.4,0.2,24.8,1.2,37.2,1.2
	c2.1,0,4.3,2,6.2-0.3c3.1,10.7,10.2,17.5,20.7,20.8c6.4,2.1,13,3,19.7,3.5c15.9,1,31.8,1.1,47.7,0c7.4-0.5,14.9-1.1,21.7-4.5
	c6.1-1.6,10.5-5.5,14.4-10.2c4.8,2,9.9,1.7,14.9,2.7c9,1.8,18.2,3,26.7,6.7c1,0.4,2,0.9,2.9,1.6c2.5,1.8,2.4,4.2-0.3,5.8
	c-3.2,1.9-6.7,3-10.2,3.9c-11.5,3.1-23.2,4.6-34.9,6.1c-13.4,1.7-26.8,3.1-40.3,4.1c-8.7,0.6-17.4,1.5-26.2,2
	c-11.4,0.7-22.8,1.5-34.2,2c-9.4,0.4-18.8,0.9-28.2,1.3c-13,0.6-26,0.8-38.9,1.4c-8.1,0.4-16.2-0.2-24.3,0.6
	c-12.2,1.1-24.5,0.2-36.7,0.6c-41.5,1.5-83.1,0.6-124.6,0.4c-12.5,0-25.1,0.2-37.7-0.6c-8-0.5-16-0.1-24-0.5
	c-13.3-0.7-26.6-1-39.9-1.4c-9.6-0.3-19.3-0.8-28.9-1.3c-11.4-0.6-22.8-1.3-34.2-2c-11.6-0.7-23.2-1.5-34.8-2.7
	c-13.3-1.4-26.6-2.5-39.9-4.5c-12.1-1.8-24.1-3.3-35.7-7.2c-1.4-0.5-2.7-1.1-4-1.7c-1.7-0.7-3.5-1.8-3.5-3.7c0-1.8,1.8-3,3.4-3.7
	c6.4-3,13.2-4.5,20.1-5.8c13.5-2.5,27.1-4.4,40.7-5.5c8.5-0.7,16.9-1.8,25.4-2.7c0.7,1,1.3,2.1,2,3c4.4,5.7,11,7.3,16.7,4
	C157,607.4,159.1,604.1,160.9,600.5z"/>
<path class="st3" d="M434.2,604.2c-1.7-1.7-1-4.2-1.9-6.1c-0.5-1.2-1.1-2.4-1.6-3.6c-3.5-7.2-7-14.5-10.5-21.7
	c-1.7-4.2-3.2-8.5-5.2-12.7c-6.6-13.9-9.2-28.3-8.8-43.7c0.5-16.8,1.2-33.6,4.4-50.1c3,0.9,5.8,2.2,8.9,2.7
	c5.9,1.1,11.9,1.1,17.9,1.6c12.3,1,24.6,2,36-4.5c3.9,7.4,3.2,15.1,0.9,22.7c-2,6.7-4.6,13.2-6.8,19.9c-4,12.3-3,24.8-1.7,37.4
	c1.3,13.3,2.9,26.6-1,39.8c-1,3.2-2.2,6.3-3.3,9.4c-3.4,5-5.6,10.3-5.9,16.4c0,0.8-0.2,1.5-0.8,2.1c-5.1,0.9-9.9-0.7-14.6-2.1
	c-2.2-0.7-2.4-1.8-1.5-3.7c0.6-1.3,1.4-2.7,1.1-4.5C437.6,603.7,435.9,604,434.2,604.2z M433,517.9c-3.3,12.4-1.6,24.5,2.7,36.3
	c1.9,6.6,5.3,12.5,8.1,19.7c0-7.4,0.9-14-0.2-20.2c-2.2-13.7-3.2-27.3-3.2-41.1c0-3.6-0.5-7.1-0.7-10.7
	C436.5,507,433.8,512,433,517.9z"/>
<path class="st1" d="M682,606.5c-3.8,4.7-8.3,8.6-14.4,10.2c-1.3-0.7-1.7-2.1-2.2-3.2c-5.3-12.2-15.7-18.8-27-24.4
	c-6.1-3-12.7-2.7-19.2-2.6c-12.5,0.2-22-5.5-29.7-15c-3.9-4.8-8.3-9-14.8-10.1c-4.6-0.8-9.3-0.2-13.9,0.3
	c4.5-13.4,13-23.7,24.5-31.6c10.2-7,21.5-10.5,33.8-11.3c10.5-0.3,20.5,1.5,30.1,5.9c1.3,0.6,2.5,1.3,3.9,1.9
	c-0.7,1.6-2.3,1.6-3.1,2.5c-5.9,3.3-11.8,6.6-17.4,10.3c-5.5,3.2-11.1,6.3-16.6,9.5c0.2,0.3,0.3,0.6,0.4,0.9
	c5.4-1.8,10.9-3.6,16.3-5.4c8.9-2.7,17.9-5.2,26.7-8.2c3.7-1.2,6.5-1.4,9.2,1.7c2.8,3.2,5.6,6.6,8.1,10c1.8,2.5,2,3.8-1.1,5.4
	c-4,2-7.8,4.6-11.6,6.9c-3.4,1.5-6.6,3.5-9.6,5.9c3.3-0.8,6.7-1.3,9.7-3c5.5-1.1,10.6-3.2,15.9-4.7c1.3-0.4,2.2-0.5,2.8,1.1
	c5,12.5,6.4,25.3,3.1,38.5C685.1,601.1,683.5,603.8,682,606.5z M614.7,550c-0.1,0-0.2,0-0.2,0.1c0.1,0,0.2,0.1,0.3,0.1
	C614.7,550.1,614.7,550,614.7,550z M652.6,566.7v0.2h0.3L652.6,566.7z"/>
<path class="st1" d="M560.8,561.8c4.6-0.6,9.3-1.1,13.9-0.3c6.4,1.1,10.9,5.3,14.8,10.1c7.7,9.5,17.2,15.2,29.7,15
	c6.5-0.1,13.2-0.5,19.2,2.6c11.3,5.6,21.7,12.2,27,24.4c0.5,1.2,0.8,2.6,2.2,3.2c-6.9,3.3-14.3,4-21.7,4.5
	c-15.9,1.1-31.8,1.1-47.7,0c-6.7-0.4-13.3-1.4-19.7-3.5c-10.5-3.4-17.5-10.2-20.7-20.8c-2.2-10.9-1.6-21.6,1.8-32.2
	C559.9,563.8,560.4,562.8,560.8,561.8z"/>
<path class="st3" d="M473.3,466.1c-11.4,6.6-23.7,5.5-36,4.5c-6-0.5-12-0.5-17.9-1.6c-3.1-0.6-5.9-1.9-8.9-2.7
	c-3.3-3.1-4.4-6.6-2.2-10.8c0.2-0.4,0.1-0.9,0.1-1.3c2.7-8.4,5.4-16.9,8.1-25.3c5-0.2,7.1-3.8,8.5-7.8c2.7-7.6,3.9-15.5,4.9-23.5
	c0.4-3.3-0.1-6.7,2-9.7c3.6-0.4,6.5-3.1,10.1-3.5c4.9,1.4,9.6,1.5,13.8-2c1,0,2-0.1,3-0.1c0.8,5.6,1.4,11.2,2.5,16.7
	c1.3,6.8,2,13.9,6.7,19.6c0.1,11,1.6,21.8,4.9,32.4c1.2,3.7,1.9,7.5,1.8,11.4C474.7,464,474.5,465.2,473.3,466.1z"/>
<path class="st1" d="M111.7,534.4c-0.8-1.2-0.4-2.3,0-3.5c6.1-18.2,28.9-26.2,45-15.8c1.9,1.2,2.4,2,0,3.3
	c-4.3,2.3-8.4,4.9-12.6,7.4c-0.7,0.4-1.7,0.7-2.2,2.1c4.7-1.5,8.9-2.8,13.3-4.1c1.9-0.6,3.9-1,5.7-1.8c2.3-1,3.8-0.2,5,1.6
	c1.2,1.2,2.9,0.9,4.4,1.2c6.6,1.5,12.1,4.7,16.7,9.7c1.8,1.9,2.1,3.2-0.7,4.6c-3.3,1.6-6.3,3.6-9.3,5.7c4.1-0.4,7.9-1.8,11.8-3.2
	c2-0.7,3-0.3,3.7,1.7c1.9,5.5,3.1,11.1,1.5,17c-3.5-0.5-7-1.1-10.5-1.3c-9.4-0.6-18.5,0.9-27.6,3c-7.1,1.6-14.4,2.8-21.7,0.9
	c-4.5-1.2-8.6-3.5-12.7-5.7c-7-3.8-14.7-3.8-22.3-3.5c1.5-4.5,4.6-7.8,7.9-11c1.5-1.4,2.7-1.5,4.3-0.2c4.4,3.4,9,6.6,13.5,9.8
	c1,0.7,1.8,1.7,3.7,1.9C123.4,546.8,117.4,540.7,111.7,534.4z"/>
<path class="st1" d="M99,553.8c7.7-0.3,15.3-0.3,22.3,3.5c4.1,2.2,8.2,4.5,12.7,5.7c7.3,1.8,14.5,0.7,21.7-0.9
	c9.1-2,18.2-3.5,27.6-3c3.5,0.2,7,0.9,10.5,1.3c-0.9,4.3-0.4,8.8-1.6,13.2c-3.9,13.7-14.4,21.8-30.4,23c-2.9-0.7-5.8-0.8-8.9-0.2
	c-2.9,0.5-5.9,0.6-8.9,0.5c-3.8-0.2-7.5-2.8-11.4-0.6c-12,1.8-22.2-1.5-29.8-11.1c-7.2-9-8.6-19.3-4.6-30.2
	C98.5,554.5,98.8,554.2,99,553.8z"/>
<path class="st0" d="M492.4,246.9c-6.2-0.2-10.5,0.3-14.6-1.1c-4.2-1.5-4.9-3.6-1.7-6.6c4.7-4.6,10.7-6.6,16.5-9.1
	c1.1-0.5,2.3-0.9,3.4-1.3c3.5-1.1,6.7-1.9,5.6-7.2c-0.6-2.6,2.2-4.6,4.4-6.2c6.4-4.6,13.7-7.2,21.4-8.7c6.3-1.2,12.7-2.2,19.1-0.7
	c4.2,1,8.4,2,9,7.4c0.2,1.7,1.6,1.2,2.6,1.3c4,0.3,7.9-0.9,12-0.7c3.5,0.2,7,0.7,10.5,1.3c1.8,0.4,3.7,0.9,4.2,2.8
	c0.5,2.1-1,3.4-2.5,4.6c-5.4,4.3-11.7,6.8-18,9.2c-15.9,6-32.4,9.9-49.2,12.7C507,246.1,498.8,247.4,492.4,246.9z"/>
<path class="st0" d="M293.5,367.2c-17.1,0.3-32.9-0.8-48.3-4.7c-2.8-0.7-5.5-1.8-7.8-3.6c-2.5-2-2.4-3.7,0.3-5.5
	c4.4-3,9.6-3.9,14.7-4.9c4.1-0.8,8.3-1.4,12.4-2c0.9-0.1,2.1,0,1.8-1.3c-1.1-5.1,2.8-6.9,6.1-8.6c4.6-2.2,9.6-3,14.7-3.7
	c7.7-1,15,0,22.4,1.6c3,0.7,6,1.8,8.5,3.7c2,1.6,4.2,3.4,3.3,6.4c-0.9,2.8,0.8,2.4,2.5,2.6c7.4,0.8,14.7,2.1,21.5,5.3
	c1.6,0.7,3.4,1.3,3.5,3.6c0,2.5-1.8,3.5-3.6,4.3c-6,2.7-12.4,4-18.9,4.9C315.1,366.8,303.8,367.6,293.5,367.2z"/>
<path class="st0" d="M277.5,230.8c-11.4,0.5-23-0.4-34.5-2.6c-3.1-0.6-6-1.6-8.8-2.9c-1.3-0.6-2.7-1.2-2.8-3
	c-0.1-1.9,1.5-2.6,2.9-3.3c5-2.5,10.5-3.4,16-4.1c1.5-0.2,3.1-0.6,4.6-0.7c1.4-0.1,2-0.7,1.9-2.1c-0.3-3,1.7-4.5,4-5.6
	c7.8-3.6,15.9-4.4,24.3-3.4c3.6,0.4,7.2,1.1,10.6,2.5c3.1,1.3,6.2,2.7,5.9,7c-0.1,1.8,1.1,2.1,2.6,2.2c5.2,0.5,10.3,1.5,15.2,3.4
	c0.1,0,0.2,0.1,0.3,0.1c1.9,0.8,4.1,2,4.1,3.9s-2.2,3.2-4.1,3.9c-6.5,2.4-13.3,3.3-20.1,4.1C292.4,231,285,231,277.5,230.8z"/>
<path class="st3" d="M408.5,454.2c0,0.4,0.1,0.9-0.1,1.3c-2.2,4.2-1.1,7.7,2.2,10.8c-3.2,16.6-3.9,33.3-4.4,50.1
	c-0.5,15.4,2.2,29.8,8.8,43.7c2,4.1,3.5,8.4,5.2,12.7c-0.6,5.7-1.1,11.3-1.7,17c-0.1,1,0.2,2.3-1.2,2.8c-3.1-1.8-6.2-1.4-9.3,0
	c-0.9,0.2-1.4,0-1.6-1c-1.1-9.4-4.6-18.3-6.5-27.5s-1.3-18.5,0.4-27.5c2.7-14.2,1.8-28.2,0.1-42.5c-1.3-11.1-2.6-22.4-1.2-33.6
	c0.3-2.1,0.9-4.1,1.3-6.2C403.1,454.2,405.8,454.2,408.5,454.2z"/>
<path class="st3" d="M438.1,315.4c4.4-1.5,8.8-2.8,13.7-1.7c8.3,2,13.9,9,15.1,17.4c1.1,7.8,1,15-3.8,21.6c-0.9,1.2-1.5,2.7-1.4,4.4
	h-0.3c-3-0.5-6-2.5-8.8,0.6c0-0.6,0-1.3-0.1-1.9c3.3-9,1.1-17.6-2.3-26c-0.5-1.3-1.2-1.7-2.5-0.8c-3,1.9-6.1,3.6-9.1,5.4
	c-3.3,2-4.5,5.1-4.9,8.9c-0.3,3.3,1.3,6.1,2.1,9.1c-1.3,0.4-0.8,1.3-0.6,2.1c0,3.2,0,6.4,0,9.5c0,0.2,0,0.3-0.1,0.5
	c-1.7,0.1-3.5,0.1-5.2,0.2c-0.2-4.9-0.8-9.7-2.6-14.3c-0.5-3.1-0.8-6.2-0.2-9.4c0.8-2.9,1.5-5.8,1.3-8.8c-0.3-4.2,1.4-7.8,3.6-11.2
	C433.7,318.7,436.2,317.4,438.1,315.4z"/>
<path class="st3" d="M438.1,315.4c-1.9,2-4.4,3.3-6,5.7c-2.3,3.4-3.9,7-3.6,11.2c0.2,3.1-0.4,5.9-1.3,8.8c-1.5-2.2-0.7-5.3-2.5-7.7
	c-2.7,3.3-5.9,4-9.9,3.2c-4.7-0.9-9.4-0.5-12.2,4.3c-2.2,3.6-4.9,6.9-4.8,12c-5.1-3.5-6.9-8.3-7.2-13.7c-1-18.6,16.4-32.8,35.2-28.6
	C430.1,311.6,434.2,313.1,438.1,315.4z"/>
<path class="st3" d="M452.7,357.8c2.7-3.1,5.8-1.1,8.8-0.6c2,3.7,4.3,7.3,5,11.6c0.4,2.6,1,5.2,1.5,7.8c0,2.6,0.7,5.1,2,7.4
	c0,1.2,0.8,1.8,1.5,2.6c1.9,4.3,3.3,8.8,5.8,12.7c3.5,5.5,5.1,10.9,2.2,17.1c0,0.1,0,0.2,0,0.3l0,0c-0.6,0-1.1,0.2-1.3,0.8
	c-3.6,4-5.6,4.3-10,1.3c-4.7-5.7-5.4-12.8-6.7-19.6c-1.1-5.5-1.7-11.1-2.5-16.7c-0.2-3-1.6-5.6-3.3-8c-1.2-3.2-2.4-6.3-3.6-9.5
	C452.2,362.6,451.4,360.1,452.7,357.8z"/>
<path class="st3" d="M404.4,397.5c-2.3-0.5-4.1-1.9-5.1-4c-4.6-10.7-5.3-21.7-2.9-33c6.4-0.2,11.7,3.8,12.9,9.7
	c-0.4,2.3-1.1,4.5-0.8,6.9c0.5,3.6,1.3,4.4,5,4.1c3.1-0.3,6.1-0.8,9.2-1.2c-0.6,5.4-0.8,11-4.8,15.3c-3.5,0.8-6.9,2-10.5,2.1
	C406.4,397.5,405.4,397.5,404.4,397.5z"/>
<path class="st3" d="M467.9,376.6c-0.5-2.6-1.1-5.2-1.5-7.8c-0.7-4.3-3-7.9-5-11.6h0.3c7,2.5,13.6,5.9,21,7.1
	c4.1,0.7,8,1.5,11.7,3.5c2.6,1.4,5,3.1,4.5,6.6c-0.5,3-3.4,5-7.1,5.5c-3.2,0.5-6.3-1.2-9.5-0.6c-1.3-1.5-3.3-1.2-5-1.6
	C474.2,376.9,471.1,376.4,467.9,376.6z"/>
<path class="st3" d="M404.4,397.5c1,0,2,0,2.9,0c0.2,5.3-1.1,10.7,1.2,15.9c0,1,0,2,0.2,3c0.6,5.4,2.2,10.3,7.9,12.6
	c-2.7,8.4-5.4,16.9-8.1,25.3c-2.7,0-5.4,0-8.1,0c-1.9,0.1-2.7-0.3-2.1-2.6c2.8-9.7,4.9-19.6,6.4-29.5c0.7-4.2,0.6-8.4,0.2-12.6
	C404.6,405.4,404.4,401.5,404.4,397.5z"/>
<path class="st3" d="M402.5,341c2.9-4.8,7.5-5.2,12.2-4.3c4,0.8,7.2,0.1,9.9-3.2c1.8,2.4,1,5.4,2.5,7.7c-0.6,3.1-0.4,6.2,0.2,9.4
	c-4.3,2.6-9,3-13.9,2.8C408.1,350.7,404.7,346.4,402.5,341z"/>
<path class="st1" d="M132.6,596.2c3.9-2.2,7.6,0.4,11.4,0.6c3,0.2,6,0.1,8.9-0.5c3.1-0.6,5.9-0.5,8.9,0.2c-0.3,1.3-0.6,2.6-1,3.9
	c-1.8,3.6-3.9,6.9-7.5,9c-5.6,3.3-12.3,1.7-16.7-4c-0.7-1-1.4-2-2-3C134,600.4,133.3,598.3,132.6,596.2z"/>
<path class="st3" d="M407.9,592.6c3.1-1.5,6.2-1.8,9.3,0c0.2,0.7,0.4,1.3,0.6,2c0.1,0.9,0.3,1.7,0.4,2.6c0.1,1,0.6,2.2,0.3,2.9
	c-1.7,3.9-3.7,7.7-5.4,11.7c-1.4,3.3-12.1,0.5-13.2-3.2c-0.6-1.9,0.1-3.5,1.2-5c2.1-2.9,4.7-5.6,6.3-9
	C407.6,594,407.8,593.3,407.9,592.6z"/>
<path class="st1" d="M632.5,539.5c5.6-3.7,11.5-7,17.4-10.3c2.6,2.2,5.8,1.2,8.7,1.7c3,0.5,6.2,0.1,9.3,0.1c0.2,2.3,0.3,4.6,0.5,6.9
	c-2.6-3.1-5.5-2.9-9.2-1.7c-8.8,3-17.8,5.5-26.7,8.2C632.5,542.8,632.5,541.2,632.5,539.5z"/>
<path class="st3" d="M413.5,353.3c4.8,0.2,9.6-0.2,13.9-2.8c1.8,4.6,2.5,9.4,2.6,14.3c-1.3,1.5-2.6,3.1-3.9,4.6
	c-0.9-1.3-2.3-0.9-3.4-0.6c-2.5,0.7-5.1,0.5-7.6,0.2c-0.2-4-0.5-8-0.7-11.9C414.1,355.8,413.8,354.5,413.5,353.3z"/>
<path class="st3" d="M414.4,357c0.2,4,0.5,8,0.7,11.9c-1.2,0.2-3-1-3.5,1.2c-0.6,2.5-1.5,0.3-2.2,0.1c-1.1-5.9-6.5-10-12.9-9.7
	c-1.6,0-2.6-0.1-1.6-2.2c1.8-3.6,3.7-4.9,7.7-4.1C406.5,355,410.8,354.6,414.4,357z"/>
<path class="st3" d="M479.4,416.7c0-0.1,0-0.2,0-0.3c2.9-6.2,1.3-11.6-2.2-17.1c-2.5-3.9-3.9-8.4-5.8-12.7c3.5,0.8,7,1.4,10.5,0.6
	c0.8,7,0.9,14.1,0.7,21.2C482.6,411.5,482,414.5,479.4,416.7z"/>
<path class="st3" d="M482,387.1c-3.6,0.8-7.1,0.2-10.5-0.6c-0.7-0.8-1.5-1.5-1.5-2.6c5.9-0.4,7.6-1.8,7.3-6.3c1.7,0.4,3.6,0.1,5,1.6
	C482.1,381.9,482,384.5,482,387.1z"/>
<path class="st1" d="M664,563.2c-3,1.7-6.4,2.2-9.7,3c3-2.3,6.1-4.3,9.6-5.9C663.9,561.2,663.9,562.2,664,563.2z"/>
<path class="st4" d="M478.1,417.5c0.2-0.6,0.7-0.7,1.3-0.8C478.9,417,478.5,417.2,478.1,417.5z"/>
<path class="st4" d="M717.8,278.3c-0.2-0.1-0.3-0.2-0.5-0.3c0.2-0.1,0.3-0.2,0.5-0.2s0.3,0.2,0.5,0.3
	C718.1,278.1,717.9,278.2,717.8,278.3z"/>
<path class="st4" d="M707.7,241.9c-0.1,0.1-0.2,0.1-0.3,0.1s-0.2-0.1-0.2-0.2C707.3,241.9,707.5,241.9,707.7,241.9z"/>
<path class="st4" d="M658.6,331.8c0.1,0,0.2,0,0.2,0.1c0,0,0,0.1,0,0.2C658.8,332,658.7,331.9,658.6,331.8L658.6,331.8z"/>
<path class="st3" d="M434.2,604.2c1.7-0.3,3.5-0.5,5.5-0.8c0.2,1.8-0.5,3.2-1.1,4.5c-0.9,1.9-0.7,3,1.5,3.7c4.8,1.5,9.5,3,14.6,2.1
	c0.8,3.6-0.6,5.7-4.2,6.8c-6,2-11.6,5-17.8,6.3c-3.3,0.7-6.6,0.8-9.9-0.4c-2-0.7-4.1-1.5-3.4-4.4c0.1-0.3-0.1-1-0.4-1.2
	c-3.5-2.7-1.3-4.7,0.7-6.8s4.5-3.6,7.1-4.9C429.5,607.9,432.1,606.5,434.2,604.2z"/>
<path class="st3" d="M417.9,594.6c-0.2-0.7-0.4-1.3-0.6-2c1.5-0.5,1.1-1.8,1.2-2.8c0.6-5.7,1.1-11.3,1.7-17
	c3.5,7.2,7,14.5,10.5,21.7C426.4,594.5,422.1,594.6,417.9,594.6z"/>
<path class="st3" d="M433,517.9c0.8-5.8,3.4-10.9,6.6-16c0.3,3.6,0.7,7.1,0.7,10.7c0,13.8,1,27.5,3.2,41.1c1,6.3,0.2,12.8,0.2,20.2
	c-2.7-7.2-6.2-13.1-8.1-19.7C437.4,541.9,435.9,529.8,433,517.9z"/>
<path class="st3" d="M433,517.9c2.8,12,4.4,24,2.7,36.3C431.4,542.3,429.8,530.3,433,517.9z"/>
<path class="st1" d="M632.5,539.5c0,1.7,0.1,3.3,0.1,4.9c-5.4,1.8-10.9,3.6-16.3,5.4c-0.2-0.3-0.3-0.6-0.4-0.9
	C621.4,545.9,626.9,542.7,632.5,539.5z"/>
<path class="st4" d="M614.7,550C614.7,550,614.7,550.1,614.7,550c0,0.1-0.1,0-0.2,0C614.5,550,614.6,550,614.7,550z"/>
<polygon class="st4" points="652.6,566.7 652.9,566.8 652.6,566.9 "/>
<path class="st3" d="M426.1,369.3c1.3-1.5,2.6-3.1,3.9-4.6c1.7-0.1,3.5-0.1,5.2-0.2c1.6,1,2.9,2.1,2.8,4.2c0.3,3.2-1,6.1-1.5,9.2
	c-1.6,3.3-4,6.3-4.6,10.1c-2,2.9-1.6,6.4-2,9.7c-1,8-2.2,15.9-4.9,23.5c-1.4,4-3.5,7.6-8.5,7.8c-5.8-2.2-7.3-7.1-7.9-12.6
	c-0.1-1-0.1-2-0.2-3c0.4-0.2,1-0.2,1.1-0.5c3.5-5.4,6.2-11.3,8.2-17.4c4-4.4,4.2-9.9,4.8-15.3C423.8,376.5,424.3,372.7,426.1,369.3z
	"/>
<path class="st3" d="M432,388c0.6-3.8,3-6.8,4.6-10.1c6.3-1.5,12.5-3.7,19.1-3.5c1.7,2.4,3.1,4.9,3.3,8c-1,0-2,0.1-3,0.1
	c-4.9-1.1-9.4-0.1-13.8,2C438.4,384.9,435.6,387.6,432,388z"/>
<path class="st3" d="M442.1,384.5c4.4-2,9-3,13.8-2C451.7,386,447,385.9,442.1,384.5z"/>
<path class="st3" d="M435.9,352.4c-0.8-3-2.4-5.8-2.1-9.1c0.3-3.8,1.5-6.9,4.9-8.9c3-1.8,6.1-3.5,9.1-5.4c1.3-0.8,2-0.4,2.5,0.8
	c3.4,8.5,5.6,17,2.3,26c-3.2,0.5-6.5,1.1-9.7-0.2c-1.5-0.6-2.8-1.8-4.6-1.7C437.6,353.3,437.1,352.4,435.9,352.4z"/>
<path class="st3" d="M438.4,354c1.8-0.1,3.1,1.1,4.6,1.7c3.2,1.3,6.5,0.7,9.7,0.2c0,0.6,0,1.3,0.1,1.9c-1.3,2.3-0.5,4.8-0.7,7.2
	c-5-0.1-9.5,1.7-14,3.7c0.1-2.1-1.2-3.2-2.8-4.2c0-0.2,0.1-0.3,0.1-0.5c2.9-2,3.2-5,3.1-8.2C438.4,355.2,438.4,354.6,438.4,354z"/>
<path class="st3" d="M438.4,355.8c0.1,3.1-0.2,6.2-3.1,8.2c0-3.2,0-6.3,0-9.5C436.3,355,437.3,355.4,438.4,355.8z"/>
<path class="st3" d="M438.4,355.8c-1-0.5-2-0.9-3.1-1.3c-0.2-0.8-0.7-1.7,0.6-2.1c1.1,0,1.7,0.9,2.4,1.5
	C438.4,354.6,438.4,355.2,438.4,355.8z"/>
<path class="st3" d="M438,368.7c4.5-2,9-3.8,14-3.7c1.2,3.2,2.4,6.3,3.6,9.5c-6.6-0.3-12.8,2-19.1,3.4
	C437.1,374.8,438.3,371.9,438,368.7z"/>
<path class="st3" d="M477.3,377.7c0.2,4.5-1.4,5.9-7.3,6.3c-1.3-2.3-2-4.7-2-7.4C471.1,376.4,474.2,376.9,477.3,377.7z"/>
<path class="st3" d="M426.1,369.3c-1.8,3.4-2.2,7.2-3.4,10.7c-3.1,0.4-6.1,0.9-9.2,1.2c-3.7,0.3-4.5-0.5-5-4.1
	c-0.3-2.4,0.4-4.6,0.8-6.9c0.8,0.2,1.6,2.4,2.2-0.1c0.6-2.2,2.3-1,3.5-1.2c2.5,0.4,5.1,0.5,7.6-0.2
	C423.8,368.5,425.1,368.1,426.1,369.3z"/>
<path class="st3" d="M417.9,395.4c-2,6.2-4.7,12-8.2,17.4c-0.2,0.3-0.8,0.4-1.1,0.5c-2.3-5.1-1-10.6-1.2-15.9
	C411,397.4,414.4,396.2,417.9,395.4z"/>
</svg>
