<?xml version="1.0" encoding="utf-8"?>
<!-- Generator: Adobe Illustrator 24.3.0, SVG Export Plug-In . SVG Version: 6.00 Build 0)  -->
<svg version="1.1" id="Layer_1" xmlns="http://www.w3.org/2000/svg" xmlns:xlink="http://www.w3.org/1999/xlink" x="0px" y="0px"
	 viewBox="0 0 800 800" style="enable-background:new 0 0 800 800;" xml:space="preserve">
<style type="text/css">
	.st0{fill:#FF9A26;}
	.st1{fill:none;stroke:#FFFFFF;stroke-width:4;stroke-miterlimit:10;}
	.st2{fill:#48736C;}
	.st3{fill:none;}
	.st4{fill:none;stroke:#FFFFFF;stroke-width:3;stroke-miterlimit:10;}
	.st5{fill:#FFFFFF;}
	.st6{fill:#CCE329;}
</style>
<circle class="st0" cx="192" cy="183" r="101"/>
<circle class="st1" cx="255" cy="229" r="22"/>
<circle class="st0" cx="594" cy="183" r="101"/>
<circle class="st2" cx="708" cy="271" r="22"/>
<circle class="st0" cx="192" cy="579" r="101"/>
<circle class="st2" cx="360" cy="515" r="22"/>
<circle class="st2" cx="498" cy="478" r="22"/>
<g>
	<path class="st2" d="M195.6,707.9c21.5,0.4,42.9-3.4,63-10.8c20-7.5,38.6-18.5,54.5-32.7c15.9-14.1,29-31.2,37.6-50.4
		c8.6-19.1,12.7-40.3,10.6-60.9l8-0.7c0.8,11.1-0.1,22.3-2.4,33.1c-2.3,10.8-6,21.3-10.8,31.1c-9.6,19.7-23.8,37-40.4,50.9
		c-16.7,13.9-35.9,24.6-56.4,31.5C238.7,705.8,217,709,195.6,707.9z"/>
</g>
<circle class="st0" cx="594" cy="579" r="101"/>
<g>
	<path class="st2" d="M529.8,467c25-6.9,49.5-15.7,73.3-26.2c23.8-10.5,46.8-22.8,68.9-36.8c-21.3,15-43.8,28.6-67.2,40.4
		c-23.4,11.8-47.7,21.9-72.6,30.2L529.8,467z"/>
</g>
<g>
	<rect x="373" y="372.4" class="st3" width="22" height="15.6"/>
	<path d="M386,382.9l-1.5,4.5h-1.9l4.8-14.1h2.2l4.8,14.1h-2l-1.5-4.5H386z M390.7,381.5l-1.4-4.1c-0.3-0.9-0.5-1.8-0.7-2.6h0
		c-0.2,0.8-0.4,1.7-0.7,2.6l-1.4,4.1H390.7z"/>
</g>
<rect x="205" y="440.4" class="st3" width="91" height="31.6"/>
<path d="M237.1,459.6c0.1-0.8,0.1-2,0.1-3v-14h2.1v7.3h0.1c0.7-1.3,2.1-2.1,4-2.1c2.9,0,4.9,2.4,4.9,5.9c0,4.1-2.6,6.2-5.2,6.2
	c-1.7,0-3-0.6-3.9-2.2H239l-0.1,1.9L237.1,459.6L237.1,459.6z M239.3,455c0,0.3,0.1,0.5,0.1,0.8c0.4,1.5,1.6,2.5,3.2,2.5
	c2.2,0,3.5-1.8,3.5-4.5c0-2.3-1.2-4.3-3.5-4.3c-1.4,0-2.8,1-3.2,2.6c-0.1,0.2-0.1,0.5-0.1,0.9V455z"/>
<path d="M251.4,448l2.5,6.9c0.3,0.8,0.6,1.7,0.7,2.4h0.1c0.2-0.7,0.5-1.6,0.7-2.4l2.3-6.8h2.2l-3.2,8.3c-1.5,4-2.5,6-4,7.3
	c-1,0.9-2.1,1.3-2.6,1.4l-0.5-1.8c0.5-0.2,1.2-0.5,1.9-1c0.6-0.5,1.3-1.3,1.8-2.4c0.1-0.2,0.2-0.4,0.2-0.5s-0.1-0.3-0.1-0.5
	l-4.3-10.7L251.4,448L251.4,448z"/>
<path d="M262.9,454.2c0,2.9,1.9,4,4,4c1.5,0,2.4-0.3,3.2-0.6l0.4,1.5c-0.7,0.3-2,0.7-3.9,0.7c-3.6,0-5.7-2.4-5.7-5.9
	c0-3.5,2.1-6.3,5.5-6.3c3.8,0,4.8,3.3,4.8,5.5c0,0.4,0,0.8-0.1,1L262.9,454.2L262.9,454.2z M269.1,452.7c0-1.3-0.5-3.4-2.9-3.4
	c-2.1,0-3.1,2-3.2,3.4H269.1z"/>
<path d="M295,449.5c-1.5,2.7-3.7,4.1-6.2,4.1c-2.2,0-3.7-0.9-5.4-2.5c-1.3-1.3-2.4-2-4.2-2c-1.9,0-3.6,1.3-4.7,3.2l-1.6-0.8
	c1.5-2.7,3.7-4.1,6.2-4.1c2.2,0,3.7,0.9,5.4,2.5c1.3,1.3,2.4,2,4.2,2c1.9,0,3.6-1.3,4.7-3.2L295,449.5z"/>
<rect x="470" y="404.4" class="st3" width="91" height="31.6"/>
<path d="M537.9,405.3v6.8h7.8v-6.8h2.1v16.2h-2.1v-7.6h-7.8v7.6h-2.1v-16.2H537.9z"/>
<path d="M554,406.6c0,0.7-0.5,1.3-1.3,1.3c-0.7,0-1.3-0.6-1.3-1.3c0-0.7,0.5-1.3,1.3-1.3C553.5,405.3,554,405.9,554,406.6z
	 M551.6,421.5v-11.6h2.1v11.6H551.6z"/>
<path d="M556.8,420.2c0-0.9,0.6-1.5,1.4-1.5c0.9,0,1.4,0.6,1.4,1.5c0,0.8-0.5,1.5-1.4,1.5C557.4,421.7,556.8,421.1,556.8,420.2z
	 M557.4,416.8l-0.3-11.5h2.3l-0.3,11.5H557.4z"/>
<g>
	<rect x="778" y="372.4" class="st3" width="22" height="15.6"/>
	<path d="M790.2,373.4c0.8-0.2,2.1-0.3,3.3-0.3c1.8,0,3,0.3,3.9,1c0.7,0.5,1.2,1.4,1.2,2.5c0,1.4-0.9,2.6-2.4,3.1v0
		c1.3,0.3,2.9,1.5,2.9,3.5c0,1.2-0.5,2.1-1.2,2.8c-1,0.9-2.6,1.3-4.9,1.3c-1.3,0-2.2-0.1-2.8-0.2L790.2,373.4L790.2,373.4z
		 M792,379.2h1.7c1.9,0,3.1-1,3.1-2.4c0-1.7-1.3-2.3-3.1-2.3c-0.8,0-1.3,0.1-1.6,0.1V379.2z M792,386c0.4,0.1,0.9,0.1,1.5,0.1
		c1.9,0,3.6-0.7,3.6-2.8c0-1.9-1.7-2.7-3.7-2.7H792V386z"/>
</g>
<g>
	<rect x="373" y="781.4" class="st3" width="22" height="15.6"/>
	<path d="M394.3,795.9c-0.7,0.3-2,0.7-3.7,0.7c-4,0-7-2.5-7-7.2c0-4.4,3-7.4,7.4-7.4c1.8,0,2.9,0.4,3.4,0.6l-0.4,1.5
		c-0.7-0.3-1.7-0.6-2.9-0.6c-3.3,0-5.5,2.1-5.5,5.8c0,3.5,2,5.7,5.4,5.7c1.1,0,2.2-0.2,3-0.6L394.3,795.9z"/>
</g>
<g>
	<rect x="778" y="781.4" class="st3" width="22" height="15.6"/>
	<path d="M787.6,782.4c1.1-0.2,2.4-0.3,3.9-0.3c2.6,0,4.5,0.6,5.7,1.8c1.3,1.2,2,2.8,2,5.1c0,2.3-0.7,4.2-2,5.5
		c-1.3,1.3-3.5,2-6.3,2c-1.3,0-2.4-0.1-3.3-0.2L787.6,782.4L787.6,782.4z M789.4,794.9c0.5,0.1,1.1,0.1,1.8,0.1c3.9,0,6-2.2,6-6
		c0-3.3-1.9-5.5-5.7-5.5c-1,0-1.7,0.1-2.1,0.2L789.4,794.9L789.4,794.9z"/>
</g>
<path class="st4" d="M243,178.2c2.6-2.4,8.2-6.8,16.6-8.9c9.3-2.3,17-0.6,20.4,0.4"/>
<path class="st4" d="M260,551.2c2.6-2.4,8.2-6.8,16.6-8.9c3.2-0.8,6.3-1.1,9-1.2"/>
<path class="st4" d="M523.9,555.9c-3.5,0.1-10.6-0.2-18.4-4.1c-3-1.5-5.5-3.2-7.6-5"/>
<path class="st4" d="M186.2,208.7c1.7-3.1,5.5-9.1,12.8-13.8c8-5.3,15.9-6.1,19.4-6.3"/>
<path class="st4" d="M644,178.2c2.6-2.4,8.2-6.8,16.6-8.9c9.3-2.3,17-0.6,20.4,0.4"/>
<path class="st4" d="M674.5,216.3c-1.9,3-6.1,8.7-13.6,13c-8.3,4.8-16.2,5.1-19.8,5.1"/>
<path class="st4" d="M587.2,208.7c1.7-3.1,5.5-9.1,12.8-13.8c8-5.3,15.9-6.1,19.4-6.3"/>
<g>
	<path class="st4" d="M523.9,505.8c1.5,0,3.1,0.1,4.7,0.4c9.5,1.8,15.1,8.4,17.4,11.6l-1.2,2.9c-3.7,1.6-11.2,4.3-19.6,2
		c-4.2-1.1-7.6-3.2-10.2-5.5"/>
	
		<ellipse transform="matrix(0.3156 -0.9489 0.9489 0.3156 -127.7083 853.5668)" class="st5" cx="527.9" cy="515.3" rx="8.3" ry="5"/>
</g>
<g>
	<g>
		<path class="st6" d="M127.7,73.7c0.9-1.8-0.3-4.1-0.8-6.1c-0.6-2.2-1.6-4.4-1.6-6.4c-0.1-4.6,3.4-9,7.5-10c4.6-1.1,6.3,3,9.9,4.1
			c1.7,0.5,3.8,0.3,5.1,1c7.1,3.7,2.6,13-2.5,15.7c-1.6,0.8-3.3,1.7-5,2.5c-1.5,0.7-3.7,0.9-4.5,2.7c1.3,1,3.5-0.5,5.3-1.2
			c2-0.7,3.9-1.6,5.6-2.1c5.4-1.4,14.7,1.9,12.7,9.2c-0.6,2-2.4,3.1-3,5.1c-0.4,1.4,0,2.9-0.3,4.2c-0.8,4-6,6.7-10.3,5.3
			c-3.7-1.1-6.1-4.1-8.6-8.1c-0.7-1.1-1.2-2.7-2.6-3.1c-0.7,2,1.1,5.3,2,7c2.5,4.8,6.5,8.8,10.1,10.6c-1.1,0.9-3.3,1.3-4.8,2
			c-4.8-3.3-7.8-11.3-10.4-18.5c-1.6,0.8-0.5,3.4-0.2,4.8c1,5.8,0.6,13.3-6.2,15.1c-4.5,1.2-5.8-1.8-8.8-3.9c-2.2-1.5-6.3-1.1-8-4.4
			c-2.6-4.8,1-10.7,5.4-12.9c1.7-0.8,3.7-1.4,5.6-2.1c1.6-0.6,3.6-0.8,4.7-2.4c-1.6-1.3-3.7,0.2-5.1,0.7c-5.6,1.7-10.2,2.5-14.2,0
			c-2.5-1.6-4.6-5.6-3.3-8.8c0.6-1.6,2.1-2.7,3-4c2.4-3.6,0.6-8.7,7-10.4c3.5-0.9,8.1,0.8,10.3,3.3
			C124.1,65.7,124.6,70.8,127.7,73.7z"/>
	</g>
</g>
<g>
	<g>
		<path class="st6" d="M528.7,73.7c0.8-1.8-0.3-4.1-0.8-6.1c-0.6-2.2-1.5-4.4-1.6-6.4c-0.1-4.6,3.4-9,7.5-10c4.6-1.1,6.3,3,10,4.1
			c1.7,0.5,3.8,0.3,5.1,1c7.1,3.7,2.6,13-2.5,15.7c-1.6,0.8-3.3,1.7-5,2.5c-1.5,0.7-3.7,0.9-4.5,2.7c1.3,1,3.5-0.5,5.3-1.2
			c2-0.7,3.8-1.6,5.6-2.1c5.4-1.4,14.7,1.9,12.7,9.2c-0.6,2-2.4,3.1-3,5.1c-0.4,1.4,0,2.9-0.3,4.2c-0.8,4-6,6.7-10.3,5.3
			c-3.7-1.1-6.1-4.1-8.6-8.1c-0.7-1.1-1.2-2.7-2.6-3.1c-0.7,2,1.1,5.3,2,7c2.5,4.8,6.5,8.8,10.1,10.6c-1.1,0.9-3.3,1.3-4.8,2
			c-4.8-3.3-7.8-11.3-10.5-18.5c-1.6,0.8-0.5,3.4-0.2,4.8c1,5.8,0.5,13.3-6.2,15.1c-4.5,1.2-5.8-1.8-8.8-3.9c-2.2-1.5-6.3-1.1-8-4.4
			c-2.6-4.8,1-10.7,5.4-12.9c1.7-0.8,3.7-1.4,5.6-2.1c1.6-0.6,3.6-0.8,4.7-2.4c-1.6-1.3-3.7,0.2-5.1,0.7c-5.6,1.7-10.2,2.5-14.2,0
			c-2.5-1.6-4.6-5.6-3.3-8.8c0.6-1.6,2.1-2.7,3-4c2.5-3.6,0.6-8.7,7-10.4c3.5-0.9,8.1,0.8,10.3,3.3
			C525.1,65.7,525.6,70.8,528.7,73.7z"/>
	</g>
</g>
<g>
	<g>
		<path class="st6" d="M127.7,467.7c0.9-1.8-0.3-4.1-0.8-6c-0.6-2.2-1.6-4.4-1.6-6.4c-0.1-4.6,3.4-9,7.5-10c4.6-1.1,6.3,3,9.9,4.1
			c1.7,0.5,3.8,0.3,5.1,1c7.1,3.7,2.6,13-2.5,15.7c-1.6,0.9-3.3,1.7-5,2.5c-1.5,0.6-3.7,0.9-4.5,2.7c1.3,1,3.5-0.5,5.3-1.2
			c2-0.7,3.9-1.6,5.6-2.1c5.4-1.5,14.7,1.9,12.7,9.2c-0.6,2-2.4,3.1-3,5c-0.4,1.4,0,2.9-0.3,4.2c-0.8,4-6,6.6-10.3,5.3
			c-3.7-1.1-6.1-4.1-8.6-8.1c-0.7-1.1-1.2-2.7-2.6-3.1c-0.7,2,1.1,5.3,2,7c2.5,4.8,6.5,8.8,10.1,10.6c-1.1,0.9-3.3,1.3-4.8,2
			c-4.8-3.3-7.8-11.3-10.4-18.5c-1.6,0.8-0.5,3.4-0.2,4.8c1,5.8,0.6,13.3-6.2,15.1c-4.5,1.2-5.8-1.8-8.8-3.9c-2.2-1.5-6.3-1.1-8-4.4
			c-2.6-4.8,1-10.7,5.4-12.9c1.7-0.8,3.7-1.4,5.6-2.1c1.6-0.6,3.6-0.8,4.7-2.4c-1.6-1.3-3.7,0.2-5.1,0.7c-5.6,1.7-10.2,2.5-14.2,0
			c-2.5-1.6-4.6-5.6-3.3-8.8c0.6-1.6,2.1-2.7,3-4c2.4-3.6,0.6-8.7,7-10.4c3.5-0.9,8.1,0.8,10.3,3.3
			C124.1,459.7,124.6,464.8,127.7,467.7z"/>
	</g>
</g>
<path class="st6" d="M649.7,507.3c5.6-3.2,14.5-8.3,18.5-18.8c-2.7,0.1-5.1-2-5.1-4.8c-2.9,1.1-6-0.7-6.6-3.8c-0.6-3,1.5-5.2,4-6.6
	c-2.8-0.3-5.6-1.6-6.2-4.6c-0.6-3,1.6-5.9,4.7-6c-1.1-2.9,0.7-6,3.8-6.6c3-0.6,5.2,1.5,6.6,4c0.3-2.8,1.6-5.6,4.6-6.2
	c3-0.6,5.9,1.6,6,4.7c2.9-1.1,6,0.7,6.6,3.8c0.6,3-1.5,5.2-4,6.6c2.8,0.3,5.6,1.6,6.2,4.6c0.6,3-1.6,5.9-4.7,6
	c1.1,2.9-0.7,6-3.8,6.6c-3,0.6-5.2-1.5-6.6-4c-0.3,2.2-1.1,4.5-3,5.6l0,0c-3.9,12.1-13.8,17.8-19.9,21.3 M675.5,465.2
	c1.3,0.9,2.2,2,2.7,3.4c3.5-1.1,6.9-2.9,6.3-5.8c-0.8-4.1-4.8-1.9-7-0.6c0.3-2.5,0.9-7.1-3.2-6.3c-2.9,0.6-3.2,4.4-3,8
	C672.8,464,674.2,464.3,675.5,465.2z M678.6,471c0,1.4-0.4,2.9-1.2,4.1s-2,2.2-3.4,2.7c1.1,3.5,2.9,6.9,5.8,6.3
	c4.1-0.8,1.9-4.8,0.6-7c2.5,0.3,7.1,0.9,6.3-3.2C686.1,471.1,682.3,470.7,678.6,471L678.6,471z M671.6,478.4c-1.4,0-2.9-0.4-4.1-1.2
	c-1.3-0.9-2.2-2-2.7-3.4c-3.5,1.1-6.9,2.9-6.3,5.8c0.8,4.1,4.8,1.9,7,0.6c-0.3,2.5-0.9,7,3.2,6.3C671.5,485.8,671.9,482,671.6,478.4
	z M664.3,471.3c0-1.4,0.4-2.9,1.2-4.1c0.8-1.3,2-2.2,3.4-2.7c-1.1-3.5-2.9-6.9-5.8-6.3c-4.1,0.8-1.9,4.8-0.6,7
	c-2.5-0.3-7-0.9-6.3,3.2C656.8,471.2,660.6,471.6,664.3,471.3L664.3,471.3z M674.3,466.9c-2.4-1.6-5.5-1-7.1,1.4
	c-1.6,2.4-1,5.5,1.4,7.1s5.5,1,7.1-1.4C677.3,471.7,676.7,468.5,674.3,466.9z"/>
</svg>
