<svg id="Layer_1" data-name="Layer 1" xmlns="http://www.w3.org/2000/svg" viewBox="0 0 1365 394"><defs><style>.cls-1,.cls-2{opacity:0.3;}.cls-2{font-size:24px;}.cls-2,.cls-4{font-family:CircularStd-Book, Circular Std;}.cls-3{letter-spacing:0em;}.cls-4{font-size:36px;}.cls-5{letter-spacing:0em;}.cls-6{letter-spacing:-0.06em;}.cls-7{letter-spacing:0em;}.cls-8{letter-spacing:0em;}.cls-9{letter-spacing:-0.06em;}.cls-10{letter-spacing:0em;}.cls-11,.cls-12{fill:none;stroke:#ff9a26;stroke-linecap:round;stroke-miterlimit:10;}.cls-11{stroke-width:3px;}.cls-12{stroke-width:1.5px;}.cls-13{fill:#ff9a26;}</style></defs><g class="cls-1"><path d="M38.91,176.92a3.34,3.34,0,0,0-.42,2.4c0,9.3-.05,18.61,0,27.92,0,1.58-.41,2.2-2,2.29a41.5,41.5,0,0,0-6,.8c-1.48.29-1.74-.26-1.73-1.61.05-8.19,0-16.39,0-24.58,0-11.19,0-22.37,0-33.55,0-1.67.47-2.19,2.1-2.07a37.71,37.71,0,0,0,5.42,0c1.37-.1,1.93.47,2.36,1.69,3.73,10.46,7.52,20.89,11.29,31.33.14.38.3.76.51,1.26.54-.52.33-1.08.33-1.56,0-10.21.05-20.42,0-30.63,0-1.61.36-2.23,2-2.09a45.36,45.36,0,0,0,5.83,0c1.35-.08,1.8.35,1.77,1.73-.08,4.38,0,8.75,0,13.13,0,13.75,0,27.51,0,41.26,0,1.57-.39,2.2-2,2.28a62.57,62.57,0,0,0-6.83.76,1.82,1.82,0,0,1-2.39-1.47c-3-8.93-6.16-17.84-9.26-26.75C39.63,178.66,39.28,177.87,38.91,176.92Z"/><path d="M241.61,190.83c-2.18,5-4.26,9.71-6.19,14.42-.64,1.56-1.33,2.31-3.18,1.88a31.07,31.07,0,0,0-5.79-.59c-1.76-.06-2.12-.53-1.37-2.22,3.64-8.24,7.16-16.54,10.79-24.79a4.45,4.45,0,0,0,0-3.74c-3.34-8.45-6.56-16.94-9.93-25.38-.67-1.7-.25-2,1.36-1.89a34.8,34.8,0,0,0,6,0c2-.23,2.75.67,3.37,2.4,1.48,4.17,3.17,8.28,4.8,12.41.13.35.08.87.81,1,2-4.59,4.06-9.18,5.93-13.84a2.66,2.66,0,0,1,3.06-2c2.69.15,5.4,0,8.12,0a4.55,4.55,0,0,1-.78,2.64q-5.35,12.52-10.81,25a3.92,3.92,0,0,0-.1,3.33c3.69,9.35,7.31,18.74,10.94,28.12.33.83.6,1.67,1,2.83l-10.31-1.38c-1-.14-1-1.05-1.29-1.71-1.88-4.78-3.72-9.57-5.58-14.35C242.33,192.43,242,191.82,241.61,190.83Z"/><path d="M69.87,177.09c0-8.81,0-17.63,0-26.44,0-1.53.27-2.16,2-2.14,7.7.1,15.41.08,23.11,0,1.48,0,1.93.44,1.85,1.88a49.13,49.13,0,0,0,0,5.82c.1,1.52-.31,2.05-1.93,2-4.51-.12-9,0-13.53-.07-1.49,0-1.9.44-1.85,1.88.1,3.19.11,6.39,0,9.57,0,1.56.55,1.84,2,1.78,3.19-.14,6.38-.08,9.57-.17,1.13,0,1.64.29,1.59,1.51-.08,2.08-.09,4.17,0,6.24.06,1.34-.33,1.8-1.73,1.77-3.19-.08-6.38.07-9.57,0-1.31,0-1.84.31-1.8,1.74.09,3.67.13,7.36,0,11-.06,1.74.64,1.91,2.07,1.79,4.42-.36,8.86-.57,13.28-.95,1.58-.14,2.09.33,2,1.91a53.81,53.81,0,0,0,0,5.82c0,1.22-.35,1.75-1.61,1.81q-11.85.57-23.65,1.76c-1.48.15-1.71-.43-1.7-1.71C69.89,195,69.87,186,69.87,177.09Z"/><path d="M139.51,175.54c0-8.26,0-16.53,0-24.79,0-1.65.29-2.27,2.12-2.24,7.7.1,15.41.07,23.12,0,1.4,0,2,.31,1.91,1.83a50.71,50.71,0,0,0,0,6c.1,1.51-.49,1.85-1.9,1.82-4.58-.08-9.17,0-13.75-.06-1.41,0-2,.31-1.91,1.83.11,3.05.09,6.11,0,9.16,0,1.3.39,1.68,1.66,1.65,3.19-.08,6.39.06,9.58-.06,1.62-.07,2,.51,1.95,2a40.54,40.54,0,0,0,0,5.62c.13,1.64-.52,2-2,1.92-3-.11-6,.11-9-.08-1.95-.12-2.26.63-2.23,2.36.09,6,0,11.94.07,17.91,0,1.6-.46,2.06-2,2a43.62,43.62,0,0,0-5.83,0c-1.52.09-1.83-.5-1.82-1.9C139.54,192.21,139.51,183.87,139.51,175.54Z"/><path d="M113.31,180.61c0-6.8-.06-13.6,0-20.4,0-1.69-.49-2.15-2.1-2.06-2.14.13-4.3,0-6.45.06-1.24,0-1.75-.3-1.7-1.61.09-2.15.09-4.31,0-6.45,0-1.32.47-1.63,1.7-1.62q13.32.06,26.65,0c1.29,0,1.69.4,1.64,1.66-.08,2.08-.09,4.17,0,6.24.06,1.33-.31,1.86-1.72,1.78-2.15-.11-4.31.09-6.46-.06-1.69-.12-2,.5-2,2.1.07,13.32,0,26.65.08,40,0,1.92-.39,2.77-2.49,2.57a27.18,27.18,0,0,0-5.41.1c-1.43.16-1.76-.32-1.75-1.67C113.34,194.36,113.31,187.48,113.31,180.61Z"/><path d="M182.52,171.23c0,6.88.06,13.75,0,20.63,0,1.58.53,2,2,2.06,4.37.17,8.73.48,13.1.66,1.22,0,1.71.4,1.64,1.71-.11,2.15-.07,4.31,0,6.46,0,1.08-.31,1.42-1.43,1.36q-11.74-.65-23.5-1.17c-1-.05-1.4-.42-1.39-1.5q0-25.73,0-51.46c0-1.28.53-1.48,1.61-1.45,2.15.06,4.31.1,6.46,0,1.32-.06,1.63.42,1.62,1.67C182.5,157.2,182.52,164.22,182.52,171.23Z"/><path d="M216.94,177.06c0,8.82,0,17.63,0,26.45,0,1.61-.31,2.24-2.08,1.92a37.63,37.63,0,0,0-5.81-.47c-1.29,0-1.76-.41-1.76-1.79q.06-26.44,0-52.89c0-1.33.35-1.84,1.75-1.76a50.55,50.55,0,0,0,6,0c1.5-.09,1.86.47,1.85,1.89C216.91,159.29,216.93,168.18,216.94,177.06Z"/></g><text class="cls-2" transform="translate(463.43 128.65)">Gala<tspan class="cls-3" x="49.56" y="0">x</tspan><tspan x="61.46" y="0">y</tspan></text><g class="cls-1"><path d="M521.64,45.28a3.34,3.34,0,0,0-3.1,2.32c-2.83,1-6.7,3.61-9.66,5.93a18.47,18.47,0,0,0-25,25c-2.32,3.1-5,7-5.93,9.93a3.16,3.16,0,0,0-2.06,3,3.31,3.31,0,0,0,3.22,3.36,3.07,3.07,0,0,0,3.09-2.45c2.84-1,6.58-3.61,9.41-5.93A18.58,18.58,0,0,0,518.93,69.9a18.61,18.61,0,0,0-2.19-8.63c2.32-3,4.9-6.84,5.93-9.67A3.34,3.34,0,0,0,525,48.5,3.39,3.39,0,0,0,521.64,45.28Zm0,2.06a1.16,1.16,0,0,1,0,2.32h0a1.23,1.23,0,0,1-1.16-.77A1.25,1.25,0,0,1,521.64,47.34Zm-24.75,6.45-1.68,1.67a1,1,0,0,0,0,1.42,1,1,0,0,0,1.42,0L500,53.53h.26a17.44,17.44,0,0,1,7.22,1.68l-2.71,2.7a1,1,0,0,0,1.42,1.42l3.09-3.09a15.13,15.13,0,0,1,4.9,5,136,136,0,0,1-10.83,12,137.58,137.58,0,0,1-12,10.83,15.7,15.7,0,0,1-1.81-1.42l2.84-2.84A1,1,0,0,0,491,78.41l-2.84,2.84a16.31,16.31,0,0,1-4.38-10.83L490.19,64a1,1,0,1,0-1.42-1.41l-4.9,4.89A16.78,16.78,0,0,1,496.89,53.79ZM479,92.72a1.15,1.15,0,0,1-1.16-1.16,1.13,1.13,0,0,1,1-1.16H479a1.19,1.19,0,0,1,1.16,1.29A1.13,1.13,0,0,1,479,92.72Zm3-2.58a3.81,3.81,0,0,0-1.94-1.8,38.07,38.07,0,0,1,4.9-7.86c0,.12.13.12.13.25a19.46,19.46,0,0,0,4.64,4.64A38,38,0,0,1,481.94,90.14Zm19.59-3.61,1.93-1.93a1,1,0,0,0,0-1.42,1,1,0,0,0-1.42,0l-3.35,3.35a20.79,20.79,0,0,1-5.41-1.41,145.46,145.46,0,0,0,11.47-10.45A152.71,152.71,0,0,0,515.19,63.2c.26.64.52,1.29.78,2.06l-5.68,5.67a1,1,0,0,0,0,1.42,1,1,0,0,0,1.42,0l4.77-4.77a15.8,15.8,0,0,1,.26,2.45A16.46,16.46,0,0,1,501.53,86.53Zm14.05-27.07a19.35,19.35,0,0,0-4.9-4.77,44.83,44.83,0,0,1,7.86-4.9,5.27,5.27,0,0,0,1.94,1.81A41.85,41.85,0,0,1,515.58,59.46Z"/><path d="M524.47,88.47a4.38,4.38,0,1,0-4.38,4.38A4.34,4.34,0,0,0,524.47,88.47Zm-6.83,0A2.32,2.32,0,1,1,520,90.79,2.31,2.31,0,0,1,517.64,88.47Z"/><path d="M480.65,56A4.42,4.42,0,0,0,485,51.6,4.38,4.38,0,1,0,480.65,56Zm0-6.7a2.32,2.32,0,1,1-2.32,2.32A2.31,2.31,0,0,1,480.65,49.28Z"/></g><text class="cls-4" transform="translate(289 359.06)">I</text><text class="cls-4" transform="translate(299.08 359.06) scale(0.7)">NDEPENDENT</text><text class="cls-4" transform="translate(466.94 359.06)"> </text><text class="cls-4" transform="translate(475.94 359.06) scale(0.7)">APP</text><text class="cls-4" transform="translate(523.59 359.06)"> </text><text class="cls-4" transform="translate(532.59 359.06) scale(0.7)"><tspan class="cls-5">R</tspan><tspan class="cls-6" x="22.1" y="0">A</tspan><tspan x="44.86" y="0">THER</tspan></text><text class="cls-4" transform="translate(627.75 359.06)"> </text><text class="cls-4" transform="translate(636.75 359.06) scale(0.7)">THAN</text><text class="cls-4" transform="translate(707.05 359.06)"> </text><text class="cls-4" transform="translate(716.05 359.06) scale(0.7)">INT<tspan class="cls-7" x="58.86" y="0">E</tspan><tspan class="cls-8" x="79.6" y="0">G</tspan><tspan class="cls-5" x="107.14" y="0">R</tspan><tspan class="cls-9" x="129.24" y="0">A</tspan><tspan x="151.99" y="0">TION</tspan></text><text class="cls-4" transform="translate(883.86 359.06)"> </text><text class="cls-4" transform="translate(892.86 359.06) scale(0.7)">WITH</text><text class="cls-4" transform="translate(958.73 359.06)"><tspan xml:space="preserve"> N</tspan></text><text class="cls-4" transform="translate(995.2 359.06) scale(0.7)">ETFLIX</text><path d="M849.11,178a2,2,0,0,0-.25,1.4c0,5.44,0,10.87,0,16.3,0,.92-.23,1.29-1.18,1.34a24.18,24.18,0,0,0-3.49.47c-.87.16-1-.16-1-.94,0-4.78,0-9.57,0-14.35,0-6.53,0-13.06,0-19.58,0-1,.27-1.28,1.22-1.21a22.22,22.22,0,0,0,3.16,0c.81-.06,1.13.28,1.39,1,2.17,6.1,4.38,12.19,6.58,18.28.08.23.18.44.3.74.32-.31.2-.63.2-.91,0-6,0-11.92,0-17.88,0-.94.21-1.3,1.2-1.22a25.72,25.72,0,0,0,3.4,0c.79,0,1,.21,1,1,0,2.55,0,5.11,0,7.66,0,8,0,16,0,24.08,0,.92-.23,1.29-1.17,1.33a38,38,0,0,0-4,.44c-.78.13-1.13-.09-1.39-.85-1.78-5.22-3.6-10.41-5.41-15.61C849.52,179,849.33,178.54,849.11,178Z"/><path d="M967.41,186.1c-1.27,3-2.48,5.67-3.61,8.42-.37.91-.78,1.35-1.86,1.1a18,18,0,0,0-3.38-.35c-1,0-1.23-.31-.8-1.29,2.13-4.81,4.18-9.66,6.31-14.47a2.6,2.6,0,0,0,0-2.18c-2-4.93-3.83-9.89-5.79-14.82-.39-1-.15-1.15.79-1.1a20.8,20.8,0,0,0,3.53,0c1.17-.13,1.6.39,2,1.4.87,2.44,1.85,4.83,2.8,7.24.08.21,0,.51.48.61,1.16-2.68,2.37-5.36,3.46-8.08a1.56,1.56,0,0,1,1.79-1.17c1.57.09,3.15,0,4.74,0a2.67,2.67,0,0,1-.46,1.54c-2.09,4.87-4.18,9.74-6.31,14.6a2.29,2.29,0,0,0-.06,2c2.16,5.45,4.27,10.93,6.39,16.41.19.48.35,1,.59,1.65l-6-.81c-.58-.08-.6-.61-.75-1-1.1-2.78-2.17-5.58-3.25-8.37C967.83,187,967.66,186.68,967.41,186.1Z"/><path d="M867.18,178.09c0-5.15,0-10.29,0-15.44,0-.89.15-1.26,1.17-1.25,4.5.06,9,0,13.49,0,.86,0,1.13.25,1.08,1.1a29.67,29.67,0,0,0,0,3.4c.06.88-.18,1.19-1.13,1.16-2.63-.07-5.26,0-7.9,0-.86,0-1.1.26-1.07,1.1.05,1.86.06,3.73,0,5.59,0,.91.32,1.07,1.14,1,1.86-.08,3.72-.05,5.58-.1.67,0,1,.17.93.89,0,1.21-.05,2.43,0,3.64,0,.78-.19,1-1,1-1.87-.05-3.73,0-5.59,0-.77,0-1.08.18-1.06,1,.06,2.15.08,4.3,0,6.44,0,1,.37,1.12,1.2,1.05,2.59-.21,5.18-.33,7.76-.56.92-.08,1.21.2,1.15,1.12a32.13,32.13,0,0,0,0,3.4c0,.71-.2,1-.94,1-4.61.23-9.21.56-13.8,1-.86.09-1-.25-1-1C867.19,188.54,867.18,183.31,867.18,178.09Z"/><path d="M907.82,177.18c0-4.82,0-9.65,0-14.47,0-1,.17-1.32,1.24-1.31,4.49.07,9,0,13.49,0,.82,0,1.17.18,1.12,1.07a29.53,29.53,0,0,0,0,3.52c.05.89-.29,1.08-1.11,1.07-2.68,0-5.35,0-8,0-.82,0-1.15.18-1.11,1.07.06,1.78.05,3.57,0,5.35,0,.75.23,1,1,1,1.86,0,3.73,0,5.59,0,.95,0,1.2.3,1.14,1.18a23.94,23.94,0,0,0,0,3.28c.08,1-.3,1.16-1.17,1.13-1.74-.07-3.49.06-5.23-.05-1.14-.07-1.32.36-1.31,1.37.06,3.49,0,7,.05,10.46,0,.93-.27,1.2-1.17,1.14a24.11,24.11,0,0,0-3.4,0c-.89.06-1.07-.29-1.07-1.11C907.84,186.91,907.82,182,907.82,177.18Z"/><path d="M892.53,180.14c0-4,0-7.94,0-11.91,0-1-.29-1.25-1.23-1.2-1.25.08-2.51,0-3.77,0-.72,0-1-.17-1-.93.06-1.26.06-2.52,0-3.77,0-.77.27-1,1-.94q7.79,0,15.56,0c.75,0,1,.24,1,1-.05,1.22-.06,2.44,0,3.65,0,.77-.18,1.08-1,1-1.25-.07-2.52.05-3.77,0-1-.07-1.2.29-1.19,1.22,0,7.78,0,15.56,0,23.34,0,1.12-.23,1.62-1.45,1.5a15.9,15.9,0,0,0-3.16.06c-.84.09-1-.19-1-1C892.55,188.16,892.53,184.15,892.53,180.14Z"/><path d="M932.93,174.67c0,4,0,8,0,12,0,.93.31,1.18,1.16,1.21,2.55.1,5.1.28,7.65.38.7,0,1,.24.95,1-.06,1.25,0,2.51,0,3.77,0,.63-.18.83-.84.8-4.57-.26-9.14-.47-13.71-.69-.61,0-.82-.24-.82-.87q0-15,0-30c0-.74.31-.86.94-.84,1.26,0,2.51.05,3.77,0,.77,0,1,.25.94,1C932.91,166.48,932.93,170.57,932.93,174.67Z"/><path d="M953,178.07c0,5.14,0,10.29,0,15.43,0,.95-.18,1.31-1.21,1.13a22.58,22.58,0,0,0-3.39-.28c-.75,0-1-.24-1-1q0-15.44,0-30.87c0-.78.21-1.08,1-1a29.53,29.53,0,0,0,3.52,0c.87,0,1.08.27,1.08,1.1C953,167.7,953,172.88,953,178.07Z"/><text class="cls-4" transform="translate(1174.54 231.44)">Gala<tspan class="cls-10" x="74.34" y="0">x</tspan><tspan x="92.2" y="0">y</tspan></text><path d="M1256.36,118.21a4.13,4.13,0,0,0-3.84,2.88c-3.52,1.28-8.32,4.48-12,7.36a22.93,22.93,0,0,0-31,31c-2.88,3.84-6.24,8.64-7.36,12.32a4,4,0,0,0-2.56,3.68,4.1,4.1,0,0,0,4,4.16,3.81,3.81,0,0,0,3.84-3c3.52-1.28,8.16-4.48,11.68-7.36a23.05,23.05,0,0,0,31.19-31.2c2.88-3.68,6.08-8.48,7.36-12a4.13,4.13,0,0,0,2.88-3.84A4.21,4.21,0,0,0,1256.36,118.21Zm0,2.56a1.44,1.44,0,1,1,0,2.88h0a1.54,1.54,0,0,1-1.44-1A1.56,1.56,0,0,1,1256.36,120.77Zm-30.72,8-2.07,2.08a1.24,1.24,0,1,0,1.75,1.76l4.16-4.16h.32a21.63,21.63,0,0,1,9,2.08l-3.36,3.36a1.24,1.24,0,0,0,1.76,1.76l3.84-3.84a18.92,18.92,0,0,1,6.08,6.24,168.37,168.37,0,0,1-13.44,14.88,168.25,168.25,0,0,1-14.87,13.44,18.2,18.2,0,0,1-2.24-1.76l3.52-3.52a1.24,1.24,0,1,0-1.76-1.76l-3.52,3.52a20.17,20.17,0,0,1-5.44-13.44l8-8a1.24,1.24,0,0,0-1.76-1.76l-6.08,6.08A20.84,20.84,0,0,1,1225.64,128.77Zm-22.23,48.32a1.43,1.43,0,0,1-1.44-1.44,1.4,1.4,0,0,1,1.28-1.44h.16a1.48,1.48,0,0,1,1.44,1.6A1.41,1.41,0,0,1,1203.41,177.09Zm3.68-3.2a4.7,4.7,0,0,0-2.4-2.24,46.88,46.88,0,0,1,6.08-9.76c0,.16.16.16.16.32a24.6,24.6,0,0,0,5.76,5.76A47.38,47.38,0,0,1,1207.09,173.89Zm24.31-4.48,2.4-2.4a1.24,1.24,0,1,0-1.76-1.76l-4.16,4.16a26,26,0,0,1-6.71-1.76,181.2,181.2,0,0,0,14.23-13,191,191,0,0,0,13-14.24c.32.8.64,1.6,1,2.56l-7,7a1.24,1.24,0,1,0,1.76,1.76l5.92-5.92a19.6,19.6,0,0,1,.32,3A20.44,20.44,0,0,1,1231.4,169.41Zm17.44-33.6a23.8,23.8,0,0,0-6.08-5.92c4-2.88,7.36-5.12,9.76-6.08a6.55,6.55,0,0,0,2.4,2.24A51.45,51.45,0,0,1,1248.84,135.81Z"/><path d="M1259.88,171.81a5.44,5.44,0,1,0-5.44,5.44A5.4,5.4,0,0,0,1259.88,171.81Zm-8.48,0a2.88,2.88,0,1,1,2.88,2.88A2.87,2.87,0,0,1,1251.4,171.81Z"/><path d="M1205.49,131.49a5.5,5.5,0,0,0,5.44-5.44,5.44,5.44,0,1,0-5.44,5.44Zm0-8.32a2.88,2.88,0,1,1-2.88,2.88A2.87,2.87,0,0,1,1205.49,123.17Z"/><line class="cls-11" x1="1060" y1="177" x2="1085" y2="177"/><line class="cls-11" x1="1072.5" y1="164.5" x2="1072.5" y2="189.5"/><g class="cls-1"><polyline class="cls-12" points="305.67 178.09 359.46 178.09 359.46 95.09 404.27 95.09"/><circle class="cls-13" cx="404.06" cy="95.09" r="4.23"/><line class="cls-12" x1="358.86" y1="178.09" x2="403.67" y2="178.09"/><circle class="cls-13" cx="403.46" cy="178.09" r="4.23"/><polyline class="cls-12" points="359.46 178.09 359.46 259.09 404.27 259.09"/><circle class="cls-13" cx="404.06" cy="259.09" r="4.23"/></g></svg>