<svg xmlns="http://www.w3.org/2000/svg" viewBox="0 0 1920 624"><defs><style>.cls-1{fill:#ff9a26;}.cls-11,.cls-16,.cls-2,.cls-8{font-size:36px;}.cls-16,.cls-2,.cls-8{font-family:CircularStd-Book, Circular Std;}.cls-3{letter-spacing:0em;}.cls-4{letter-spacing:0em;}.cls-5{letter-spacing:-0.02em;}.cls-6{letter-spacing:-0.04em;}.cls-7{letter-spacing:-0.06em;}.cls-11,.cls-8{fill:#fff;}.cls-9{letter-spacing:0em;}.cls-10{letter-spacing:-0.02em;}.cls-11{font-family:CircularStd-Black, Circular Std;font-weight:800;}.cls-12{letter-spacing:0em;}.cls-13{letter-spacing:-0.02em;}.cls-14{letter-spacing:-0.01em;}.cls-15{letter-spacing:0em;}.cls-16{opacity:0.3;}.cls-17{letter-spacing:0.02em;}.cls-18{fill:none;stroke:#ff9a26;stroke-miterlimit:10;stroke-width:3px;}</style></defs><g id="Layer_1" data-name="Layer 1"><rect class="cls-1" x="111" y="209" width="277" height="81" rx="10"/><rect class="cls-1" x="840.5" y="209.5" width="277" height="81" rx="10"/><rect class="cls-1" x="1526.5" y="208.5" width="277" height="81" rx="10"/><text class="cls-2" transform="translate(432.09 599.06)">T</text><text class="cls-2" transform="translate(453.4 599.06) scale(0.7)">A<tspan class="cls-3" x="25.09" y="0">R</tspan><tspan class="cls-4" x="47.2" y="0">GETING</tspan></text><text class="cls-2" transform="translate(580.84 599.06)"><tspan xml:space="preserve"> DES </tspan></text><text class="cls-2" transform="translate(667.02 599.06) scale(0.7)">MODEL</text><text class="cls-2" transform="translate(757.66 599.06)">: F</text><text class="cls-2" transform="translate(796.94 599.06) scale(0.7)">ILLING</text><text class="cls-2" transform="translate(877.17 599.06)"> </text><text class="cls-2" transform="translate(886.17 599.06) scale(0.7)">THE</text><text class="cls-2" transform="translate(934.33 599.06)"> </text><text class="cls-2" transform="translate(943.33 599.06) scale(0.7)"><tspan class="cls-5">V</tspan><tspan x="22.75" y="0">OID</tspan></text><text class="cls-2" transform="translate(1004.67 599.06)"> </text><text class="cls-2" transform="translate(1013.67 599.06) scale(0.7)">OF</text><text class="cls-2" transform="translate(1047.76 599.06)"> </text><text class="cls-2" transform="translate(1056.76 599.06) scale(0.7)">THE</text><text class="cls-2" transform="translate(1104.92 599.06)"> </text><text class="cls-2" transform="translate(1113.92 599.06) scale(0.7)">CHAIN</text><text class="cls-2" transform="translate(1195.26 599.06)"> </text><text class="cls-2" transform="translate(1204.26 599.06) scale(0.7)">OF</text><text class="cls-2" transform="translate(1238.36 599.06)"> </text><text class="cls-2" transform="translate(1247.36 599.06) scale(0.7)">ONLINE</text><text class="cls-2" transform="translate(1341.53 599.06)"> </text><text class="cls-2" transform="translate(1350.53 599.06) scale(0.7)"><tspan class="cls-6">W</tspan><tspan class="cls-7" x="34.52" y="0">A</tspan><tspan class="cls-5" x="57.28" y="0">T</tspan><tspan x="77.69" y="0">CHING</tspan></text><text class="cls-8" transform="translate(179.34 261.06)">Di<tspan class="cls-9" x="35.03" y="0">sc</tspan><tspan class="cls-10" x="70.02" y="0">ov</tspan><tspan x="107.6" y="0">er</tspan></text><text class="cls-11" transform="translate(932.11 261.56)"><tspan class="cls-12">E</tspan><tspan x="20.92" y="0">nj</tspan><tspan class="cls-13" x="52.63" y="0">o</tspan><tspan x="72.97" y="0">y</tspan></text><text class="cls-8" transform="translate(1562.11 260.56)"><tspan class="cls-14">S</tspan><tspan x="20.99" y="0">ocial</tspan><tspan class="cls-14" x="97.74" y="0">/</tspan><tspan class="cls-9" x="113" y="0">S</tspan><tspan x="134.17" y="0">ha</tspan><tspan class="cls-9" x="173.23" y="0">r</tspan><tspan x="186.26" y="0">e</tspan></text><path d="M917.69,365.6a2,2,0,0,0-.24,1.41c0,5.43,0,10.86,0,16.29,0,.93-.24,1.29-1.19,1.34a24.18,24.18,0,0,0-3.49.47c-.86.16-1-.15-1-.94,0-4.78,0-9.57,0-14.35,0-6.53,0-13.06,0-19.58,0-1,.28-1.28,1.23-1.21a20.83,20.83,0,0,0,3.16,0c.8-.06,1.13.28,1.38,1q3.27,9.15,6.59,18.28c.08.23.18.44.3.74.31-.31.19-.63.19-.91,0-6,0-11.92,0-17.88,0-.94.21-1.3,1.19-1.22a25.87,25.87,0,0,0,3.41,0c.79,0,1,.21,1,1-.05,2.55,0,5.11,0,7.66,0,8,0,16.06,0,24.08,0,.92-.22,1.29-1.17,1.34a35.59,35.59,0,0,0-4,.43,1.06,1.06,0,0,1-1.4-.85c-1.77-5.22-3.59-10.41-5.41-15.61C918.11,366.63,917.91,366.16,917.69,365.6Z"/><path d="M1036,373.73c-1.27,2.94-2.48,5.66-3.61,8.41-.37.91-.78,1.35-1.86,1.1a17.3,17.3,0,0,0-3.38-.34c-1,0-1.23-.32-.8-1.3,2.13-4.81,4.18-9.66,6.3-14.47a2.56,2.56,0,0,0,0-2.18c-2-4.93-3.83-9.89-5.79-14.82-.4-1-.15-1.15.79-1.1a20.69,20.69,0,0,0,3.52,0c1.18-.13,1.61.39,2,1.4.87,2.44,1.85,4.84,2.8,7.25.08.2,0,.5.48.6,1.16-2.68,2.37-5.36,3.46-8.08a1.55,1.55,0,0,1,1.79-1.16c1.57.08,3.15,0,4.74,0a2.67,2.67,0,0,1-.46,1.54c-2.09,4.88-4.18,9.75-6.31,14.6a2.29,2.29,0,0,0-.06,1.95c2.16,5.46,4.27,10.93,6.39,16.41.19.48.35,1,.59,1.65l-6-.81c-.58-.08-.6-.61-.75-1-1.1-2.79-2.17-5.59-3.26-8.38C1036.44,374.66,1036.27,374.3,1036,373.73Z"/><path d="M935.77,365.71c0-5.15,0-10.29,0-15.44,0-.89.15-1.26,1.17-1.25,4.5.06,9,.05,13.49,0,.87,0,1.13.26,1.08,1.1a29.67,29.67,0,0,0,0,3.4c.06.88-.18,1.19-1.13,1.16-2.63-.06-5.26,0-7.9,0-.86,0-1.1.26-1.08,1.1.06,1.86.07,3.73,0,5.59,0,.91.32,1.07,1.14,1,1.86-.08,3.72,0,5.59-.1.66,0,.95.17.92.89,0,1.21,0,2.43,0,3.64,0,.78-.2,1.05-1,1-1.87-.05-3.73,0-5.59,0-.77,0-1.08.18-1.06,1,.06,2.14.08,4.29,0,6.44,0,1,.37,1.11,1.2,1,2.59-.21,5.18-.33,7.76-.56.92-.08,1.21.2,1.15,1.12a32.13,32.13,0,0,0,0,3.4c0,.71-.2,1-.94,1.05q-6.91.34-13.81,1c-.86.09-1-.25-1-1C935.78,376.16,935.77,370.93,935.77,365.71Z"/><path d="M976.42,364.8c0-4.82,0-9.64,0-14.47,0-1,.16-1.32,1.23-1.31,4.5.07,9,.05,13.5,0,.82,0,1.17.18,1.12,1.07a29.53,29.53,0,0,0,0,3.52c0,.89-.29,1.08-1.11,1.07-2.68-.05-5.36,0-8,0-.82,0-1.15.18-1.11,1.07.06,1.78,0,3.57,0,5.35,0,.75.23,1,1,1,1.86,0,3.73,0,5.59,0,1,0,1.19.3,1.14,1.18a23.94,23.94,0,0,0,0,3.28c.08,1-.3,1.16-1.17,1.13-1.75-.07-3.5.06-5.23-.05-1.14-.07-1.32.36-1.31,1.37.06,3.49,0,7,0,10.46,0,.93-.27,1.2-1.17,1.14a24.26,24.26,0,0,0-3.41,0c-.88.06-1.06-.29-1.06-1.11C976.44,374.53,976.42,369.67,976.42,364.8Z"/><path d="M961.13,367.76c0-4,0-7.94,0-11.91,0-1-.29-1.25-1.23-1.2-1.25.08-2.51,0-3.77,0-.72,0-1-.17-1-.93.05-1.26.05-2.52,0-3.77,0-.77.27-1,1-.94q7.79,0,15.57,0c.75,0,1,.23.95,1,0,1.21,0,2.43,0,3.64,0,.77-.18,1.08-1,1-1.26-.07-2.52.05-3.77,0-1-.07-1.2.29-1.2,1.23,0,7.77,0,15.55,0,23.33,0,1.12-.23,1.62-1.46,1.5a15.8,15.8,0,0,0-3.15.06c-.84.09-1-.19-1-1C961.14,375.78,961.13,371.77,961.13,367.76Z"/><path d="M1001.53,362.29c0,4,0,8,0,12,0,.93.3,1.18,1.15,1.21,2.55.1,5.1.28,7.65.38.71,0,1,.24,1,1-.07,1.26,0,2.52,0,3.77,0,.64-.18.83-.84.8q-6.85-.37-13.71-.68c-.61,0-.82-.25-.82-.88q0-15,0-30c0-.75.31-.87.94-.85,1.26,0,2.52,0,3.77,0,.77,0,.95.25.95,1C1001.51,354.1,1001.53,358.19,1001.53,362.29Z"/><path d="M1021.62,365.69c0,5.14,0,10.29,0,15.43,0,.95-.18,1.32-1.22,1.13A22.45,22.45,0,0,0,1017,382c-.76,0-1-.24-1-1q0-15.44,0-30.87c0-.78.21-1.07,1-1a29.53,29.53,0,0,0,3.52,0c.88,0,1.09.28,1.09,1.1C1021.6,355.32,1021.62,360.5,1021.62,365.69Z"/><text class="cls-2" transform="translate(194.98 506.06)">Gala<tspan class="cls-15" x="74.34" y="0">x</tspan><tspan x="92.19" y="0">y</tspan></text><path d="M276.81,392.83a4.13,4.13,0,0,0-3.84,2.88c-3.52,1.28-8.32,4.48-12,7.36a22.93,22.93,0,0,0-31,31c-2.88,3.84-6.24,8.64-7.36,12.32a4,4,0,0,0-2.56,3.68,4.1,4.1,0,0,0,4,4.16,3.81,3.81,0,0,0,3.84-3c3.52-1.28,8.16-4.48,11.68-7.36a23.06,23.06,0,0,0,31.2-31.2c2.88-3.68,6.08-8.48,7.36-12a4.13,4.13,0,0,0,2.88-3.84A4.21,4.21,0,0,0,276.81,392.83Zm0,2.56a1.44,1.44,0,0,1,0,2.88h0a1.54,1.54,0,0,1-1.44-1A1.56,1.56,0,0,1,276.81,395.39Zm-30.72,8L244,405.47a1.24,1.24,0,1,0,1.76,1.76l4.16-4.16h.32a21.63,21.63,0,0,1,9,2.08l-3.36,3.36a1.24,1.24,0,0,0,1.76,1.76l3.84-3.84a18.92,18.92,0,0,1,6.08,6.24,168.37,168.37,0,0,1-13.44,14.88A168.37,168.37,0,0,1,239.21,441a18.2,18.2,0,0,1-2.24-1.76l3.52-3.52a1.24,1.24,0,1,0-1.76-1.76l-3.52,3.52A20.17,20.17,0,0,1,229.77,424l8-8a1.24,1.24,0,0,0-1.76-1.76l-6.08,6.08A20.83,20.83,0,0,1,246.09,403.39Zm-22.24,48.32a1.43,1.43,0,0,1-1.44-1.44,1.4,1.4,0,0,1,1.28-1.44h.16a1.48,1.48,0,0,1,1.44,1.6A1.41,1.41,0,0,1,223.85,451.71Zm3.68-3.2a4.7,4.7,0,0,0-2.4-2.24,46.88,46.88,0,0,1,6.08-9.76c0,.16.16.16.16.32a24.6,24.6,0,0,0,5.76,5.76A47.38,47.38,0,0,1,227.53,448.51ZM251.85,444l2.4-2.4a1.24,1.24,0,0,0-1.76-1.76L248.33,444a26.09,26.09,0,0,1-6.72-1.76,179.56,179.56,0,0,0,14.24-13,191,191,0,0,0,13-14.24c.32.8.64,1.6,1,2.56l-7,7a1.24,1.24,0,0,0,1.76,1.76l5.92-5.92a19.6,19.6,0,0,1,.32,3A20.44,20.44,0,0,1,251.85,444Zm17.44-33.6a23.8,23.8,0,0,0-6.08-5.92c4-2.88,7.36-5.12,9.76-6.08a6.55,6.55,0,0,0,2.4,2.24A51.45,51.45,0,0,1,269.29,410.43Z"/><path d="M280.33,446.43a5.44,5.44,0,1,0-5.44,5.44A5.4,5.4,0,0,0,280.33,446.43Zm-8.48,0a2.88,2.88,0,1,1,2.88,2.88A2.87,2.87,0,0,1,271.85,446.43Z"/><path d="M225.93,406.11a5.5,5.5,0,0,0,5.44-5.44,5.44,5.44,0,1,0-5.44,5.44Zm0-8.32a2.88,2.88,0,1,1-2.88,2.88A2.87,2.87,0,0,1,225.93,397.79Z"/><text class="cls-2" transform="translate(1609.98 506.06)">Gala<tspan class="cls-15" x="74.34" y="0">x</tspan><tspan x="92.19" y="0">y</tspan></text><path d="M1691.81,392.83a4.13,4.13,0,0,0-3.84,2.88c-3.52,1.28-8.32,4.48-12,7.36a22.93,22.93,0,0,0-31,31c-2.88,3.84-6.24,8.64-7.36,12.32a4,4,0,0,0-2.56,3.68,4.1,4.1,0,0,0,4,4.16,3.81,3.81,0,0,0,3.84-3c3.52-1.28,8.16-4.48,11.68-7.36a23.06,23.06,0,0,0,31.2-31.2c2.88-3.68,6.08-8.48,7.36-12a4.13,4.13,0,0,0,2.88-3.84A4.21,4.21,0,0,0,1691.81,392.83Zm0,2.56a1.44,1.44,0,1,1,0,2.88h0a1.54,1.54,0,0,1-1.44-1A1.56,1.56,0,0,1,1691.81,395.39Zm-30.72,8-2.08,2.08a1.24,1.24,0,1,0,1.76,1.76l4.16-4.16h.32a21.63,21.63,0,0,1,9,2.08l-3.36,3.36a1.24,1.24,0,0,0,1.76,1.76l3.84-3.84a18.92,18.92,0,0,1,6.08,6.24A197.42,197.42,0,0,1,1654.21,441a18.2,18.2,0,0,1-2.24-1.76l3.52-3.52a1.24,1.24,0,1,0-1.76-1.76l-3.52,3.52a20.17,20.17,0,0,1-5.44-13.44l8-8a1.24,1.24,0,0,0-1.76-1.76l-6.08,6.08A20.83,20.83,0,0,1,1661.09,403.39Zm-22.24,48.32a1.43,1.43,0,0,1-1.44-1.44,1.4,1.4,0,0,1,1.28-1.44h.16a1.48,1.48,0,0,1,1.44,1.6A1.41,1.41,0,0,1,1638.85,451.71Zm3.68-3.2a4.7,4.7,0,0,0-2.4-2.24,46.88,46.88,0,0,1,6.08-9.76c0,.16.16.16.16.32a24.6,24.6,0,0,0,5.76,5.76A47.38,47.38,0,0,1,1642.53,448.51Zm24.32-4.48,2.4-2.4a1.24,1.24,0,0,0-1.76-1.76l-4.16,4.16a26.09,26.09,0,0,1-6.72-1.76,179.56,179.56,0,0,0,14.24-13,191,191,0,0,0,13-14.24c.32.8.64,1.6,1,2.56l-7,7a1.24,1.24,0,0,0,1.76,1.76l5.92-5.92a19.6,19.6,0,0,1,.32,3A20.44,20.44,0,0,1,1666.85,444Zm17.44-33.6a23.8,23.8,0,0,0-6.08-5.92c4-2.88,7.36-5.12,9.76-6.08a6.55,6.55,0,0,0,2.4,2.24A51.45,51.45,0,0,1,1684.29,410.43Z"/><path d="M1695.33,446.43a5.44,5.44,0,1,0-5.44,5.44A5.4,5.4,0,0,0,1695.33,446.43Zm-8.48,0a2.88,2.88,0,1,1,2.88,2.88A2.87,2.87,0,0,1,1686.85,446.43Z"/><path d="M1640.93,406.11a5.5,5.5,0,0,0,5.44-5.44,5.44,5.44,0,1,0-5.44,5.44Zm0-8.32a2.88,2.88,0,1,1-2.88,2.88A2.87,2.87,0,0,1,1640.93,397.79Z"/><text class="cls-16" transform="translate(134.95 69.06)"><tspan class="cls-17">O</tspan><tspan x="29.77" y="0">ther </tspan><tspan class="cls-9" x="104.51" y="0">so</tspan><tspan x="141.01" y="0">u</tspan><tspan class="cls-9" x="161.39" y="0">rc</tspan><tspan x="193.32" y="0">es</tspan></text></g><g id="Layer_2" data-name="Layer 2"><line class="cls-18" x1="249" y1="177.75" x2="249" y2="93"/><polygon class="cls-1" points="261.27 167.81 259.07 165.76 249 176.59 238.93 165.76 236.73 167.81 249 181 261.27 167.81"/><line class="cls-18" x1="581" y1="250" x2="644.75" y2="250"/><polygon class="cls-1" points="634.81 262.27 632.76 260.07 643.6 250 632.76 239.93 634.81 237.73 648 250 634.81 262.27"/><line class="cls-18" x1="1297" y1="250" x2="1360.75" y2="250"/><polygon class="cls-1" points="1350.81 262.27 1348.76 260.07 1359.6 250 1348.76 239.93 1350.81 237.73 1364 250 1350.81 262.27"/><polyline class="cls-18" points="1665 180 1665 137 276 137 276 176.75"/><polygon class="cls-1" points="263.73 166.81 265.93 164.76 276 175.59 286.07 164.76 288.27 166.81 276 180 263.73 166.81"/><line class="cls-18" x1="249" y1="333.25" x2="249" y2="369"/><polygon class="cls-1" points="236.73 343.19 238.93 345.24 249 334.4 259.07 345.24 261.27 343.19 249 330 236.73 343.19"/><line class="cls-18" x1="1665" y1="333.25" x2="1665" y2="369"/><polygon class="cls-1" points="1652.73 343.19 1654.93 345.24 1665 334.4 1675.07 345.24 1677.27 343.19 1665 330 1652.73 343.19"/></g></svg>