<?xml version="1.0" encoding="utf-8"?>
<!-- Generator: Adobe Illustrator 24.2.1, SVG Export Plug-In . SVG Version: 6.00 Build 0)  -->
<svg version="1.1" id="Layer_1" xmlns="http://www.w3.org/2000/svg" xmlns:xlink="http://www.w3.org/1999/xlink" x="0px" y="0px"
	 viewBox="0 0 100 102.1" style="enable-background:new 0 0 100 102.1;" xml:space="preserve">
<style type="text/css">
	.st0{fill:none;stroke:#FFFFFF;stroke-width:2.5;stroke-miterlimit:10;}
	.st1{stroke:#FFFFFF;stroke-width:2.5;stroke-miterlimit:10;}
</style>
<g>
	<g>
		<g>
			<g>
				<g>
					<path class="st0" d="M53.9,23.7C47.1,28.2,41.8,36,38.9,45.7c-0.7,2.3-2,7.8,1,10.2c3.2,2.5,8.4-0.7,11-3.4
						c5.5-5.6,9.2-13,10.5-20.8c0.4-2.3,0.9-7.1-0.8-11C58.3,21.3,56,22.4,53.9,23.7z"/>
					<path class="st0" d="M25.4,33.5C18.6,43.3,13.6,56.1,10,72.3c-0.6,2.8-1.1,5.6-0.6,8.1c0.4,2,1.8,4.3,4,4.8
						c4.8,1,8-7.1,8.5-8.7c3.6-10.1,7.2-22,5.7-33.9C27.3,39.3,26.5,36.3,25.4,33.5z"/>
					<path class="st1" d="M94.7,46.6C93.6,33.7,88.7,23.9,81,19c-5.3-3.4-11.9-4.4-18.4-3.2c-0.5-0.7-1.1-1.3-1.7-1.8
						c-7.1-6.2-17.9-3-25.5,2.9c-3.3,2.5-6.3,5.4-9.1,8.7c-3.8-6.1-9.1-10.8-15.3-13c-1.1-0.4-2.3,0.2-2.7,1.2
						c-0.4,1.1,0.2,2.3,1.2,2.7c5.8,2.1,10.7,6.7,14,12.6C15.6,39.6,9.8,53.6,5.9,71.3c-0.7,3.3-1.3,6.5-0.6,9.8
						c0.7,3.4,3.2,7.2,7.2,8c0.6,0.1,1.1,0.2,1.7,0.2c4.7,0,9-4.2,11.7-11.6c3.8-10.5,7.5-23,5.9-35.8c-0.5-4.4-1.7-8.6-3.5-12.4
						c2.9-3.6,6.1-6.7,9.6-9.4c6-4.6,14.8-7.6,20.1-3.1c-2.2,0.8-4.3,1.8-6.3,3.2c-7.6,5-13.6,13.6-16.8,24.2
						c-2,6.6-1.1,11.8,2.4,14.7c5.1,4,12.2,0.8,16.7-3.8c6-6.2,10.2-14.4,11.6-23c0.8-4.8,0.5-9.1-0.8-12.6c5-0.6,10.1,0.3,14,2.8
						C87.7,28.2,90,40.3,90.6,47c0.7,7.8,0,14.1-2.2,19.5c-2.6,6.4-7.4,11.2-13,13c-6,1.9-13-0.1-16.3-4.7c-1.7-2.4-2.3-5.7-1.6-8.9
						c0.6-2.8,2.2-5,4.4-6.2c2.3-1.3,5.6-1.1,8.3,0.5c2.4,1.4,3.8,3.6,3.8,5.9c0,1.2,0.9,2.1,2.1,2.1c1.2,0,2.1-0.9,2.1-2.1
						c0-3.8-2.2-7.4-5.9-9.5c-4-2.4-8.8-2.6-12.4-0.5c-3.2,1.8-5.5,5-6.4,8.9c-1,4.3-0.2,8.9,2.2,12.2c4.4,6.2,13.2,8.9,21,6.3
						c6.7-2.2,12.5-8,15.6-15.5C94.7,62.1,95.5,55,94.7,46.6z M21.9,76.3c-0.6,1.6-3.8,9.7-8.5,8.7c-2.2-0.5-3.6-2.8-4-4.8
						c-0.5-2.5,0-5.2,0.6-8.1c3.5-16.1,8.6-29,15.4-38.8c1.1,2.8,1.8,5.8,2.2,9C29.1,54.4,25.6,66.3,21.9,76.3z M61.4,31.6
						c-1.3,7.7-5,15.1-10.5,20.8c-2.7,2.8-7.8,6-11,3.4c-3-2.3-1.7-7.9-1-10.2c2.9-9.7,8.3-17.5,15.1-21.9c2.1-1.4,4.3-2.4,6.7-3.1
						C62.3,24.6,61.8,29.3,61.4,31.6z"/>
				</g>
			</g>
		</g>
	</g>
</g>
</svg>
