<?xml version="1.0" encoding="utf-8"?>
<!-- Generator: Adobe Illustrator 24.0.3, SVG Export Plug-In . SVG Version: 6.00 Build 0)  -->
<svg version="1.1" id="Layer_1" xmlns="http://www.w3.org/2000/svg" xmlns:xlink="http://www.w3.org/1999/xlink" x="0px" y="0px"
	 viewBox="0 0 150 150" style="enable-background:new 0 0 150 150;" xml:space="preserve">
<style type="text/css">
	.st0{fill:none;stroke:#000000;stroke-width:4;stroke-linecap:round;stroke-miterlimit:10;}
	.st1{fill:#FFFFFF;stroke:#FF0000;stroke-width:4;stroke-linecap:round;stroke-miterlimit:10;}
	.st2{fill:#FFFFFF;stroke:#000000;stroke-width:4;stroke-linecap:round;stroke-miterlimit:10;}
	.st3{fill:none;stroke:#FF0000;stroke-width:5;stroke-linecap:round;stroke-linejoin:round;stroke-miterlimit:10;}
	.st4{fill:none;stroke:#FF0000;stroke-width:5;stroke-linecap:round;stroke-miterlimit:10;}
	.st5{fill:none;stroke:#FF0000;stroke-width:4;stroke-linecap:round;stroke-miterlimit:10;}
</style>
<line class="st0" x1="87.4" y1="39.6" x2="120.8" y2="39.6"/>
<line class="st0" x1="37.6" y1="30.9" x2="37.6" y2="122.9"/>
<line class="st0" x1="28.7" y1="114.2" x2="87.4" y2="114.2"/>
<line class="st0" x1="28.7" y1="89.3" x2="120.8" y2="89.3"/>
<line class="st0" x1="62.5" y1="64.5" x2="120.8" y2="64.5"/>
<line class="st0" x1="112.2" y1="30.9" x2="112.2" y2="122.9"/>
<line class="st0" x1="87.3" y1="89.3" x2="87.3" y2="122.9"/>
<circle class="st1" cx="62.5" cy="89.3" r="6.1"/>
<circle class="st2" cx="112.2" cy="39.6" r="3.7"/>
<path d="M62.5,83.2"/>
<polyline class="st3" points="62.5,82.9 62.5,64.4 87.3,64.4 87.3,39.5 96.2,39.5 "/>
<line class="st4" x1="68.6" y1="89.3" x2="112.2" y2="89.3"/>
<polyline class="st3" points="62.5,82.9 62.5,39.6 31.6,39.6 "/>
<path class="st5" d="M36.2,21.6c4.6-1.1,9.4-1.6,14.4-1.6c35.1,0,63.6,28.5,63.6,63.6c0,18.7-8.1,35.6-21,47.2"/>
</svg>
