<svg id="Layer_1" data-name="Layer 1" xmlns="http://www.w3.org/2000/svg" viewBox="0 0 800 800"><defs><style>.cls-1{fill:#ff9a26;}.cls-2{font-size:18px;fill:#fff;font-family:CircularStd-Medium, Circular Std;font-weight:500;}.cls-3{letter-spacing:0em;}.cls-4{letter-spacing:0em;}.cls-5{letter-spacing:-0.02em;}.cls-6{letter-spacing:-0.02em;}.cls-7{letter-spacing:-0.01em;}.cls-8{letter-spacing:0em;}.cls-9{letter-spacing:0em;}.cls-10{letter-spacing:-0.03em;}.cls-11{letter-spacing:0em;}.cls-12{letter-spacing:0em;}.cls-13{letter-spacing:-0.02em;}.cls-14{letter-spacing:-0.02em;}.cls-15{letter-spacing:-0.06em;}.cls-16{letter-spacing:0.01em;}.cls-17{letter-spacing:-0.01em;}.cls-18{letter-spacing:-0.01em;}.cls-19{letter-spacing:-0.04em;}.cls-20{letter-spacing:-0.09em;}.cls-21{letter-spacing:0.01em;}.cls-22{letter-spacing:0em;}.cls-23{letter-spacing:-0.05em;}.cls-24{letter-spacing:-0.05em;}.cls-25{letter-spacing:0em;}.cls-26{letter-spacing:-0.02em;}.cls-27{letter-spacing:-0.01em;}.cls-28{letter-spacing:-0.1em;}.cls-29{fill:#253857;}.cls-30{fill:#48736c;}.cls-31,.cls-32{fill:none;stroke-miterlimit:10;stroke-width:3px;}.cls-31{stroke:#000;}.cls-32{stroke:#fff;}</style></defs><path class="cls-1" d="M210.86,192.47H65.7A22.76,22.76,0,0,0,43,215.16v44.07A22.76,22.76,0,0,0,65.7,281.92H181.28l15.29,19.22,15.33-19.28a22.74,22.74,0,0,0,21.66-22.63V215.16A22.76,22.76,0,0,0,210.86,192.47Z"/><path class="cls-1" d="M521.43,153.61H339.48a20.06,20.06,0,0,0-20,20v50.1a20.06,20.06,0,0,0,20,20h11.79l13.48,16.94,13.48-16.94h143.2a20.06,20.06,0,0,0,20-20v-50.1A20.06,20.06,0,0,0,521.43,153.61Z"/><path class="cls-1" d="M757.55,296.65H618.48a20.06,20.06,0,0,0-20,20v61.81L581.34,392.1l17.16,13.65a20.06,20.06,0,0,0,20,19.57H757.55a20.06,20.06,0,0,0,20-20V316.65A20.06,20.06,0,0,0,757.55,296.65Z"/><text class="cls-2" transform="translate(62.39 220.16)"><tspan class="cls-3">H</tspan><tspan class="cls-4" x="13.34" y="0">a</tspan><tspan class="cls-5" x="22.82" y="0">v</tspan><tspan x="32" y="0">e </tspan><tspan class="cls-6" x="46.33" y="0">y</tspan><tspan class="cls-3" x="55.71" y="0">o</tspan><tspan x="66.08" y="0">u </tspan><tspan class="cls-3" x="80.93" y="0">s</tspan><tspan x="89.1" y="0">een </tspan><tspan class="cls-7" x="123.62" y="0">t</tspan><tspan x="129.98" y="0">h</tspan><tspan class="cls-8" x="140.31" y="0">a</tspan><tspan x="149.85" y="0">t </tspan><tspan x="0" y="21.6">sh</tspan><tspan class="cls-7" x="18.56" y="21.6">o</tspan><tspan x="28.76" y="21.6">w </tspan><tspan class="cls-6" x="47.88" y="21.6">S</tspan><tspan x="58.27" y="21.6">p</tspan><tspan class="cls-9" x="69.14" y="21.6">a</tspan><tspan class="cls-4" x="78.7" y="21.6">c</tspan><tspan x="88.34" y="21.6">e </tspan><tspan class="cls-10" x="102.67" y="21.6">F</tspan><tspan x="112.1" y="21.6">o</tspan><tspan class="cls-11" x="122.52" y="21.6">r</tspan><tspan class="cls-12" x="129.31" y="21.6">c</tspan><tspan class="cls-13" x="138.96" y="21.6">e</tspan><tspan x="148.41" y="21.6">? </tspan><tspan x="0" y="43.2">OMG </tspan><tspan class="cls-7" x="49.99" y="43.2">t</tspan><tspan x="56.34" y="43.2">h</tspan><tspan class="cls-8" x="66.67" y="43.2">a</tspan><tspan class="cls-14" x="76.21" y="43.2">t</tspan><tspan class="cls-15" x="82.48" y="43.2">’</tspan><tspan x="85.63" y="43.2">s </tspan><tspan class="cls-3" x="98.31" y="43.2">s</tspan><tspan x="106.49" y="43.2">o </tspan><tspan class="cls-3" x="121.37" y="43.2">f</tspan><tspan x="127.62" y="43.2">un.</tspan></text><text class="cls-2" transform="translate(337.41 180.47)">OMG <tspan class="cls-3" x="49.99" y="0">r</tspan><tspan x="56.77" y="0">eall</tspan><tspan class="cls-16" x="85.79" y="0">y</tspan><tspan x="95.74" y="0">? I </tspan><tspan class="cls-7" x="119.28" y="0">t</tspan><tspan x="125.64" y="0">h</tspan><tspan class="cls-3" x="135.97" y="0">ou</tspan><tspan x="156.67" y="0">ght </tspan><tspan x="0" y="21.6">it </tspan><tspan class="cls-3" x="15.8" y="21.6">w</tspan><tspan x="30.4" y="21.6">as li</tspan><tspan class="cls-13" x="62.23" y="21.6">k</tspan><tspan x="71.6" y="21.6">e only a </tspan><tspan x="0" y="43.2">geek</tspan><tspan class="cls-17" x="40.12" y="43.2">s</tspan><tspan x="48.17" y="43.2">’ sh</tspan><tspan class="cls-18" x="75.33" y="43.2">o</tspan><tspan class="cls-19" x="85.53" y="43.2">w</tspan><tspan x="99.41" y="43.2">.</tspan></text><text class="cls-2" transform="translate(612.78 321.85)"><tspan class="cls-20">Y</tspan><tspan x="9.77" y="0">eah.... I </tspan><tspan class="cls-3" x="75.04" y="0">d</tspan><tspan x="85.82" y="0">unn</tspan><tspan class="cls-14" x="116.87" y="0">o</tspan><tspan x="126.99" y="0">. </tspan><tspan x="0" y="21.6">My b</tspan><tspan class="cls-6" x="42.21" y="21.6">o</tspan><tspan class="cls-21" x="52.24" y="21.6">y</tspan><tspan x="62.24" y="21.6">f</tspan><tspan class="cls-22" x="68.54" y="21.6">r</tspan><tspan x="75.42" y="21.6">iend</tspan><tspan class="cls-23" x="111.22" y="21.6">’</tspan><tspan x="114.37" y="21.6">s </tspan><tspan x="0" y="43.2">kin</tspan><tspan class="cls-8" x="24.89" y="43.2">d</tspan><tspan x="35.69" y="43.2">a in</tspan><tspan class="cls-3" x="64.84" y="43.2">t</tspan><tspan x="71.35" y="43.2">o it, </tspan><tspan class="cls-3" x="107.51" y="43.2">b</tspan><tspan x="118.33" y="43.2">ut I </tspan><tspan x="0" y="64.8">do</tspan><tspan class="cls-24" x="21.26" y="64.8">n</tspan><tspan class="cls-25" x="30.74" y="64.8">’t li</tspan><tspan class="cls-26" x="55.48" y="64.8">k</tspan><tspan x="64.85" y="64.8">e it </tspan><tspan class="cls-7" x="94.99" y="64.8">t</tspan><tspan x="101.34" y="64.8">h</tspan><tspan class="cls-8" x="111.67" y="64.8">a</tspan><tspan x="121.21" y="64.8">t </tspan><tspan class="cls-27" x="0" y="86.4">m</tspan><tspan class="cls-3" x="15.59" y="86.4">u</tspan><tspan x="25.92" y="86.4">ch hones</tspan><tspan class="cls-7" x="99.63" y="86.4">t</tspan><tspan x="105.98" y="86.4">l</tspan><tspan class="cls-28" x="110.77" y="86.4">y</tspan><tspan x="118.69" y="86.4">.</tspan></text><path class="cls-29" d="M579.31,506.93c.81.91.09,2.21-.2,3.35-1.07,4.08-2,8.17-3,12.26a9.66,9.66,0,0,0-1.35,5.34c-.39,12.26-5.85,23.11-9.33,34.5-7,5.15-15,8.32-22.43,12.69-1.6.94-4.35.45-4.87,2.15-.47,1.54.74,3.58,1.19,5.4,1,4.07,2.11,8.06,6.29,10.15-.63,2.37-2.87,2.24-4.54,2.69a36.32,36.32,0,0,1-9.43,1.08c-3.09,0-6.18-.24-9.23-.44-5.14-.33-10.79-.11-15-4.07-2.9-2.73-6.34-4.25-10-5.74a293.69,293.69,0,0,0-37.67-13c-3.63-.94-7.35-1.83-11.1-.39-8.6,3.3-16,9-24.47,12.5-.86.35-1.46,1.08-.72,1.94,2.56,3,2.69,6.86,3.73,10.4,0,1.29-.22,2.64.53,3.8,2.06,3.15.78,5.26-3.57,5.24-4.83,0-9.76,2.27-14.57-.43-.74-.42-2.09,0-3.09.32-7.63,2.23-15.58,2-23.36,3.06-2.24.31-4.51-.35-5.31-2.62s.92-3.8,2.66-5.24c2.33-1.91,5.58-2,7.73-4.14,2.79-1.54,5.66-3,7.36-5.94-4.16,1.61-8.14,2.4-12.46.91-5-1.72-6.87-.38-7.67,5.07-.14,3.45-1.44,6.61-2.49,9.83a2.85,2.85,0,0,1-3.18,2.19,43.79,43.79,0,0,1-13.28-3c-1.51-.58-1.54-2.36-3.36-2.77-5.59-1.26-11.1-2.87-16.59-4.51a4.32,4.32,0,0,0-3.7.2l-6.93-6.31c.83.08,1-.67,1.28-1.4,1.41-4.24,2.24-4.66,6.68-3.75.91.19,1.88.11,2.8.28,5.13,1,9.21-2.46,13.83-3.26,6.16-1.07,9.87-5,13.57-9.2,2.69-3.09,4.08-2.85,5.58,1.09.25.66.44,1.34.69,2s.13,1.28.94,1.28a1.29,1.29,0,0,0,1.19-1.12,3.33,3.33,0,0,1,3.48-2.86c9.07-.23,16.81-4.74,25-7.81,8.37-3.12,17.84-4.26,24-11.66,9.65-11.65,19.3-23.32,27-36.41.48-.81,1-1.59,1.54-2.36,3.81-5.46,9-6.41,14.83-2.76-4,3.34-4,6.64.24,9.72a13.15,13.15,0,0,0,6.92,2.44,49.05,49.05,0,0,1,23.38,8.32c-.05,1.65,1.47,2,2.41,2.71,4.36,3.44,9.37,6,13.16,10.2a4.22,4.22,0,0,0,5.1,2.62c1.28-.27-.21-2.45-.11-3.8a4.79,4.79,0,0,0-.13-1,14.68,14.68,0,0,1,3.75-9.15,5.41,5.41,0,0,1,5.36-.18c5.19,2.23,5.33,1.94,4.78-3.78-.63-6.56-1.72-13.13-.32-19.74.74-3.46,1.77-6.94,1.83-10.43a14,14,0,0,1,1.18-5.58,14.52,14.52,0,0,1,6.2-6.45c4.94-2.9,8.34-6.88,9.28-12.68,3.73,1.64,7.21,8.45,6.15,12.76-1.31,5.3.61,9.61,4.07,13.13,4,4.12,9.15,4.94,14.67,3.08C577.22,507.22,578.26,505.75,579.31,506.93Zm-44.45,65.36c1.68-.86.57-4.09.83-6.42-.1-1.87-.21-3.87-.3-5.87a2.51,2.51,0,0,0-3-2.65c-2.87.16-6.29,1.13-7.45,3.11-1.38,2.35.65,5.34,2.86,7.36a11.58,11.58,0,0,0,1.65,1.33C531.31,570.28,533.2,573.15,534.86,572.29Zm-76.32-22.82a99.49,99.49,0,0,0,16.06,1.42c-2.74-3.62-6-6-8.28-9.24-1-1.4-2.22-.47-3.05.83C461.89,544.65,460.39,546.74,458.54,549.47ZM415.39,578c.79-1.41-.87-2.63-1.77-4-.59,1.29-2.9,2.09-1.45,3.73C412.77,578.34,414.85,578.9,415.39,578Z"/><path class="cls-29" d="M565.4,562.38c.48,2.3-1,3.84-2.35,5.22-2.45,2.56-3.14,5.59-3.3,8.94-.21,4.41-1.26,8.54-4.29,12-2.64,3-5.72,4.84-9.88,4.26-4.18-2.09-5.28-6.08-6.29-10.15-.45-1.82-1.66-3.86-1.19-5.4.52-1.7,3.27-1.21,4.87-2.15C550.37,570.7,558.44,567.53,565.4,562.38Z"/><path class="cls-29" d="M543.69,465.39a27.78,27.78,0,0,0,5,10.41c-1.74,2-3.44,4-5.21,6-1,1.17-2.18,2-3-.28,1.09-2.54,1.55-5-.74-7.21A1.93,1.93,0,0,0,538,473c-3.12.13-5.84-1.26-8.66-2.26-7.83-6.76-10-14.4-6.21-22.09.63-1.3,1.19-3.53,2.82-3.13,2.05.51,4.77.28,5.85,3.09a17.4,17.4,0,0,0,5.14,7.08c1.35,1.13,2.43,3.56,4.84.67,1.19-1.42,3.07.18,4,1.64s1.21,3.27-.61,3.91C542.92,462.63,543.38,464,543.69,465.39Z"/><path class="cls-29" d="M535.69,565.87c-.26,2.33.85,5.56-.83,6.42s-3.55-2-5.41-3.14a11.58,11.58,0,0,1-1.65-1.33c-2.21-2-4.24-5-2.86-7.36,1.16-2,4.58-3,7.45-3.11a2.51,2.51,0,0,1,3,2.65C535.48,562,535.59,564,535.69,565.87Z"/><path class="cls-29" d="M521.43,536.62l1.58.81a14.68,14.68,0,0,0-3.75,9.15l-1.93-.65q-9.24-5-18.5-10a49.05,49.05,0,0,0-23.38-8.32,13.15,13.15,0,0,1-6.92-2.44c-4.2-3.08-4.27-6.38-.24-9.72.91-.2,1.85-.34,2.74-.61s2.37.56,2.27-1.31c-.08-1.36-.43-2.72-2-2.92-3.24-.41-2.55-2.1-1.35-3.89.65-1,1.45-1.79,1.33-3.13-.22-2.47-.66-5.06,3.11-5.42.59-.05,1.13-1.4,1.59-2.21a101.88,101.88,0,0,1,10.55-15,13.36,13.36,0,0,1,4.42-4c-.42,3-3.83,4.21-4.24,7.2-2,1.18-3,3.21-4.22,5-1.45.76-1.9,2.12-2.18,3.59-1.39,1.64-2.76,3.3-2.82,5.61-2.25,1.64-1.2,2.42.78,3a6.76,6.76,0,0,0,2.07,4.91c.15,1.22,1,1.33,2,1.38,3.68.2,7.11-.42,10.06-2.81a4.22,4.22,0,0,1,.62-.1c2.09,3.76,2,4.23-2,6a33.91,33.91,0,0,1-3.63,1.39c-1.09.35-2.22.55-3.64.89,2.87,4.66,7.65,5.87,12,7.75.12.2.34.41.34.61-.17,5.66,4.17,7.19,8.2,9C509.86,532.87,515.35,535.55,521.43,536.62Z"/><path class="cls-1" d="M500.41,451.14c2,.6,4.35,1.13,4,4-.32,2.67-2.51,2.64-4.53,2.88a184.55,184.55,0,0,1-28.1,1.38,66.18,66.18,0,0,1-9.44-.8c-2.88-.52-5-2.19-4.67-5.59.17-1.86.47-3.7.71-5.56l1.57-3.66c3.73-3.6,7.84-6.42,13.33-6.33,4.06,2.76,7.91,5.91,12.72,7.4a21.44,21.44,0,0,0,12,6C498.77,451.07,499.64,450.92,500.41,451.14Z"/><path class="cls-1" d="M489.47,432.06a9.5,9.5,0,0,1-1.31,6.05c.37-3.38-.61-6.65-.81-10-.63-2.26-.24-4.72-1.31-6.9,0-1.5.12-3-.75-4.37a16,16,0,0,0-2.07-6.26,4.42,4.42,0,0,0-1.49-3.68,2,2,0,0,1,0-.43c-.16-1.64.09-4.43-2.45-3.33-5.56,2.41-10.35,6-11.64,12.52l-.75,1.95c-4.46-1.52-4.59-1.67-3-5.94.72-2,1-3.74-.19-5.68a31.92,31.92,0,0,1-2-4.51c-2.27-5.32-5.16-9.56-11.95-9.51-3.72,0-7.08-2.44-10.89-2.74l-14.55-7.3a60.92,60.92,0,0,0-10.48-6.17c-2.32-2.59-5.58-3.83-8.39-5.69-6.26-4.14-12.76-7.86-20.36-9q-2.16-10.51-4.3-21a11.51,11.51,0,0,1,8.28,2c1.05.66,1.85,1.83,3.29,1.79,7.51,6.28,14.22,13.51,23,18.28,7.81,4.26,15.34,9.05,23,13.57a14,14,0,0,0,2.29.86A49,49,0,0,0,452,383.6c4.57,4.46,10.24,7.47,15.18,11.43.83.66,2.07,1,2.57,1.84,2.66,4.39,5.47,2.51,8.53.53,2.88-1.85,4-1.24,4.21,2.11.24,3.73,2.48,6.79,3.31,10.36A201.42,201.42,0,0,1,489.47,432.06Z"/><path class="cls-1" d="M468.87,429.93c2.66.25,5.24,5.06,4.41,7.55-5.49-.09-9.6,2.73-13.33,6.33-3.93-2.51-6.89-6.07-9.94-9.49-4.34-4.85-8.69-9.66-14-13.5-4.81-3.49-9.31-7.27-11.18-13.39-10.12,7.11-14.86,19.48-26.51,24.63,7.64.9,14.94,1.37,22.24,1.85,5.67.37,10,2.52,11.56,8.53-.05,8.68-5.73,14.38-15.45,15.59-8.51,1.05-17,1.63-25.58,2.34a96,96,0,0,1-28.32-1.71c-3.53-.75-6.86-2.39-10.28-3.63L362,426.85c5.52-2.27,10.07-5.94,14.63-9.7,2.66-2.19,4.63-4.28,3.7-7.95,3.58-2.58,8.15-3.13,11.71-5.73,9.23-6.73,18.41-13.55,28.05-19.69l4.24-1.84,14.55,7.3a93.45,93.45,0,0,0,13.08,19.62c4.67,5.3,9.24,10.68,11.89,17.38A5.47,5.47,0,0,0,468.87,429.93Z"/><path class="cls-1" d="M399.1,294.8c3.32,5.55,1.61,12-4.34,15.89-1.1.72-1.64,1.15-1.23,2.7,2.45,9.22,2,18.45-.29,27.64-.31.93-.61,1.85-.92,2.77-1.44,0-2.24-1.13-3.29-1.79a11.51,11.51,0,0,0-8.28-2c-.88.28-1.95.08-2.6,1-1.08,0-2.18.09-2.6-1.25s.56-1.65,1.28-2.24a16.66,16.66,0,0,0,6.22-13c0-1.16.4-2.72-1.93-2.36-6.09.95-12.25.11-18.37.45-4.61.27-8.61-.6-11.19-5a16.13,16.13,0,0,0,7.58,21.83,10.29,10.29,0,0,1,1.45.86c.13.1.25.19.36.29,1,.9.95,1.92-.6,3.47l-1.92.25c-5.36.16-8.93,3.07-11.28,7.61-1.37,2.65-2.41,5.47-3.6,8.21-2.76-2.64-4.83-5.84-7.1-8.88l-2.83-6c-3.51-10.65-4.51-21.43-1.53-32.38.37-1.36-.15-2.09-1.16-3-5.14-4.41-6.25-10.28-3.06-15.41s9-6.75,15.21-4a2.76,2.76,0,0,0,3.14-.24c12.1-8.17,22.12-8.06,33.55.35a2.51,2.51,0,0,0,3.31.27C389.2,287.51,395.76,289.2,399.1,294.8Z"/><path class="cls-1" d="M389.68,375.77a23,23,0,0,1,.64,7.83c-1.67,3.7-4.65,6.42-7.19,9.46-4.05,4.85-4.39,10.32-2.85,16.14.93,3.67-1,5.76-3.7,7.95-4.56,3.76-9.11,7.43-14.63,9.7q4.43-13.75,8.87-27.5c1.68-5.17,1.36-5.88-3.93-8l-12.8-.06c.32-1.12.59-2.27,1-3.37q3.68-10.14,7.4-20.26a8.87,8.87,0,0,0,.24-5.49c-1.53-5.93-2.87-11.91-4.28-17.87l1.92-.24c.54,1.68,1.08,3.35,1.61,5,2.23,7.07,3.75,14.38,7.35,21,1.42,2.61,3.36,4.63,6.65,4.41s4.73-2.69,5.85-5.41c2.23-5.34,1.35-10.59-.28-15.88-1.24-4-3.37-7.82-3.38-12.19.65-.9,1.72-.7,2.6-1q2.14,10.5,4.3,21C385.56,366.29,387.53,371.06,389.68,375.77Z"/><path class="cls-1" d="M381.12,322.22c2.33-.36,2,1.2,1.93,2.36a16.66,16.66,0,0,1-6.22,13c-.72.59-1.66,1-1.28,2.24s1.52,1.28,2.6,1.25c0,4.37,2.14,8.16,3.38,12.19,1.63,5.29,2.51,10.54.28,15.88-1.12,2.72-2.49,5.18-5.85,5.41s-5.23-1.8-6.65-4.41c-3.6-6.58-5.12-13.89-7.35-21-.53-1.68-1.07-3.35-1.61-5h0c1.55-1.55,1.57-2.57.6-3.47-.11-.1-.23-.19-.36-.29a10.29,10.29,0,0,0-1.45-.86,16.13,16.13,0,0,1-7.58-21.83c2.58,4.42,6.58,5.29,11.19,5C368.87,322.33,375,323.17,381.12,322.22Z"/><path class="cls-1" d="M362.71,362.22a8.87,8.87,0,0,1-.24,5.49q-3.74,10.13-7.4,20.26c-.39,1.1-.66,2.25-1,3.37l-7.69.06c-7.8,0-7.8,0-7.85-7.81,1.35-2.26.39-4.75.72-7.1a71.89,71.89,0,0,0,4.28-16.32c1.19-2.74,2.23-5.56,3.6-8.21,2.35-4.54,5.92-7.45,11.28-7.61C359.84,350.31,361.18,356.29,362.71,362.22Z"/><path class="cls-30" d="M325.89,593.36l6.93,6.31a4.33,4.33,0,0,0-1.37,1.58c-8.46,3.48-17.38,3.7-26.17,2.64-6.76-.81-12.85-4.31-18.75-7.76s-6.26-7.53-1.11-12.66a91.9,91.9,0,0,0,19.74-1.22,9.16,9.16,0,0,0,2.65,6.36C312.76,594.28,319.62,592.74,325.89,593.36Z"/><path class="cls-30" d="M310.64,575c1.23,5.9.5,6.74-5.48,7.3a91.9,91.9,0,0,1-19.74,1.22c-.51-4.93.6-10-.78-14.84.09-5.77-.85-11.46-1.25-17.19-.47-6.68-.85-13.39-.72-20.08.06-2.91.89-5.78-.35-8.63l.33-.34c5.1,4.33,9.07,3.22,13.22-1.82,3.24-3.94,7.55-7,11.38-10.45,0,.78.07,1.56.11,2.34-.6,7.81,1.21,15.39,2.27,23,1.38,10,3.28,19.91.64,30a12.82,12.82,0,0,0,0,3.16A28.57,28.57,0,0,0,310.64,575Z"/><path class="cls-30" d="M302.14,431c.46,2.39-.94,4-2.9,5.16-1.11.66-2.19,1.37-3.28,2.05l-5,1a16.08,16.08,0,0,0-5.63.94c-5.5.69-10.23,3.36-15,5.87-1.82,1-1.7,1.26,1.07,4.77l-10.78,7.27c-4.25-5.21-4.25-5.21-10-2.84l-2,0-.12-.11c.36-1.8,1.62-3.06,2.65-4.46.27-.37.89-.68.9-1,.1-5.12,4.86-4.64,7.7-6.44,1.66-1.06,3.36-2.05,5.05-3.07a22.17,22.17,0,0,0,12.2-7.49A20.43,20.43,0,0,1,284,427.1l4.86-1.07,5,0c1.27.2,2.55.36,3.81.61A5.32,5.32,0,0,1,302.14,431Z"/><path class="cls-30" d="M282.65,522.39l-.33.34c-2-.53-4-1.15-6.09-1.6-7.82-1.68-15.68-.53-23.48.16-4,.35-8.19.49-12.08,2l-12,1.49c-7.25.3-14.51.46-21.75,1-3.29.23-6-2-9.19-1.69-.14-.42-.15-1-.44-1.24-8.51-5.73-9.87-14.22-9.16-23.52.1-1.28.27-2.55.41-3.83a46.38,46.38,0,0,0,8.08,2.39c7.08,1.26,14.11.33,21.09-.29a128.35,128.35,0,0,0,18.79-2.73q16.81,9.93,33.61,19.88C274.29,517.2,278.46,519.82,282.65,522.39Z"/><path class="cls-30" d="M270,362.52c.33,6.56-1.88,10-8.06,12.44l-1.39.2a.94.94,0,0,0-.66,0c-6.46-.07-12.63-2.35-19.15-2.27-8.57.11-13,4.66-14.26,13.67-.66,4.54,0,9.14-1.22,13.59a14.86,14.86,0,0,1-8.29,11.29,23.16,23.16,0,0,1-9.29,2.76c-5.75.32-7.61,2.34-6.56,7.76.77,4.05,1.17,8.11,1.66,12.18,1.38,11.23-.19,21.61-8.86,29.88-4.16,3.08-8.47,5.85-13.79,6.43-4.48.49-8.61-.19-11.82-3.73,3.73-2,8.13-1.73,11.91-3.86,9.67-5.45,14.47-13.71,15.11-24.59.44-7.66-1.7-15.17-1.44-22.83.17-5,1.2-6.15,6.23-6.32a19,19,0,0,0,13.55-5.83c2.83-2.9,3.89-6.36,4.34-10.14.51-4.18,1.28-8.38,1.27-12.57,0-9.18,10.4-14.05,18.5-12.33a78.51,78.51,0,0,0,13.9,2c8.07.24,13.34-8.94,10.15-14.64a5.68,5.68,0,0,1-.46-3.44C265.22,353.26,269.76,358.72,270,362.52Z"/><path class="cls-30" d="M262.65,437.19c.88.81,2.42,1.26,2.08,3-1.69,1-3.39,2-5.05,3.07-2.84,1.8-7.6,1.32-7.7,6.44,0,.36-.63.67-.9,1-1,1.4-2.29,2.66-2.65,4.46l-.29.41.41-.3,2,0c-1.56,5-3.72,6.53-8.77,6.31s-8.55,4-7.2,8.83c.47,1.68,1.24,3.29,1.87,4.93l-5.06,4c-1.33,4.45,1.43,12.94,5.05,15.53a128.35,128.35,0,0,1-18.79,2.73c-7,.62-14,1.55-21.09.29a46.38,46.38,0,0,1-8.08-2.39c-2.57-2.74-1.63-5.57-.27-8.45,3.44-7.28,6-14.79,5.64-23,8.67-8.27,10.24-18.65,8.86-29.88-.49-4.07-.89-8.13-1.66-12.18-1-5.42.81-7.44,6.56-7.76a23.16,23.16,0,0,0,9.29-2.76,14.86,14.86,0,0,0,8.29-11.29c5.42,1.63,7.75,6.79,11.52,10.25,1.57-.77.75-2.45,1.54-3.44,4.12,5.28,8.15,10.54,11.27,16.57C252.49,429.18,258,432.9,262.65,437.19Z"/><path class="cls-30" d="M261.78,355.57c3.19,5.7-2.08,14.88-10.15,14.64a78.51,78.51,0,0,1-13.9-2c-8.1-1.72-18.53,3.15-18.5,12.33,0,4.19-.76,8.39-1.27,12.57-.45,3.78-1.51,7.24-4.34,10.14a19,19,0,0,1-13.55,5.83c-5,.17-6.06,1.34-6.23,6.32-.26,7.66,1.88,15.17,1.44,22.83-.64,10.88-5.44,19.14-15.11,24.59-3.78,2.13-8.18,1.87-11.91,3.86-3.44-3.74-3.63-6.09-.41-10.58,6.42-8.95,8.12-18.61,4.69-29.08a31.73,31.73,0,0,0-7-11.31c-9-10-8.7-17.32,1.14-26.59,2-1.92,4.34-3.57,6.51-5.34,5.17-3.11,10.92-4.86,16.49-7a45.15,45.15,0,0,0,4.32-1.54c6.54-3.08,8.66-7.22,7.42-14.3-.33-1.85-.74-3.7-1-5.57-1.07-7.48,1.61-12,8.84-14.39a32.88,32.88,0,0,1,25.48,1.94c7.06,3.47,14.05,6.64,22,7a7.48,7.48,0,0,1,4.58,2.2A5.68,5.68,0,0,0,261.78,355.57Z"/><path class="cls-30" d="M259.84,375.14a.88.88,0,0,0,0,.62,34.35,34.35,0,0,1-1.41,8.54c-3.44,7.49-8.8,12.68-17.15,14.22-1.49.28-1.78,1.37-2,2.53-.38,2-.69,3.93-1,5.89-.79,1,0,2.67-1.54,3.44-3.77-3.46-6.1-8.62-11.52-10.25,1.25-4.45.56-9.05,1.22-13.59,1.3-9,5.69-13.56,14.26-13.67C247.21,372.79,253.38,375.07,259.84,375.14Z"/><path class="cls-31" d="M486,444.88c10.41-2.68,21-4.24,31.93-5.85-2.19-3.85-3.47-7.42,0-10.84a15.36,15.36,0,0,1,7.82-1.36,21.85,21.85,0,0,1,3.65,1.27c1.88,1,2.68.44,3.75-1.32,5.31-8.7,14.93-12.73,24.27-10.42,9.08,2.25,15.69,10.32,16.48,20.3a3.48,3.48,0,0,0,2,3.3c8.55,4.88,12.23,12.44,11.53,22.15a9.44,9.44,0,0,0,1.21,5.62c3.82,6.88,3.67,13.92-.92,20.33-1.08,1.52-1.41,2.49-1,3.39a5.61,5.61,0,0,0,1.87,2,130.4,130.4,0,0,1,34.12,39.73c1.52,2.69,2.23,5.42,1.32,8.46a350.77,350.77,0,0,0-9.19,39.57c-2.11,11.83-4.37,23.64-5.39,35.63-.89,2.53-.9,5.2-1.2,7.81-3,21.18-4.66,42.48-6.63,63.75Q490.24,689.63,379,690.83l-162.31,1.83a288.33,288.33,0,0,0-2.93-36.18c-1.56-10.68-3-21.37-5.58-31.88a27.21,27.21,0,0,0-1.54-7.77,20,20,0,0,0-.24-2.44c-4.3-20.6-9.17-41.07-14.18-61.5-3.8-15.48-3.86-15.46,5.29-28.59a2.69,2.69,0,0,1,.22-.28"/><path class="cls-31" d="M432.13,442.44a158.37,158.37,0,0,1,26.25,5"/><path class="cls-32" d="M360.35,344.11l-1.92.24"/><path class="cls-32" d="M360.59,340.34c.13.1.25.19.36.29"/><path class="cls-32" d="M343.55,360.17c-2.76-2.64-4.83-5.84-7.1-8.88l-2.83-6c-3.51-10.65-4.51-21.43-1.53-32.38.37-1.36-.15-2.09-1.16-3-5.14-4.41-6.25-10.28-3.06-15.41s9-6.75,15.21-4a2.76,2.76,0,0,0,3.14-.24c12.1-8.17,22.12-8.06,33.55.35a2.51,2.51,0,0,0,3.31.27c6.12-3.41,12.68-1.72,16,3.88s1.61,12-4.34,15.89c-1.1.72-1.64,1.15-1.23,2.7,2.45,9.22,2,18.45-.29,27.64-.31.93-.61,1.85-.92,2.77"/><path class="cls-32" d="M551.32,478.59c3.73,1.64,7.21,8.45,6.15,12.76-1.31,5.3.61,9.61,4.07,13.13,4,4.12,9.15,4.94,14.67,3.08,1-.34,2-1.81,3.1-.63.81.91.09,2.21-.2,3.35-1.07,4.08-2,8.17-3,12.26"/><path class="cls-32" d="M400.93,568.61c8.37-3.12,17.84-4.26,24-11.66,9.65-11.65,19.3-23.32,27-36.41.48-.81,1-1.59,1.54-2.36,3.81-5.46,9-6.41,14.83-2.76"/><path class="cls-32" d="M331.45,601.25a3.74,3.74,0,0,1,5.07-1.78c5.49,1.64,11,3.25,16.59,4.51,1.82.41,1.85,2.19,3.36,2.77a43.79,43.79,0,0,0,13.28,3,2.85,2.85,0,0,0,3.18-2.19c1.05-3.22,2.35-6.38,2.49-9.83"/><path class="cls-31" d="M554.78,599.84a10,10,0,0,1,1.48,5.71c-.09,6.73,0,13.47,0,20.2,0,4.91-2.49,7.39-7.41,7.39H257.22c-4.16,0-7.51-2.21-7.74-6.2-.45-7.86-.88-15.76.27-23.63a8.83,8.83,0,0,1,1.57-3.48"/><path class="cls-32" d="M388.19,597.69c-2.15,2.16-5.4,2.23-7.73,4.14-1.74,1.44-3.48,2.91-2.66,5.24s3.07,2.93,5.31,2.62c7.78-1.06,15.73-.83,23.36-3.06,1-.29,2.35-.74,3.09-.32,4.81,2.7,9.74.41,14.57.43,4.35,0,5.63-2.09,3.57-5.24-.75-1.16-.49-2.51-.53-3.8"/><path class="cls-32" d="M460,443.81c-3.93-2.51-6.89-6.07-9.94-9.49-4.34-4.85-8.69-9.66-14-13.5-4.81-3.49-9.31-7.27-11.18-13.39-10.12,7.11-14.86,19.48-26.51,24.63,7.64.9,14.94,1.37,22.24,1.85,5.67.37,10,2.52,11.56,8.53-.05,8.68-5.73,14.38-15.45,15.59-8.51,1.05-17,1.63-25.58,2.34a96,96,0,0,1-28.32-1.71c-3.53-.75-6.86-2.39-10.28-3.63"/><path class="cls-32" d="M438.83,389.24a93.45,93.45,0,0,0,13.08,19.62c4.67,5.3,9.24,10.68,11.89,17.38a5.47,5.47,0,0,0,5.07,3.69c2.66.25,5.24,5.06,4.41,7.55"/><path class="cls-32" d="M380.28,409.2c3.58-2.58,8.15-3.13,11.71-5.73,9.23-6.73,18.41-13.55,28.05-19.69l4.24-1.84"/><path class="cls-31" d="M576.08,522.54c4,5.28,6.53,11.41,9.06,17.45,1,2.3-1.24,4.43-2.28,6.5-5,10-10.17,20-15.28,29.9q-5.49,10.68-11,21.34c-.44.85-.8,1.73-1.78,2.11a9.7,9.7,0,0,0-6.86-2.18q-8.16,0-16.31,0-52.22.06-104.44,0"/><path class="cls-32" d="M565.4,562.38c3.48-11.39,8.94-22.24,9.33-34.5a9.66,9.66,0,0,1,1.35-5.34"/><path class="cls-32" d="M427.17,597.7c-1-3.54-1.17-7.39-3.73-10.4-.74-.86-.14-1.59.72-1.94,8.48-3.53,15.87-9.2,24.47-12.5,3.75-1.44,7.47-.55,11.1.39a293.69,293.69,0,0,1,37.67,13c3.63,1.49,7.07,3,10,5.74,4.22,4,9.87,3.74,15,4.07,3,.2,6.14.44,9.23.44a36.32,36.32,0,0,0,9.43-1.08c1.67-.45,3.91-.32,4.54-2.69"/><path class="cls-32" d="M285.42,583.47c-5.15,5.13-4.84,9.18,1.11,12.66s12,7,18.75,7.76c8.79,1.06,17.71.84,26.17-2.64"/><path class="cls-31" d="M331.45,601.25c-1,2.65-3.64,2.93-5.78,3.36-13.25,2.66-25.93,1.22-37.58-6.06a7.07,7.07,0,0,0-4-.85c-8.63,0-17.25.08-25.87-.05a9.63,9.63,0,0,0-6.86,2.18c-.62-1-1.32-1.93-1.84-3-8.87-17.71-17.68-35.45-26.63-53.12a6.18,6.18,0,0,1,0-6.22c2.05-4.21,4.92-8.06,5.82-12.79"/><path class="cls-31" d="M352.5,455c-1.27,3.66-2.71,7.28-3.76,11-.71,2.55-1.67,3.16-4.18,2-1.7-.77-2.74-.95-3.18-.46s-.3,1.36.19,2.86c1.59,4.86-.05,7.84-3.74,11.09-9.28,8.16-18.11,16.84-27.12,25.31"/><path class="cls-32" d="M362,426.85,352.5,455"/><path class="cls-32" d="M240.67,523.24l-12,1.49c-7.25.3-14.51.46-21.75,1-3.29.23-6-2-9.19-1.69-.14-.42-.15-1-.44-1.24-8.51-5.73-9.87-14.22-9.16-23.52.1-1.28.27-2.55.41-3.83"/><path class="cls-32" d="M236.46,494.8q16.81,9.93,33.61,19.88c4.22,2.52,8.39,5.14,12.58,7.71"/><path class="cls-32" d="M282.32,522.73l.33-.34c5.1,4.33,9.07,3.22,13.22-1.82,3.24-3.94,7.55-7,11.38-10.45"/><path class="cls-32" d="M305.16,582.25a91.9,91.9,0,0,1-19.74,1.22c-.51-4.93.6-10-.78-14.84"/><path class="cls-32" d="M307.36,512.46c-.6,7.81,1.21,15.39,2.27,23,1.38,10,3.28,19.91.64,30a12.82,12.82,0,0,0,0,3.16"/><path class="cls-32" d="M400.93,568.61c-8.19,3.07-15.93,7.58-25,7.81a3.33,3.33,0,0,0-3.48,2.86,1.29,1.29,0,0,1-1.19,1.12c-.81,0-.75-.76-.94-1.28s-.44-1.34-.69-2c-1.5-3.94-2.89-4.18-5.58-1.09-3.7,4.25-7.41,8.13-13.57,9.2-4.62.8-8.7,4.24-13.83,3.26-.92-.17-1.89-.09-2.8-.28-4.44-.91-5.27-.49-6.68,3.75-.24.73-.45,1.48-1.28,1.4-6.27-.62-13.13.92-18.08-4.75a9.16,9.16,0,0,1-2.65-6.36c6-.56,6.71-1.4,5.48-7.3a28.57,28.57,0,0,1-.4-6.31"/><path class="cls-31" d="M310.24,568.64c20.18,0,40.36-.16,60.54.06,8.85.09,17.63-1.14,26.46-.77,1.25.06,2.63-.46,3.69.68"/><path class="cls-32" d="M495.75,520.79c.07-2.12.82-2.52,2.85-1.59,6.39,2.9,11.95-1.15,11.58-8.3-.05-.88,0-1.91.85-2.15,3.35-1,4.25-4.67,7.07-6.21.47-.26,1.1-.88,1.07-1.29-.41-6.5,4.49-11.33,5.37-17.4.69-4.72,2.65-9,4.76-13.16"/><path class="cls-32" d="M493,504.76c2.09,3.76,2,4.23-2,6a33.91,33.91,0,0,1-3.63,1.39c-1.09.35-2.22.55-3.64.89,2.87,4.66,7.65,5.87,12,7.75.12.2.34.41.34.61-.17,5.66,4.17,7.19,8.2,9,5.57,2.48,11.06,5.16,17.14,6.23"/><path class="cls-32" d="M498.83,535.9a49.05,49.05,0,0,0-23.38-8.32,13.15,13.15,0,0,1-6.92-2.44c-4.2-3.08-4.27-6.38-.24-9.72.91-.2,1.85-.34,2.74-.61s2.37.56,2.27-1.31c-.08-1.36-.43-2.72-2-2.92-3.24-.41-2.55-2.1-1.35-3.89.65-1,1.45-1.79,1.33-3.13-.22-2.47-.66-5.06,3.11-5.42.59-.05,1.13-1.4,1.59-2.21a101.88,101.88,0,0,1,10.55-15,13.36,13.36,0,0,1,4.42-4"/><path class="cls-32" d="M523,537.43a14.68,14.68,0,0,0-3.75,9.15"/><path class="cls-32" d="M458.38,447.47l1.57-3.66c3.73-3.6,7.84-6.42,13.33-6.33,4.06,2.76,7.91,5.91,12.72,7.4a21.44,21.44,0,0,0,12,6c.81.15,1.68,0,2.45.22,2,.6,4.35,1.13,4,4-.32,2.67-2.51,2.64-4.53,2.88a184.55,184.55,0,0,1-28.1,1.38,66.18,66.18,0,0,1-9.44-.8c-2.88-.52-5-2.19-4.67-5.59C457.84,451.17,458.14,449.33,458.38,447.47Z"/><path class="cls-32" d="M539.79,474.3A1.93,1.93,0,0,0,538,473c-3.12.13-5.84-1.26-8.66-2.26-7.83-6.76-10-14.4-6.21-22.09.63-1.3,1.19-3.53,2.82-3.13,2.05.51,4.77.28,5.85,3.09a17.4,17.4,0,0,0,5.14,7.08c1.35,1.13,2.43,3.56,4.84.67,1.19-1.42,3.07.18,4,1.64s1.21,3.27-.61,3.91c-2.2.77-1.74,2.09-1.43,3.53a27.78,27.78,0,0,0,5,10.41"/><path class="cls-32" d="M540.53,481.51c.78,2.3,1.91,1.45,3,.28,1.77-2,3.47-4,5.21-6a7.39,7.39,0,0,1,2.62,2.79c-.94,5.8-4.34,9.78-9.28,12.68a14.52,14.52,0,0,0-6.2,6.45,14,14,0,0,0-1.18,5.58c-.06,3.49-1.09,7-1.83,10.43-1.4,6.61-.31,13.18.32,19.74.55,5.72.41,6-4.78,3.78a5.41,5.41,0,0,0-5.36.18l-1.58-.81a5.36,5.36,0,0,1,.93-3.35c3.31-4,3.59-8.81,4.11-13.61.59-5.57,2.66-10.69,4.9-15.75,1-2.21,1.93-4.45,2.92-6.66.6-1.33,1.22-2.64,1.87-3.94a28.82,28.82,0,0,0,3.16-12.88"/><path class="cls-32" d="M480.31,492.81c.28-1.47.73-2.83,2.18-3.59"/><path class="cls-32" d="M478.27,501.38c-2-.54-3-1.32-.78-3"/><path class="cls-32" d="M492.41,504.86c-3,2.39-6.38,3-10.06,2.81-1-.05-1.86-.16-2-1.38"/><path class="cls-32" d="M493.16,485.68q-.09,6.74-.17,13.45"/><path class="cls-32" d="M486.71,484.2c.41-3,3.82-4.22,4.24-7.2,3.31-1.45,1.93,1.08,2,2.37"/><path class="cls-32" d="M492.41,504.86c-1.91-.07-4.39.6-4.25-2.58s2.46-3.25,4.83-3.15c0,1.88,0,3.76,0,5.63A4.22,4.22,0,0,0,492.41,504.86Z"/><path class="cls-32" d="M307.36,512.46c0-.78-.07-1.56-.11-2.34q1.74-1.62,3.46-3.26C312.26,511.9,311.87,512.57,307.36,512.46Z"/><path class="cls-32" d="M493.16,485.68c-3.64-1.64-3.69-3.14-.19-6.31C494.12,481.44,493.86,483.56,493.16,485.68Z"/><path class="cls-32" d="M168.26,466.7c-3.44-3.74-3.63-6.09-.41-10.58,6.42-8.95,8.12-18.61,4.69-29.08a31.73,31.73,0,0,0-7-11.31c-9-10-8.7-17.32,1.14-26.59,2-1.92,4.34-3.57,6.51-5.34,5.17-3.11,10.92-4.86,16.49-7a45.15,45.15,0,0,0,4.32-1.54c6.54-3.08,8.66-7.22,7.42-14.3-.33-1.85-.74-3.7-1-5.57-1.07-7.48,1.61-12,8.84-14.39a32.88,32.88,0,0,1,25.48,1.94c7.06,3.47,14.05,6.64,22,7a7.48,7.48,0,0,1,4.58,2.2"/><path class="cls-32" d="M193.87,464c-4.16,3.08-8.47,5.85-13.79,6.43-4.48.49-8.61-.19-11.82-3.73,3.73-2,8.13-1.73,11.91-3.86,9.67-5.45,14.47-13.71,15.11-24.59.44-7.66-1.7-15.17-1.44-22.83.17-5,1.2-6.15,6.23-6.32a19,19,0,0,0,13.55-5.83c2.83-2.9,3.89-6.36,4.34-10.14.51-4.18,1.28-8.38,1.27-12.57,0-9.18,10.4-14.05,18.5-12.33a78.51,78.51,0,0,0,13.9,2c8.07.24,13.34-8.94,10.15-14.64a5.68,5.68,0,0,1-.46-3.44c3.9,1.13,8.44,6.59,8.63,10.39.33,6.56-1.88,10-8.06,12.44l-1.39.2"/><path class="cls-32" d="M380.75,340.05a11.51,11.51,0,0,1,8.28,2c1.05.66,1.85,1.83,3.29,1.79,7.51,6.28,14.22,13.51,23,18.28,7.81,4.26,15.34,9.05,23,13.57a14,14,0,0,0,2.29.86A49,49,0,0,0,452,383.6c4.57,4.46,10.24,7.47,15.18,11.43.83.66,2.07,1,2.57,1.84,2.66,4.39,5.47,2.51,8.53.53,2.88-1.85,4-1.24,4.21,2.11.24,3.73,2.48,6.79,3.31,10.36a201.42,201.42,0,0,1,3.72,22.19,9.5,9.5,0,0,1-1.31,6.05"/><path class="cls-32" d="M466.87,417.62c-4.46-1.52-4.59-1.67-3-5.94.72-2,1-3.74-.19-5.68a31.92,31.92,0,0,1-2-4.51c-2.27-5.32-5.16-9.56-11.95-9.51-3.72,0-7.08-2.44-10.89-2.74l-14.55-7.3a60.92,60.92,0,0,0-10.48-6.17c-2.32-2.59-5.58-3.83-8.39-5.69-6.26-4.14-12.76-7.86-20.36-9"/><path class="cls-32" d="M378.15,341c.65-.9,1.72-.7,2.6-1q2.14,10.5,4.3,21c.51,5.22,2.48,10,4.63,14.7a23,23,0,0,1,.64,7.83c-1.67,3.7-4.65,6.42-7.19,9.46-4.05,4.85-4.39,10.32-2.85,16.14.93,3.67-1,5.76-3.7,7.95-4.56,3.76-9.11,7.43-14.63,9.7q4.43-13.75,8.87-27.5c1.68-5.17,1.36-5.88-3.93-8"/><path class="cls-32" d="M358.43,344.35l1.92-.25"/><path class="cls-32" d="M378.15,341c0,4.37,2.14,8.16,3.38,12.19,1.63,5.29,2.51,10.54.28,15.88-1.12,2.72-2.49,5.18-5.85,5.41s-5.23-1.8-6.65-4.41c-3.6-6.58-5.12-13.89-7.35-21-.53-1.68-1.07-3.35-1.61-5h0c1.55-1.55,1.57-2.57.6-3.47-.11-.1-.23-.19-.36-.29a10.29,10.29,0,0,0-1.45-.86,16.13,16.13,0,0,1-7.58-21.83c2.58,4.42,6.58,5.29,11.19,5,6.12-.34,12.28.5,18.37-.45,2.33-.36,2,1.2,1.93,2.36a16.66,16.66,0,0,1-6.22,13c-.72.59-1.66,1-1.28,2.24S377.07,341.06,378.15,341Z"/><path class="cls-32" d="M338.55,383.59c1.35-2.26.39-4.75.72-7.1a71.89,71.89,0,0,0,4.28-16.32c1.19-2.74,2.23-5.56,3.6-8.21,2.35-4.54,5.92-7.45,11.28-7.61,1.41,6,2.75,11.94,4.28,17.87a8.87,8.87,0,0,1-.24,5.49q-3.74,10.13-7.4,20.26c-.39,1.1-.66,2.25-1,3.37"/><path class="cls-32" d="M225.21,400.13c1.25-4.45.56-9.05,1.22-13.59,1.3-9,5.69-13.56,14.26-13.67,6.52-.08,12.69,2.2,19.15,2.27"/><path class="cls-32" d="M259.86,375.76a34.35,34.35,0,0,1-1.41,8.54c-3.44,7.49-8.8,12.68-17.15,14.22-1.49.28-1.78,1.37-2,2.53-.38,2-.69,3.93-1,5.89"/><path class="cls-31" d="M366.89,391.4a4.63,4.63,0,0,1-2.1,3.55"/><path class="cls-32" d="M338.55,383.59c.05,7.83.05,7.83,7.85,7.81l7.69-.06,12.8.06"/><path class="cls-31" d="M284,427.1c.7-4.2,2.49-8.06,3.73-12.09,2-6.61,4.24-13.17,6.32-19.77.51-1.61,1.21-2.44,3.16-2.5,10.46-.34,20.9-.91,31.37-.65h1.75c5.8,0,5.84,0,6-5.83.05-1.56.13-2.86,2.18-2.67"/><path class="cls-32" d="M259.86,375.76a.88.88,0,0,1,0-.62.94.94,0,0,1,.66,0Z"/><path class="cls-32" d="M565.4,562.38c.48,2.3-1,3.84-2.35,5.22-2.45,2.56-3.14,5.59-3.3,8.94-.21,4.41-1.26,8.54-4.29,12-2.64,3-5.72,4.84-9.88,4.26-4.18-2.09-5.28-6.08-6.29-10.15-.45-1.82-1.66-3.86-1.19-5.4.52-1.7,3.27-1.21,4.87-2.15C550.37,570.7,558.44,567.53,565.4,562.38Z"/><path class="cls-32" d="M535.69,565.87c-.26,2.33.85,5.56-.83,6.42s-3.55-2-5.41-3.14a11.58,11.58,0,0,1-1.65-1.33c-2.21-2-4.24-5-2.86-7.36,1.16-2,4.58-3,7.45-3.11a2.51,2.51,0,0,1,3,2.65C535.48,562,535.59,564,535.69,565.87Z"/><path class="cls-32" d="M458.54,549.47c1.85-2.73,3.35-4.82,4.73-7,.83-1.3,2-2.23,3.05-.83,2.33,3.2,5.54,5.62,8.28,9.24A99.49,99.49,0,0,1,458.54,549.47Z"/><path class="cls-32" d="M375.42,597.73c.8-5.45,2.66-6.79,7.67-5.07,4.32,1.49,8.3.7,12.46-.91-1.7,2.94-4.57,4.4-7.36,5.94"/><path class="cls-31" d="M388.19,597.69l-12.77,0"/><path class="cls-32" d="M514.4,548.81c-3.79-4.16-8.8-6.76-13.16-10.2-.94-.74-2.46-1.06-2.41-2.71q9.26,5,18.5,10"/><path class="cls-32" d="M514.4,548.81a7.19,7.19,0,0,0,2.93-2.88l1.93.65a4.79,4.79,0,0,1,.13,1c-.1,1.35,1.39,3.53.11,3.8A4.22,4.22,0,0,1,514.4,548.81Z"/><path class="cls-32" d="M413.62,573.93c.9,1.39,2.56,2.61,1.77,4-.54.95-2.62.39-3.22-.29C410.72,576,413,575.22,413.62,573.93Z"/><path class="cls-32" d="M231.41,479.27c-1.33,4.45,1.43,12.94,5.05,15.53a128.35,128.35,0,0,1-18.79,2.73c-7,.62-14,1.55-21.09.29a46.38,46.38,0,0,1-8.08-2.39c-2.57-2.74-1.63-5.57-.27-8.45,3.44-7.28,6-14.79,5.64-23,8.67-8.27,10.24-18.65,8.86-29.88-.49-4.07-.89-8.13-1.66-12.18-1-5.42.81-7.44,6.56-7.76a23.16,23.16,0,0,0,9.29-2.76,14.86,14.86,0,0,0,8.29-11.29c5.42,1.63,7.75,6.79,11.52,10.25,1.57-.77.75-2.45,1.54-3.44,4.12,5.28,8.15,10.54,11.27,16.57,3,5.67,8.44,9.39,13.11,13.68.88.81,2.42,1.26,2.08,3"/><path class="cls-32" d="M480.85,431.9c-3.3-3.33-6.85-6.42-9.74-10.14"/><path class="cls-32" d="M487.35,428.12c.2,3.34,1.18,6.61.81,10-2.23,1.21-2.48-1.13-3.56-2"/><path class="cls-32" d="M485.29,416.85c.87,1.35.76,2.87.75,4.37"/><path class="cls-32" d="M481.73,406.91a4.42,4.42,0,0,1,1.49,3.68"/><path class="cls-32" d="M467.62,415.67c1.29-6.57,6.08-10.11,11.64-12.52,2.54-1.1,2.29,1.69,2.45,3.33"/><path class="cls-32" d="M467.62,415.67c1.74-1.15,3.55-1.59,5,.31,1.79,2.4,0,4.1-1.48,5.78a18.51,18.51,0,0,1-4.24-4.14Z"/><path class="cls-32" d="M480.85,431.9c1.36-1.17,2.94-1.33,3.95.12.82,1.17,2.1,2.86-.2,4.1C483.18,434.86,481.66,433.7,480.85,431.9Z"/><path class="cls-32" d="M240.67,523.24c3.89-1.46,8.06-1.6,12.08-2,7.8-.69,15.66-1.84,23.48-.16,2,.45,4.06,1.07,6.09,1.6,1.24,2.85.41,5.72.35,8.63-.13,6.69.25,13.4.72,20.08.4,5.73,1.34,11.42,1.25,17.19"/><path class="cls-31" d="M284.64,568.63c-10.51,0-21,0-31.53,0-2.07,0-2.94-.39-3.42-2.76-2.85-14.25-6-28.45-9-42.66"/><path class="cls-31" d="M292.41,421.12c.9-6.34,3.67-12.11,5.56-18.15s1.95-5.94,8-5.92c9.88,0,19.75-.57,29.61-.93,7-.25,14.1-.27,21.14-.47,2.7-.08,5.3-1.19,8.05-.7-.07,5-2.33,9.33-3.89,13.86-4.47,13-9.52,25.84-13.72,38.94-1.72,5.36-4.36,10.36-5.7,15.83-.31,1.27-.81,2.22-2.28,2.24"/><path class="cls-31" d="M331.44,472.92a3.68,3.68,0,0,1-1.59,3.35c-7.15,6.27-14.32,12.52-21.44,18.82-5.29,4.67-10.57,9.34-15.74,14.14-4.1,3.82-4.11,3.95-8.92,1.18q-20.62-11.88-41.25-23.81c-1-.56-1.82-1.09-1.83-2.34"/><path class="cls-31" d="M285.32,440.15c-2,8.06-2,8,6.25,10.64q16.29,5.15,32.56,10.34c5,1.61,9.72,4.18,15.07,4.69l.95,1.35a6,6,0,0,0-.55.31c-2.75,1.77-4.08,5.69-8.16,5.44q-19.32-6.75-38.63-13.49a64.66,64.66,0,0,1-7.6-2.83c-4.27-2.11-7.73-1.24-11.22,1.81-10,8.74-21.19,15.94-31.69,24a11.88,11.88,0,0,0-1.63,1.82c-3.81-.33-6.61-2.51-9.26-5"/><path class="cls-32" d="M231.41,479.27l5.06-4"/><path class="cls-32" d="M540.53,481.51l-1.21-1.08a20.67,20.67,0,0,1,.47-6.13C542.08,476.49,541.62,479,540.53,481.51Z"/><path class="cls-32" d="M478.27,501.38c.62-.28,1.25-.56,1.87-.86,1.82-.86,3.5-.79,4.28,1.29s-.32,3.54-2.37,4.22a9.67,9.67,0,0,1-1.71.26A6.76,6.76,0,0,1,478.27,501.38Z"/><path class="cls-32" d="M486.71,484.2c1.88,1.13,1.84,2.69.66,4.18s-3,2.21-4.88.84C483.74,487.41,484.72,485.38,486.71,484.2Z"/><path class="cls-32" d="M480.31,492.81c1.43,3.7.87,4.81-2.82,5.61C477.55,496.11,478.92,494.45,480.31,492.81Z"/><path class="cls-32" d="M488.93,491.45c1.59.19,2.71,1,2.72,2.63a3.3,3.3,0,0,1-3.47,3.58,2.54,2.54,0,0,1-2.8-2.52C485.24,492.78,487.12,492.1,488.93,491.45Z"/><path class="cls-32" d="M481.73,406.91c0,.47,0,.93,0,1.4,0,2.41-.92,4.39-3.6,4.11a2.78,2.78,0,0,1-2.46-3.87c.78-2.46,2.39-3.74,5.11-2.65a5.34,5.34,0,0,1,.88.58A2,2,0,0,0,481.73,406.91Z"/><path class="cls-32" d="M487.35,428.12c-1.72.17-3.65.66-4.1-1.84s0-4.39,2.79-5.06C487.11,423.4,486.72,425.86,487.35,428.12Z"/><path class="cls-32" d="M485.29,416.85c-3.9-.7-4.53-2.6-2.07-6.26A16,16,0,0,1,485.29,416.85Z"/><path class="cls-32" d="M291,439.21a16.08,16.08,0,0,0-5.63.94c-5.5.69-10.23,3.36-15,5.87-1.82,1-1.7,1.26,1.07,4.77l-10.78,7.27"/><path class="cls-32" d="M248.43,455.16c.36-1.8,1.62-3.06,2.65-4.46.27-.37.89-.68.9-1,.1-5.12,4.86-4.64,7.7-6.44,1.66-1.06,3.36-2.05,5.05-3.07a22.17,22.17,0,0,0,12.2-7.49A20.43,20.43,0,0,1,284,427.1l4.86-1.07"/><path class="cls-32" d="M250.57,455.22l-2,0"/><path class="cls-31" d="M288.88,426c0-2.47-.85-5.58,3.53-4.91.87,1.13,2.15,1.29,3.43,1.55A100.24,100.24,0,0,1,323,432.2c1.08.57,2.61.71,2.78,2.39"/><path class="cls-32" d="M293.87,426l-5,0"/><path class="cls-32" d="M250.57,455.22c5.79-2.37,5.79-2.37,10,2.84-7.86,6-15.94,11.71-24.14,17.23-.63-1.64-1.4-3.25-1.87-4.93-1.35-4.87,2.1-9.05,7.2-8.83S249,460.2,250.57,455.22Z"/><path class="cls-32" d="M248.55,455.27l-.41.3.29-.41Z"/><path class="cls-32" d="M474.63,421.7c.2-1.6.52-3,3-3.14s3.29,1.26,3.2,3.05-1.13,3.75-3.44,3.71C475.39,425.28,474.65,423.81,474.63,421.7Z"/><path class="cls-32" d="M296,438.24c1.09-.68,2.17-1.39,3.28-2.05,2-1.17,3.36-2.77,2.9-5.16a5.32,5.32,0,0,0-4.46-4.44c-1.26-.25-2.54-.41-3.81-.61"/><path class="cls-31" d="M319.51,440.16l-13.66,2.93"/><path class="cls-31" d="M319.53,432.46c2.22.3,3.84,2.34,6.24,2.13.55,1.19,2.81.27,2.76,2.19s-1.86,1.38-2.86,2"/><path class="cls-31" d="M308.9,428.21a6.63,6.63,0,0,1,4.15,1.49"/><path class="cls-31" d="M293.87,426c3.18-1.54,6.06.2,9.05.8"/><path class="cls-32" d="M291,439.21l5-1"/><path class="cls-31" d="M300.25,444.49c-4,3.23-3.95,3.23-7.64-1.56a6.69,6.69,0,0,1-1.66-3.72"/><path class="cls-31" d="M296,438.24a9,9,0,0,0,2.93,4.84"/><path class="cls-31" d="M298.89,443.08c-.12-2.16.26-4.15,2.92-4.17s4,1.55,4,4.18l-5.6,1.4"/><path class="cls-31" d="M319.51,440.16a2.73,2.73,0,0,1,2.31-3.36c1.75-.38,3.29-.09,3.85,2Z"/><path class="cls-31" d="M258.37,480.06c-.86-.12-2.12.08-1.95-1.26.23-1.83,2-1.93,3.33-2.38"/><path class="cls-31" d="M266.12,473.51a110.66,110.66,0,0,1,14.23-7"/><path class="cls-31" d="M286,463.56c3.16-4.94,4-4.77,8.61-1,7,5.74,8.29,13.9,10.25,21.86a2,2,0,0,1-2.19,2.51c-2.69-.4-5.57.06-8.08-1.42"/><path class="cls-31" d="M295.39,483.52c2.13.21,2.82-.24,2.23-2.74-1.22-5.18-2.63-10.16-6.66-13.95-.84-.8-1.55-1.8-2.9-1.74"/><path class="cls-31" d="M280.91,483.54c1.16-3.54,2.83-3.83,7.34-.93-.84-1.55,1.59-2.49-.21-4a3.14,3.14,0,0,1-.48-4.43c1-1.44,2.39-1.43,3.76-1.15,1.73.36,3.2,1.52,3.17,3.28-.05,2.49,1,4.79.9,7.25-.27.66-.55,1.32-.83,2a9.59,9.59,0,0,1-4.23.1"/><path class="cls-31" d="M275.43,482.88c1.69,1.33,3.66.4,5.48.66,2,0,4,.11,6,0a3.57,3.57,0,0,1,3.42,2c-1.5,1.44-3.39.83-5,.69-8-.68-16-1.55-23.71-4-1.29-.41-2.87-.47-3.23-2.24,3.08.51,6.07,1.59,9.26,1.37"/><path class="cls-31" d="M288.06,465.09c0,1.87,1.05,4.23-1.8,4.92-3,.73-4.92-.72-5.91-3.54a20.57,20.57,0,0,1,5.62-2.91"/><path class="cls-31" d="M266.12,473.51c.38,2.43-.49,3.91-3,4.59-1.82.5-2.87.12-3.39-1.68A15.68,15.68,0,0,1,266.12,473.51Z"/><path class="cls-31" d="M319.53,432.46c-.44,1.73-1.26,3.15-3.34,2.58-2.69-.73-3.59-2.68-3.14-5.34A20.43,20.43,0,0,1,319.53,432.46Z"/><path class="cls-31" d="M308.9,428.21c-.3,1.5-1.19,2.33-2.72,2.05-1.89-.33-3.24-1.32-3.26-3.48A18.17,18.17,0,0,1,308.9,428.21Z"/><path class="cls-31" d="M312.73,438.49a2.67,2.67,0,0,1-2.89,2.35c-2.43-.14-3.72-1.79-3.89-4.21-.14-1.87,1.18-2.57,2.65-2.59C311.09,434,312.42,435.52,312.73,438.49Z"/><path class="cls-31" d="M300.25,444.49l-.64-.65-.77-.74.05,0"/><path class="cls-31" d="M277.85,470a3.86,3.86,0,0,1,3.9,3.8,3,3,0,0,1-3.24,3.3,4.07,4.07,0,0,1-4.42-4.05C274,470.89,275.5,470.05,277.85,470Z"/><path class="cls-31" d="M275.43,482.88a18.63,18.63,0,0,1-7.8-1.45c.37-2.18,1.22-3.72,3.89-3.17S275.77,480,275.43,482.88Z"/><path class="cls-32" d="M288.06,465.09c-.19-.21-.38-.43-.58-.64l-.76-.76-.75-.13"/><line class="cls-32" x1="579.31" y1="506.93" x2="586.62" y2="491.45"/><polyline class="cls-32" points="325.89 593.36 332.82 599.67 332.83 599.68"/></svg>