<?xml version="1.0" encoding="utf-8"?>
<!-- Generator: Adobe Illustrator 24.2.0, SVG Export Plug-In . SVG Version: 6.00 Build 0)  -->
<svg version="1.1" id="Layer_1" xmlns="http://www.w3.org/2000/svg" xmlns:xlink="http://www.w3.org/1999/xlink" x="0px" y="0px"
	 viewBox="0 0 47.8 48" style="enable-background:new 0 0 47.8 48;" xml:space="preserve">
<g>
	<path d="M40.4,4.8c-1.1,0-2.1,0.8-2.4,1.8c-2.2,0.8-5.2,2.8-7.5,4.6C21,6.2,9.4,13,9.4,23.9c0,2.3,0.6,4.6,1.7,6.7
		c-1.8,2.4-3.9,5.4-4.6,7.7c-1,0.4-1.6,1.3-1.6,2.3c0,1.4,1.1,2.6,2.5,2.6c1.2,0,2.2-0.8,2.4-1.9c2.2-0.8,5.1-2.8,7.3-4.6
		c2.1,1.1,4.4,1.7,6.7,1.7c8,0,14.5-6.5,14.5-14.5c0-2.3-0.6-4.6-1.7-6.7c1.8-2.3,3.8-5.3,4.6-7.5c1-0.3,1.8-1.3,1.8-2.4
		C43,6,41.8,4.8,40.4,4.8z M40.4,6.4c0.5,0,0.9,0.4,0.9,0.9s-0.4,0.9-0.9,0.9l0,0c-0.4,0-0.7-0.2-0.9-0.6
		C39.3,7.1,39.8,6.4,40.4,6.4z M21.2,11.4l-1.3,1.3c-0.3,0.3-0.3,0.8,0,1.1c0.3,0.3,0.8,0.3,1.1,0l2.6-2.6c0.1,0,0.1,0,0.2,0
		c1.9,0,3.9,0.5,5.6,1.3l-2.1,2.1c-0.3,0.3-0.3,0.8,0,1.1c0.3,0.3,0.8,0.3,1.1,0l2.4-2.4c1.5,1,2.8,2.2,3.8,3.9
		c-2.6,3.2-5.4,6.4-8.4,9.3c-2.9,2.9-6.1,5.9-9.3,8.4c-0.7-0.5-1.1-0.8-1.4-1.1l2.2-2.2c0.3-0.3,0.3-0.8,0-1.1
		c-0.3-0.3-0.8-0.3-1.1,0l-2.2,2.2c-2.2-2.4-3.3-5.2-3.4-8.4l5-5c0.3-0.3,0.3-0.8,0-1.1c-0.3-0.3-0.8-0.3-1.1,0l-3.8,3.8
		C12,16.7,16.1,12.4,21.2,11.4z M7.3,41.6c-0.5,0-0.9-0.4-0.9-0.9s0.3-0.8,0.8-0.9h0.1c0.5,0,0.9,0.4,0.9,1
		C8.2,41.2,7.8,41.6,7.3,41.6z M9.6,39.6c-0.2-0.6-0.9-1.1-1.5-1.4c0.6-1.5,1.9-3.6,3.8-6.1c0,0.1,0.1,0.1,0.1,0.2
		c1,1.5,2.3,2.6,3.6,3.6C13.2,37.7,11.1,39,9.6,39.6z M24.8,36.8l1.5-1.5c0.3-0.3,0.3-0.8,0-1.1c-0.3-0.3-0.8-0.3-1.1,0l-2.6,2.6
		c-1.4-0.2-2.8-0.5-4.2-1.1c3-2.4,6.1-5.3,8.9-8.1c3.1-3.1,6-6.3,8.1-8.9c0.2,0.5,0.4,1,0.6,1.6l-4.4,4.4c-0.3,0.3-0.3,0.8,0,1.1
		c0.3,0.3,0.8,0.3,1.1,0l3.7-3.7c0.1,0.6,0.2,1.3,0.2,1.9C36.7,30.7,31.5,36.2,24.8,36.8z M35.7,15.8c-1-1.4-2.3-2.7-3.8-3.7
		c2.5-1.8,4.6-3.2,6.1-3.8c0.3,0.5,0.8,1,1.5,1.4C38.9,11.1,37.6,13.3,35.7,15.8z"/>
	<path d="M42.6,38.3c0-1.9-1.5-3.4-3.4-3.4s-3.4,1.5-3.4,3.4c0,1.9,1.5,3.4,3.4,3.4S42.6,40.2,42.6,38.3z M37.3,38.3
		c0-1,0.8-1.8,1.8-1.8s1.8,0.8,1.8,1.8c0,1-0.8,1.8-1.8,1.8S37.3,39.3,37.3,38.3z"/>
	<path d="M8.6,13.1c1.8,0,3.4-1.5,3.4-3.4s-1.5-3.4-3.4-3.4S5.2,7.8,5.2,9.7S6.7,13.1,8.6,13.1z M8.6,7.9c1,0,1.8,0.8,1.8,1.8
		s-0.8,1.8-1.8,1.8s-1.8-0.8-1.8-1.8C6.8,8.7,7.6,7.9,8.6,7.9z"/>
</g>
</svg>
