<?xml version="1.0" encoding="utf-8"?>
<!-- Generator: Adobe Illustrator 24.3.0, SVG Export Plug-In . SVG Version: 6.00 Build 0)  -->
<svg version="1.1" id="Layer_1" xmlns="http://www.w3.org/2000/svg" xmlns:xlink="http://www.w3.org/1999/xlink" x="0px" y="0px"
	 viewBox="0 0 800 800" style="enable-background:new 0 0 800 800;" xml:space="preserve">
<style type="text/css">
	.st0{fill:#FF9A26;}
	.st1{fill:#253857;}
	.st2{fill:#E0B872;}
	.st3{fill:#7B4040;}
	.st4{fill:#48736C;}
	.st5{fill:none;}
	.st6{fill:none;stroke:#000000;stroke-miterlimit:10;}
</style>
<path class="st0" d="M719.2,166c8.9,13.9,8.4,29,5.8,44.4c-4.8,28.4-17.8,53.4-32,78.1c-25.1,43.6-54.6,84.1-88.1,121.5
	c-27.9,31.2-57.4,61-89.8,87.7c-30.1,24.8-63,45.3-95.8,66c-0.5,0.3-1.2,0.4-2.2-0.2c1.5-1,2.9-2.2,4.4-3.1
	c35-20.9,68.6-43.7,98.6-71.4c22.2-20.5,43.5-42.1,64.8-63.5c27.5-27.5,51.2-58.2,73.2-90c20.7-29.9,40.8-60.4,53.9-94.6
	c5-13.1,7.7-27.3,10.2-41.3c2.1-11.9-0.3-23.4-7.2-33.7C716.4,166,717.8,166,719.2,166z"/>
<path class="st1" d="M712,382.1c-4.6,13.7-13.3,22.9-27.8,25.9c-17.8,3.6-36-7.2-40.7-24.4c-4.9-17.8,4.6-35.8,22-41.7
	c17.7-6,37,2.1,44.1,18.7c0.8,2,1.6,4,2.4,6C712,371.7,712,376.9,712,382.1z"/>
<path class="st0" d="M609.2,147.4c9.2,1.3,22.4,1.8,34.8,5c34,8.7,51.8,35.5,48.7,70.5c-2.9,32.7-15.9,61.7-32.5,89.3
	c-33.6,56-77.7,103-126.8,145.5c-53.9,46.7-112.5,86.5-177,117.2c-35.5,16.8-72.1,30.6-111.1,37c-24.1,4-48.2,5.4-71.9-2.3
	c-33.6-11-47-37.9-44.3-70.2c3-36.5,19.2-68.2,38.4-98.3c33.2-52,75.2-96.4,121.8-136.5c53-45.6,110.3-84.8,173.5-115.1
	c36.7-17.6,74.6-31.9,115.1-38.3C587,149.6,596.2,148.9,609.2,147.4z M216.5,609.5c4.4-0.4,11.4-0.8,18.3-1.7
	c37.2-4.8,72.3-16.8,106.4-32.1c78.7-35.3,148.4-84.1,211.3-142.7c43.4-40.4,82.3-84.6,110.7-137c13-24,23.1-49,24.6-76.9
	c1.5-28.2-13.7-51.5-40.5-60.4c-18.8-6.3-38.2-6.3-57.6-4c-37.1,4.3-72.1,16-106,31.2c-93.9,42.1-175.4,101.8-246.4,176
	c-33.7,35.2-63.8,73.3-84.8,117.7c-11.3,23.8-20.3,48.3-17.7,75.4c2,21.1,12.5,36.7,31.8,46C181.5,608.1,197.5,609.5,216.5,609.5z"
	/>
<path class="st0" d="M174.3,398.5c-7.3,10.5-14.1,20.2-20.9,29.9c-31.6,45-52.3,94.6-60.4,149c-3.7,25-2.7,49.8,10.2,72.9
	c4,7.2,9.5,12,16.4,16c35.2,19.9,72.5,19.5,110.9,12.9c55.7-9.7,108.5-28.2,158.1-54.4c33.4-17.6,64.9-39.5,95.6-61.8
	c43.6-31.6,83.7-67.6,122.3-105.1c2.6-2.5,5.7-4.5,8.5-6.8c0.5,0.5,0.9,1,1.4,1.5c-7.3,7.7-14.3,15.9-22.1,23.1
	c-45.4,42.3-92,83-143.4,118.1c-47.5,32.4-98.7,56.9-153.3,73.9c-37.4,11.7-75.6,21-115.3,20c-20.2-0.5-39.6-4.7-57.8-13.8
	c-21.6-10.7-32.1-28.9-35.6-51.9c-4.3-28,0.4-55.2,7.5-82.3c9.7-36.7,25.7-70.4,46.9-101.7c8.9-13.2,19.1-25.7,28.7-38.5
	C172.2,399.2,172.9,399.1,174.3,398.5z"/>
<path class="st2" d="M242.2,268.6c15.3,0,27,11.4,27,26.2c-0.1,14.9-11.7,26.2-27,26.2c-15.5,0-26.8-11.1-26.9-26.2
	C215.3,279.9,226.9,268.6,242.2,268.6z"/>
<path class="st0" d="M523,229.9c8.5,1.4,15.5,1.9,22.2,3.8c20,6,30,22.7,27.5,44.7c-1.6,14.1-6.3,27.2-12.7,39.7
	c-17.2,33.8-41.5,62-68.9,87.7c-42.3,39.5-89.1,72.1-143.4,93.3c-17.8,6.9-36.1,12-55.2,12.9c-6.7,0.3-13.7,0.2-20.3-1.1
	c-25.5-5-37.7-23.2-33.5-49.2c3.9-24.1,15.3-44.8,29-64.4c32.9-47.1,75.2-84.2,122.9-115.5c30.4-20,62.5-36.6,97.9-45.7
	C500.1,233.1,512.3,231.8,523,229.9z M287.8,509.1c17.8-1.3,34.8-5.2,51-11.4C420.2,466.5,486.2,415,538,345.4
	c13.9-18.7,25-39,29.5-62.3c5-25.5-6.2-42.4-31.6-46.9c-15-2.7-29.9-0.2-44.5,3.5c-36.3,9.3-69,26.3-100,46.8
	c-46.6,30.8-87.8,67.4-120.2,113.3c-13,18.4-23.7,37.9-28.1,60.4c-4.2,21.5,3.7,38.3,21.8,44.4C272.3,507,280.2,507.6,287.8,509.1z"
	/>
<path class="st0" d="M353.6,422.9c-4.3-0.6-9-0.8-13.4-2c-18.3-5.2-24.9-21.2-16.9-40.7c6.2-15.1,16.3-27.4,28.3-38.2
	c22.2-20,47.1-35.1,76.9-40.8c7.2-1.4,14.8-1.6,22-1.1c20.6,1.6,30.6,17,24.6,36.8c-4.5,15-13.7,27-24.5,37.8
	c-23,22.9-49.8,39.3-81.9,46.2C363.9,421.9,358.9,422.2,353.6,422.9z M443.2,306.2c0-0.2,0-0.3,0-0.5c-4.2,0.5-8.4,0.6-12.5,1.5
	c-37.6,8.4-68,28.4-91.2,58.7c-5.5,7.2-9.3,16.3-12,25.1c-3.4,10.9,2.1,20.5,13.3,22.9c8,1.7,16.8,1.9,24.8,0.6
	c26.7-4.5,49.4-17.8,69.9-35c14.5-12.2,27.2-26,33.1-44.6c5.1-16-2.8-27.5-19.5-28.8C447.2,306.1,445.2,306.2,443.2,306.2z"/>
<path class="st0" d="M669,359c7-9.2,13.4-17.7,19.8-26.2c30-39.4,50.4-83.3,59.5-131.9c4.2-22.3,4.2-44.7-6.6-65.9
	c-3.3-6.6-8.1-11.2-14.2-14.9c-31-19.1-64.5-20.1-99.3-15.5c-50.4,6.8-98.6,21.6-144.2,43.4c-30.7,14.7-59.8,33.2-88.1,52.2
	c-40.3,26.9-77.7,57.8-113.7,90.3c-2.4,2.2-5.2,3.9-7.9,5.8c-0.4-0.5-0.8-0.9-1.2-1.4c6.9-6.7,13.4-13.8,20.7-20
	c42.3-36.4,85.7-71.4,133.2-101.2c43.9-27.5,90.8-47.7,140.5-61.1c34-9.2,68.7-16.2,104.5-13.9c18.2,1.2,35.4,5.7,51.6,14.4
	c19.1,10.4,27.9,27.1,30.2,47.9c2.9,25.4-2.3,49.7-9.7,73.8c-10,32.7-25.6,62.5-45.7,89.9c-8.5,11.6-18,22.4-27.1,33.6
	C671,358.4,670.4,358.5,669,359z"/>
<circle class="st3" cx="623" cy="149" r="29"/>
<circle class="st0" cx="120" cy="659" r="48"/>
<circle class="st4" cx="257" cy="404" r="32"/>
<g>
	<rect x="161.6" y="731" class="st5" width="134.3" height="49"/>
	<path d="M167.5,732.3v10.2h11.7v-10.2h3.2v24.3h-3.2v-11.4h-11.7v11.4h-3.1v-24.3H167.5z"/>
	<path d="M189.5,748.4c0.1,4.3,2.8,6,6,6c2.3,0,3.6-0.4,4.8-0.9l0.5,2.3c-1.1,0.5-3,1.1-5.8,1.1c-5.4,0-8.6-3.5-8.6-8.8
		c0-5.3,3.1-9.4,8.2-9.4c5.7,0,7.2,5,7.2,8.2c0,0.7-0.1,1.2-0.1,1.5L189.5,748.4L189.5,748.4z M198.8,746.1c0-2-0.8-5.2-4.4-5.2
		c-3.2,0-4.6,3-4.9,5.2H198.8z"/>
	<path d="M206.9,739.1l3.8,10.3c0.4,1.2,0.8,2.5,1.1,3.6h0.1c0.3-1,0.7-2.4,1.1-3.6l3.5-10.2h3.4l-4.8,12.4c-2.3,6-3.8,9-6,10.9
		c-1.6,1.4-3.1,1.9-3.9,2l-0.8-2.7c0.8-0.2,1.8-0.8,2.8-1.5c0.9-0.7,1.9-1.9,2.7-3.5c0.1-0.3,0.2-0.6,0.2-0.8s-0.1-0.4-0.2-0.8
		l-6.4-16L206.9,739.1L206.9,739.1z"/>
	<path d="M222.1,754.7c0-1.3,0.9-2.2,2.1-2.2c1.3,0,2.1,0.9,2.1,2.2c0,1.3-0.8,2.2-2.1,2.2C223,756.9,222.1,756,222.1,754.7z
		 M223,749.5l-0.5-17.3h3.5l-0.5,17.3H223z"/>
</g>
<g>
	<rect x="132.6" y="218" class="st5" width="147.4" height="49"/>
	<path d="M155.8,232.9c-0.2-3.4-0.4-7.4-0.4-10.5h-0.1c-0.8,2.8-1.8,5.9-3.1,9.2l-4.3,11.8h-2.4l-3.9-11.6c-1.1-3.4-2.1-6.6-2.8-9.4
		h-0.1c-0.1,3-0.2,7.1-0.5,10.7l-0.6,10.4h-3l1.7-24.3h4l4.1,11.7c1,3,1.8,5.6,2.4,8.2h0.1c0.6-2.4,1.5-5.1,2.6-8.2l4.3-11.7h4
		l1.5,24.3h-3.1L155.8,232.9z"/>
	<path d="M180.2,234.7c0,6.4-4.5,9.2-8.7,9.2c-4.7,0-8.4-3.5-8.4-9c0-5.8,3.8-9.2,8.6-9.2C176.8,225.7,180.2,229.3,180.2,234.7z
		 M166.4,234.9c0,3.8,2.2,6.7,5.3,6.7c3,0,5.3-2.8,5.3-6.8c0-2.9-1.5-6.7-5.2-6.7C168,228.1,166.4,231.5,166.4,234.9z"/>
	<path d="M184.2,231.5c0-2.1,0-3.8-0.1-5.4h2.8l0.1,3.4h0.1c0.8-2.3,2.7-3.8,4.8-3.8c0.4,0,0.6,0,0.9,0.1v3
		c-0.3-0.1-0.6-0.1-1.1-0.1c-2.2,0-3.8,1.7-4.2,4.1c-0.1,0.4-0.1,0.9-0.1,1.5v9.3h-3.1V231.5z"/>
	<path d="M196.1,230.8c0-1.8,0-3.3-0.1-4.7h2.8l0.2,2.9h0.1c0.9-1.7,2.9-3.3,5.8-3.3c2.4,0,6.2,1.4,6.2,7.4v10.4h-3.2v-10
		c0-2.8-1-5.1-4-5.1c-2.1,0-3.7,1.5-4.2,3.2c-0.1,0.4-0.2,0.9-0.2,1.5v10.5h-3.2V230.8z"/>
	<path d="M219.6,221.2c0,1.1-0.8,1.9-2,1.9c-1.1,0-1.9-0.9-1.9-1.9c0-1.1,0.8-2,2-2C218.9,219.2,219.6,220.1,219.6,221.2z
		 M216.1,243.5v-17.4h3.2v17.4L216.1,243.5L216.1,243.5z"/>
	<path d="M224.5,230.8c0-1.8,0-3.3-0.1-4.7h2.8l0.2,2.9h0.1c0.9-1.7,2.9-3.3,5.8-3.3c2.4,0,6.2,1.4,6.2,7.4v10.4h-3.2v-10
		c0-2.8-1-5.1-4-5.1c-2.1,0-3.7,1.5-4.2,3.2c-0.1,0.4-0.2,0.9-0.2,1.5v10.5h-3.2V230.8z"/>
	<path d="M259.5,226.1c-0.1,1.3-0.1,2.7-0.1,4.8V241c0,4-0.8,6.4-2.5,8c-1.7,1.6-4.1,2.1-6.3,2.1c-2.1,0-4.4-0.5-5.8-1.4l0.8-2.4
		c1.1,0.7,2.9,1.4,5.1,1.4c3.2,0,5.6-1.7,5.6-6.1v-1.9h-0.1c-1,1.6-2.8,2.9-5.5,2.9c-4.3,0-7.4-3.7-7.4-8.5c0-5.9,3.9-9.2,7.9-9.2
		c3,0,4.7,1.6,5.4,3h0.1l0.1-2.6L259.5,226.1L259.5,226.1z M256.2,233c0-0.5,0-1-0.2-1.4c-0.6-1.8-2.1-3.4-4.4-3.4
		c-3,0-5.2,2.6-5.2,6.6c0,3.4,1.7,6.3,5.1,6.3c1.9,0,3.7-1.2,4.4-3.2c0.2-0.5,0.2-1.1,0.2-1.7V233z"/>
	<path d="M264,241.7c0-1.3,0.9-2.2,2.1-2.2c1.3,0,2.1,0.9,2.1,2.2c0,1.3-0.8,2.2-2.1,2.2C264.9,243.9,264,242.9,264,241.7z
		 M264.9,236.5l-0.5-17.3h3.5l-0.5,17.3H264.9z"/>
</g>
<g>
	<rect x="603.7" y="36" class="st5" width="147.3" height="49"/>
	<path d="M623.3,60.7c-1.2,0.6-3.5,1.2-6.4,1.2c-6.8,0-12-4.3-12-12.3c0-7.6,5.2-12.7,12.7-12.7c3,0,4.9,0.7,5.8,1.1l-0.8,2.6
		c-1.2-0.6-2.9-1-4.9-1c-5.7,0-9.5,3.6-9.5,10c0,5.9,3.4,9.8,9.3,9.8c1.9,0,3.8-0.4,5.1-1L623.3,60.7z"/>
	<path d="M627.2,36h3.2v10.9h0.1c0.5-0.9,1.3-1.7,2.3-2.2c0.9-0.5,2-0.9,3.2-0.9c2.3,0,6.1,1.4,6.1,7.5v10.4h-3.2v-10
		c0-2.8-1-5.2-4-5.2c-2,0-3.7,1.4-4.2,3.2c-0.2,0.4-0.2,0.9-0.2,1.5v10.5h-3.2L627.2,36L627.2,36z"/>
	<path d="M648.9,53.4c0.1,4.3,2.8,6,6,6c2.3,0,3.6-0.4,4.8-0.9l0.5,2.3c-1.1,0.5-3,1.1-5.8,1.1c-5.4,0-8.6-3.5-8.6-8.8
		c0-5.3,3.1-9.4,8.2-9.4c5.7,0,7.2,5,7.2,8.2c0,0.7-0.1,1.2-0.1,1.5L648.9,53.4L648.9,53.4z M658.2,51.1c0-2-0.8-5.2-4.4-5.2
		c-3.2,0-4.6,3-4.9,5.2H658.2z"/>
	<path d="M666.9,53.4c0.1,4.3,2.8,6,6,6c2.3,0,3.6-0.4,4.8-0.9l0.5,2.3c-1.1,0.5-3,1.1-5.8,1.1c-5.4,0-8.6-3.5-8.6-8.8
		c0-5.3,3.1-9.4,8.2-9.4c5.7,0,7.2,5,7.2,8.2c0,0.7-0.1,1.2-0.1,1.5L666.9,53.4L666.9,53.4z M676.2,51.1c0-2-0.8-5.2-4.4-5.2
		c-3.2,0-4.6,3-4.9,5.2H676.2z"/>
	<path d="M683.2,49.5c0-2,0-3.8-0.1-5.4h2.8l0.1,3.4h0.1c0.8-2.3,2.7-3.8,4.8-3.8c0.4,0,0.6,0,0.9,0.1v3c-0.3-0.1-0.7-0.1-1.1-0.1
		c-2.2,0-3.8,1.7-4.2,4.1c-0.1,0.4-0.1,0.9-0.1,1.5v9.3h-3.1V49.5z"/>
	<path d="M694.5,58.3c0.9,0.6,2.6,1.3,4.2,1.3c2.3,0,3.4-1.2,3.4-2.6c0-1.5-0.9-2.3-3.2-3.2c-3.1-1.1-4.6-2.8-4.6-4.9
		c0-2.8,2.3-5.1,6-5.1c1.8,0,3.3,0.5,4.3,1.1l-0.8,2.3c-0.7-0.4-1.9-1-3.6-1c-1.9,0-2.9,1.1-2.9,2.4c0,1.4,1,2.1,3.3,3
		c3,1.2,4.6,2.7,4.6,5.2c0,3.1-2.4,5.2-6.5,5.2c-1.9,0-3.7-0.5-4.9-1.2L694.5,58.3z"/>
	<path d="M708.6,59.7c0-1.3,0.9-2.2,2.1-2.2c1.3,0,2.1,0.9,2.1,2.2c0,1.3-0.8,2.2-2.1,2.2C709.5,61.9,708.6,61,708.6,59.7z
		 M709.5,54.5L709,37.3h3.5L712,54.5H709.5z"/>
</g>
<path class="st6" d="M202,254c1.6,2.9,3.9,6.4,7,10c3.5,4,7.1,7,10,9"/>
<path class="st6" d="M146.5,709.5c1.4,2.7,3.6,6.3,7,10c3.6,3.9,7.3,6.4,10,8"/>
<path class="st6" d="M636.5,106.5c0.3-4.3,1.4-10.9,5-18c5.8-11.6,14.9-17.6,19-20"/>
</svg>
