<?xml version="1.0" encoding="utf-8"?>
<!-- Generator: Adobe Illustrator 24.3.0, SVG Export Plug-In . SVG Version: 6.00 Build 0)  -->
<svg version="1.1" id="Layer_1" xmlns="http://www.w3.org/2000/svg" xmlns:xlink="http://www.w3.org/1999/xlink" x="0px" y="0px"
	 viewBox="0 0 200 200" style="enable-background:new 0 0 200 200;" xml:space="preserve">
<style type="text/css">
	.st0{fill:none;stroke:#000000;stroke-width:6;stroke-miterlimit:10;}
</style>
<g>
	<path d="M163.31,33.22c2.17,0,4,1.83,4,4v127.22c0,2.17-1.83,4-4,4H36.09c-2.17,0-4-1.83-4-4V37.22c0-2.17,1.83-4,4-4H163.31
		 M163.31,27.22H36.09c-5.5,0-10,4.5-10,10v127.22c0,5.5,4.5,10,10,10h127.22c5.5,0,10-4.5,10-10V37.22
		C173.31,31.72,168.81,27.22,163.31,27.22L163.31,27.22z"/>
</g>
<g>
	<path d="M106.01,65.98c21.77,0,39.48,17.71,39.48,39.48s-17.71,39.48-39.48,39.48s-39.48-17.71-39.48-39.48
		S84.24,65.98,106.01,65.98 M106.01,59.98c-25.12,0-45.48,20.36-45.48,45.48c0,25.12,20.36,45.48,45.48,45.48
		c25.12,0,45.48-20.36,45.48-45.48C151.49,80.34,131.13,59.98,106.01,59.98L106.01,59.98z"/>
</g>
<path class="st0" d="M66.09,134.48c-11.2-8.28-18.47-21.59-18.47-36.59c0-25.12,20.36-45.48,45.48-45.48
	c6.28,0,12.26,1.27,17.7,3.57"/>
</svg>
