<?xml version="1.0" encoding="utf-8"?>
<!-- Generator: Adobe Illustrator 24.3.0, SVG Export Plug-In . SVG Version: 6.00 Build 0)  -->
<svg version="1.1" id="Layer_1" xmlns="http://www.w3.org/2000/svg" xmlns:xlink="http://www.w3.org/1999/xlink" x="0px" y="0px"
	 viewBox="0 0 628.7 544" style="enable-background:new 0 0 628.7 544;" xml:space="preserve">
<style type="text/css">
	.st0{fill:#FF9A26;}
	.st1{fill:none;}
	.st2{fill:#FFFFFF;}
	.st3{font-family:'CircularStd-Medium';}
	.st4{font-size:21px;}
</style>
<path class="st0" d="M596.7,215.7H336.6c-12.9,0-23.4,6.1-23.4,13.6v34.1c0,7.5,10.5,13.6,23.4,13.6h14.2l17.5,10.5l17.5-10.5h210.9
	c12.8,0,23.4-6.1,23.4-13.6v-34.1C620.1,221.8,609.5,215.7,596.7,215.7z"/>
<rect x="328.4" y="239.3" class="st1" width="194.8" height="15.6"/>
<text transform="matrix(1 0 0 1 328.4412 254.519)" class="st2 st3 st4">I love Breaking bad!</text>
<path class="st0" d="M595.1,115.9H334.9c-12.9,0-23.4,6.1-23.4,13.6v34.1c0,7.5,10.5,13.6,23.4,13.6h14.2l17.5,10.5l17.5-10.5H595
	c12.8,0,23.4-6.1,23.4-13.6v-34.1C618.4,122,607.9,115.9,595.1,115.9z"/>
<rect x="327.3" y="139.5" class="st1" width="213.8" height="15.6"/>
<text transform="matrix(1 0 0 1 327.2939 154.7086)" class="st2 st3 st4">I love House of Cards!</text>
<path class="st0" d="M595.1,15.7H334.9c-12.9,0-23.4,6.1-23.4,13.6v34.1c0,7.5,10.5,13.6,23.4,13.6h14.2l17.5,10.5L384.2,77h210.9
	c12.8,0,23.4-6.1,23.4-13.6V29.3C618.4,21.8,607.9,15.7,595.1,15.7z"/>
<rect x="327.3" y="39.3" class="st1" width="281.8" height="15.6"/>
<text transform="matrix(1 0 0 1 327.2939 54.4836)" class="st2 st3 st4">I love Desperate Housewives</text>
<path class="st0" d="M310.9,521.9c-29.3,0-58.7,0-88,0c-7.9,0-8.6-0.9-6.1-8.5c3.7-11.6,10.3-21.3,19.5-29.2c3.8-3.3,5-6.2,3-11.4
	c-4.1-10.9-1.6-20.3,9-25.1c15.2-6.8,22.2-16.2,20.9-33.5c-0.5-7.2,0.4-13.8-3.5-20.7c-4.5-7.9-2.8-12.5,4.5-17.9
	c3.6-2.7,2.1-6.3,2.2-9.5c0.4-20.8,15-38,34.9-40.7c23.7-3.2,45.3,15.1,45.9,39.1c0.1,5.4-0.8,10.6,6.1,13.1c2.9,1,3.2,4.8,2.9,7.9
	c-0.9,9.1-5.5,15.2-13,21c-7.3,5.5-14.4,12.9-15.4,23.5c-0.1,1.2,0.2,2.5-0.1,3.7c-3.1,15.8,5.8,23.7,18.8,29.1
	c14.2,5.9,27.5,13.3,38.4,24.4c6.9,7,11.9,15.1,15.3,24.2c3.3,8.9,2.2,10.5-7.1,10.5C369.6,521.9,340.2,521.8,310.9,521.9
	C310.9,521.8,310.9,521.8,310.9,521.9z M280.3,384.6c0.2,7.5,1.2,14.4,3,21c3.5,12.9,15.8,22.4,28.7,22.3
	c12.7,0,26.6-10.3,29.8-22.4c2.9-10.7,4-21.7,4.7-32.8c0.4-6.1-1.7-8.4-7.9-8.2c-11.6,0.5-23.1-1.3-34-5.6
	c-4.5-1.8-9.6-6.7-13.1-5.7c-4.5,1.3-3.7,8.8-6,13.3C282.5,372.5,277.8,377.9,280.3,384.6z M294.6,429.5c-1.7,7.8,1.4,15.2-2,21.3
	c-3,5.5-0.4,6.8,3.7,8.3c9.1,3.4,18.2,3.6,27.4,0.7c5.4-1.7,12.3-2.6,6.4-11.1c-1-1.4-1-3.8-1-5.7c0-4.6-1.6-4.6-5.4-2.8
	c-10,5-15.9,3.7-23.6-4.4C298.4,434.1,296.9,432.2,294.6,429.5z M310.9,470.6c7.8-0.2,17.2-1.9,25.9-6.1c1.6-0.8,4.6-1.2,3.5-3.8
	c-1.2-2.6-3.8-2.5-6.3-1.1c-14.9,7.7-30,8.4-45,0.2c-1.9-1-3.9-1.8-5.2,0.3c-1.8,2.8,0.9,3.9,2.7,4.9
	C293.4,468.9,301,470.7,310.9,470.6z"/>
</svg>
