<?xml version="1.0" encoding="utf-8"?>
<!-- Generator: Adobe Illustrator 24.2.1, SVG Export Plug-In . SVG Version: 6.00 Build 0)  -->
<svg version="1.1" id="Layer_1" xmlns="http://www.w3.org/2000/svg" xmlns:xlink="http://www.w3.org/1999/xlink" x="0px" y="0px"
	 viewBox="0 0 57.3 30" style="enable-background:new 0 0 57.3 30;" xml:space="preserve">
<style type="text/css">
	.st0{stroke:#FFFFFF;stroke-miterlimit:10;}
</style>
<g>
	<path class="st0" d="M20.4,25.2h17.8c0.4,0,0.7-0.3,0.7-0.7s-0.3-0.7-0.7-0.7H20.4c-0.4,0-0.7,0.3-0.7,0.7S20,25.2,20.4,25.2z"/>
	<path class="st0" d="M34.2,16.6h0.6c0.4,0,0.7-0.3,0.7-0.7s-0.3-0.7-0.7-0.7h-0.6c-0.4,0-0.7,0.3-0.7,0.7
		C33.5,16.3,33.8,16.6,34.2,16.6z"/>
	<path class="st0" d="M30.1,16.6h0.6c0.4,0,0.7-0.3,0.7-0.7s-0.3-0.7-0.7-0.7h-0.6c-0.4,0-0.7,0.3-0.7,0.7
		C29.4,16.3,29.7,16.6,30.1,16.6z"/>
	<path class="st0" d="M26,16.6h0.6c0.4,0,0.7-0.3,0.7-0.7s-0.3-0.7-0.7-0.7H26c-0.4,0-0.7,0.3-0.7,0.7C25.3,16.3,25.6,16.6,26,16.6z
		"/>
	<path class="st0" d="M21.9,16.6h0.6c0.4,0,0.7-0.3,0.7-0.7s-0.3-0.7-0.7-0.7h-0.6c-0.4,0-0.7,0.3-0.7,0.7
		C21.2,16.3,21.5,16.6,21.9,16.6z"/>
	<path class="st0" d="M17.8,16.6h0.6c0.4,0,0.7-0.3,0.7-0.7s-0.3-0.7-0.7-0.7h-0.6c-0.4,0-0.7,0.3-0.7,0.7
		C17.1,16.3,17.4,16.6,17.8,16.6z"/>
	<path class="st0" d="M13.7,16.6h0.6c0.4,0,0.7-0.3,0.7-0.7s-0.3-0.7-0.7-0.7h-0.6c-0.4,0-0.7,0.3-0.7,0.7
		C13,16.3,13.3,16.6,13.7,16.6z"/>
	<path class="st0" d="M38.3,16.6h0.6c0.4,0,0.7-0.3,0.7-0.7s-0.3-0.7-0.7-0.7h-0.6c-0.4,0-0.7,0.3-0.7,0.7
		C37.6,16.3,37.9,16.6,38.3,16.6z"/>
	<path class="st0" d="M42.4,16.6H43c0.4,0,0.7-0.3,0.7-0.7s-0.3-0.7-0.7-0.7h-0.6c-0.4,0-0.7,0.3-0.7,0.7
		C41.7,16.3,42,16.6,42.4,16.6z"/>
	<path class="st0" d="M34.2,20.8h0.6c0.4,0,0.7-0.3,0.7-0.7s-0.3-0.7-0.7-0.7h-0.6c-0.4,0-0.7,0.3-0.7,0.7S33.8,20.8,34.2,20.8z"/>
	<path class="st0" d="M30.1,20.8h0.6c0.4,0,0.7-0.3,0.7-0.7s-0.3-0.7-0.7-0.7h-0.6c-0.4,0-0.7,0.3-0.7,0.7S29.7,20.8,30.1,20.8z"/>
	<path class="st0" d="M26,20.8h0.6c0.4,0,0.7-0.3,0.7-0.7s-0.3-0.7-0.7-0.7H26c-0.4,0-0.7,0.3-0.7,0.7S25.6,20.8,26,20.8z"/>
	<path class="st0" d="M21.9,20.8h0.6c0.4,0,0.7-0.3,0.7-0.7s-0.3-0.7-0.7-0.7h-0.6c-0.4,0-0.7,0.3-0.7,0.7S21.5,20.8,21.9,20.8z"/>
	<path class="st0" d="M17.8,20.8h0.6c0.4,0,0.7-0.3,0.7-0.7s-0.3-0.7-0.7-0.7h-0.6c-0.4,0-0.7,0.3-0.7,0.7S17.4,20.8,17.8,20.8z"/>
	<path class="st0" d="M13.7,20.8h0.6c0.4,0,0.7-0.3,0.7-0.7s-0.3-0.7-0.7-0.7h-0.6c-0.4,0-0.7,0.3-0.7,0.7S13.3,20.8,13.7,20.8z"/>
	<path class="st0" d="M38.3,20.8h0.6c0.4,0,0.7-0.3,0.7-0.7s-0.3-0.7-0.7-0.7h-0.6c-0.4,0-0.7,0.3-0.7,0.7S37.9,20.8,38.3,20.8z"/>
	<path class="st0" d="M42.4,20.8H43c0.4,0,0.7-0.3,0.7-0.7s-0.3-0.7-0.7-0.7h-0.6c-0.4,0-0.7,0.3-0.7,0.7S42,20.8,42.4,20.8z"/>
	<path class="st0" d="M34.2,12.4h0.6c0.4,0,0.7-0.3,0.7-0.7S35.2,11,34.8,11h-0.6c-0.4,0-0.7,0.3-0.7,0.7
		C33.5,12,33.8,12.4,34.2,12.4z"/>
	<path class="st0" d="M30.1,12.4h0.6c0.4,0,0.7-0.3,0.7-0.7S31.1,11,30.7,11h-0.6c-0.4,0-0.7,0.3-0.7,0.7
		C29.4,12,29.7,12.4,30.1,12.4z"/>
	<path class="st0" d="M26,12.4h0.6c0.4,0,0.7-0.3,0.7-0.7S27,11,26.6,11H26c-0.4,0-0.7,0.3-0.7,0.7C25.3,12,25.6,12.4,26,12.4z"/>
	<path class="st0" d="M21.9,12.4h0.6c0.4,0,0.7-0.3,0.7-0.7S22.9,11,22.5,11h-0.6c-0.4,0-0.7,0.3-0.7,0.7
		C21.2,12,21.5,12.4,21.9,12.4z"/>
	<path class="st0" d="M17.8,12.4h0.6c0.4,0,0.7-0.3,0.7-0.7S18.8,11,18.4,11h-0.6c-0.4,0-0.7,0.3-0.7,0.7
		C17.1,12,17.4,12.4,17.8,12.4z"/>
	<path class="st0" d="M13.7,12.4h0.6c0.4,0,0.7-0.3,0.7-0.7S14.7,11,14.3,11h-0.6c-0.4,0-0.7,0.3-0.7,0.7C13,12,13.3,12.4,13.7,12.4
		z"/>
	<path class="st0" d="M38.3,12.4h0.6c0.4,0,0.7-0.3,0.7-0.7S39.3,11,38.9,11h-0.6c-0.4,0-0.7,0.3-0.7,0.7
		C37.6,12,37.9,12.4,38.3,12.4z"/>
	<path class="st0" d="M42.4,12.4H43c0.4,0,0.7-0.3,0.7-0.7S43.4,11,43,11h-0.6c-0.4,0-0.7,0.3-0.7,0.7C41.7,12,42,12.4,42.4,12.4z"
		/>
	<path class="st0" d="M10.9,28.4h35c2.1,0,3.9-1.7,3.9-3.9V10.9C49.7,8.8,48,7,45.9,7h-8.3l-0.3-1.6c-0.1-0.3-0.4-0.6-0.7-0.6h-0.3
		c0.1-0.4,0.1-0.8,0.3-1c0.2-0.4,0.6-0.6,1.1-0.6c0.4,0,0.9,0.1,1.5,0.3s1.2,0.4,1.9,0.7c0.8,0.3,1.6,0.6,2.4,0.9
		c1.2,0.4,2.2,0.4,2.9,0.1c1-0.4,1.7-1.2,2.1-2.6c0.1-0.4-0.1-0.8-0.5-0.9s-0.8,0.1-0.9,0.5c-0.3,0.9-0.7,1.5-1.2,1.7
		s-1.1,0.1-2-0.1c-0.7-0.2-1.5-0.5-2.3-0.8c-0.7-0.3-1.3-0.5-1.9-0.7c-0.8-0.2-1.4-0.4-2-0.3c-1,0.1-1.7,0.5-2.2,1.3
		c-0.3,0.5-0.4,1-0.5,1.7h-0.4c-0.3,0-0.6,0.2-0.7,0.6L33.4,7H10.9C8.8,7,7,8.8,7,10.9v13.6C7,26.6,8.8,28.4,10.9,28.4z M35.1,6.2
		H36L36.1,7h-1.2L35.1,6.2z M8.4,10.9c0-1.3,1.1-2.4,2.4-2.4H34h3h8.9c1.3,0,2.4,1.1,2.4,2.4v13.6c0,1.3-1.1,2.4-2.4,2.4h-35
		c-1.3,0-2.4-1.1-2.4-2.4C8.4,24.5,8.4,10.9,8.4,10.9z"/>
</g>
</svg>
