<?xml version="1.0" encoding="utf-8"?>
<!-- Generator: Adobe Illustrator 24.0.3, SVG Export Plug-In . SVG Version: 6.00 Build 0)  -->
<svg version="1.1" id="Layer_1" xmlns="http://www.w3.org/2000/svg" xmlns:xlink="http://www.w3.org/1999/xlink" x="0px" y="0px"
	 viewBox="0 0 88.3 119.2" style="enable-background:new 0 0 88.3 119.2;" xml:space="preserve">
<style type="text/css">
	.st0{fill:none;stroke:#000000;stroke-width:0.15;stroke-miterlimit:10;}
	.st1{fill:none;stroke:#000000;stroke-width:0.5;stroke-miterlimit:10;}
</style>
<title>logo</title>
<g id="Layer_12">
	<line class="st0" x1="10.3" y1="53.9" x2="6.7" y2="82.6"/>
	<line class="st0" x1="22.8" y1="87" x2="10.3" y2="53.9"/>
	<line class="st0" x1="47.5" y1="70.3" x2="56.5" y2="35.1"/>
	<line class="st0" x1="34.2" y1="26.6" x2="40.8" y2="49.9"/>
	<line class="st0" x1="19.8" y1="16.1" x2="10.3" y2="52.6"/>
	<line class="st0" x1="30.5" y1="24.9" x2="31" y2="48.2"/>
	<line class="st0" x1="56.5" y1="35.1" x2="55.1" y2="82.5"/>
	<line class="st0" x1="65.6" y1="89.7" x2="6.7" y2="82.6"/>
	<line class="st0" x1="81.6" y1="94.4" x2="58.7" y2="108.9"/>
	<line class="st0" x1="58.7" y1="108.9" x2="58.7" y2="110.3"/>
	<line class="st0" x1="58.7" y1="108.9" x2="22.8" y2="87"/>
	<line class="st0" x1="81.6" y1="95.8" x2="58.7" y2="110.3"/>
	<line class="st0" x1="22.8" y1="87" x2="81.6" y2="94.4"/>
	<line class="st0" x1="58.7" y1="110.3" x2="22.8" y2="88.4"/>
	<line class="st0" x1="47.5" y1="70.3" x2="10.3" y2="52.6"/>
	<line class="st0" x1="47.5" y1="70.3" x2="47.5" y2="71.7"/>
	<line class="st0" x1="78" y1="68" x2="55.1" y2="82.5"/>
	<line class="st0" x1="55.1" y1="82.5" x2="55.1" y2="83.8"/>
	<line class="st0" x1="55.1" y1="82.5" x2="40.8" y2="49.9"/>
	<line class="st0" x1="47.5" y1="70.3" x2="47.5" y2="71.7"/>
	<line class="st0" x1="55.1" y1="83.8" x2="78" y2="69.3"/>
	<line class="st0" x1="40.8" y1="51.3" x2="55.1" y2="83.8"/>
	<line class="st0" x1="49.2" y1="15.8" x2="66.8" y2="24.3"/>
	<line class="st0" x1="37.3" y1="20.6" x2="37.3" y2="28.2"/>
	<line class="st0" x1="38.4" y1="21.2" x2="55.3" y2="31.5"/>
	<line class="st0" x1="55.3" y1="31.5" x2="56.7" y2="30.6"/>
	<line class="st0" x1="55.3" y1="31.5" x2="55.3" y2="39"/>
	<line class="st0" x1="48.2" y1="15.4" x2="49.6" y2="14.4"/>
	<line class="st0" x1="30.1" y1="10" x2="48.2" y2="15.4"/>
	<line class="st0" x1="48.2" y1="15.4" x2="48.2" y2="22.9"/>
	<line class="st0" x1="19.8" y1="12.2" x2="37.3" y2="20.6"/>
	<line class="st0" x1="39.6" y1="20.4" x2="38.8" y2="20.1"/>
	<line class="st0" x1="37.3" y1="20.6" x2="38.8" y2="19.6"/>
	<line class="st0" x1="39.6" y1="20.4" x2="38.8" y2="20.1"/>
	<line class="st0" x1="38.8" y1="20.9" x2="39.6" y2="20.4"/>
	<line class="st0" x1="27.4" y1="78.2" x2="29.2" y2="62.9"/>
	<line class="st0" x1="58.8" y1="108.8" x2="55.1" y2="83.8"/>
	<line class="st0" x1="66.7" y1="24.3" x2="66.7" y2="31.8"/>
	<line class="st0" x1="66.7" y1="24.3" x2="68.2" y2="23.3"/>
	<line class="st0" x1="68.2" y1="30.8" x2="78" y2="68"/>
	<line class="st0" x1="81.6" y1="94.4" x2="78" y2="69.3"/>
</g>
<g id="Layer_11">
	<line class="st1" x1="22.8" y1="87" x2="81.6" y2="94.4"/>
	<line class="st1" x1="27.4" y1="78.2" x2="65.6" y2="89.7"/>
	<line class="st1" x1="6.7" y1="82.6" x2="27.4" y2="78.2"/>
	<line class="st1" x1="6.7" y1="83.9" x2="65.6" y2="91"/>
	<line class="st1" x1="81.6" y1="95.8" x2="58.7" y2="110.3"/>
	<line class="st1" x1="58.7" y1="110.3" x2="22.8" y2="88.4"/>
	<line class="st1" x1="27.4" y1="78.2" x2="65.6" y2="89.7"/>
	<line class="st1" x1="6.7" y1="82.6" x2="27.4" y2="78.2"/>
	<line class="st1" x1="6.7" y1="83.9" x2="65.6" y2="91"/>
	<line class="st1" x1="40.8" y1="51.3" x2="55.1" y2="83.8"/>
	<line class="st1" x1="10.3" y1="52.6" x2="31" y2="48.2"/>
	<line class="st1" x1="47.5" y1="71.7" x2="10.3" y2="53.9"/>
	<line class="st1" x1="40.8" y1="49.9" x2="78" y2="68"/>
	<line class="st1" x1="55.1" y1="83.8" x2="78" y2="69.3"/>
	<line class="st1" x1="31" y1="48.2" x2="47.5" y2="70.3"/>
	<line class="st1" x1="47.5" y1="71.7" x2="10.3" y2="53.9"/>
	<line class="st1" x1="40.8" y1="49.9" x2="78" y2="68"/>
	<line class="st1" x1="10.3" y1="52.6" x2="31" y2="48.2"/>
	<line class="st1" x1="31" y1="48.2" x2="47.5" y2="70.3"/>
	<line class="st1" x1="30.1" y1="15.5" x2="30.1" y2="10"/>
	<line class="st1" x1="21.2" y1="11.2" x2="30.1" y2="15.5"/>
	<line class="st1" x1="19.8" y1="12.2" x2="21.2" y2="11.2"/>
	<line class="st1" x1="19.8" y1="19.8" x2="19.8" y2="12.2"/>
	<line class="st1" x1="31.5" y1="9" x2="49.6" y2="14.4"/>
	<line class="st1" x1="55.3" y1="39" x2="38.4" y2="28.7"/>
	<line class="st1" x1="30.1" y1="10" x2="31.5" y2="9"/>
	<line class="st1" x1="49.2" y1="22.2" x2="48.2" y2="22.9"/>
	<line class="st1" x1="48.2" y1="22.9" x2="40.5" y2="20.6"/>
	<line class="st1" x1="37.3" y1="28.2" x2="19.8" y2="19.8"/>
	<line class="st1" x1="66.8" y1="31.9" x2="49.2" y2="23.3"/>
	<line class="st1" x1="50.6" y1="14.8" x2="68.2" y2="23.3"/>
	<line class="st1" x1="55.3" y1="39" x2="38.4" y2="28.7"/>
	<line class="st1" x1="19.8" y1="19.8" x2="19.8" y2="12.2"/>
	<line class="st1" x1="37.3" y1="28.2" x2="19.8" y2="19.8"/>
	<line class="st1" x1="66.8" y1="31.9" x2="49.2" y2="23.3"/>
	<line class="st1" x1="50.6" y1="14.8" x2="68.2" y2="23.3"/>
	<line class="st1" x1="30.1" y1="15.5" x2="30.1" y2="10"/>
	<line class="st1" x1="48.2" y1="22.9" x2="40.5" y2="20.6"/>
	<line class="st1" x1="49.2" y1="22.2" x2="48.2" y2="22.9"/>
	<line class="st1" x1="30.1" y1="10" x2="31.5" y2="9"/>
	<line class="st1" x1="31.5" y1="9" x2="49.6" y2="14.4"/>
	<line class="st1" x1="19.8" y1="12.2" x2="21.2" y2="11.2"/>
	<line class="st1" x1="21.2" y1="11.2" x2="30.1" y2="15.5"/>
	<line class="st1" x1="6.7" y1="82.6" x2="6.7" y2="83.9"/>
	<line class="st1" x1="6.7" y1="82.6" x2="6.7" y2="83.9"/>
	<line class="st1" x1="40.8" y1="49.9" x2="40.8" y2="51.3"/>
	<line class="st1" x1="40.8" y1="49.9" x2="40.8" y2="51.3"/>
	<line class="st1" x1="56.7" y1="30.6" x2="56.7" y2="38"/>
	<line class="st1" x1="30.1" y1="15.5" x2="38.8" y2="19.6"/>
	<line class="st1" x1="38.4" y1="27.5" x2="38.4" y2="21.2"/>
	<line class="st1" x1="56.7" y1="38" x2="55.3" y2="39"/>
	<line class="st1" x1="49.6" y1="14.4" x2="49.6" y2="15.5"/>
	<line class="st1" x1="40.5" y1="20.6" x2="56.7" y2="30.6"/>
	<line class="st1" x1="38.8" y1="20.1" x2="38.8" y2="20.9"/>
	<line class="st1" x1="56.7" y1="38" x2="55.3" y2="39"/>
	<line class="st1" x1="56.7" y1="30.6" x2="56.7" y2="38"/>
	<line class="st1" x1="38.8" y1="20.1" x2="38.8" y2="20.9"/>
	<line class="st1" x1="40.5" y1="20.6" x2="56.7" y2="30.6"/>
	<line class="st1" x1="49.6" y1="14.4" x2="49.6" y2="15.5"/>
	<line class="st1" x1="22.8" y1="87" x2="22.8" y2="88.4"/>
	<line class="st1" x1="22.8" y1="87" x2="22.8" y2="88.4"/>
	<line class="st1" x1="10.3" y1="52.6" x2="10.3" y2="53.9"/>
	<line class="st1" x1="10.3" y1="52.6" x2="10.3" y2="53.9"/>
	<line class="st1" x1="38.4" y1="27.5" x2="37.3" y2="28.2"/>
	<line class="st1" x1="38.8" y1="19.6" x2="38.8" y2="20.1"/>
	<line class="st1" x1="38.4" y1="28.7" x2="38.4" y2="27.5"/>
	<line class="st1" x1="49.6" y1="15.5" x2="50.6" y2="14.8"/>
	<line class="st1" x1="49.2" y1="22.2" x2="49.2" y2="15.8"/>
	<line class="st1" x1="49.2" y1="23.3" x2="49.2" y2="22.2"/>
	<line class="st1" x1="38.4" y1="28.7" x2="38.4" y2="27.5"/>
	<line class="st1" x1="38.4" y1="27.5" x2="37.3" y2="28.2"/>
	<line class="st1" x1="49.6" y1="15.5" x2="50.6" y2="14.8"/>
	<line class="st1" x1="49.2" y1="23.3" x2="49.2" y2="22.2"/>
	<line class="st1" x1="38.4" y1="21.2" x2="38.8" y2="20.9"/>
	<line class="st1" x1="38.8" y1="20.9" x2="39.6" y2="20.4"/>
	<line class="st1" x1="39.8" y1="20.2" x2="40.5" y2="20.6"/>
	<line class="st1" x1="39.6" y1="20.4" x2="39.8" y2="20.2"/>
	<line class="st1" x1="49.2" y1="15.8" x2="49.6" y2="15.5"/>
	<line class="st1" x1="68.2" y1="23.3" x2="68.2" y2="30.8"/>
	<line class="st1" x1="68.2" y1="30.8" x2="66.7" y2="31.8"/>
	<line class="st1" x1="65.6" y1="89.7" x2="65.6" y2="91"/>
	<line class="st1" x1="78" y1="68" x2="78" y2="69.3"/>
	<line class="st1" x1="81.6" y1="94.4" x2="81.6" y2="95.8"/>
</g>
</svg>
