<?xml version="1.0" encoding="utf-8"?>
<!-- Generator: Adobe Illustrator 25.4.1, SVG Export Plug-In . SVG Version: 6.00 Build 0)  -->
<svg version="1.1"
	 id="Layer_1" xmlns:cc="http://creativecommons.org/ns#" xmlns:dc="http://purl.org/dc/elements/1.1/" xmlns:rdf="http://www.w3.org/1999/02/22-rdf-syntax-ns#" xmlns:svg="http://www.w3.org/2000/svg"
	 xmlns="http://www.w3.org/2000/svg" xmlns:xlink="http://www.w3.org/1999/xlink" x="0px" y="0px" viewBox="0 0 28 28"
	 style="enable-background:new 0 0 28 28;" xml:space="preserve">
<g transform="translate(0,200)">
	<path d="M14-200c-7.7,0-14,6.3-14,14s6.3,14,14,14s14-6.3,14-14S21.7-200,14-200z M14-198c6.6,0,12,5.4,12,12s-5.4,12-12,12
		s-12-5.4-12-12S7.4-198,14-198z"/>
	<path d="M16-186c0,1.1-0.9,2-2,2s-2-0.9-2-2s0.9-2,2-2S16-187.1,16-186z"/>
	<path d="M9-186c0,1.1-0.9,2-2,2s-2-0.9-2-2s0.9-2,2-2S9-187.1,9-186z"/>
	<path d="M23-186c0,1.1-0.9,2-2,2s-2-0.9-2-2s0.9-2,2-2S23-187.1,23-186z"/>
</g>
</svg>
