<?xml version="1.0" encoding="utf-8"?>
<!-- Generator: Adobe Illustrator 24.2.1, SVG Export Plug-In . SVG Version: 6.00 Build 0)  -->
<svg version="1.1" id="Layer_1" xmlns="http://www.w3.org/2000/svg" xmlns:xlink="http://www.w3.org/1999/xlink" x="0px" y="0px"
	 viewBox="0 0 100 125" style="enable-background:new 0 0 100 125;" xml:space="preserve">
<style type="text/css">
	.st0{fill-rule:evenodd;clip-rule:evenodd;stroke:#FFFFFF;stroke-width:2.3;stroke-miterlimit:10;}
</style>
<path class="st0" d="M57.8,98.7l-7.4,18.6v1.9c0,1-0.8,1.9-1.9,1.9c-1,0-1.9-0.8-1.9-1.9v-1.9l-7.4-18.6c0-29.1,0-58.3,0-87.4
	c0-5.1,4.2-9.3,9.3-9.3s9.3,4.2,9.3,9.3C57.8,40.4,57.8,69.6,57.8,98.7L57.8,98.7z M43.2,98.7l4.5,11.2h1.7l4.5-11.2H43.2L43.2,98.7
	z M54.1,95V20.6H42.9V95H54.1L54.1,95z M54.1,16.9v-5.6c0-3.1-2.5-5.6-5.6-5.6s-5.6,2.5-5.6,5.6v5.6H54.1z"/>
</svg>
