<?xml version="1.0" encoding="utf-8"?>
<!-- Generator: Adobe Illustrator 24.3.0, SVG Export Plug-In . SVG Version: 6.00 Build 0)  -->
<svg version="1.1" id="e415e4e1-8870-48b5-9940-d02b43ac290b"
	 xmlns="http://www.w3.org/2000/svg" xmlns:xlink="http://www.w3.org/1999/xlink" x="0px" y="0px" viewBox="0 0 678.9 570.1"
	 style="enable-background:new 0 0 678.9 570.1;" xml:space="preserve">
<style type="text/css">
	.st0{fill:#FF9A26;}
	.st1{fill:#48736C;}
	.st2{fill:#FFFFFF;stroke:#000000;stroke-width:2;stroke-miterlimit:10;}
	.st3{fill:#FFFFFF;}
	.st4{fill:none;}
	.st5{font-family:'CircularStd-Medium';}
	.st6{font-size:21px;}
</style>
<path class="st0" d="M0,284.6c0.5-0.1,0.9-0.3,0.9-0.9c1.1-6.9,2.2-13.8,3.4-20.6c0.9-5.1,1.8-10.1,2.7-15.2c0.6-3.1,1-6.3,1.6-9.4
	c0.9-4.7,3.1-8.9,6.2-12.5c4.8-5.5,10.5-10,17.2-13.1c3-1.4,6.1-2.2,9.3-3.1c5.1-1.5,10.2-2.9,15.4-4.5c2-0.6,4.1-0.5,6.2-0.2
	c1.2,0.1,2.4,0.4,3.6,0.3c4.6-0.2,9.2,0.5,13.8,0.6c2.9,0.1,5.9,0.2,8.8,0.4c2.4,0.2,4.9,0.5,7.2,1.6c6.7,3,13.4,6,20,9.1
	c4.2,1.9,7.4,5.1,10.1,8.9c3.6,5,4.9,10.5,5.2,16.6c0.3,6.2,0.1,12.4,0.5,18.6c0.4,4.8,0,9.6,0.4,14.3c0.5,5.4,0,10.9,0.5,16.2
	c0.5,5,0,9.9,0.4,14.8c0.5,5.2,0,10.4,0.5,15.5c0.5,4.7,0,9.4,0.4,14.1c0.5,5.6,0.2,11.2,0.5,16.7c0.1,2.5,0.4,4.9,0.4,7.4
	c0,0.7,0.1,1.5-1,1.6c-1-0.5-2-0.5-3.1-0.4c-0.8-0.2-1.6-0.5-2.3-0.5c-2.9-0.1-5.7-0.7-8.5-1c-1-0.1-1.3-0.4-1.5-1.4
	c-0.2-1.9-0.3-2-2.2-2c-3.9,0-7.8,0-11.7,0c-0.4,0-0.8,0-1.2,0c-8.3-0.5-16.4-2.2-24.4-4.7c-10.2-3.2-19.6-8-28.6-13.8
	c-0.5-0.6-1.2-1.1-2-1.2l0,0c-1-1-2.1-1.8-3.4-2.4c-0.4-1.8-1.3-0.6-1.9-0.2c-3.1,2.3-6.2,4.6-9.2,7c-0.8,0.6-1.6,1.2-2.6,0.4
	c-0.3-1.3-0.9-2.5-1.6-3.7c-3-5.1-6-10.1-9-15.2c-3.5-6-7-12.1-10.5-18.1c-3-5.1-5.9-10.3-9-15.5c-0.4-0.7-0.7-1.7-1.8-1.7
	C0,286.5,0,285.6,0,284.6z M45.3,329.6c0.4-1.3,0-1.9-0.2-2.6c-2.3-7.3-4.8-14.5-7.1-21.8c-0.9-3-2.1-5.9-1.4-9.1
	c0.5-2.4,0.4-4.7,0.8-7.1c0.4-2.4,0.7-4.9,0.8-7.3c0.2-2.5,0.8-5.1,0.5-7.6c-0.3,0.5-0.5,1-0.7,1.5c-1.6,6.5-3.2,13-4.9,19.4
	c-0.5,1.9-0.3,3.5,0.4,5.3c2.5,6,4.9,12.1,7.3,18.2C42.3,322.1,43.7,325.7,45.3,329.6z M110.1,338.4c0.3-1.5,0.3-2.4,0.1-3.4
	c-0.5-2.9-0.6-5.8-0.9-8.8c-0.2-2.4-0.3-4.8-0.6-7.1c-0.4-2.5-0.4-5.1-0.7-7.6c-0.3-2.6-0.5-5.2-0.7-7.8c-0.4-5.2-1.1-10.4-1.3-15.6
	c0-0.5-0.1-1.1-0.3-1.6c-0.5-2-0.5-1.9-2.3-1.5c-1.1,0.2-1.3,0.7-1.2,1.6c0.1,2.1,0.6,4.1,0.9,6.1c0.7,4.8,1.3,9.6,2.1,14.4
	c0.7,4.7,1.5,9.4,2.3,14.1C108.3,326.8,109.2,332.3,110.1,338.4z M39.1,272.7c0.1-0.1,0.2-0.2,0.2-0.3c0-0.1,0-0.2,0-0.2
	c-0.1-0.1-0.2-0.1-0.3,0.1C39,272.4,39,272.6,39.1,272.7z"/>
<path class="st1" d="M622.7,570.1c-10.2,0-20.5,0-30.7,0c0-0.2-0.1-0.4-0.1-0.6c0-4.2,0-8.4,0-12.6c0-2.6,0-2.6-2.7-2.7
	c0-1-0.1-2.1-0.1-3.1c0-27.1,0-54.2,0-81.3c0-1-0.1-1.9-0.1-2.9c2.2-0.7,4.4-0.9,6.7-0.7c0.3,0.6,0.5,1.3,0.9,2
	c3.8,7,7.6,14.1,11.4,21.1c10.2,19,20.5,38,30.7,56.9c-2.2,1.4-4.8,2.2-7.2,3.2c-1.4,0.6-2.7,1.3-4,2.2
	C622.6,555.2,619.5,562.4,622.7,570.1z"/>
<path class="st1" d="M622.7,570.1c-3.2-7.7,0-14.9,4.8-18.5c1.2-0.9,2.6-1.6,4-2.2c2.4-1.1,4.9-1.9,7.2-3.2
	c4.5-1.4,8.6-3.6,12.9-5.3c1-0.6,1.6-0.7,2.2,0.6c1.5,3.6,3.1,7.2,4.6,10.8c0.8,2,0.8,2.1-1.2,3c-10.5,4.5-20.9,9-31.4,13.5
	c-0.8,0.4-1.9,0.5-2.4,1.4C623,570.1,622.8,570.1,622.7,570.1z"/>
<path class="st2" d="M591.8,569.4c0,0.2,0.1,0.4,0.1,0.6c-13.3,0-26.5,0-39.8,0c0-0.2,0-0.4,0.1-0.6c12.9,0,25.8,0,38.7,0
	C591.2,569.5,591.5,569.5,591.8,569.4z"/>
<path class="st1" d="M595.6,466.2c-2.3-0.2-4.5,0-6.7,0.7c-0.5,0-1,0-1.4,0c-5.5,0.5-11.1,1.1-16.6,1.6c-6.8,0.7-13.7,1.3-20.5,2
	c-0.5,0-1,0.1-1.4,0.2c-2.1,0.2-2.2,0.2-2.1-1.9c0-1.9-0.2-3.8-0.5-5.7c-0.1-0.9-0.3-1.7-0.7-2.5c-0.5-1.1-1.2-1.2-2.1-0.5
	c-0.8,0.6-1.3,1.4-1.9,2.1c-1.2,1.7-2.1,3.6-3,5.5c-0.3,0.7-0.5,1.5-1.3,2.3c0.3-5.3,0.7-10.4,1-15.5c0.4-5.9,0.8-11.8,1.2-17.7
	c0.8-11.3,1.5-22.6,2.3-34c0.5-8,1-15.9,1.6-23.9c0.8-11.3,1.5-22.6,2.3-34c0.5-7.8,1-15.6,1.6-23.4c0.1-1.5,0.3-3,0.5-4.5
	c0-0.5,0.1-1,0.6-1.2c0.9,0,1.8,0.1,2.6,0.1c11.6,0,23.2,0,34.8,0c1,0,1.9-0.1,2.9-0.1c0.9,0.7,1.9,1.5,2.8,2.2
	c6.7,5.4,14.2,9.1,22.8,10.1c2.6,0.3,5.2,0.5,7.8-0.3c-0.7-1.9-1.3-3.6-1.9-5.3c1.9,0.2,3.7,0.6,5.4,1.4c1.6,7.1,3.3,14.3,4.9,21.5
	c4.3,19.7,8.3,39.5,12.3,59.3c3.6,17.8,7.1,35.5,10.6,53.3c0.4,2.2,0.4,2.1-1.7,2.4c-12.4,1.3-24.8,2.6-37.2,3.9
	C608.2,464.8,601.9,465.2,595.6,466.2z"/>
<path class="st0" d="M31.9,341.7c1,0.8,1.8,0.2,2.6-0.4c1,0.9,0.5,2.1,0.5,3.2c0.2,4.1,3.2,7.6,7,8.3c4.5,0.7,8.5-1.6,9.9-5.7
	c0.9-2.8,0.5-5.4-1-7.8c0-0.4,0-0.7,0-1.1c9,5.7,18.4,10.5,28.6,13.8c7.9,2.5,16,4.2,24.4,4.7c0.4,0,0.8,0,1.2,0
	c0.8,0.4,1.7,0.3,2.6,0.3c2.6,0,5.3,0,7.9,0c1.1,0,1.6,0.2,1.7,1.4c0.2,2.2,0.5,4.4,0.9,6.6c0.2,1.5,0,2.8-0.6,4.1
	c-1.8,4-0.3,8.4,3.2,10.7s8.3,1.7,11.1-1.4c2.9-3.2,3.1-8.1,0.3-11.4c-1-1.1-1.4-2.2-1.1-3.6c0.1-0.6,0.1-1.3,0.2-1.9
	c1.1-0.1,2.1-0.1,3.1,0.4c0.4,7.5,0.7,15,1.1,22.5c0.4,7.4,0.8,14.8,1.2,22.3c0.8,14.5,1.5,29,2.3,43.6c0.4,7.2,0.7,14.4,1.1,21.5
	c0.6,11.3,1.1,22.7,1.7,34c0.1,2,0.1,2-1.8,2.1c-0.6,0.1-1.3,0-1.9,0.3c-6.2-0.2-12.4,0.4-18.5,0.6c-2.1-0.2-4.2,0-6.2,0.2
	c-1.5,0.1-2.4-0.5-3-1.7c-1-1.9-1.8-3.9-2.4-6c-3.7-10.9-6.4-22.1-9.1-33.2c-6-25.3-11.4-50.8-16.4-76.3c-0.1-0.7-0.3-1.4-0.8-2
	c-0.1,2.8-0.1,5.5-0.2,8.3c-0.5,20.2-1,40.4-1.5,60.6c-0.3,12.4-0.6,24.8-1,37.1c-0.1,1.9-0.1,3.8-0.2,5.8c-0.1,1.6-0.1,1.6-1.8,1.7
	c-1.7,0.1-3.3-0.2-5,0.2c-6.8-0.2-13.6-0.1-20.4,0c-1.3,0-2.5-0.1-3.8-0.1c-1.1,0-1.5-0.4-1.6-1.5c-0.3-3.6-0.6-7.2-0.9-10.7
	c-1.1-12.3-2.2-24.6-3.3-37c-0.9-9.9-1.7-19.9-2.6-29.8c-1-11.7-2.1-23.4-3.2-35c-0.9-9.9-1.7-19.7-2.6-29.6
	C33,353.6,32.4,347.6,31.9,341.7z"/>
<path class="st1" d="M625.6,323.9c-1.7-0.8-3.5-1.2-5.4-1.4c-0.5-0.2-0.9-0.3-1.3-0.5c-6.2-1.8-12.4-3.5-18.6-5.3
	c-2-0.6-4.1-1.1-6.1-2.1c0.5-1.1,1-2.1,1.5-3c2.3-3.5,4.2-7.2,5.4-11.2c0.3-1,0.6-2,0.5-3c0.2-1.3-0.1-2.6-0.5-4.1
	c3.1,0.5,5.6,1.9,8.5,2.4c-0.1-0.4-0.1-0.6-0.2-0.8c-5.6-14.5-11.2-29-16.8-43.5c-0.4-1.1-1.1-1.7-2-2.1
	c-9.9-4.8-19.8-9.6-29.8-14.3c-0.5-0.2-0.9-0.8-1.5-0.3c0,0.1-0.1,0.2-0.1,0.3c3.4,12.6,6.8,25.1,10.1,37.6c0.2,1,0.8,1.3,1.6,1.5
	c1.5,0.4,2.9,0.6,4.5,1.4c-1.4,0.8-2.5,1.7-3,3.1c-2.4,4.4-2.5,9.3-2.9,14.1c-0.1,0.8,0.4,1.2,1.1,1.3c0.9,0.1,1.8,0.3,2.6,0.9
	c-0.3,0.8-0.5,1.5-0.8,2.1c-1,3.6,0.4,7.5,3.5,9.4c1.7,1.1,3.7,1.5,5.7,1.4c0.4,1.3,1.4,2.3,2.3,3.2c1.5,1.7,3.1,3.3,4.7,5
	c-1,0-1.9,0.1-2.9,0.1c-11.6,0-23.2,0-34.8,0c-0.9,0-1.8,0-2.6-0.1c0.3-7.3,0.6-14.7,0.9-22c0.1-3.1,0.1-2.5-2.3-3.3
	c-5.6-1.8-11.2-3.7-16.7-5.9c-2.2-0.9-4.3-2-6.1-3.7c-2.7-2.6-3.4-5.7-2.2-9.2c0.5-1.6,1.4-3,2.4-4.4c4.3-5.8,8.6-11.7,13-17.6
	c0.7-1,1.3-1.9,1.5-3.2c0.4-2.4,2-4.1,4.2-5.1c6.8-3.3,13.6-6.8,20.2-10.5c3.3-1.8,6.5-3.7,9.6-5.9c1.2-0.9,2.5-1.2,4-1.2
	c9.7,0.4,19.5,0.7,29.2,1.1c1.8,0.1,3.4,0.7,4.8,1.8c6,4.6,12.5,8.3,19.6,10.9c3.7,1.4,6.2,3.8,8.1,7.1c2.3,4,3.6,8.3,4.6,12.8
	c1.9,8.6,2.6,17.4,2.9,26.1c0.3,7.3,0.8,14.5,1.3,21.8c0.2,3.4,0.4,6.7,0.6,10c0.1,1.1-0.1,2.2-0.3,3.3c-1,4.4-4,6.9-8.4,7.2
	c-3.2,0.2-6.2-0.5-9.2-1.2C628.6,324.4,627.1,323.9,625.6,323.9z M622.6,289.7c-2.7,2.6-4.9,5-6.6,8.1c2.7,0.9,5.3,1.7,7.8,2.6
	c1.1,0.4,2.1,0.3,2.8-0.7c0.8-1,0.3-2-0.4-2.9C624.6,294.9,623.5,292.7,622.6,289.7z"/>
<path class="st1" d="M625.6,115.2c2.2,0,4.5,0,6.7,0c10.3,1.8,17.6,8.6,19.3,18.6c1.7,9.5-1.6,17.3-9.4,23c-1.7,1.2-1.9,2.3-1.6,4.1
	c2.8,17.5-6.5,35.3-22.5,43c-0.2,0.1-0.5,0.1-0.7,0.2c0-0.8,0.4-1.5,0.7-2.3c2.6-6.5,2.7-13,0.3-19.6c-0.7-1.9-0.8-2-2.8-1.3
	c-10.6,3.5-21.4,4.9-32.5,4.4c-3.7-0.2-7.3-1-10.6-2.7c-2.9-1.5-3-1.5-3.8,1.7c-0.1,0.3-0.1,0.6-0.2,0.9c-0.4,2.1-0.8,4.2-1.2,6.3
	c-18-24.1-5-58.9,25.1-64.8c4.9-1,9.8-1,14.8-0.1c1.1,0.2,1.9,0.1,2.6-1C613.4,119.8,618.8,116.4,625.6,115.2z"/>
<path class="st0" d="M63.4,194.4c-3.3-0.2-6.1-1.6-8.6-3.8C44,181,38.3,168.9,37.6,154.5c-0.1-2.9,0.2-5.8,0.9-8.6
	c2.1-8.7,7.6-13.2,16.6-13.2c5.7,0,11.3,0.2,17,0.3c5,0.1,10.1-0.1,15.1,0.5c2.1,0.2,4.1,0.6,6.1,1.3c7.7,2.7,10.8,9.8,7.6,17.3
	c-0.9,2.3-2.6,4-4.1,5.8c-0.2,0.1-0.3,0.1-0.4,0.2c-5.1,3.9-11,5.1-17.3,4.8c-3.6-0.2-7.1-0.7-10.6-1.5c-1.3-0.3-2-0.1-2.4,1.3
	c-0.4,1.5-1.7,2.5-3,3.3c-0.9,0.6-1.9,1.2-2.8,1.9c-2.6,2.1-3.4,5.3-1.9,8.3c0.9,1.9,1.9,3.7,2.9,5.5c1.6,2.9,3.3,5.9,4.5,8.9
	c0.8,1.8,0.5,2.3-1.2,3.2C64.1,194.1,63.8,194.2,63.4,194.4z"/>
<path class="st1" d="M567.2,191.6c0.4-2.1,0.8-4.2,1.2-6.3c0.1-0.3,0.1-0.6,0.2-0.9c0.9-3.2,0.9-3.2,3.8-1.7
	c3.3,1.7,6.9,2.5,10.6,2.7c11.1,0.5,22-0.9,32.5-4.4c1.9-0.6,2-0.6,2.8,1.3c2.4,6.6,2.3,13.1-0.3,19.6c-0.3,0.7-0.7,1.4-0.7,2.3
	c-0.7,0.6-1.1,1.3-1.6,2c-6.6,9.3-15.7,13.3-26.8,11.2c-10.9-2.1-17.7-9-20.6-19.7C567.7,195.7,567.5,193.6,567.2,191.6z"/>
<path class="st1" d="M595.6,466.2c6.3-1,12.6-1.4,18.9-2c6.6,14.2,13.2,28.4,19.8,42.5c5,10.8,10.1,21.6,15.1,32.3
	c0.4,0.9,0.5,2.1,2,1.8c-4.3,1.8-8.5,3.9-12.9,5.3c-10.2-19-20.5-38-30.7-56.9c-3.8-7-7.6-14.1-11.4-21.1
	C596.2,467.5,595.9,466.8,595.6,466.2z"/>
<path class="st1" d="M570.9,468.5c5.5-0.5,11.1-1.1,16.6-1.6c0.5,0,1,0,1.4,0c0,1,0.1,1.9,0.1,2.9c0,27.1,0,54.2,0,81.3
	c0,1,0.1,2.1,0.1,3.1c-4.4,0-8.8,0-13.2,0c0.3-4.1-0.4-8.1-0.5-12.2c-0.1-3.4-0.5-6.8-0.7-10.3c-0.6-9.4-1.1-18.8-1.6-28.2
	c-0.6-10.6-1.3-21.2-1.9-31.7C571.2,470.7,571,469.6,570.9,468.5z"/>
<path class="st0" d="M63.4,194.4c0.4-0.2,0.7-0.3,1.1-0.5c1.7-0.9,2-1.4,1.2-3.2c-1.3-3.1-3-6-4.5-8.9c-1-1.8-2-3.6-2.9-5.5
	c-1.5-3-0.8-6.2,1.9-8.3c0.9-0.7,1.8-1.2,2.8-1.9c1.3-0.9,2.5-1.8,3-3.3c0.4-1.4,1.2-1.6,2.4-1.3c3.5,0.8,7,1.3,10.6,1.5
	c6.3,0.3,12.2-0.9,17.3-4.8c0.1-0.1,0.3-0.1,0.4-0.2c1.9,1.9,2.3,4.4,2.9,6.7c1.7,7.4,0.4,14.4-3.9,20.8c-4.1,6-9.8,9.6-17,11
	c-5,1-9.8,0.4-14.5-1.5C63.8,194.8,63.6,194.7,63.4,194.4z"/>
<path class="st0" d="M119.6,508.8c6.2-0.1,12.3-0.8,18.5-0.6c0.3,2.5-0.4,4.9-0.6,7.4c-0.3,3.4-0.8,6.8-1.3,10.2
	c-0.4,3.4-0.9,6.8-1.3,10.2c-0.4,4-0.9,7.9-1.5,11.8c-0.2,1,0.4,1.2,1.3,1.2c2.6,0,5.1,0,7.7,0c0.9,0,1.8-0.2,2.5,0.4
	c-9.3,0-18.6,0-27.9,0c2.5-0.9,2.5-0.9,2.5-3.7c0-11.4,0-22.8,0-34.2C119.5,510.5,119.6,509.7,119.6,508.8z"/>
<path class="st0" d="M50.8,540c2.9,1.3,5.8,2.5,8.7,3.9c7.1,3.3,10.7,10.9,8.5,18.3c-0.2,0.5-0.3,1.1-0.6,1.6s-0.6,0.7-1.2,0.5
	c-0.3-0.1-0.6-0.3-0.9-0.4c-11.7-5-23.3-10-35-15c-0.4-0.2-0.7-0.3-1.2-0.6c2.1-4.8,4.1-9.6,6.1-14.3c1.1-0.3,1.8,0.7,2.8,0.7
	C42.4,536.7,46.6,538.4,50.8,540z"/>
<path class="st0" d="M50.8,540c-4.2-1.7-8.5-3.4-12.5-5.4c2.7-6.2,5.3-12.4,8-18.7c1.8-4.2,3.8-8.3,5.2-12.6
	c6.8-0.1,13.6-0.2,20.4,0c-0.2,1.4-1.2,2.4-1.8,3.6c-4.6,7.9-9.2,15.7-13.8,23.5C54.5,533.7,52.7,536.9,50.8,540z"/>
<path class="st0" d="M117.1,549.4c9.3,0,18.6,0,27.9,0c6.5,1.2,10.8,4.9,12.6,11.2c1.3,4.4,1.1,4.6-3.5,4.6c-11.4,0-22.8,0-34.2,0
	c-0.6,0-1.1,0-1.7,0c-1.2,0.1-1.2-0.6-1.2-1.5c0-3.2,0-6.4,0-9.6C116.9,552.6,117,551,117.1,549.4z"/>
<path class="st1" d="M576,554.2c4.4,0,8.8,0,13.2,0c2.7,0.1,2.7,0.1,2.7,2.7c0,4.2,0,8.4,0,12.6c-0.3,0-0.6,0.1-1,0.1
	c-12.9,0-25.8,0-38.7,0c-0.3-7.6,6.1-15.1,14.8-15.3C570,554.2,573,554.2,576,554.2z"/>
<path class="st0" d="M131.2,361.5c-0.1,0.6-0.1,1.3-0.2,1.9c-0.3,1.4,0.1,2.5,1.1,3.6c2.8,3.3,2.6,8.2-0.3,11.4
	c-2.8,3.1-7.6,3.7-11.1,1.4s-5-6.8-3.2-10.7c0.6-1.4,0.8-2.7,0.6-4.1c-0.3-2.2-0.7-4.4-0.9-6.6c-0.1-1.2-0.6-1.4-1.7-1.4
	c-2.6,0.1-5.3,0-7.9,0c-0.9,0-1.8,0.1-2.6-0.3c3.9,0,7.8-0.1,11.7,0c1.9,0,2,0.1,2.2,2c0.1,1,0.5,1.3,1.5,1.4c2.8,0.3,5.6,0.9,8.5,1
	C129.7,361,130.5,361.3,131.2,361.5z"/>
<path class="st0" d="M50.9,339.2c1.6,2.4,2,5,1,7.8c-1.4,4.1-5.4,6.5-9.9,5.7c-3.9-0.6-6.9-4.2-7-8.3c0-1.1,0.5-2.3-0.5-3.2
	c3.1-2.3,6.1-4.7,9.2-7c0.5-0.4,1.5-1.5,1.9,0.2c0,0.5,0,1.1,0.6,1.4c0.9,0.4,1.7,1,2.8,1l0,0C49.2,338,50.2,338.5,50.9,339.2z"/>
<path class="st3" d="M45.3,329.6c-1.6-3.9-3-7.5-4.5-11.1c-2.4-6.1-4.8-12.1-7.3-18.2c-0.7-1.8-0.9-3.4-0.4-5.3
	c1.7-6.5,3.2-12.9,4.9-19.4c0.1-0.5,0.3-1,0.7-1.5c0.4,2.6-0.3,5.1-0.5,7.6c-0.2,2.4-0.4,4.9-0.8,7.3c-0.4,2.4-0.3,4.7-0.8,7.1
	c-0.7,3.2,0.5,6.1,1.4,9.1c2.3,7.3,4.7,14.5,7.1,21.8C45.3,327.7,45.7,328.4,45.3,329.6z"/>
<path class="st3" d="M110.1,338.4c-0.9-6.1-1.7-11.6-2.6-17.2c-0.7-4.7-1.6-9.4-2.3-14.1c-0.7-4.8-1.3-9.6-2.1-14.4
	c-0.3-2-0.8-4-0.9-6.1c0-0.9,0.2-1.4,1.2-1.6c1.8-0.4,1.8-0.5,2.3,1.5c0.1,0.5,0.2,1.1,0.3,1.6c0.3,5.2,1,10.4,1.3,15.6
	c0.2,2.6,0.4,5.2,0.7,7.8c0.2,2.5,0.3,5,0.7,7.6c0.3,2.3,0.4,4.7,0.6,7.1c0.2,2.9,0.4,5.9,0.9,8.8
	C110.4,336,110.4,336.9,110.1,338.4z"/>
<path class="st0" d="M49,336.9c-1.1,0.1-1.9-0.6-2.8-1c-0.6-0.2-0.6-0.8-0.6-1.4C46.9,335.1,48,335.9,49,336.9z"/>
<path class="st0" d="M50.9,339.2c-0.7-0.8-1.6-1.3-1.9-2.3c0.8,0.2,1.4,0.6,2,1.2C50.9,338.5,50.9,338.9,50.9,339.2z"/>
<path class="st0" d="M39.1,272.7c0-0.2-0.1-0.3-0.1-0.4c0-0.2,0.2-0.2,0.3-0.1c0,0,0.1,0.1,0,0.2C39.2,272.5,39.1,272.6,39.1,272.7z
	"/>
<path class="st1" d="M595.7,311.6c-0.5,1-1,2-1.5,3c2,1,4.1,1.5,6.1,2.1c6.2,1.8,12.4,3.5,18.6,5.3c0.5,0.1,0.9,0.3,1.3,0.5
	c0.6,1.7,1.2,3.4,1.9,5.3c-2.6,0.7-5.2,0.6-7.8,0.3c-8.7-1-16.1-4.7-22.8-10.1c-0.9-0.8-1.9-1.5-2.8-2.2c-1.6-1.7-3.1-3.3-4.7-5
	c-0.9-1-1.9-1.9-2.3-3.2c1.3-0.7,2.5-0.5,3.8,0C588.9,309,592.3,310.2,595.7,311.6z"/>
<path class="st1" d="M572.4,278.3c0.5-1.4,1.7-2.3,3-3.1c-1.5-0.7-3-1-4.5-1.4c-0.8-0.2-1.3-0.6-1.6-1.5
	c-3.3-12.6-6.8-25.1-10.1-37.6c0-0.1,0-0.1,0.1-0.3c0.6-0.5,1,0.1,1.5,0.3c9.9,4.8,19.8,9.6,29.8,14.3c1,0.5,1.6,1.1,2,2.1
	c5.6,14.5,11.2,29,16.8,43.5c0.1,0.2,0.1,0.4,0.2,0.8c-2.9-0.4-5.4-1.9-8.5-2.4c0.5,1.5,0.8,2.8,0.5,4.1c-1.8-0.3-3.8-0.2-5.6-0.9
	c0.3-0.7,0.7-1.4,1-2c1.1-2.6,0.9-5.2-0.6-7.6c-2.2-3.6-6.4-4.9-10.4-3.3c-1,0.4-1.9,0.5-2.9-0.1C579.5,281.7,575.9,280,572.4,278.3
	z"/>
<path class="st1" d="M572.4,278.3c3.5,1.7,7.1,3.4,10.6,5.1c1,0.5,1.8,0.5,2.9,0.1c4.1-1.6,8.2-0.3,10.4,3.3
	c1.5,2.4,1.7,4.9,0.6,7.6c-0.3,0.7-0.6,1.3-1,2c1.8,0.8,3.8,0.6,5.6,0.9c0.1,1-0.2,2-0.5,3c-1.2,4-3,7.8-5.4,11.2
	c-3.4-1.3-6.8-2.6-10.2-4c-1.3-0.5-2.6-0.8-3.8,0c-2,0-4-0.4-5.7-1.4c-3.1-1.9-4.5-5.8-3.5-9.4c0.2-0.7,0.5-1.3,0.8-2.1
	c-0.8-0.5-1.7-0.7-2.6-0.9c-0.7-0.1-1.2-0.5-1.1-1.3C570,287.6,570,282.7,572.4,278.3z"/>
<path class="st1" d="M622.6,289.7c0.9,3,2,5.2,3.7,7.2c0.7,0.8,1.1,1.8,0.4,2.9c-0.7,1-1.7,1.1-2.8,0.7c-2.5-0.9-5.1-1.7-7.8-2.6
	C617.7,294.7,619.9,292.2,622.6,289.7z"/>
<path class="st0" d="M347.7,22.8H125c-11,0-20,9-20,20v50.1c0,11,9,20,20,20h12.2l15,15.4l15-15.4h180.6c11,0,20-9,20-20V42.8
	C367.7,31.8,358.7,22.8,347.7,22.8z"/>
<path class="st1" d="M429.4,38.9h165.6c8.2,0,14.9,6.3,14.9,13.9v34.8c0,7.7-6.7,13.9-14.9,13.9h-9l-11.1,10.7l-11.1-10.7H429.4
	c-8.2,0-14.9-6.3-14.9-13.9V52.8C414.5,45.2,421.2,38.9,429.4,38.9z"/>
<rect x="426.8" y="61.7" class="st4" width="176.8" height="15.6"/>
<text transform="matrix(1 0 0 1 426.7518 76.8882)" class="st3 st5 st6">Nice to meet you!</text>
<rect x="157.3" y="61.7" class="st4" width="176.8" height="15.6"/>
<text transform="matrix(1 0 0 1 157.2992 76.8882)" class="st3 st5 st6">Nice to meet you!</text>
</svg>
