<svg id="Layer_1" data-name="Layer 1" xmlns="http://www.w3.org/2000/svg" viewBox="0 0 1080 1080"><defs><style>.cls-1{fill:#ff9a26;}.cls-2{fill:#fff;}.cls-3{fill:none;stroke:#000;stroke-miterlimit:10;}.cls-4{fill:#253857;}.cls-5{fill:#48736c;fill-rule:evenodd;}</style></defs><circle class="cls-1" cx="536.81" cy="526.68" r="275.93"/><path class="cls-2" d="M375.3,213.57c-83.49,28.37-153.83,97-176.73,212.5l94.64,19c15.08-76.07,61.41-121.29,116.41-140Z"/><path d="M267.45,289.94c-10,11.32-16.75,24.87-21,39.28h0c-16.72,27.33-29.53,59.55-37.16,96.9l-.36,1.77,1.71.35L283,442.83l1.72.35c.1-.53.21-1.06.32-1.59,4.88-23.77,12.7-44.63,22.82-62.7l.27-.48L308,378q-2-7.23-3.55-14.68a186,186,0,0,1,39.95-44.83c4.55.9,9,2,13.4,3.18l.41.14c.14-.09.27-.19.4-.29A180.79,180.79,0,0,1,407,296.69l1.15-.38c-.2-.56-.4-1.11-.61-1.67Q394.77,259.53,382,224.42c-.2-.56-.4-1.11-.61-1.67l-1.6.54a251.18,251.18,0,0,0-74.84,40.07,101,101,0,0,0-37.45,26.58Zm2.86,2.13a96.45,96.45,0,0,1,36.25-25.48l.27-.21.27-.21A247.68,247.68,0,0,1,379.71,227L405,294a183.42,183.42,0,0,0-48.29,24.9q-6.61-1.8-13.48-3.16l-.43-.11-.42.33a189,189,0,0,0-40.88,46l-.31.49c.05.14.1.29.14.44q1.56,7.51,3.57,14.8a220.53,220.53,0,0,0-22.65,61.95l-69.1-15c7.58-36,20.06-67.05,36.24-93.49l.2-.32.19-.32a94.34,94.34,0,0,1,20.53-38.47Z"/><path d="M251.28,334.2h0c-16.58,27.45-29.14,59.9-36.35,97.61l3.09.59c7.13-37.26,19.54-69.33,35.92-96.45h0c8.92-25.72,26.08-50.74,56.85-64.52h0a242.43,242.43,0,0,1,76.13-40.06c-.36-1-.71-2-1.07-3a245.74,245.74,0,0,0-76.24,39.92l-.27.21C281.76,279.91,260.66,304.09,251.28,334.2Z"/><path d="M261.09,332.51l42.2,29.31c.46-.72.93-1.44,1.4-2.15l-41.85-29.84C262.25,330.72,261.67,331.61,261.09,332.51Z"/><path d="M231.32,256.69l2.09,1.93,34.3,31.56c.73-.83,1.46-1.65,2.2-2.46l-22-20.74a42.6,42.6,0,0,0,5.91-3.25,27.08,27.08,0,0,0,3.41-5.07c.88-1.38,1.23-2.75,2.62-3.61,1.14-1.11,3.07-2,7.11-2.83q1.6-.28,3.21-.54L268,249.29l-10.69-11.95-.71-.8-.85.3c-6.23,1.83-9.16,6.2-11.36,10s-4,6.68-10.07,9.18C234.36,255.41,231.32,256.69,231.32,256.69Zm19.39-13.63a8.55,8.55,0,0,1,4.59-2.4l8.17,8.94c-2.18.57-4.65,1.46-5.81,2.59a10.47,10.47,0,0,0-3.54,5.05,10.7,10.7,0,0,1-2.33,3.95c-1.11,1.18-3,2.15-6,3.29l-7.76-7.33a27.59,27.59,0,0,0,9.76-9.25A27.62,27.62,0,0,1,250.71,243.06Z"/><path class="cls-3" d="M321,276.63c2-1.48,3.95-2.91,5.95-4.32l9.3,13.07q-2.82,2-5.58,4.05Z"/><path class="cls-3" d="M336.75,265.81q3.09-1.94,6.24-3.77l8.29,13.71c-2,1.15-3.91,2.32-5.85,3.53Q341.1,272.55,336.75,265.81Z"/><path class="cls-3" d="M353,256.56q3.23-1.67,6.48-3.24,3.65,7.13,7.27,14.26c-2,1-4.07,2-6.08,3Z"/><path class="cls-3" d="M370,248.55c2.22-.94,4.46-1.84,6.7-2.71q3.11,7.36,6.19,14.72c-2.11.82-4.2,1.66-6.28,2.54Q373.35,255.83,370,248.55Z"/><path class="cls-3" d="M337.31,298.24q2.64-2,5.33-3.86,4.65,6.54,9.29,13.07-2.49,1.76-4.95,3.59Z"/><path class="cls-3" d="M351.41,288.57c1.85-1.16,3.71-2.28,5.58-3.38l8.3,13.71q-2.62,1.53-5.19,3.14Z"/><path class="cls-3" d="M365.91,280.29c1.92-1,3.85-2,5.8-2.9L379,291.65q-2.72,1.31-5.39,2.69Z"/><path class="cls-3" d="M381.2,273.12c2-.83,4-1.64,6-2.42q3.09,7.37,6.19,14.72-2.81,1.09-5.58,2.25Z"/><path class="cls-3" d="M231.71,417.34c.74-3,1.53-6,2.35-9l15.1,4.58c-.78,2.76-1.51,5.57-2.22,8.4Z"/><path class="cls-3" d="M238.32,394.44c1-2.83,1.92-5.61,2.94-8.36l14.64,6c-1,2.57-1.87,5.19-2.75,7.84Z"/><path class="cls-3" d="M246.41,373.11q1.68-3.94,3.47-7.77L264,372.6c-1.11,2.4-2.2,4.82-3.25,7.29Z"/><path class="cls-3" d="M255.87,353.33c1.29-2.43,2.61-4.83,4-7.18l13.48,8.46q-1.9,3.31-3.72,6.73Z"/><path class="cls-3" d="M257.44,424.12q1-4.06,2.11-8l15.09,4.58c-.68,2.45-1.34,4.94-2,7.46Z"/><path class="cls-3" d="M263.36,403.64c.85-2.53,1.72-5,2.63-7.48l14.64,6c-.84,2.28-1.66,4.6-2.44,6.95Z"/><path class="cls-3" d="M270.6,384.55q1.5-3.53,3.1-6.94l14.1,7.26c-1,2.12-1.95,4.28-2.88,6.46Z"/><path class="cls-3" d="M279.06,366.86c1.15-2.18,2.34-4.32,3.55-6.42l13.48,8.46q-1.69,2.94-3.3,6Z"/><path d="M278.13,302.59A136.45,136.45,0,0,0,256.9,337.9l-.19.31c-15.45,25.66-27.3,55.8-34.41,90.63l3.08.64c7.06-34.55,18.83-64.42,34.18-89.83h0c10.12-24.24,27.14-47.43,55.41-62.9h0A236,236,0,0,1,385.24,239l-1.11-3a239,239,0,0,0-70.36,37.61l-.26.2a116,116,0,0,0-35.38,28.77Z"/><path d="M267.88,321.28l40.47,31.22,1.5-2.05-40.11-31.71C269.11,319.58,268.49,320.43,267.88,321.28Z"/><path d="M276.59,307.71l39.9,34.84c.53-.64,1.07-1.27,1.6-1.9l-39.5-35.32C277.92,306.12,277.25,306.91,276.59,307.71Z"/><path d="M288,295.91l37.21,36.81c.56-.59,1.13-1.18,1.7-1.76q-18.4-18.61-36.79-37.24C289.45,294.44,288.74,295.17,288,295.91Z"/><path d="M299.33,286.31l34.4,38.08c.59-.55,1.19-1.09,1.79-1.63l-34-38.46Z"/><path d="M309.24,279.55l32.87,39.88,1.84-1.51q-16.21-20.12-32.42-40.25C310.76,278.29,310,278.92,309.24,279.55Z"/><path d="M297.67,314.3A111.14,111.14,0,0,0,279,342.59l2.78,1.57a105.43,105.43,0,0,1,42.62-47.58l-1.79-2.68A126.78,126.78,0,0,0,297.67,314.3Z"/><path d="M286.59,442.89l3.08.64c4.77-23.66,12.52-44.38,22.57-62.29q5.49-2.91,11-5.25l.14-.22.13-.21a165.11,165.11,0,0,1,35.43-39l.18-.15c0-.14,0-.28,0-.42q1.06-5.2,2.48-10.41A176.23,176.23,0,0,1,409.67,301c-.37-1-.73-2-1.1-3A178.89,178.89,0,0,0,359.66,323l-.2.14c0,.15,0,.29,0,.44Q358,328.77,356.91,334a167.72,167.72,0,0,0-35.74,39.29q-5.62,2.47-11.24,5.55l-.13.24-.14.24c-10.28,18.25-18.2,39.4-23.07,63.55Z"/><path class="cls-3" d="M326.39,347.36c1.7-2,3.44-3.92,5.21-5.82l10.21,9.93c-1.64,1.75-3.26,3.56-4.84,5.4Z"/><path class="cls-3" d="M343.87,331.07c1.33-1.18,3.86-.53,5.47,1.38l4.84,5.71c-.86.57-1.71,1.16-2.56,1.76s-1.54,1.37-2.3,2.08l-4.78-5.28c-1.74-2.28-2-4.47-.67-5.65Z"/><path class="cls-3" d="M316.82,361.39c-1.08,1.54-.27,4.13,1.74,5.58l6,4.39c.61-.9,1.24-1.8,1.86-2.69s1.26-1.77,1.91-2.64l-5.59-4.38c-2.67-1.77-4.86-1.79-5.94-.26Z"/><path class="cls-4" d="M640,767.53c-3,7.9,27,4.12,33.31,3.9q-11-20.34-22.75-40.2Q646.1,749.19,640,767.53Z"/><path class="cls-4" d="M658.79,662.59c12.06-12.21,25.9-7.19,26-7.19-7.5-7.33-13.4-21.27-28.55-19.64.39,2.17,11,9.47,7.63,12.75-5.89-1.6-7.89-8.2-11.48-11.42a18.39,18.39,0,0,0-6.77,4.31c15.23,16.32,9.23,22.14-3,3-2.18,2.88-3.89,5.25-4.81,8.14,2.36,4.45,7.83,7.43,8.35,14.42-3.07,3.55-7.79-8.83-9.46-9.37-2.79,16.77,8,24.39,13,34.07C648.6,691.32,646.38,675,658.79,662.59Z"/><path class="cls-4" d="M644.3,695.26l-2.62-4A455.79,455.79,0,0,1,627.09,753c0,.57,8.44,8.47,8.67,8.87A467.72,467.72,0,0,0,652,697.27C648.64,699.33,646.4,697.87,644.3,695.26Z"/><path class="cls-4" d="M622.62,746.86c1.35-.81,16.48-63.86,14-63.24-1.09-3.51-7.29-14.91-7.26-19.1q-15-21.42-30.75-42.17a396.94,396.94,0,0,1-6.7,69.83c3.66,0,29.11,50.8,31,54.43Z"/><path class="cls-4" d="M752.27,687.12c.31-2.94,3-17,.25-16.57,0,0-6-6.94-6-6.93q-6.6.51-13.18.9Q742.9,675.71,752.27,687.12Z"/><path class="cls-4" d="M781.75,783.09c.69,1.1,1.39,2.19,2.09,3.29q6.31-12.25,12-24.48c-1.78,1-3.57,1.92-5.36,2.87Q786.28,773.92,781.75,783.09Z"/><path class="cls-4" d="M716.9,820.88q-1.87,2.75-3.78,5.49,8.1-2.24,16.15-4.63l-1.11-2.16-.22-.43-.67-1.3Q722.1,819.4,716.9,820.88Z"/><path class="cls-4" d="M802.14,837.25a8.93,8.93,0,0,0,2.17-1.37l-1.68-3c-3.8,2.42-9.89,2.26-11.25,3.92-.77.71-2.18,1.34-3,.83a7.73,7.73,0,0,1-2.43,4.1c-3.23,2.69-12,11.36-14,11a9.91,9.91,0,0,1-2,2.95c-1.61,1.9-3.78,8.8-8.17,13l1.66,3.54a2.31,2.31,0,0,0,.63-1.13c-14.2,17.88,13,15.63,16.19,19.81-.08.08,32.88,23.26,33,23.18-3.39,5.37-.64,11.33,4.68,9.06q3.69,8.34,7.27,16.74c-14.76,14.3-16.07,23.21-16.49,27,10.54-11.07,18.72-11.88,24-16.67,5.45-3.93-11.57-30.46-10.89-32.23-7-16.25-9.23-58.62-8.09-83.15C813.37,835.17,810.14,833.7,802.14,837.25Z"/><path class="cls-4" d="M784.81,800.69c-6.72-7.55-11.87-34.71-35.14-23a15.77,15.77,0,0,1-2.21,9.84q7.66,12.94,15,26.1c1,1.12-.11,4.53-1.67,4.05-3.3,3.06-11.22,4.43-18.5,13.5,0-3.65,0-11.86,11-24q-4.53-8.06-9.16-16a8.64,8.64,0,0,1-7.89,1.34c-4.53,8.66-5.58,17.92-3,22.14h0q5.78,11,11.35,22.06c-6.58,12.37,4.7,21.11,5.78,27.15a46,46,0,0,1,5.51-10q2,4.15,4,8.35s4.84-10.19,6.81-11.89c-1.09-2.18-2.2-4.36-3.31-6.53,1.76-2.13,3.74-3.84,5.85-6.32,1.29,2.45,2.58,4.9,3.85,7.35,0,0,3.6-3.09,10.19-9q-2-3.65-4-7.27c2.53-1.65,4.81-3.73,6.93-5q1.69,3,3.36,5.94c1.91-1.74,10.77-3.52,10.77-3.54q-2.21-3.79-4.43-7.58a25.39,25.39,0,0,1,7.55-2q-5-8.37-10.15-16.65C792.88,800.81,790.27,799.39,784.81,800.69Zm-10.52-2.44c3.25,22.89-17.88-5.33-17.82-9.33q5.25-1.32,10.48-2.71Q770.66,792.2,774.29,798.25Z"/><path class="cls-4" d="M665.54,631.22c2.07,1.65,13.06,9,14.45,11-.14.62,52.37-1,52.49-1.57q-20.22-21.78-41.3-42.65l-.34-.34c-1.46-5.18-10.36-5.85-16-5.09,1.18,3.49,29.78,21.21,12.9,32.68-30.34.73-33.91-39.42-60.19-35.29.85,0,35.14,40,35.94,39.94A5.64,5.64,0,0,1,665.54,631.22Z"/><path class="cls-4" d="M688,651.83a8.25,8.25,0,0,1,1.71,7.33q25.53-.35,51.48-2.67-2.81-4.89-5.67-9.71-25.32,1.82-50.29,1.72Z"/><path class="cls-4" d="M756,601.06q-20.6-18.78-41.84-36.71c-18.49-13.26-35.57,12.54-20.42,29.53h0q20.07,19.49,39.39,39.8C732,621.19,744.83,601.87,756,601.06Z"/><path class="cls-4" d="M756.35,665.86c-5.69-21.25,13.43-47.25,31.81-43.14C779.67,616.45,772,603,756.9,607.39c.67,2.17,12.26,7.87,9.3,11.84-6.14-.62-9-7.09-13-9.79a20.48,20.48,0,0,0-6.29,5.65c17.45,14.18,12.14,21.21-2.6,3.63-1.83,3.35-3.27,6.1-3.83,9.24,3,4.16,8.87,6.27,10.28,13.35-2.64,4.18-9-7.7-10.76-8-.69,17.38,10.74,23.09,16.88,31.9Z"/><path class="cls-4" d="M823.91,667.82c-2.68,2.07-8.09,2.53-8.88,4.12a2.39,2.39,0,0,1-2.52,1,5.5,5.5,0,0,1-1.06,3.82c-2.18,2.66-7.67,11.07-9.56,10.9a6.87,6.87,0,0,1-1,2.77c-.92,1.82-.93,8.09-3.69,12.18,2.61.3,1.83,8.2,1,12.2,15,1.7,45.73,16.87,57.75,23-1.56,5.08,2.58,10.12,6.75,7.61q5.81,7.26,11.52,14.59c-9.34,14.11-8,22.17-7.32,25.61,5.95-10,14.77-14.37,17.32-16.72,3.85-4-18.9-26-18.78-27.65-10.88-13.86-25-51.36-30.67-73.12-3.58,1.36-9.74,2.2-10.42-1Z"/><path class="cls-4" d="M798.2,641.15q-5.88-5.8-11.82-11.54c-14.86-1.67-28.6,20.16-25.06,34.65,0,0,10.62,12,10.6,12a20.77,20.77,0,0,0,.38,8.6q6.29,7.38,12.48,14.86a33.58,33.58,0,0,1,2.11-9.32q3,3.51,6,7s1.48-9.41,2.78-11.08q-2.4-2.75-4.82-5.47c1-2,2.29-3.69,3.51-6.06q2.77,3.06,5.53,6.14s2.38-3,6.7-8.83q-2.8-3-5.64-6c1.84-1.67,3.32-3.7,4.89-5l4.7,4.92c1.25-1.69,8.81-4.05,8.81-4.07l-6.12-6.26a21,21,0,0,1,6.34-2.4q-6.88-6.88-13.85-13.68C805.47,639.87,802.47,639.19,798.2,641.15Zm-22.69,19.71q-1,2.48-2,4.94-3.25-3.59-6.54-7.16,1-2.43,1.95-4.88Q772.22,657.3,775.51,660.86Zm6.74-9.75q-1.56,2.11-3.14,4.22-3.17-3.35-6.36-6.68,1.56-2.07,3.09-4.17Q779.05,647.78,782.25,651.11Zm8.21-8.1-3.83,2.9q-3.24-3.28-6.49-6.56l3.79-2.86Q787.2,639.74,790.46,643Z"/><path class="cls-4" d="M618,751.52q-12.18-24.85-25.41-49c-12.47-18.7-41,2.61-33.59,24.18h0q11.25,25.47,21.36,51.57C585.06,765.2,606.59,749.18,618,751.52Z"/><path class="cls-4" d="M609.49,787.8c17.28-11.92,30.5-5,30.6-4.94-5.67-8.77-7.35-24.54-24.32-24.4-.3,2.39,8.71,11.45,4,14.64-5.86-2.36-5.8-9.73-8.6-13.62a26.83,26.83,0,0,0-8.84,4c11.05,19.32,2.54,25-4.24,3-3.36,2.89-6.05,5.28-8,8.31,1.06,5.07,6,8.88,4.2,16.49-4.57,3.51-5.51-10.37-7.15-11.13-8.84,17.85.42,27.19,2.56,38.16C589,817.49,592.12,799.64,609.49,787.8Z"/><path class="cls-4" d="M655.93,838.46c-3.62,1.34-9.25.3-10.77,1.68-.82.56-2.23,1-3,.31a7.21,7.21,0,0,1-2.8,3.6c-3.4,2.09-12.79,9.14-14.62,8.44a9.14,9.14,0,0,1-2.25,2.55c-1.77,1.6-4.69,8-9.38,11.41,2.5,1-2,8.89-4.67,12.76,14.37,5.84,37.91,29.71,47,39.36-3.94,4.75-2.1,11,3.27,9.65q2.49,9,4.85,18.1c-16,11.83-18.54,20.46-19.46,24.18,10.76-8.57,21.73-10.61,25.41-12.32,5.76-3-7-31.82-6.09-33.46-4.52-17.19-1.43-59.35,2.64-83-3.69.22-10.65-.24-9.78-3.52Z"/><path class="cls-4" d="M608.23,850.61c.93,2.94,1.86,5.89,2.77,8.84,0,0,5.86-9.19,7.93-10.53-.77-2.31-1.54-4.62-2.33-6.92,1.93-1.79,4-3.13,6.32-5.2q1.38,3.88,2.75,7.8s3.78-2.44,10.77-7.11c-1-2.59-1.94-5.16-2.91-7.73,2.6-1.19,5-2.83,7.18-3.76q1.24,3.16,2.48,6.33c2-1.38,10.66-1.64,10.66-1.66q-1.65-4-3.31-8.08a24,24,0,0,1,7.41-.65c-3.65-4.23-3.53-21.12-15.73-19-4.11-5.31-2.43-26.8-30.15-10.05-28.24,22-12.22,31.11-11.83,39.31-7.83,11.11,1.91,21.37,2.09,27.53C601.89,860,603.84,856.1,608.23,850.61Zm16.38-53.14,5.08-1.83q1.9,4.44,3.78,8.9l-5.16,1.87Q626.48,801.93,624.61,797.47Zm-11.43,6.67q2.51-1.68,5-3.37c1.16,2.84,2.29,5.68,3.42,8.53-1.68,1.15-3.37,2.28-5.07,3.42Q614.86,808.42,613.18,804.14Zm-10.06,9.46q2.11-2.21,4.2-4.43c1.09,2.87,2.16,5.74,3.22,8.63-1.43,1.49-2.86,3-4.31,4.47Q604.7,817.94,603.12,813.6Z"/><path class="cls-4" d="M705.84,830.33q3.2-5.82,6.22-11.62c.21.43.43.87.64,1.31q2.52-4.17,4.93-8.33c-2.32,0,2.51-8.52,3.75-11.2.23.43.46.86.68,1.29,1.47-2.92,2.91-5.82,4.32-8.73-2-.07,1.35-7.17,2.45-9.76.86-3-7.17-7.09-8.52-8.3q-9,22-20.27,44.24,2.73,5.68,5.41,11.41Z"/><path class="cls-4" d="M743.28,767.41c2.23.4,2,3.17,5.86,1.63-.46,2.92,5.94.94,9.1-.18l-1-1.64c2.86-.55,12.55-3.61,11.84-.31,2.5-.94,5-1.88,7.51-2.84l-1.09-1.62c3.19-.75,6.37-1.53,9.55-2.32l1.93,2.8q3.89-1.29,7.75-2.62c-.55-.8-1.11-1.6-1.67-2.39l7.68-1.95q-3.68-5.15-7.4-10.25-26.13,7.37-52.42,12.83C741.69,761.49,742.5,764.45,743.28,767.41Z"/><path class="cls-4" d="M656,712.17c-.26-.41-.17-1.75,0-3.77C643.37,718.55,701,804.48,700.28,810q9.09-18.84,16.45-37.49-7.56-5.34-15.06-10.75,1.35,2.29,2.68,4.59c0-1.5,5.78,12.9-2.5,12.83-3.29-.7-8.15-12.78-10-15.13,0,0,2.61-6,2.59-6-2.9-1.24-14.65-6.46-17.35-7.56-1.65-3.85,2.65-13.59-.75-16.95C665.9,742.08,658.65,714.79,656,712.17Z"/><path class="cls-4" d="M726.28,664.66q-16.89,1-33.61,1.15c4,3.35,9,1.06,10.85,5.09,1.11,5.38,18.75,13.81,11.88,25,1.77,5,10.4,2.84,13.21,5.43.61,3.06,2.53,12.84,3.1,16.06,4.12-1.05,19.22,24.65,4,18.31q2.49,8.6,4.75,17.35,23.4-5.18,46.68-11.86Q758,701.74,726.28,664.66Zm36,59.15c5.87,21.52-17.62-4.81-18.06-8.57q4.82-1.29,9.62-2.66Q758.11,718.18,762.3,723.81Z"/><path class="cls-4" d="M723.46,706c-3.26.55-9.62.79-9.74-2.25-3,1.92-8.52,1.42-9.47,2.81a2.3,2.3,0,0,1-2.58.56,5,5,0,0,1-1.51,3.49c-2.46,2.2-8.88,9.41-10.7,8.94a6.19,6.19,0,0,1-1.3,2.52c-1,1.54-2.1,7.44-4.85,10.87l-.31.28c2.5.71.71,8.21-.62,12,14.32,4,42.25,23.57,53.16,31.39-5.19,10.07,12,12,7.66-.62C732.1,765.76,727.78,723.2,723.46,706Z"/><path class="cls-4" d="M662.84,668.62c-18.2,20.94-2.65,28.58.09,35.39-3.77,10.65,7.57,19.16,9.48,24.67a31.91,31.91,0,0,1,3.26-8.66c1.64,2.58,3.27,5.15,4.89,7.74,0,0,2.66-8.84,4.14-10.24-1.33-2-2.65-4-4-6,1.21-1.8,2.69-3.19,4.18-5.27,1.53,2.25,3.07,4.51,4.59,6.78,0,0,2.7-2.54,7.65-7.41-1.57-2.24-3.14-4.47-4.73-6.69,2-1.31,3.7-3,5.39-4q2,2.73,4,5.46c1.43-1.42,9.1-2.47,9.1-2.49q-2.58-3.5-5.18-7a20.36,20.36,0,0,1,6.48-1.28c-4.36-3.55-9-18.59-19.33-15.59C687.94,669.4,682.92,650.58,662.84,668.62Zm4.95,21.08q-1.27,2.2-2.57,4.41-2.72-4-5.45-7.92c.84-1.45,1.67-2.91,2.5-4.36Q665,685.76,667.79,689.7Zm7.76-8.24c-1.18,1.18-2.38,2.36-3.57,3.53q-2.67-3.72-5.34-7.41l3.5-3.48Q672.86,677.77,675.55,681.46Zm9-6.4c-1.36.73-2.72,1.44-4.09,2.15q-2.73-3.66-5.5-7.3l4-2.11C680.85,670.21,682.7,672.64,684.54,675.06Z"/><path class="cls-4" d="M656.05,629.63q-17.81-21.12-36.42-41.45c-16.49-15.51-35.7,5.58-23,24.24h0q17,21.62,33.13,44C630.43,644.13,645.8,628.53,656.05,629.63Z"/><path class="cls-5" d="M735.81,388.33l6.5,7.41,21.57-20.17,24.32-3.13a25.83,25.83,0,1,0,46.95-18.64l.06,0a34.77,34.77,0,0,0-44.69-53.26,23.71,23.71,0,1,0-21,42l-4.26,21.06-29.44,24.79Zm52.05-19.45-16.09-.23L788.47,353a36.15,36.15,0,0,0,2.79,2.35,25.87,25.87,0,0,0-3.4,13.56Zm-6.6-25.54a33.84,33.84,0,0,0,2.73,4.51l-12.1,9.86,1.42-14.29A24.11,24.11,0,0,0,781.26,343.34Z"/><path class="cls-5" d="M494.1,302.78l9.79-1.14-3.29-20.19,12-15.57A34.7,34.7,0,0,0,526.37,267C540.54,265.31,551.1,256,550,246.21c-1.06-9-11.64-15.34-24.36-15v0c-1.54-13.2-18.25-22.1-37.32-19.88-18.57,2.16-32.53,14.06-31.84,26.87-10,3-16.85,10.26-16,17.88,1,9,12.44,15.07,25.44,13.56A32,32,0,0,0,477.5,266l14.3,10.24,2.3,26.55Zm15.41-38-9.75,9.46-2.6-15.66q1.8-.33,3.54-.78a19.54,19.54,0,0,0,8.81,7Zm-24.34-5.44a50.59,50.59,0,0,0,5.23,0l.69,10.79-10.58-6.08A20.47,20.47,0,0,0,485.17,259.34Z"/><path class="cls-5" d="M545.52,300.5l9.8,1L557,277l15.4-15.41a29.57,29.57,0,0,0,13.17,4.62c14.18,1.5,26.7-6.86,28-18.68,1.14-10.86-7.64-20.87-20.1-23.57v-.06c1.68-15.9-12.44-30.43-31.54-32.45-18.59-2-35,8.65-37.45,23.88-10.47,1.06-18.86,8-19.83,17.16-1.15,10.84,8.48,20.75,21.49,22.13a27.45,27.45,0,0,0,12.14-1.41l11.46,15.52-4.15,31.78Zm24.14-41-11.77,8.77,1.24-19.05c1.23,0,2.44,0,3.63-.07a21.92,21.92,0,0,0,6.9,10.35Zm-22.38-12.31a39.94,39.94,0,0,0,5.09,1.31l-1.93,12.86-8.84-9.73A21.2,21.2,0,0,0,547.28,247.23Z"/><path class="cls-5" d="M599.49,344l7.62,2.42,7.68-26.7,16.37-14.88a18.89,18.89,0,0,0,9.41,6.8c11,3.5,23.28-4,27.33-16.82,3.74-11.77-.75-23.88-10.09-28.48l0-.06c5.46-17.22-2.16-35-17-39.71-14.46-4.59-30.46,4.89-36.34,21.28-8.69-.21-17.24,6.26-20.4,16.21-3.72,11.74,1.47,23.86,11.6,27.07a17.15,17.15,0,0,0,10.13,0L611,309.67,599.49,344Zm30-41.74-11.74,8.06,5.92-20.72a22.81,22.81,0,0,0,2.94.4,24.7,24.7,0,0,0,2.88,12.26ZM614.67,285.8a24.1,24.1,0,0,0,3.76,2.09l-4.88,13.85L609,289.92A22,22,0,0,0,614.67,285.8Z"/><path class="cls-5" d="M311.34,608.45l-4.13-9L280.8,612.71l-24.21-3.9a25.83,25.83,0,1,0-50.31,4.53l-.06,0a34.77,34.77,0,0,0,27.72,63.76A23.71,23.71,0,1,0,266,642.84l10.06-19,35.27-15.41Zm-55.43,3.87,15.37,4.79L250.8,627.4a31.4,31.4,0,0,0-2-3,25.84,25.84,0,0,0,7.11-12ZM255,638.68a34.54,34.54,0,0,0-1.34-5.1l14.4-6-5.42,13.3A23.59,23.59,0,0,0,255,638.68Z"/><path class="cls-5" d="M356.06,638.25l-5.56-6.71L322.32,656l-27.51,7.11a18,18,0,0,0-3.9-12.35c-8.05-9.7-25.82-8.24-39.69,3.27C238.45,664.61,233.43,680,239,690l-.07.06c-18.68,15.49-25,38.64-14.21,51.7,10.54,12.71,33.49,11.18,51.93-3.2,8.32,4.92,21.67,2.59,32.47-6.36,12.73-10.57,17.07-26.34,9.68-35.25a16.34,16.34,0,0,0-9.85-5.51l9.28-22.64,37.86-30.5Zm-61.64,28.51,17.7-2.31-21.84,19a21.64,21.64,0,0,0-2.56-2,35.27,35.27,0,0,0,6.7-14.67Zm1.73,25.59a22.61,22.61,0,0,0-2-4.27l15.49-12.2L304.93,691A29.64,29.64,0,0,0,296.15,692.35Z"/><path class="cls-5" d="M488.07,690l-9.68-3.82L462.94,728,438.21,751.3A21.55,21.55,0,0,0,427,740.61c-14-5.53-31.79,6.24-39.7,26.28-7.27,18.45-3.67,37.46,7.87,44.7l-.05.1c-10.64,27-4,54.89,14.88,62.34,18.37,7.24,41.52-7.57,52.56-33.25,11.55.36,24.2-9.77,30.35-25.36,7.26-18.4,2.72-37.43-10.14-42.5a19.6,19.6,0,0,0-13.49-.11l-3.32-29L488.07,690Zm-48.16,65.36,17.22-12.61-11.95,32.48a26.08,26.08,0,0,0-3.84-.64,42.31,42.31,0,0,0-1.43-19.23Zm16.55,25.82a26.64,26.64,0,0,0-4.6-3.3l9.21-21.7,3.81,18.55A35.35,35.35,0,0,0,456.46,781.18Z"/><path class="cls-5" d="M742.76,467.14l2.47,7.35,34.15-12.25,27.13,2.24a15.36,15.36,0,0,0-1.09,11.64c3.57,10.63,19.94,14.73,36.56,9.15,15.28-5.14,25.45-16.68,24.2-26.77l.09,0c22.37-7.51,36.6-25.21,31.79-39.53-4.68-13.94-25.68-19.54-47.43-12.89-5.58-6.67-18.34-8.71-31.27-4.37-15.25,5.13-25,17.19-21.67,27a13.91,13.91,0,0,0,6.73,7.63l-16.65,16.39-45,14.48Zm65.46-5.64-16.63-3.37,26.49-9.53a18.46,18.46,0,0,0,1.53,2.47,35.73,35.73,0,0,0-11.39,10.43Zm7.93-22.21a18.69,18.69,0,0,0,.23,4.23l-18.31,5.68,9.77-11.42A29.43,29.43,0,0,0,816.15,439.29Z"/><path class="cls-5" d="M753.43,494.63l.36,7.74,45.76-2.87,32.07,9.28c-3.65,3.27-5.67,7-5.49,11,.53,11.21,18.89,19.45,41,18.42,20.37-.95,36.82-9.42,38.92-19.5h.11c29.79-1.39,53.37-14.75,52.67-29.84-.69-14.69-24.13-25.6-52.86-24.88-4.38-7.9-19.11-13.22-36.33-12.41-20.31.95-36.38,10.05-35.9,20.34.16,3.41,2.12,6.53,5.42,9.13l-26,11.47-59.72,2.18Zm81.32,11.71-18.93-7.6,35.5-2.27a16.3,16.3,0,0,0,1,2.8,51.87,51.87,0,0,0-17.54,7.07ZM852.32,487a15.69,15.69,0,0,0-1.24,4.15l-24.22.68,15.92-8.46A41.24,41.24,0,0,0,852.32,487Z"/></svg>