<?xml version="1.0" encoding="utf-8"?>
<!-- Generator: Adobe Illustrator 24.2.1, SVG Export Plug-In . SVG Version: 6.00 Build 0)  -->
<svg version="1.1" id="Layer_1" xmlns="http://www.w3.org/2000/svg" xmlns:xlink="http://www.w3.org/1999/xlink" x="0px" y="0px"
	 viewBox="0 0 100 71.5" style="enable-background:new 0 0 100 71.5;" xml:space="preserve">
<style type="text/css">
	.st0{stroke:#FFFFFF;stroke-width:1.2;stroke-miterlimit:10;}
</style>
<g>
	<path class="st0" d="M83,23.8v-7.2c0-2.8-2.2-5-5-5H20c-2.8,0-5,2.2-5,5v38.6c0,2,1.2,3.8,3,4.6v0.4v2h2h2h2h2h2h2h2v-2h2.2v2h2
		h10.2h2v-2h3.1v0.1v2h2h4.1h2v-2v-0.1h18.3c2.8,0,5-2.2,5-5H83h2v-2V43v-2h-2v-5.1h2v-2v-8.1v-2C85,23.8,83,23.8,83,23.8z
		 M36.2,60.2v-2v-6.1h10.2v6.1v2H36.2z M57.6,60.3h-4.1v-0.1v-2v-6.1h4.1v6.1V60.3L57.6,60.3z M83,53.2L83,53.2h-2.1H69.8V43H81h2
		V53.2z M81,41H69.8h-2v2v10.2v2h2h11.1c0,1.6-1.3,3-3,3H59.6v-6.1v-2h-2h-4.1h-2v2v6.1h-3.1v-6.1v-2h-2H36.2h-2v2v6.1H30v2h-2v-2
		h-2v2h-2v-2h-2v2h-2v-2c-1.6,0-3-1.3-3-3V16.6c0-1.6,1.3-3,3-3h58c1.6,0,3,1.3,3,3v7.2h-9.2h-2v2v8.1v2h2H81V41z M83,33.9h-2h-9.2
		v-8.1H81h2V33.9z"/>
	<circle class="st0" cx="31.3" cy="43.7" r="1"/>
	<rect x="20" y="26.4" class="st0" width="4" height="3"/>
	<polygon class="st0" points="24,45.6 22,45.6 22,43.5 24,43.5 24,41.5 22,41.5 22,39.4 24,39.4 24,37.4 22,37.4 22,35.4 24,35.4 
		24,33.4 20,33.4 20,47.7 24,47.7 	"/>
	<circle class="st0" cx="22.1" cy="53.2" r="2"/>
	<path class="st0" d="M22.1,16.7c-1.1,0-2,0.9-2,2s0.9,2,2,2s2-1,2-2C24.1,17.6,23.2,16.7,22.1,16.7z"/>
	<rect x="47.9" y="15.6" class="st0" width="2" height="2"/>
	<rect x="47.9" y="19.6" class="st0" width="2" height="2"/>
	<rect x="43.9" y="15.6" class="st0" width="2" height="2"/>
	<rect x="27.9" y="15.6" class="st0" width="2" height="2"/>
	<rect x="27.9" y="19.6" class="st0" width="2" height="2"/>
	<polygon class="st0" points="31.2,26.4 27.2,26.4 27.2,28.5 29.2,28.5 29.2,30.5 27.2,30.5 27.2,32.6 29.2,32.6 29.2,34.6 
		27.2,34.6 27.2,36.5 31.2,36.5 	"/>
	<path class="st0" d="M27.2,47.7h8.1v-8.1h-8.1C27.2,39.6,27.2,47.7,27.2,47.7z M29.2,41.6h4.1v4.1h-4.1
		C29.2,45.7,29.2,41.6,29.2,41.6z"/>
	<rect x="31.9" y="19.6" class="st0" width="2" height="2"/>
	<rect x="31.9" y="15.6" class="st0" width="2" height="2"/>
	<rect x="35.9" y="19.6" class="st0" width="2" height="2"/>
	<rect x="35.9" y="15.6" class="st0" width="2" height="2"/>
	<rect x="39.9" y="19.6" class="st0" width="2" height="2"/>
	<rect x="39.9" y="15.6" class="st0" width="2" height="2"/>
	<rect x="43.9" y="19.6" class="st0" width="2" height="2"/>
	<rect x="42.4" y="56.2" class="st0" width="2" height="2"/>
	<path class="st0" d="M46.5,26.4h-0.8L45.1,27l-2,2l-0.6,0.6v0.8v7.1v2h2h9.1h2v-2v-9.1v-2h-2H46.5z M53.6,37.5h-9.1v-7.1l2-2h7.1
		V37.5z"/>
	<rect x="51.9" y="19.6" class="st0" width="2" height="2"/>
	<rect x="51.9" y="15.6" class="st0" width="2" height="2"/>
	<rect x="55.9" y="19.6" class="st0" width="2" height="2"/>
	<rect x="55.9" y="15.6" class="st0" width="2" height="2"/>
	<circle class="st0" cx="63.7" cy="53.2" r="2"/>
	<path class="st0" d="M63.7,16.7c-1.1,0-2,0.9-2,2s0.9,2,2,2c1.1,0,2-1,2-2C65.7,17.6,64.8,16.7,63.7,16.7z"/>
	<polygon class="st0" points="76.5,30.9 78.3,31.7 78.3,30.7 77.5,30 77.5,29.7 78.3,29 78.3,28 76.5,28.8 	"/>
	<polygon class="st0" points="75.5,49.2 77.3,50 77.3,49 76.5,48.3 76.5,47.9 77.3,47.3 77.3,46.3 75.5,47.1 	"/>
</g>
</svg>
