<?xml version="1.0" encoding="utf-8"?>
<!-- Generator: Adobe Illustrator 24.2.1, SVG Export Plug-In . SVG Version: 6.00 Build 0)  -->
<svg version="1.1" id="Layer_1" xmlns="http://www.w3.org/2000/svg" xmlns:xlink="http://www.w3.org/1999/xlink" x="0px" y="0px"
	 viewBox="0 0 150 150" style="enable-background:new 0 0 150 150;" xml:space="preserve">
<style type="text/css">
	.st0{fill:#FFFFFF;}
	.st1{fill:none;stroke:#000000;stroke-width:4;stroke-miterlimit:10;}
	.st2{fill:#FFFFFF;stroke:#000000;stroke-width:4;stroke-miterlimit:10;}
</style>
<g>
	<path class="st0" d="M115.3,128.8c0,2.6-2.1,4.7-4.7,4.7H41.5c-2.6,0-4.7-2.1-4.7-4.7V21.4c0-2.6,2.1-4.7,4.7-4.7h69.1
		c2.6,0,4.7,2.1,4.7,4.7C115.3,21.4,115.3,128.8,115.3,128.8z"/>
	<path class="st1" d="M115.3,128.8c0,2.6-2.1,4.7-4.7,4.7H41.5c-2.6,0-4.7-2.1-4.7-4.7V21.4c0-2.6,2.1-4.7,4.7-4.7h69.1
		c2.6,0,4.7,2.1,4.7,4.7C115.3,21.4,115.3,128.8,115.3,128.8z"/>
</g>
<g>
	<path class="st0" d="M103,50c0,2.6-2.1,4.7-4.7,4.7H53.8c-2.6,0-4.7-2.1-4.7-4.7V31.2c0-2.6,2.1-4.7,4.7-4.7h44.4
		c2.6,0,4.7,2.1,4.7,4.7L103,50L103,50z"/>
	<path class="st1" d="M103,50c0,2.6-2.1,4.7-4.7,4.7H53.8c-2.6,0-4.7-2.1-4.7-4.7V31.2c0-2.6,2.1-4.7,4.7-4.7h44.4
		c2.6,0,4.7,2.1,4.7,4.7L103,50L103,50z"/>
</g>
<circle class="st2" cx="56.3" cy="33.3" r="1.7"/>
</svg>
