<svg xmlns="http://www.w3.org/2000/svg" viewBox="0 0 2995.795 1783.962"><defs><style>.cls-1,.cls-33{fill:#9bb1c7;}.cls-2{fill:#c3def9;}.cls-3{fill:#e6e6e6;}.cls-11,.cls-4{font-size:24px;font-family:CircularStd-Book, Circular Std;}.cls-5{letter-spacing:-0.005em;}.cls-6{letter-spacing:-0.03em;}.cls-7{letter-spacing:-0.02em;}.cls-8{letter-spacing:-0.01em;}.cls-9{letter-spacing:-0.055em;}.cls-10{letter-spacing:0em;}.cls-11{fill:#fff;}.cls-12{letter-spacing:-0.04em;}.cls-13{letter-spacing:-0.02em;}.cls-14{letter-spacing:-0.085em;}.cls-15{letter-spacing:-0.025em;}.cls-16{letter-spacing:-0.005em;}.cls-17{letter-spacing:-0.01em;}.cls-18{letter-spacing:0.015em;}.cls-19{letter-spacing:-0.055em;}.cls-20{letter-spacing:-0.015em;}.cls-21{letter-spacing:0.005em;}.cls-22{letter-spacing:0.03em;}.cls-23{letter-spacing:-0.025em;}.cls-24{letter-spacing:-0.03em;}.cls-25{letter-spacing:0em;}.cls-26{letter-spacing:0.025em;}.cls-27,.cls-28,.cls-30,.cls-31,.cls-34{fill:none;stroke-miterlimit:10;}.cls-27,.cls-30,.cls-34{stroke:#9bb1c7;}.cls-27,.cls-31{stroke-linecap:round;}.cls-27,.cls-28,.cls-30{stroke-width:3px;}.cls-28{stroke:#b3b3b3;}.cls-29{fill:#b3b3b3;}.cls-31{stroke:#223547;stroke-width:4px;stroke-dasharray:14.057 22.09;}.cls-32{letter-spacing:-0.035em;}.cls-33{fill-rule:evenodd;}.cls-34{stroke-width:6px;}</style></defs><g id="Layer_4" data-name="Layer 4"><rect class="cls-1" x="76.538" y="47.983" width="263.751" height="67.624" rx="25"/><rect class="cls-1" x="391.526" y="280.943" width="230.173" height="67.624" rx="25"/><rect class="cls-1" x="1840.541" y="343.037" width="311.478" height="67.624" rx="25"/><rect class="cls-1" x="1875.946" y="951.782" width="240.668" height="67.624" rx="25"/><rect class="cls-1" x="262.157" y="910.592" width="67.624" height="67.624" rx="25"/><rect class="cls-1" x="1833.094" y="1554.849" width="326.373" height="90.586" rx="25"/><rect class="cls-1" x="1360.365" y="751.589" width="279.787" height="67.624" rx="25"/><rect class="cls-1" x="595.108" y="1566.33" width="259.992" height="67.624" rx="25"/><rect class="cls-2" x="113.117" y="343.037" width="190.594" height="67.624" rx="25"/><rect class="cls-2" x="725.104" y="343.037" width="244.556" height="67.624" rx="25"/><rect class="cls-2" x="1386.138" y="343.037" width="244.556" height="67.624" rx="25"/><rect class="cls-2" x="2559.844" y="344.626" width="416.073" height="85.594" rx="25"/><rect class="cls-3" x="84.73" y="198.015" width="247.368" height="67.624" rx="25"/><rect class="cls-3" x="1059.124" y="280.943" width="237.549" height="67.624" rx="25"/><rect class="cls-3" x="2322.83" y="169.868" width="214.896" height="67.624" rx="25"/><rect class="cls-3" x="2294.805" y="530.709" width="270.947" height="67.624" rx="25"/><rect class="cls-2" x="2575.315" y="1044.331" width="385.131" height="104.314" rx="25"/><rect class="cls-2" x="2575.315" y="1202.354" width="385.131" height="87.594" rx="25"/><rect class="cls-2" x="2575.315" y="1347.083" width="385.131" height="85.594" rx="25"/><rect class="cls-2" x="2575.315" y="1481.451" width="385.131" height="104.314" rx="25"/><rect class="cls-3" x="2253.894" y="880.949" width="365.74" height="67.624" rx="25"/><rect class="cls-2" x="262.157" y="1069.821" width="67.624" height="67.624" rx="25"/><rect class="cls-3" x="262.157" y="1234.809" width="67.624" height="67.624" rx="25"/></g><g id="Layer_1" data-name="Layer 1"><text class="cls-4" transform="translate(148.798 385.536)"><tspan class="cls-5">L</tspan><tspan x="13.032" y="0">ogin </tspan><tspan class="cls-6" x="66.191" y="0">P</tspan><tspan x="79.799" y="0">age</tspan></text><text class="cls-4" transform="translate(771.363 385.535)">PPE <tspan class="cls-7" x="48.599" y="0">R</tspan><tspan x="62.975" y="0">eminder</tspan></text><text class="cls-4" transform="translate(1411.373 385.536)">Listing <tspan class="cls-5" x="78.022" y="0">t</tspan><tspan x="86.423" y="0">od</tspan><tspan class="cls-8" x="114.263" y="0">a</tspan><tspan x="126.574" y="0">y</tspan><tspan class="cls-9" x="139.126" y="0">’</tspan><tspan class="cls-10" x="143.183" y="0">s job</tspan></text><text class="cls-4" transform="translate(1907.493 137.329)">Daily <tspan class="cls-5" x="60.551" y="0">ro</tspan><tspan x="82.847" y="0">utine job</tspan><tspan class="cls-7" x="3.564" y="28.8">f</tspan><tspan x="11.316" y="28.8">or each patient</tspan></text><text class="cls-11" transform="translate(108.479 91.19)"><tspan class="cls-7">P</tspan><tspan x="13.848" y="0">ut on </tspan><tspan class="cls-5" x="75.167" y="0">S</tspan><tspan x="89.28" y="0">UPERvi</tspan><tspan class="cls-5" x="166.606" y="0">s</tspan><tspan x="177.335" y="0">or</tspan></text><text class="cls-11" transform="translate(420.189 323.441)">In<tspan class="cls-5" x="20.208" y="0">p</tspan><tspan x="34.32" y="0">ut name</tspan><tspan class="cls-12" x="122.039" y="0" xml:space="preserve"> &amp;</tspan><tspan x="142.847" y="0" xml:space="preserve"> ID</tspan></text><text class="cls-11" transform="translate(1873.329 386.244)"><tspan class="cls-7">R</tspan><tspan x="14.376" y="0">ead basic patient in</tspan><tspan class="cls-13" x="224.421" y="0">f</tspan><tspan x="232.173" y="0">o</tspan></text><text class="cls-11" transform="translate(1916.816 994.989)"><tspan class="cls-14">T</tspan><tspan x="12.168" y="0">a</tspan><tspan class="cls-15" x="24.72" y="0">k</tspan><tspan x="36.72" y="0">e </tspan><tspan class="cls-5" x="55.728" y="0">sw</tspan><tspan x="85.369" y="0">ab </tspan><tspan class="cls-16" x="118.152" y="0">t</tspan><tspan x="126.552" y="0">est</tspan></text><text class="cls-11" transform="translate(1399.196 794.796)">(in need of <tspan class="cls-5" x="120.381" y="0">r</tspan><tspan x="129.069" y="0">esting)</tspan></text><text class="cls-11" transform="translate(1866.633 1595.137)"><tspan class="cls-13">P</tspan><tspan x="13.848" y="0">ut on additional </tspan><tspan class="cls-16" x="188.47" y="0">r</tspan><tspan x="197.157" y="0">e</tspan><tspan class="cls-5" x="210.165" y="0">c</tspan><tspan x="222.765" y="0">o</tspan><tspan class="cls-5" x="236.493" y="0">r</tspan><tspan x="245.181" y="0">d </tspan><tspan x="65.58" y="28.8">if ne</tspan><tspan class="cls-5" x="112.378" y="28.8">c</tspan><tspan x="124.979" y="28.8">es</tspan><tspan class="cls-17" x="148.834" y="28.8">s</tspan><tspan x="159.442" y="28.8">a</tspan><tspan class="cls-18" x="171.994" y="28.8">r</tspan><tspan x="181.162" y="28.8">y</tspan></text><text class="cls-11" transform="translate(627.604 1609.537)">“<tspan class="cls-5" x="9.336" y="0">L</tspan><tspan x="22.368" y="0">e</tspan><tspan class="cls-15" x="35.376" y="0">t</tspan><tspan class="cls-19" x="43.296" y="0">’</tspan><tspan x="47.352" y="0">s </tspan><tspan class="cls-5" x="64.2" y="0">c</tspan><tspan x="76.8" y="0">all it a d</tspan><tspan class="cls-17" x="160.798" y="0">a</tspan><tspan x="173.11" y="0">y”</tspan></text><text class="cls-4" transform="translate(2631.13 381.71)"><tspan class="cls-20">P</tspan><tspan class="cls-5" x="13.968" y="0">r</tspan><tspan x="22.656" y="0">e</tspan><tspan class="cls-16" x="35.664" y="0">s</tspan><tspan x="46.391" y="0">ent in</tspan><tspan class="cls-7" x="106.966" y="0">f</tspan><tspan x="114.718" y="0">ormation if the </tspan><tspan x="-33.024" y="28.8">patien</tspan><tspan class="cls-21" x="34.847" y="28.8">t</tspan><tspan class="cls-19" x="43.486" y="28.8">s</tspan><tspan x="53.014" y="28.8">’ </tspan><tspan class="cls-20" x="64.39" y="28.8">f</tspan><tspan x="72.262" y="28.8">a</tspan><tspan class="cls-5" x="84.813" y="28.8">c</tspan><tspan x="97.414" y="28.8">es </tspan><tspan class="cls-8" x="127.269" y="28.8">w</tspan><tspan x="146.061" y="28.8">e</tspan><tspan class="cls-5" x="159.069" y="28.8">r</tspan><tspan x="167.757" y="28.8">e </tspan><tspan class="cls-5" x="186.765" y="28.8">r</tspan><tspan x="195.453" y="28.8">e</tspan><tspan class="cls-5" x="208.46" y="28.8">c</tspan><tspan x="221.061" y="28.8">ognized</tspan></text><text class="cls-4" transform="translate(102.407 240.514)">“<tspan class="cls-5" x="9.336" y="0">S</tspan><tspan x="23.448" y="0">UPERvi</tspan><tspan class="cls-5" x="100.774" y="0">s</tspan><tspan x="111.503" y="0">or: Hell</tspan><tspan class="cls-12" x="189.909" y="0">o</tspan><tspan x="202.677" y="0">”</tspan></text><text class="cls-4" transform="translate(1082.092 323.441)">“<tspan class="cls-5" x="9.336" y="0">S</tspan><tspan x="23.448" y="0">UPERvi</tspan><tspan class="cls-5" x="100.774" y="0">s</tspan><tspan x="111.503" y="0">or: OK”</tspan></text><text class="cls-4" transform="translate(2358.231 212.367)">“<tspan class="cls-5" x="9.336" y="0">S</tspan><tspan x="23.448" y="0">UPERvi</tspan><tspan class="cls-5" x="100.775" y="0">s</tspan><tspan x="111.503" y="0">o</tspan><tspan class="cls-22" x="125.231" y="0">r</tspan><tspan x="134.758" y="0">”</tspan></text><text class="cls-4" transform="translate(2321.871 573.208)">“<tspan class="cls-5" x="9.336" y="0">S</tspan><tspan x="23.448" y="0">UPERvi</tspan><tspan class="cls-5" x="100.775" y="0">s</tspan><tspan x="111.503" y="0">or: G</tspan><tspan class="cls-5" x="165.358" y="0">o</tspan><tspan x="178.966" y="0">t i</tspan><tspan class="cls-23" x="199.558" y="0">t</tspan><tspan x="207.479" y="0">”</tspan></text><text class="cls-4" transform="translate(2623.088 1076.375)"><tspan class="cls-17">S</tspan><tspan class="cls-5" x="13.992" y="0">c</tspan><tspan x="26.592" y="0">an bar </tspan><tspan class="cls-16" x="100.223" y="0">c</tspan><tspan x="112.823" y="0">ode of </tspan><tspan class="cls-5" x="187.629" y="0">sw</tspan><tspan x="217.27" y="0">ab </tspan><tspan class="cls-5" x="250.053" y="0">t</tspan><tspan x="258.454" y="0">est </tspan><tspan class="cls-17" x="-21.851" y="28.8">s</tspan><tspan x="-11.243" y="28.8">ample and link it with patien</tspan><tspan class="cls-21" x="293.193" y="28.8">t</tspan><tspan x="301.833" y="28.8">s </tspan><tspan x="83.508" y="57.6">in databa</tspan><tspan class="cls-5" x="183.586" y="57.6">s</tspan><tspan x="194.314" y="57.6">e</tspan></text><text class="cls-4" transform="translate(2288.769 923.448)">“<tspan class="cls-5" x="9.336" y="0">S</tspan><tspan x="23.448" y="0">UPERvi</tspan><tspan class="cls-5" x="100.774" y="0">s</tspan><tspan x="111.503" y="0">or: </tspan><tspan class="cls-13" x="146.998" y="0">S</tspan><tspan class="cls-5" x="160.75" y="0">w</tspan><tspan x="179.662" y="0">ab </tspan><tspan class="cls-5" x="212.445" y="0">t</tspan><tspan x="220.846" y="0">esting”</tspan></text><text class="cls-4" transform="translate(2604.5 1239.439)"><tspan class="cls-24">P</tspan><tspan x="13.608" y="0">aige </tspan><tspan class="cls-16" x="65.111" y="0">p</tspan><tspan x="79.222" y="0">ulls </tspan><tspan class="cls-5" x="121.845" y="0">o</tspan><tspan x="135.453" y="0">ut a </tspan><tspan class="cls-5" x="182.109" y="0">sw</tspan><tspan x="211.75" y="0">ab and u</tspan><tspan class="cls-5" x="304.268" y="0">s</tspan><tspan x="314.996" y="0">e </tspan><tspan class="cls-5" x="-11.124" y="28.8">S</tspan><tspan x="2.988" y="28.8">UPERvi</tspan><tspan class="cls-5" x="80.315" y="28.8">s</tspan><tspan x="91.043" y="28.8">or </tspan><tspan class="cls-16" x="119.579" y="28.8">t</tspan><tspan x="127.979" y="28.8">o </tspan><tspan class="cls-5" x="147.707" y="28.8">sc</tspan><tspan x="171.035" y="28.8">an the bar </tspan><tspan class="cls-16" x="285.681" y="28.8">c</tspan><tspan x="298.281" y="28.8">ode</tspan></text><text class="cls-4" transform="translate(2608.652 1379.987)"><tspan class="cls-24">P</tspan><tspan x="13.608" y="0">aige u</tspan><tspan class="cls-16" x="78.695" y="0">s</tspan><tspan x="89.422" y="0">es the </tspan><tspan class="cls-5" x="160.293" y="0">sw</tspan><tspan x="189.934" y="0">ab </tspan><tspan class="cls-5" x="222.717" y="0">t</tspan><tspan class="cls-10" x="231.118" y="0">o do the </tspan><tspan class="cls-5" x="107.807" y="28.8">sw</tspan><tspan x="137.448" y="28.8">abbing</tspan></text><text class="cls-4" transform="translate(2608.964 1514.495)"><tspan class="cls-6">P</tspan><tspan x="13.607" y="0">aige </tspan><tspan class="cls-5" x="65.11" y="0">c</tspan><tspan x="77.711" y="0">ollec</tspan><tspan class="cls-21" x="129.357" y="0">t</tspan><tspan class="cls-25" x="137.997" y="0">s the </tspan><tspan class="cls-8" x="195.861" y="0">s</tspan><tspan x="206.469" y="0">ample and </tspan><tspan class="cls-5" x="20.952" y="28.8">c</tspan><tspan x="33.552" y="28.8">ar</tspan><tspan class="cls-18" x="54.912" y="28.8">r</tspan><tspan x="64.079" y="28.8">y them </tspan><tspan class="cls-5" x="144.214" y="28.8">t</tspan><tspan x="152.615" y="28.8">o the anal</tspan><tspan class="cls-17" x="258.045" y="28.8">y</tspan><tspan x="270.357" y="28.8">sis </tspan><tspan x="95.951" y="57.6">depa</tspan><tspan class="cls-26" x="149.854" y="57.6">r</tspan><tspan class="cls-17" x="159.262" y="57.6">t</tspan><tspan x="167.542" y="57.6">ment</tspan></text><line class="cls-27" x1="2768.503" y1="1157.625" x2="2768.503" y2="1190.121"/><polygon class="cls-1" points="2756.233 1180.18 2758.431 1178.134 2768.5 1188.969 2778.572 1178.134 2780.77 1180.18 2768.5 1193.374 2756.233 1180.18"/><line class="cls-27" x1="2768.503" y1="1300.641" x2="2768.503" y2="1333.137"/><polygon class="cls-1" points="2756.233 1323.196 2758.431 1321.15 2768.5 1331.985 2778.572 1321.15 2780.77 1323.196 2768.5 1336.39 2756.233 1323.196"/><line class="cls-27" x1="2768.503" y1="1439.19" x2="2768.503" y2="1471.685"/><polygon class="cls-1" points="2756.233 1461.745 2758.431 1459.698 2768.5 1470.534 2778.572 1459.698 2780.77 1461.745 2768.5 1474.939 2756.233 1461.745"/><line class="cls-28" x1="208.414" y1="278.815" x2="208.414" y2="327.087"/><polygon class="cls-29" points="196.144 317.146 198.341 315.1 208.411 325.935 218.483 315.1 220.68 317.146 208.411 330.34 196.144 317.146"/><line class="cls-30" x1="345.785" y1="380.368" x2="672.186" y2="380.368"/><polygon class="cls-1" points="662.246 392.638 660.199 390.44 671.035 380.371 660.199 370.299 662.246 368.101 675.44 380.371 662.246 392.638"/><line class="cls-28" x1="208.414" y1="131.048" x2="208.414" y2="179.32"/><polygon class="cls-29" points="196.144 169.38 198.341 167.333 208.411 178.169 218.483 167.333 220.68 169.38 208.411 182.574 196.144 169.38"/><line class="cls-30" x1="1013.072" y1="380.368" x2="1339.473" y2="380.368"/><polygon class="cls-1" points="1329.532 392.638 1327.486 390.44 1338.321 380.371 1327.486 370.299 1329.532 368.101 1342.726 380.371 1329.532 392.638"/><line class="cls-30" x1="906.726" y1="1618.396" x2="1814.371" y2="1618.396"/><polygon class="cls-1" points="916.666 1630.666 918.713 1628.468 907.877 1618.399 918.713 1608.327 916.666 1606.13 903.472 1618.399 916.666 1630.666"/><polyline class="cls-30" points="1814.371 1604.89 1341.196 1604.89 1341.196 1442.443"/><polygon class="cls-1" points="1353.466 1452.384 1351.269 1454.43 1341.199 1443.595 1331.127 1454.43 1328.93 1452.384 1341.199 1439.189 1353.466 1452.384"/><polyline class="cls-30" points="2680.692 312.215 2680.692 270.298 2000.201 270.298 2000.201 315.469"/><polygon class="cls-1" points="2692.962 302.275 2690.765 300.229 2680.695 311.064 2670.623 300.229 2668.426 302.275 2680.695 315.469 2692.962 302.275"/><polyline class="cls-30" points="2182.525 376.848 2226.574 376.848 2226.574 1600.849 2179.272 1600.849"/><polygon class="cls-1" points="2192.466 389.118 2194.512 386.921 2183.677 376.851 2194.512 366.779 2192.466 364.582 2179.272 376.851 2192.466 389.118"/><rect class="cls-2" x="2235.395" y="625.414" width="385.131" height="85.594" rx="25"/><text class="cls-4" transform="translate(2278.795 662.498)"><tspan class="cls-23">A</tspan><tspan x="16.128" y="0">u</tspan><tspan class="cls-16" x="29.712" y="0">t</tspan><tspan x="38.112" y="0">omati</tspan><tspan class="cls-5" x="99.551" y="0">c</tspan><tspan x="112.152" y="0">ally ta</tspan><tspan class="cls-15" x="176.519" y="0">k</tspan><tspan x="188.519" y="0">e patien</tspan><tspan class="cls-21" x="275.397" y="0">t</tspan><tspan class="cls-19" x="284.037" y="0">s</tspan><tspan x="293.565" y="0">’ </tspan><tspan x="-9.516" y="28.8">body </tspan><tspan class="cls-5" x="51.107" y="28.8">t</tspan><tspan x="59.507" y="28.8">emperatu</tspan><tspan class="cls-16" x="163.786" y="28.8">r</tspan><tspan x="172.474" y="28.8">e and </tspan><tspan class="cls-5" x="237.633" y="28.8">r</tspan><tspan x="246.321" y="28.8">e</tspan><tspan class="cls-5" x="259.329" y="28.8">c</tspan><tspan x="271.929" y="28.8">o</tspan><tspan class="cls-5" x="285.657" y="28.8">r</tspan><tspan x="294.345" y="28.8">d</tspan></text><rect class="cls-31" x="1785.695" y="203.68" width="421.169" height="1503.251" rx="10"/><polyline class="cls-30" points="2680.696 451.587 2680.696 495.827 2000.204 495.827 2000.204 454.841"/><polygon class="cls-1" points="2012.473 464.782 2010.276 466.828 2000.207 455.993 1990.135 466.828 1987.937 464.782 2000.207 451.587 2012.473 464.782"/><polyline class="cls-30" points="2680.692 1029.921 2680.692 974.197 2142.105 974.197"/><polygon class="cls-1" points="2692.961 1019.981 2690.764 1017.934 2680.695 1028.77 2670.623 1017.934 2668.425 1019.981 2680.695 1033.174 2692.961 1019.981"/><polyline class="cls-30" points="2680.692 1600.062 2680.692 1645.435 2518.27 1645.435 2518.27 997.285 2145.359 997.285"/><polygon class="cls-1" points="2155.3 985.015 2157.346 987.212 2146.511 997.282 2157.346 1007.354 2155.3 1009.551 2142.106 997.282 2155.3 985.015"/><line class="cls-30" x1="1969.792" y1="451.587" x2="1969.792" y2="897.737"/><polygon class="cls-1" points="1957.522 887.797 1959.719 885.751 1969.789 896.586 1979.861 885.751 1982.058 887.797 1969.789 900.991 1957.522 887.797"/><line class="cls-30" x1="1969.792" y1="1063.247" x2="1969.792" y2="1509.397"/><polygon class="cls-1" points="1957.522 1499.456 1959.719 1497.41 1969.789 1508.245 1979.861 1497.41 1982.058 1499.456 1969.789 1512.65 1957.522 1499.456"/><line class="cls-30" x1="1656.49" y1="380.368" x2="1811.117" y2="380.368"/><polygon class="cls-1" points="1801.177 392.638 1799.13 390.44 1809.966 380.371 1799.13 370.299 1801.177 368.101 1814.371 380.371 1801.177 392.638"/><line class="cls-30" x1="1493.123" y1="737.264" x2="1493.123" y2="687.58"/><polygon class="cls-1" points="1505.393 697.52 1503.196 699.567 1493.126 688.731 1483.054 699.567 1480.857 697.52 1493.126 684.326 1505.393 697.52"/><line class="cls-30" x1="1667.92" y1="838.023" x2="1812.164" y2="933.1"/><polygon class="cls-1" points="1669.467 853.738 1672.385 853.029 1668.88 838.659 1683.47 836.212 1682.97 833.252 1665.202 836.235 1669.467 853.738"/><rect class="cls-3" x="1403.994" y="1509.032" width="333.805" height="67.624" rx="25"/><rect class="cls-3" x="1398.343" y="1078.602" width="333.805" height="67.624" rx="25"/><text class="cls-4" transform="translate(1450.489 1551.53)">“<tspan class="cls-5" x="9.336" y="0">S</tspan><tspan x="23.448" y="0">UPERvi</tspan><tspan class="cls-5" x="100.775" y="0">s</tspan><tspan x="111.503" y="0">or: </tspan><tspan class="cls-8" x="146.999" y="0">A</tspan><tspan x="163.486" y="0">dd n</tspan><tspan class="cls-5" x="211.197" y="0">ot</tspan><tspan class="cls-12" x="233.206" y="0">e</tspan><tspan x="245.254" y="0">”</tspan></text><text class="cls-4" transform="translate(1439.774 1121.101)"><tspan class="cls-5">S</tspan><tspan x="14.112" y="0">UPERvi</tspan><tspan class="cls-5" x="91.438" y="0">s</tspan><tspan x="102.167" y="0">or: N</tspan><tspan class="cls-16" x="155.974" y="0">ot</tspan><tspan x="177.981" y="0">e ended</tspan></text><rect class="cls-2" x="1148.631" y="1319.648" width="385.131" height="85.594" rx="25"/><rect class="cls-2" x="1300.558" y="584.408" width="385.131" height="85.594" rx="25"/><text class="cls-4" transform="translate(1207.685 1356.731)"><tspan class="cls-23">A</tspan><tspan class="cls-16" x="16.128" y="0">u</tspan><tspan x="29.592" y="0">dio </tspan><tspan class="cls-5" x="69.503" y="0">t</tspan><tspan x="77.903" y="0">o </tspan><tspan class="cls-5" x="97.631" y="0">te</tspan><tspan class="cls-21" x="118.92" y="0">x</tspan><tspan x="130.823" y="0">t enabled, </tspan><tspan class="cls-16" x="244.893" y="0">t</tspan><tspan x="253.293" y="0">o </tspan><tspan class="cls-5" x="-30.755" y="28.8">r</tspan><tspan x="-22.067" y="28.8">e</tspan><tspan class="cls-5" x="-9.06" y="28.8">c</tspan><tspan x="3.541" y="28.8">o</tspan><tspan class="cls-16" x="17.269" y="28.8">r</tspan><tspan x="25.956" y="28.8">d </tspan><tspan class="cls-24" x="46.068" y="28.8">P</tspan><tspan x="59.676" y="28.8">aig</tspan><tspan class="cls-12" x="92.171" y="28.8">e</tspan><tspan class="cls-19" x="104.219" y="28.8">’</tspan><tspan x="108.275" y="28.8">s additional n</tspan><tspan class="cls-5" x="251.913" y="28.8">ot</tspan><tspan x="273.922" y="28.8">es</tspan></text><text class="cls-4" transform="translate(1327.663 621.492)"><tspan class="cls-32">F</tspan><tspan x="12.384" y="0">ati</tspan><tspan class="cls-5" x="39.528" y="0">gu</tspan><tspan x="66.744" y="0">e and possible </tspan><tspan class="cls-16" x="226.965" y="0">e</tspan><tspan x="239.853" y="0">xpo</tspan><tspan class="cls-5" x="279.596" y="0">s</tspan><tspan x="290.324" y="0">u</tspan><tspan class="cls-5" x="303.908" y="0">r</tspan><tspan x="312.596" y="0">e </tspan><tspan class="cls-5" x="113.927" y="28.8">r</tspan><tspan x="122.615" y="28.8">eminder</tspan></text><polyline class="cls-30" points="1341.196 1290.885 1341.196 1175.499 1760.311 1175.499 1760.311 1589.123 1811.117 1589.123"/><polygon class="cls-1" points="1801.177 1601.392 1799.13 1599.195 1809.966 1589.126 1799.13 1579.054 1801.177 1576.856 1814.371 1589.126 1801.177 1601.392"/><line class="cls-30" x1="1811.646" y1="455.802" x2="1665.203" y2="551.389"/><polygon class="cls-1" points="1796.616 450.961 1796.103 453.92 1810.68 456.429 1807.112 470.786 1810.027 471.508 1814.369 454.021 1796.616 450.961"/><path class="cls-33" d="M150.907,896.723a13.2,13.2,0,1,1-13.2,13.2A13.2,13.2,0,0,1,150.907,896.723Zm-2.729,28.124.305.1a13.242,13.242,0,0,0,2.659.268l2.54-.256,1.5,3.558-2.314,1.294,1.27,2.207-3.224,7.411L147.684,932l1.261-2.188-2.315-1.294Zm-5.943.615,8.672,20.037,8.674-20.037.318.1c8.41,3.444,14.8,11.58,16.627,21.574l.087.979H125.2l.088-.979c1.829-9.994,8.217-18.13,16.628-21.574Zm19.294,9.554a.515.515,0,0,0-.515.516v2.631h-2.631a.516.516,0,0,0-.517.516v2.062a.517.517,0,0,0,.517.516h2.631v2.631a.516.516,0,0,0,.515.516h2.063a.517.517,0,0,0,.517-.516v-2.631h2.63a.515.515,0,0,0,.515-.516v-2.062a.514.514,0,0,0-.515-.516h-2.63v-2.631a.516.516,0,0,0-.517-.516Z"/><rect class="cls-34" x="125.653" y="1063.711" width="50.508" height="36.04" rx="5"/><path class="cls-29" d="M143.575,1229.355a1.912,1.912,0,0,0-1.913,1.912h0v44a1.913,1.913,0,0,0,3.825,0v-44a1.912,1.912,0,0,0-1.912-1.913Z"/><path class="cls-29" d="M136.242,1237.909a1.913,1.913,0,0,0-1.913,1.912h0v26.887a1.913,1.913,0,0,0,3.826,0v-26.887a1.913,1.913,0,0,0-1.913-1.913Z"/><path class="cls-29" d="M150.907,1237.909a1.913,1.913,0,0,0-1.913,1.912h0v26.887a1.913,1.913,0,0,0,3.826,0v-26.887a1.913,1.913,0,0,0-1.912-1.913Z"/><path class="cls-29" d="M165.573,1237.909a1.912,1.912,0,0,0-1.913,1.912h0v26.887a1.913,1.913,0,0,0,3.825,0v-26.887a1.912,1.912,0,0,0-1.912-1.913Z"/><path class="cls-29" d="M158.24,1245.242a1.913,1.913,0,0,0-1.913,1.912h0v12.221a1.913,1.913,0,1,0,3.826,0v-12.223a1.912,1.912,0,0,0-1.913-1.913Z"/><path class="cls-29" d="M172.905,1245.242a1.913,1.913,0,0,0-1.913,1.912h0v12.221a1.913,1.913,0,1,0,3.826,0v-12.223a1.912,1.912,0,0,0-1.912-1.913Z"/><path class="cls-29" d="M128.909,1245.242a1.913,1.913,0,0,0-1.913,1.912h0v12.221a1.913,1.913,0,1,0,3.826,0v-12.223a1.912,1.912,0,0,0-1.912-1.913Z"/><text class="cls-4" transform="translate(79.676 1313.421)"><tspan class="cls-19">V</tspan><tspan x="14.448" y="0">oi</tspan><tspan class="cls-5" x="34.248" y="0">c</tspan><tspan x="46.849" y="0">e </tspan><tspan class="cls-16" x="65.856" y="0">c</tspan><tspan x="78.456" y="0">on</tspan><tspan class="cls-8" x="105.672" y="0">t</tspan><tspan class="cls-5" x="113.952" y="0">r</tspan><tspan x="122.64" y="0">ol</tspan></text><text class="cls-4" transform="translate(88.556 1146.132)"><tspan class="cls-5">S</tspan><tspan x="14.112" y="0">UPERvi</tspan><tspan class="cls-5" x="91.439" y="0">s</tspan><tspan x="102.167" y="0">or</tspan></text><text class="cls-4" transform="translate(113.576 986.12)">Doc<tspan class="cls-5" x="43.728" y="0">t</tspan><tspan x="52.128" y="0">or</tspan></text></g></svg>