<?xml version="1.0" encoding="utf-8"?>
<!-- Generator: Adobe Illustrator 24.0.3, SVG Export Plug-In . SVG Version: 6.00 Build 0)  -->
<svg version="1.1" id="Layer_1" xmlns="http://www.w3.org/2000/svg" xmlns:xlink="http://www.w3.org/1999/xlink" x="0px" y="0px"
	 viewBox="0 0 150 150" style="enable-background:new 0 0 150 150;" xml:space="preserve">
<style type="text/css">
	.st0{fill:none;stroke:#000000;stroke-width:3;stroke-linecap:round;stroke-linejoin:round;}
</style>
<polyline class="st0" points="82.1,126.3 82.1,109.3 82.1,92.4 82.1,75.4 82.1,58.4 96.8,49.9 "/>
<polyline class="st0" points="52.7,24.5 67.4,33 82.1,24.5 "/>
<polyline class="st0" points="67.4,33 67.4,49.9 82.1,58.4 "/>
<polyline class="st0" points="38,49.9 52.7,58.4 67.4,49.9 "/>
<polyline class="st0" points="52.7,92.4 52.7,75.4 52.7,58.4 "/>
<polyline class="st0" points="96.8,100.8 111.5,92.4 111.5,75.4 "/>
<polyline class="st0" points="96.8,49.9 111.5,58.4 111.5,75.4 "/>
<polyline class="st0" points="82.1,41.5 96.8,49.9 96.8,66.9 "/>
<polyline class="st0" points="82.1,24.5 96.8,33 96.8,49.9 "/>
<polyline class="st0" points="82.1,126.3 96.8,117.8 96.8,100.8 "/>
<polyline class="st0" points="52.7,109.3 52.7,126.3 67.4,134.8 82.1,126.3 "/>
<polyline class="st0" points="52.7,41.5 52.7,24.5 67.4,16 82.1,24.5 "/>
<polyline class="st0" points="38,66.9 38,49.9 52.7,41.5 "/>
<polyline class="st0" points="38,66.9 38,83.9 52.7,92.4 "/>
<line class="st0" x1="82.1" y1="24.5" x2="82.1" y2="41.5"/>
<line class="st0" x1="52.7" y1="92.4" x2="67.4" y2="83.9"/>
<line class="st0" x1="96.8" y1="66.9" x2="111.5" y2="58.4"/>
<line class="st0" x1="82.1" y1="41.5" x2="96.8" y2="33"/>
<line class="st0" x1="67.4" y1="134.8" x2="67.4" y2="117.8"/>
<line class="st0" x1="67.4" y1="117.8" x2="82.1" y2="126.3"/>
<line class="st0" x1="52.7" y1="109.3" x2="52.7" y2="92.4"/>
</svg>
